<?xml version="1.0" encoding="UTF-8" standalone="no"?>
<!-- Created with Inkscape (http://www.inkscape.org/) -->

<svg
   width="43.019081mm"
   height="40.280346mm"
   viewBox="0 0 43.019081 40.280347"
   version="1.1"
   id="svg174541"
   xml:space="preserve"
   inkscape:version="1.2.1 (9c6d41e410, 2022-07-14)"
   sodipodi:docname="board-MAMH.svg"
   xmlns:inkscape="http://www.inkscape.org/namespaces/inkscape"
   xmlns:sodipodi="http://sodipodi.sourceforge.net/DTD/sodipodi-0.dtd"
   xmlns="http://www.w3.org/2000/svg"
   xmlns:svg="http://www.w3.org/2000/svg"><sodipodi:namedview
     id="namedview174543"
     pagecolor="#ffffff"
     bordercolor="#666666"
     borderopacity="1.0"
     inkscape:showpageshadow="2"
     inkscape:pageopacity="0.0"
     inkscape:pagecheckerboard="0"
     inkscape:deskcolor="#d1d1d1"
     inkscape:document-units="mm"
     showgrid="false"
     inkscape:zoom="10.61303"
     inkscape:cx="69.348716"
     inkscape:cy="74.201241"
     inkscape:window-width="3840"
     inkscape:window-height="2050"
     inkscape:window-x="-12"
     inkscape:window-y="-12"
     inkscape:window-maximized="1"
     inkscape:current-layer="layer4" /><defs
     id="defs174538">
	
	
	
	
	
	
	
	
	
<inkscape:path-effect
   effect="powerstroke"
   id="path-effect62274"
   is_visible="true"
   lpeversion="1"
   offset_points="0.16,0.55000001 | 1.6,0.55000001 | 3.84,0.55000001"
   not_jump="false"
   sort_points="true"
   interpolator_type="CentripetalCatmullRom"
   interpolator_beta="0.2"
   start_linecap_type="round"
   linejoin_type="round"
   miter_limit="4"
   scale_width="1"
   end_linecap_type="round" /><inkscape:path-effect
   effect="powerstroke"
   id="path-effect62270"
   is_visible="true"
   lpeversion="1"
   offset_points="0.16,0.55000001 | 1.6,0.55000001 | 3.84,0.55000001"
   not_jump="false"
   sort_points="true"
   interpolator_type="CentripetalCatmullRom"
   interpolator_beta="0.2"
   start_linecap_type="round"
   linejoin_type="round"
   miter_limit="4"
   scale_width="1"
   end_linecap_type="round" /><inkscape:path-effect
   effect="powerstroke"
   id="path-effect62262"
   is_visible="true"
   lpeversion="1"
   offset_points="0.16,0.55000001 | 1.6,0.55000001 | 3.84,0.55000001"
   not_jump="false"
   sort_points="true"
   interpolator_type="CentripetalCatmullRom"
   interpolator_beta="0.2"
   start_linecap_type="round"
   linejoin_type="round"
   miter_limit="4"
   scale_width="1"
   end_linecap_type="round" /><inkscape:path-effect
   effect="powerstroke"
   id="path-effect62255"
   is_visible="true"
   lpeversion="1"
   offset_points="0.16,0.55000001 | 1.6,0.55000001 | 3.84,0.55000001"
   not_jump="false"
   sort_points="true"
   interpolator_type="CentripetalCatmullRom"
   interpolator_beta="0.2"
   start_linecap_type="round"
   linejoin_type="round"
   miter_limit="4"
   scale_width="1"
   end_linecap_type="round" /><inkscape:path-effect
   effect="powerstroke"
   id="path-effect62248"
   is_visible="true"
   lpeversion="1"
   offset_points="0.16,0.55000001 | 1.6,0.55000001 | 3.84,0.55000001"
   not_jump="false"
   sort_points="true"
   interpolator_type="CentripetalCatmullRom"
   interpolator_beta="0.2"
   start_linecap_type="round"
   linejoin_type="round"
   miter_limit="4"
   scale_width="1"
   end_linecap_type="round" /><inkscape:path-effect
   effect="powerstroke"
   id="path-effect62242"
   is_visible="true"
   lpeversion="1"
   offset_points="0.16,0.55000001 | 1.6,0.55000001 | 3.84,0.55000001"
   not_jump="false"
   sort_points="true"
   interpolator_type="CentripetalCatmullRom"
   interpolator_beta="0.2"
   start_linecap_type="round"
   linejoin_type="round"
   miter_limit="4"
   scale_width="1"
   end_linecap_type="round" /><inkscape:path-effect
   effect="powerstroke"
   id="path-effect48545"
   is_visible="true"
   lpeversion="1"
   offset_points="0.16,0.55000001 | 1.6,0.55000001 | 3.84,0.55000001"
   not_jump="false"
   sort_points="true"
   interpolator_type="CentripetalCatmullRom"
   interpolator_beta="0.2"
   start_linecap_type="round"
   linejoin_type="round"
   miter_limit="4"
   scale_width="1"
   end_linecap_type="round" /><inkscape:path-effect
   effect="powerstroke"
   id="path-effect48539"
   is_visible="true"
   lpeversion="1"
   offset_points="0.16,0.55000001 | 1.6,0.55000001 | 3.84,0.55000001"
   not_jump="false"
   sort_points="true"
   interpolator_type="CentripetalCatmullRom"
   interpolator_beta="0.2"
   start_linecap_type="round"
   linejoin_type="round"
   miter_limit="4"
   scale_width="1"
   end_linecap_type="round" /><inkscape:path-effect
   effect="powerstroke"
   id="path-effect48486"
   is_visible="true"
   lpeversion="1"
   offset_points="0.16,0.55000001 | 1.6,0.55000001 | 3.84,0.55000001"
   not_jump="false"
   sort_points="true"
   interpolator_type="CentripetalCatmullRom"
   interpolator_beta="0.2"
   start_linecap_type="round"
   linejoin_type="round"
   miter_limit="4"
   scale_width="1"
   end_linecap_type="round" /><inkscape:path-effect
   effect="powerstroke"
   id="path-effect48482"
   is_visible="true"
   lpeversion="1"
   offset_points="0.16,0.55000001 | 1.6,0.55000001 | 3.84,0.55000001"
   not_jump="false"
   sort_points="true"
   interpolator_type="CentripetalCatmullRom"
   interpolator_beta="0.2"
   start_linecap_type="round"
   linejoin_type="round"
   miter_limit="4"
   scale_width="1"
   end_linecap_type="round" /><inkscape:path-effect
   effect="powerstroke"
   id="path-effect48473"
   is_visible="true"
   lpeversion="1"
   offset_points="0.08,0.55000001 | 0.8,0.55000001 | 1.92,0.55000001"
   not_jump="false"
   sort_points="true"
   interpolator_type="CentripetalCatmullRom"
   interpolator_beta="0.2"
   start_linecap_type="round"
   linejoin_type="round"
   miter_limit="4"
   scale_width="1"
   end_linecap_type="round" /><inkscape:path-effect
   effect="powerstroke"
   id="path-effect48469"
   is_visible="true"
   lpeversion="1"
   offset_points="2.6008886,0.55000001 | 1.6255555,0.55000001 | 0.10837098,0.55000001"
   not_jump="false"
   sort_points="true"
   interpolator_type="CentripetalCatmullRom"
   interpolator_beta="0.2"
   start_linecap_type="round"
   linejoin_type="round"
   miter_limit="4"
   scale_width="1"
   end_linecap_type="round" /><inkscape:path-effect
   effect="powerstroke"
   id="path-effect48461"
   is_visible="true"
   lpeversion="1"
   offset_points="0.16,0.55000001 | 1.6,0.55000001 | 3.84,0.55000001"
   not_jump="false"
   sort_points="true"
   interpolator_type="CentripetalCatmullRom"
   interpolator_beta="0.2"
   start_linecap_type="round"
   linejoin_type="round"
   miter_limit="4"
   scale_width="1"
   end_linecap_type="round" /><inkscape:path-effect
   effect="powerstroke"
   id="path-effect48455"
   is_visible="true"
   lpeversion="1"
   offset_points="0.16,0.55000001 | 1.6,0.55000001 | 3.84,0.55000001"
   not_jump="false"
   sort_points="true"
   interpolator_type="CentripetalCatmullRom"
   interpolator_beta="0.2"
   start_linecap_type="round"
   linejoin_type="round"
   miter_limit="4"
   scale_width="1"
   end_linecap_type="round" /><inkscape:path-effect
   effect="powerstroke"
   id="path-effect48449"
   is_visible="true"
   lpeversion="1"
   offset_points="0.16,0.55000001 | 1.6,0.55000001 | 3.84,0.55000001"
   not_jump="false"
   sort_points="true"
   interpolator_type="CentripetalCatmullRom"
   interpolator_beta="0.2"
   start_linecap_type="round"
   linejoin_type="round"
   miter_limit="4"
   scale_width="1"
   end_linecap_type="round" /><inkscape:path-effect
   effect="powerstroke"
   id="path-effect48443"
   is_visible="true"
   lpeversion="1"
   offset_points="0.04,0.55000001 | 0.4,0.55000001 | 0.96,0.55000001"
   not_jump="false"
   sort_points="true"
   interpolator_type="CentripetalCatmullRom"
   interpolator_beta="0.2"
   start_linecap_type="round"
   linejoin_type="round"
   miter_limit="4"
   scale_width="1"
   end_linecap_type="round" /><inkscape:path-effect
   effect="powerstroke"
   id="path-effect48437"
   is_visible="true"
   lpeversion="1"
   offset_points="0.16,0.55000001 | 1.6,0.55000001 | 3.84,0.55000001"
   not_jump="false"
   sort_points="true"
   interpolator_type="CentripetalCatmullRom"
   interpolator_beta="0.2"
   start_linecap_type="round"
   linejoin_type="round"
   miter_limit="4"
   scale_width="1"
   end_linecap_type="round" /><inkscape:path-effect
   effect="powerstroke"
   id="path-effect47881"
   is_visible="true"
   lpeversion="1"
   offset_points="0.2,0.1322915 | 2,0.1322915 | 3.8,0.1322915"
   not_jump="false"
   sort_points="true"
   interpolator_type="CentripetalCatmullRom"
   interpolator_beta="0.2"
   start_linecap_type="butt"
   linejoin_type="round"
   miter_limit="4"
   scale_width="1"
   end_linecap_type="butt" /><inkscape:path-effect
   effect="powerstroke"
   id="path-effect47663"
   is_visible="true"
   lpeversion="1"
   offset_points="0.015384616,0.1322915 | 0.5,0.1322915 | 0.98461547,0.1322915"
   not_jump="false"
   sort_points="true"
   interpolator_type="CentripetalCatmullRom"
   interpolator_beta="0.73236515"
   start_linecap_type="round"
   linejoin_type="round"
   miter_limit="4"
   scale_width="7.1"
   end_linecap_type="round" /><inkscape:path-effect
   effect="powerstroke"
   id="path-effect48545-6"
   is_visible="true"
   lpeversion="1"
   offset_points="0.16,0.55000001 | 1.6,0.55000001 | 3.84,0.55000001"
   not_jump="false"
   sort_points="true"
   interpolator_type="CentripetalCatmullRom"
   interpolator_beta="0.2"
   start_linecap_type="round"
   linejoin_type="round"
   miter_limit="4"
   scale_width="1"
   end_linecap_type="round" /></defs><g
     inkscape:groupmode="layer"
     id="layer4"
     inkscape:label="madeatmakehaven"
     style="display:inline"
     transform="translate(-22.993945,-61.830215)"><path
       id="path943"
       style="font-style:normal;font-variant:normal;font-weight:bold;font-stretch:normal;font-size:67.2194px;line-height:1.25;font-family:sans-serif;-inkscape-font-specification:'sans-serif Bold';letter-spacing:0px;word-spacing:0px;display:inline;fill:#981b1f;fill-opacity:1;stroke:none;stroke-width:0.242524"
       d="m 44.472738,61.830851 c -0.144174,-0.0011 -0.288568,-7.57e-4 -0.433049,10e-4 -2.13387,0.02645 -4.299335,0.370976 -6.433716,1.065568 -2.721914,0.88579 -5.149162,2.264272 -7.217647,4.002856 0.331771,0.07701 0.583992,0.356135 0.6196,0.702283 1.97455,-1.655316 4.291432,-2.967536 6.888469,-3.812687 2.122505,-0.690727 4.2773,-1.019613 6.397542,-1.02061 6.597847,-0.0031 12.857195,3.170262 16.761251,8.48527 h 0.595829 c 0.370556,0 0.668693,0.298653 0.668693,0.66921 v 0.09198 c 0,0.256039 -0.144226,0.47508 -0.3545,0.587561 0.626502,1.011804 1.175731,2.087024 1.629358,3.22461 l -5.938656,1.932698 c -1.349171,-3.343467 -3.84782,-5.940567 -6.868831,-7.483264 -3.310625,-1.673643 -7.252564,-2.095154 -11.051522,-0.858862 -3.798958,1.236294 -6.74517,3.899222 -8.429976,7.198527 -0.309722,0.608553 -0.574041,1.240481 -0.795301,1.888773 h 1.303797 c 0.110799,0 0.199988,0.0897 0.199988,0.200505 v 0.383956 a 1.115361,1.1211319 0 0 1 1.055749,-0.760677 1.115361,1.1211319 0 0 1 1.115177,1.120862 1.115361,1.1211319 0 0 1 -1.115177,1.121378 1.115361,1.1211319 0 0 1 -1.055749,-0.760677 v 0.383956 c 0,0.11078 -0.08919,0.199988 -0.199988,0.199988 h -1.488798 c -0.1108,0 -0.199988,-0.08919 -0.199988,-0.199988 v -0.3514 c -0.521028,2.19852 -0.537153,4.545542 0.04496,6.86108 l -0.906921,0.295073 v 1.45004 c 0,0.06788 -0.03206,0.127333 -0.08113,0.166398 l 1.0604,3.257166 c 0.02525,0.07758 0.02906,0.158324 0.01602,0.235128 a 0.84787494,0.85230178 0 0 1 0.144177,0.466638 0.84787494,0.85230178 0 0 1 -0.03772,0.241329 l 0.947745,-0.308508 v -0.386023 c 0,-0.07355 0.01238,-0.143399 0.02997,-0.21084 l -0.09663,0.03152 L 30.973303,91.104 h -0.04237 c -0.466905,0 -0.842843,-0.375943 -0.842843,-0.842843 v -0.69143 c 0,-0.36535 0.230156,-0.675307 0.553971,-0.792717 a 1.115361,1.1211319 0 0 1 -0.962732,-1.11001 1.115361,1.1211319 0 0 1 1.115178,-1.120861 1.115361,1.1211319 0 0 1 0.93431,0.509529 l 0.232544,-0.07545 c -0.148073,-0.54106 -0.01772,-1.15036 0.373103,-1.616439 h -1.403531 c -0.466905,0 -0.842843,-0.375933 -0.842843,-0.842843 v -0.691947 c 0,-0.46691 0.375938,-0.842843 0.842843,-0.842843 h 1.498099 c 0.466905,0 0.842843,0.375933 0.842843,0.842843 v 0.691947 c 0,0.08624 -0.01284,0.1693 -0.03669,0.24753 0.447847,-0.134051 0.925613,-0.09139 1.3255,0.119373 0.373326,-0.302494 0.729215,-0.595998 1.081588,-0.875399 v -0.183451 c 0,-0.46691 0.37594,-0.842843 0.842842,-0.842843 h 0.586528 c 0.521026,-0.321862 1.071271,-0.594587 1.689303,-0.797884 0.04643,-0.01522 0.114988,-0.04126 0.167948,-0.05891 -0.06345,-0.196576 -0.126259,-0.393715 -0.190169,-0.590145 L 42.06462,80.457102 41.765413,79.537779 40.49469,79.95119 39.874056,78.044847 c -0.725489,0.228617 -1.516039,-0.201428 -1.766817,-0.972034 -0.250779,-0.770606 0.0089,-1.535549 0.856278,-1.826245 l -0.169499,-0.520382 1.554944,-0.505912 -0.91984,-0.620634 0.04547,-0.06666 0.170016,-1.13223 c -0.06039,-0.04762 -0.109652,-0.106498 -0.133842,-0.180868 -0.06379,-0.196032 0.04582,-0.410593 0.241845,-0.474389 0.202791,-0.066 0.411107,0.0453 0.474907,0.241328 0.0638,0.196035 -0.04581,0.411117 -0.241846,0.474907 -0.0338,0.01099 -0.0632,0.01337 -0.09922,0.01757 l -0.14366,0.936377 0.999939,0.683679 1.487247,-0.484208 -0.148828,-2.156974 c -0.103116,-0.0412 -0.190149,-0.124897 -0.225309,-0.233061 -0.06379,-0.196036 0.04582,-0.411107 0.241846,-0.474907 0.0507,-0.0165 0.101861,-0.02183 0.150895,-0.01757 0.147101,0.01277 0.276169,0.112391 0.324011,0.259416 0.0594,0.182513 -0.03221,0.38389 -0.210323,0.45682 l 0.144694,2.076359 1.507918,-0.490409 0.151412,0.466121 c 0.912241,-0.252019 1.528498,0.377148 1.751315,0.969967 0.248577,0.763847 -0.304098,1.616375 -0.842843,1.821594 l 0.638204,1.960604 -1.27124,0.413411 0.299206,0.919324 2.305803,-0.750342 c 0.0078,-0.103588 0.0933,-0.185002 0.198954,-0.185002 h 0.370003 l 0.444418,-0.144694 c 0.01652,0.04818 0.03265,0.09649 0.04909,0.144694 h 0.625285 c 0.110798,0 0.199988,0.08919 0.199988,0.199988 v 0.0956 c 0.06138,-0.01495 0.122741,-0.02909 0.183968,-0.04237 a 1.115361,1.1211319 0 0 1 0.870748,-0.428914 1.115361,1.1211319 0 0 1 0.690914,0.242362 c 0.870661,-0.0319 1.76109,0.03161 2.727482,0.08165 0.306679,-0.63568 1.004269,-1.049233 1.788521,-0.974101 0.0031,-0.108072 0.09062,-0.194303 0.199471,-0.194303 h 1.488798 c 0.110798,0 0.199988,0.08919 0.199988,0.199987 v 1.489315 c 0,0.11079 -0.08919,0.199988 -0.199988,0.199988 h -0.03824 c 5.02e-4,0.05733 -0.002,0.115398 -0.0078,0.173633 l -0.01395,-0.0015 a 1.115361,1.1211319 0 0 1 0.391708,0.629935 l 0.466638,0.425814 0.336414,1.068669 0.335896,1.068668 -0.05633,0.11989 c -0.07567,0.160757 -0.240555,0.214094 -0.396358,0.128674 -0.111261,-0.061 -0.125222,-0.08826 -0.332796,-0.668176 -0.212711,-0.594255 -0.219063,-0.607162 -0.366903,-0.72192 -0.147575,-0.114549 -0.387359,-0.174318 -0.584977,-0.15658 a 1.115361,1.1211319 0 0 1 -0.26355,0.08837 c -0.172325,0.104073 -0.326229,0.286024 -0.374137,0.458887 -0.04974,0.179479 -0.0469,0.197636 0.130741,0.802535 0.174386,0.593788 0.179624,0.624065 0.125574,0.738973 -0.07565,0.160834 -0.241042,0.214661 -0.396875,0.129191 l -0.115756,-0.06356 -0.358634,-1.070219 -0.358118,-1.069702 0.118856,-0.588078 a 1.115361,1.1211319 0 0 1 -0.101286,-0.438216 1.115361,1.1211319 0 0 1 0.378789,-0.82734 c 0.03072,-0.101366 0.06084,-0.172624 0.09353,-0.227893 h -0.101286 c -0.110798,0 -0.199988,-0.08919 -0.199988,-0.199988 v -0.735872 c -0.02014,-0.0033 -0.03938,-0.0086 -0.05994,-0.01085 -0.312649,-0.02879 -0.602442,0.07748 -0.805636,0.269751 l -2.721281,0.885734 c -0.172955,-0.0141 -0.346282,-0.0251 -0.519865,-0.03101 a 1.115361,1.1211319 0 0 1 -1.099674,1.019576 1.115361,1.1211319 0 0 1 -1.054716,-0.759127 v 0.381889 c 0,0.107416 -0.08408,0.193747 -0.190169,0.198954 0.0122,0.0367 0.02452,0.07339 0.03669,0.110071 l -9.352401,3.043225 c -0.06924,-0.217789 -0.138329,-0.435466 -0.207739,-0.65319 -0.215565,0.08525 -0.410063,0.168447 -0.594796,0.250114 0.12307,0.146431 0.199988,0.332895 0.199988,0.540019 v 0.691947 c 0,0.08235 -0.01229,0.161557 -0.03411,0.236678 l 2.404505,-0.782898 V 83.82905 c 0,-0.46691 0.37594,-0.842843 0.842842,-0.842843 h 1.4981 c 0.466905,0 0.842843,0.375933 0.842843,0.842843 v 0.691947 c 0,0.204404 -0.07516,0.388724 -0.195337,0.534334 l 1.990576,-0.648022 0.183968,0.564307 -2.43706,0.792716 -0.142111,-0.436149 c -0.06688,0.01998 -0.137472,0.03134 -0.210323,0.03411 l 0.221175,0.680579 0.602031,-0.19637 0.534851,1.643827 -0.84646,0.275435 -0.781348,-2.40192 h -1.260905 c -0.01328,0 -0.02615,-0.0015 -0.03927,-0.0021 l 0.906922,2.786393 -0.84646,0.275435 -0.534851,-1.643827 0.60203,-0.195854 -0.321944,-0.989603 -0.602547,0.195853 -0.258899,-0.79685 -1.634009,0.531233 0.259416,0.797368 -0.602031,0.195853 0.321944,0.989604 0.602031,-0.195854 0.534851,1.643311 -0.84646,0.275952 -1.278475,-3.929476 c -0.0982,0.0399 -0.205471,0.06253 -0.318327,0.06253 h -1.4981 c -0.324457,0 -0.604737,-0.18163 -0.74569,-0.449068 l -1.774052,0.577742 c -0.309925,-0.08208 -0.664239,-0.0084 -0.934827,0.229443 -0.299148,0.265721 -0.408336,0.662944 -0.313676,1.012342 l 0.478007,-0.155546 1.391646,4.276741 -2.052588,0.668176 c 0.1534,0.13835 0.252546,0.340194 0.26045,0.569475 0.33582,0.431285 0.694215,0.841323 1.072802,1.228349 -0.03417,-0.09071 -0.05426,-0.189552 -0.05426,-0.293523 v -0.905887 c 0,-0.43643 0.330973,-0.788066 0.742074,-0.788066 0.411099,0 0.742073,0.351636 0.742073,0.788066 v 0.905887 c 0,0.43643 -0.330974,0.788066 -0.742073,0.788066 -0.07802,0 -0.151673,-0.0163 -0.222209,-0.03979 0.994888,0.929537 2.111541,1.711389 3.312976,2.322856 1.067291,0.541366 2.202861,0.952005 3.378605,1.219564 0.110582,-0.283486 0.396654,-0.485759 0.736906,-0.485759 h 0.906405 c 0.436417,0 0.787549,0.330974 0.787549,0.742074 0,0.0286 -0.0019,0.05649 -0.0052,0.08423 0.965529,0.05284 1.945223,0.0085 2.925403,-0.139009 a 0.84787494,0.85230178 0 0 1 0.839225,-0.797368 0.84787494,0.85230178 0 0 1 0.745174,0.468189 c 0.247789,-0.06633 0.495367,-0.139339 0.742074,-0.219625 2.300027,-0.748491 4.288559,-2.024087 5.871993,-3.646806 a 0.84787494,0.85230178 0 0 1 -0.466638,-0.749308 0.84787494,0.85230178 0 0 1 0.847493,-0.852661 0.84787494,0.85230178 0 0 1 0.694531,0.367936 c 0.566799,-0.730194 1.061814,-1.511246 1.477946,-2.331641 0.08979,-0.176418 0.174781,-0.355281 0.257349,-0.535368 h -0.983919 c -0.466905,0 -0.842843,-0.375935 -0.842843,-0.842842 V 87.68925 c 0,-0.466907 0.375938,-0.842842 0.842843,-0.842842 h 1.498616 c 0.112622,0 0.219778,0.02227 0.31781,0.06201 0.286381,-1.073143 0.453119,-2.184516 0.486276,-3.313493 l 1.582332,-0.515214 c -10e-4,-0.01534 -0.0047,-0.02986 -0.0047,-0.04547 v -0.09198 c 0,-0.37056 0.298653,-0.668693 0.66921,-0.668693 h 0.700732 c 0.189931,0 0.360093,0.07885 0.481625,0.205156 l 2.850988,-0.927592 c 0.306931,3.203759 -0.149837,6.374489 -1.250053,9.287805 a 0.95311534,0.95807099 0 0 1 0.298173,-0.04858 0.95311534,0.95807099 0 0 1 0.632003,0.254765 c 0.148688,-0.401213 0.282607,-0.808129 0.407727,-1.218014 a 1.8925229,1.8767979 0 0 1 -0.322461,-1.047998 1.8925229,1.8767979 0 0 1 0.959115,-1.631942 c 0.12139,-0.709682 0.21018,-1.427112 0.259932,-2.150773 -0.04152,-0.03892 -0.06718,-0.09391 -0.06718,-0.155546 v -1.590084 c 0,-0.08142 0.04544,-0.151016 0.112138,-0.187068 -0.04402,-2.074002 -0.387819,-4.176131 -1.062468,-6.249231 -0.737,-2.264706 -1.814691,-4.325538 -3.156396,-6.145878 -0.04627,0.01006 -0.09378,0.01602 -0.143144,0.01602 h -0.700732 c -0.370557,0 -0.66921,-0.298662 -0.66921,-0.669209 v -0.09198 c 0,-0.282125 0.173545,-0.521513 0.419613,-0.620118 -4.062921,-4.666255 -9.992687,-7.424149 -16.22795,-7.472412 z m -0.309025,1.99006 -0.497128,0.0124 -0.499194,0.0052 -0.113171,0.364835 a 0.90451509,0.90922648 0 0 1 0.345715,0.713135 0.90451509,0.90922648 0 0 1 -0.84646,0.905371 l -0.366386,1.183907 -0.268717,0.850077 0.982369,-0.01292 0.217041,-0.780831 1.187007,-0.02791 0.243913,0.77308 0.973584,-0.01757 -0.30179,-0.8816 z m 2.886128,0.04754 -0.897103,3.125391 -0.189135,0.704349 0.890385,0.255799 0.237711,-0.832508 0.47439,-1.642277 0.01602,0.0026 0.05633,1.229899 0.01034,0.168982 0.02635,0.357601 0.05168,0.962215 0.598929,0.164331 0.556556,-0.817004 0.175183,-0.243396 0.09508,-0.143144 0.286288,-0.40721 0.08888,-0.141077 0.301791,-0.427364 0.0067,-0.02481 0.01602,0.0026 -0.0047,0.03152 -0.142627,0.480074 -0.04651,0.157096 -0.131259,0.468706 -0.04857,0.150378 -0.07338,0.255798 -0.255798,0.890385 0.897103,0.253732 0.223759,-0.805119 0.06718,-0.231511 0.03927,-0.154512 0.137976,-0.471289 0.04186,-0.147795 0.142627,-0.502812 0.04186,-0.147794 0.151929,-0.543119 0.04134,-0.147795 0.198437,-0.677995 -1.170988,-0.336413 -0.336413,0.505912 -0.08888,0.141077 -0.31781,0.469738 -0.0863,0.147795 -0.293523,0.431498 -0.0863,0.147795 -0.281637,0.420646 -0.0956,0.143144 -0.02946,0.04703 -0.0088,-0.0047 -0.0088,-0.04961 -0.0031,-0.170532 -0.02377,-0.508496 -0.0031,-0.170533 -0.01395,-0.526066 -0.01033,-0.168982 -0.04651,-1.337903 z m -6.426481,0.237712 -1.412317,0.369486 c -0.27229,0.07512 -0.505012,0.195729 -0.696081,0.361218 a 0.90451509,0.90922648 0 0 1 0.0047,0.07958 0.90451509,0.90922648 0 0 1 -0.524516,0.823206 c -0.0425,0.233635 -0.03084,0.481032 0.03721,0.742073 l 0.181384,0.695565 c 0.06991,0.28375 0.189808,0.514277 0.363802,0.70435 0.113799,0.119947 0.245514,0.226679 0.393258,0.313159 0.385097,0.218551 0.802867,0.261812 1.257804,0.14366 l 1.412317,-0.370003 -0.227376,-0.860412 z m -0.717269,0.920874 0.59738,2.272729 0.0615,0.211357 -0.517798,0.131258 c -0.191471,0.05483 -0.364311,0.02915 -0.527616,-0.08217 -0.0247,-0.0069 -0.03587,-0.01864 -0.04703,-0.02997 -0.172119,-0.138352 -0.294279,-0.329903 -0.364319,-0.591178 l -0.183968,-0.7028 c -0.07903,-0.26583 -0.06397,-0.494928 0.02739,-0.696598 0.0846,-0.199466 0.233728,-0.315454 0.438733,-0.374654 z m 3.77393,0.06511 0.01602,0.0026 0.393258,1.231966 -0.766362,0.01033 z m -7.457426,0.42323 -2.288232,1.238167 0.330729,0.625285 1.489315,-0.798918 0.410311,0.756027 -1.241268,0.665592 0.339514,0.629419 1.241268,-0.665076 0.363802,0.681096 0.106453,0.189652 -1.489314,0.798918 0.339514,0.629419 2.297017,-1.233517 -0.421163,-0.789616 z m 16.73748,1.049548 -0.04754,0.183452 c 1.504104,0.824192 2.931321,1.849713 4.247802,3.049943 h 0.205672 c 0.0303,0 0.0586,0.0059 0.08527,0.01602 -1.383691,-1.286163 -2.893751,-2.37869 -4.491199,-3.249414 z m -0.184485,0.84491 -0.04909,0.201538 c 1.117141,0.616981 2.189956,1.349827 3.202389,2.186947 h 0.28422 C 55.129571,68.878655 53.977442,68.076925 52.77559,67.409839 Z m -0.192753,0.794783 -0.04909,0.201022 c 0.973152,0.547101 1.908743,1.185631 2.797246,1.904793 V 70.067037 C 54.455638,69.365913 53.53684,68.741584 52.58284,68.204618 Z m -0.167948,0.777731 -0.04909,0.201021 c 1.035291,0.591335 2.028618,1.292397 2.965194,2.089278 V 71.022017 C 54.408722,70.24544 53.432211,69.561554 52.414892,68.982349 Z m -21.594548,0.227893 -0.758093,0.806669 0.189135,0.349849 c 0.116728,-0.09958 0.266371,-0.161747 0.432532,-0.161747 h 0.09198 c 0.147452,0 0.28241,0.04845 0.392741,0.128674 l -0.04341,-0.07648 1.5012,0.731222 -0.675411,0.718819 -0.51263,-0.90072 c 0.0023,0.02245 0.0067,0.04412 0.0067,0.06718 v 0.700733 c 0,0.214084 -0.1018,0.401734 -0.257349,0.523999 l 0.882634,1.632458 0.639237,-0.679545 -0.376721,-0.665076 0.994255,-1.057816 0.689363,0.332796 0.639238,-0.680062 z m -2.824634,0.04134 c -0.278372,0.319537 -0.545935,0.647414 -0.804602,0.981852 0.148681,0.05824 0.253731,0.201741 0.253731,0.371554 v 0.854728 c 0.197619,-0.277289 0.402616,-0.549839 0.613916,-0.817521 0.05115,-0.138543 0.145306,-0.255113 0.268201,-0.332797 0.298337,-0.362375 0.608936,-0.7154 0.932243,-1.057816 z m 20.873145,0.563273 a 1.115361,1.1211319 0 0 1 1.115694,1.121379 1.115361,1.1211319 0 0 1 -1.115694,1.120861 1.115361,1.1211319 0 0 1 -1.115178,-1.120861 1.115361,1.1211319 0 0 1 1.115178,-1.121379 z m 8.712646,0.118339 c 0.01568,0.03201 0.02532,0.06776 0.02532,0.105937 v 0.176216 c 0.998684,0.959934 1.929048,2.022678 2.77089,3.181202 0.03987,-0.04689 0.08924,-0.08562 0.146761,-0.110071 -0.890833,-1.226847 -1.878269,-2.34845 -2.942973,-3.353284 z m 0.02532,1.151351 v 0.256832 c 1.04544,1.063852 2.004476,2.248445 2.850988,3.542419 l 0.173116,-0.05633 c -0.04065,-0.06234 -0.08339,-0.122638 -0.12454,-0.184485 -0.124845,-0.06088 -0.211888,-0.184187 -0.222208,-0.330212 -0.808575,-1.172638 -1.706763,-2.252579 -2.677356,-3.228227 z m -28.162106,0.3545 v 0.135393 c 0,0.370557 -0.298137,0.668693 -0.668693,0.668693 h -0.09198 c -0.08446,0 -0.16447,-0.01716 -0.238745,-0.04548 l -0.958598,1.479497 0.621668,0.402559 0.575675,-0.888318 2.567285,1.663981 0.448035,-0.69143 -2.567802,-1.663465 0.576709,-0.890385 z m -3.423563,0.462504 c -1.479245,2.333236 -2.514717,4.9378 -3.027206,7.671367 v 7.948352 c 0.170782,0.909463 0.401253,1.817963 0.695048,2.720764 0.135992,0.417882 0.287343,0.826669 0.445968,1.230416 0.119371,-0.087 0.263772,-0.138493 0.420129,-0.138493 0.411102,0 0.742074,0.351636 0.742074,0.788066 v 0.905887 c 0,0.211937 -0.07933,0.402839 -0.206706,0.544153 0.820256,1.572152 1.817584,3.012616 2.959509,4.303614 h 0.33073 c -0.04303,-0.09183 -0.06666,-0.193587 -0.06666,-0.300757 0,-0.217345 0.09983,-0.410224 0.256832,-0.545703 -0.78122,-0.908437 -1.490746,-1.889972 -2.112533,-2.941423 l 2.581755,-0.840259 a 0.84787494,0.85230178 0 0 1 -0.332796,-0.67231 0.84787494,0.85230178 0 0 1 0.56689,-0.800985 l -0.513147,-1.576131 c -0.250539,1.024628 -0.536289,2.173095 -0.67076,2.643249 -0.0307,0.107171 -0.09554,0.19881 -0.180867,0.260966 -0.0019,0.0015 -0.0042,0.0026 -0.0062,0.0041 -0.0092,0.0064 -0.01872,0.0129 -0.02842,0.0186 -0.0057,0.0033 -0.01177,0.0065 -0.01757,0.0098 -0.0073,0.0038 -0.0144,0.0079 -0.0217,0.01137 -0.0063,0.0028 -0.01272,0.0052 -0.01912,0.0078 -0.0078,0.0031 -0.01577,0.0064 -0.02377,0.0093 -0.0027,0.0011 -0.0056,0.0022 -0.0083,0.0031 -0.06152,0.369663 -0.362764,0.649573 -0.729155,0.649573 -0.411099,0 -0.742073,-0.351636 -0.742073,-0.788066 v -0.905887 c 0,-0.317677 0.176488,-0.58831 0.430464,-0.713135 L 26.644368,91.104 h -1.267622 c -0.466905,0 -0.842843,-0.375933 -0.842843,-0.842843 v -0.69143 c 0,-0.46691 0.375938,-0.842843 0.842843,-0.842843 h 1.312064 l 0.106454,-0.03462 0.01137,0.03462 h 0.06873 c 0.466905,0 0.842326,0.375933 0.842326,0.842843 v 0.69143 c 0,0.221816 -0.08618,0.421874 -0.225309,0.572058 l 0.09663,0.29714 0.622184,-2.467033 h -0.751892 c -0.118319,0 -0.213424,-0.09505 -0.213424,-0.213424 v -0.793233 l -3.03444,0.987537 c -1.473383,-5.773888 -0.347588,-11.684419 2.70113,-16.401066 h -0.497644 c -0.201654,0 -0.365547,-0.148001 -0.393774,-0.341582 z m 31.461128,0.141077 c -0.03463,0.01922 -0.0737,0.03101 -0.116272,0.03101 h -0.112654 c 0.893786,0.92733 1.718789,1.947712 2.457214,3.05356 l 0.186552,-0.06098 c -0.729594,-1.092228 -1.539369,-2.102688 -2.41484,-3.023588 z m -1.264005,0.03101 c 1.021362,0.977331 1.961696,2.074893 2.793111,3.280937 l 0.173116,-0.05633 C 58.378436,74.117688 57.47238,73.038724 56.48854,72.073634 Z m -28.709876,2.773991 c -0.379015,0.799876 -0.709083,1.630662 -0.99167,2.485636 h 0.191203 c 0.271847,-0.812987 0.58653,-1.604062 0.946712,-2.365747 z m 16.008326,0.293005 c -0.08925,-2.76e-4 -0.17948,0.01299 -0.268201,0.04186 -0.479943,0.156187 -0.73123,0.694025 -0.568441,1.194242 0.164982,0.50698 0.682263,0.787152 1.162203,0.63097 0.479943,-0.156186 0.73123,-0.693506 0.568441,-1.193726 -0.139544,-0.410134 -0.507255,-0.672147 -0.894002,-0.673344 z m -15.341183,0.274919 c -0.317571,0.675584 -0.597775,1.375007 -0.843359,2.092379 0.0011,0.0084 0.0026,0.01662 0.0026,0.02532 v 0.567924 c 0.275218,-0.878188 0.603159,-1.730225 0.984952,-2.547648 z m 0.595829,0.537951 c -0.573042,1.258631 -1.021867,2.596712 -1.337902,3.989421 a 1.115361,1.1211319 0 0 1 0.07338,0.375688 1.115361,1.1211319 0 0 1 -0.29869,0.762744 c -0.107415,0.627997 -0.188303,1.26535 -0.241329,1.910477 0.06044,0.0065 0.118809,0.01924 0.174667,0.03772 0.20413,-2.460716 0.818283,-4.814985 1.788004,-6.942212 z m 12.199773,0.0155 c -0.09005,-1.5e-5 -0.181312,0.01361 -0.271302,0.04289 -0.479938,0.156186 -0.730712,0.694024 -0.567924,1.194242 0.164987,0.506979 0.682265,0.787154 1.162203,0.630969 0.479944,-0.156185 0.731231,-0.694022 0.568441,-1.194242 C 41.728508,76.230939 41.361354,75.969067 40.971141,75.969 Z m -11.59929,0.512118 c -0.968174,2.145028 -1.553335,4.531581 -1.716175,7.029028 0.04001,0.09831 0.06201,0.205823 0.06201,0.318844 v 0.691947 c 0,0.15217 -0.04008,0.294572 -0.110071,0.417546 -6.2e-5,0.210533 0.0023,0.421379 0.0083,0.633036 l 0.1726,-0.05633 c -0.07441,-3.168127 0.538307,-6.224657 1.741495,-8.900232 z m 32.825386,0.773596 c 0.108664,0.0078 0.194123,0.05108 0.288871,0.132292 0.104244,0.08933 0.129698,0.159511 0.669727,1.818493 0.621501,1.90929 0.613918,1.870648 0.428914,2.102198 -0.18085,0.226347 -0.555173,0.233084 -0.772046,0.01395 -0.08929,-0.0902 -0.139455,-0.216919 -0.388606,-0.982369 -0.132207,-0.406126 -0.23234,-0.687742 -0.29559,-0.836124 -0.121221,0.123494 -0.289965,0.199987 -0.47749,0.199987 h -0.182418 c 0.01642,0.117197 0.07108,0.312444 0.150896,0.569991 h 0.03152 c 0.370556,0 0.668693,0.298653 0.668693,0.66921 v 0.09198 c 0,0.242951 -0.12971,0.452864 -0.322461,0.569991 -0.0017,0.01814 -0.0041,0.03548 -0.0083,0.05323 -0.08562,0.360915 -0.546794,0.503425 -0.84801,0.262 -0.04187,-0.03356 -0.07483,-0.08045 -0.130742,-0.216525 h -0.05994 c -0.370557,0 -0.66921,-0.298133 -0.66921,-0.668693 v -0.09198 c 0,-0.223106 0.109531,-0.418632 0.276469,-0.540019 l -0.153479,-0.453202 -0.116272,-0.05943 c -0.137128,-0.06978 -0.246077,-0.06196 -0.386023,0.02739 -0.193202,0.123339 -0.187696,0.173483 0.130741,1.193725 0.25241,0.808674 0.285117,0.941215 0.262517,1.061951 -0.05309,0.283517 -0.350005,0.477634 -0.629419,0.411344 -0.273505,-0.06486 -0.256937,-0.02848 -0.884701,-1.957503 -0.635248,-1.952035 -0.620179,-1.873002 -0.407727,-2.103747 0.08731,-0.09484 0.169616,-0.137799 0.424264,-0.220659 0.500559,-0.162897 0.527451,-0.152495 1.183907,0.460437 0.125975,0.117625 0.219979,0.199364 0.299723,0.257349 v -0.07803 c 0,-0.370557 0.298653,-0.668693 0.66921,-0.668693 h 0.156063 c 0.133541,-0.726696 0.183802,-0.782362 0.662492,-0.937927 0.187702,-0.061 0.319733,-0.0884 0.428397,-0.08061 z m -36.21381,1.967839 c -0.0055,0.02326 -0.0111,0.04648 -0.01654,0.06976 a 1.115361,1.1211319 0 0 1 0.19327,-0.06976 z m 0.839225,0 c -0.0055,0.02192 -0.01006,0.0442 -0.0155,0.06615 a 1.115361,1.1211319 0 0 1 0.171049,0.08682 c 0.01256,-0.05087 0.02378,-0.102251 0.03669,-0.152962 z m 26.226823,1.015441 c 0.05093,0.0017 0.101479,0.01223 0.150379,0.03204 0.270358,0.109447 0.266516,0.101347 0.855761,1.912028 0.35287,1.084263 0.536284,1.691477 0.532784,1.765267 -0.0064,0.13553 -0.0837,0.310982 -0.167948,0.382922 -0.03386,0.02891 -0.129427,0.07634 -0.212907,0.104903 -0.129142,0.04414 -0.181061,0.0382 -0.346232,-0.03876 l -0.193787,-0.09043 -0.173116,-0.460437 c -0.163467,-0.435877 -0.178888,-0.463309 -0.295072,-0.522449 -0.173005,-0.08807 -0.394862,-0.01475 -0.483692,0.159681 -0.06046,0.118739 -0.05732,0.148265 0.05994,0.565857 0.06966,0.248107 0.115513,0.480343 0.104903,0.531233 -0.06633,0.31817 -0.390093,0.513956 -0.665076,0.40256 -0.245253,-0.09935 -0.293904,-0.174188 -0.472322,-0.722437 -0.223694,-0.687378 -0.211149,-0.740081 0.220658,-0.913639 0.277677,-0.111599 0.396001,-0.248092 0.396875,-0.457337 7.38e-4,-0.178941 -0.112951,-0.354965 -0.280086,-0.433565 -0.09614,-0.04521 -0.170051,-0.04203 -0.412378,0.01757 -0.264205,0.06499 -0.307337,0.0653 -0.412378,0.0016 -0.112123,-0.0681 -0.124736,-0.09426 -0.285771,-0.589111 -0.149578,-0.459632 -0.164782,-0.535209 -0.136942,-0.674377 0.01724,-0.08622 0.06774,-0.198204 0.112138,-0.248564 0.103072,-0.116907 0.344863,-0.195914 0.496094,-0.162264 0.222312,0.04947 0.308227,0.162112 0.484208,0.636654 0.156239,0.421321 0.164088,0.434902 0.288354,0.486792 0.173176,0.07232 0.37856,0.0053 0.47594,-0.15503 0.07018,-0.115541 0.06883,-0.128764 -0.05891,-0.580843 -0.10033,-0.354967 -0.12316,-0.48649 -0.09819,-0.56689 0.05632,-0.18146 0.201145,-0.314836 0.365352,-0.363286 0.04926,-0.01453 0.100477,-0.02132 0.151412,-0.01964 z m -27.431917,0.869198 c -0.09336,0.618612 -0.161431,1.245687 -0.206189,1.878955 h 0.178284 c 0.04202,-0.585513 0.104714,-1.165393 0.188618,-1.738395 a 1.115361,1.1211319 0 0 1 -0.160713,-0.14056 z m 0.957047,0.31626 a 1.115361,1.1211319 0 0 1 -0.182934,0.01654 1.115361,1.1211319 0 0 1 -0.0047,-5.17e-4 c -0.07409,0.510234 -0.131024,1.026261 -0.170532,1.546676 h 0.18035 c 0.04172,-0.526038 0.100963,-1.047247 0.177767,-1.562695 z m 22.792924,0.08216 c 0.0404,-0.0021 0.07064,0.0023 0.10542,0.0098 0.303123,0.06519 0.288959,0.03373 0.900204,1.947685 0.526042,1.647129 0.544275,1.714482 0.505395,1.827795 -0.02218,0.06473 -0.07218,0.155505 -0.111104,0.202055 -0.05981,0.0715 -0.22553,0.13526 -1.069702,0.410827 -0.979381,0.319747 -1.002052,0.325614 -1.146184,0.285254 -0.32143,-0.08998 -0.463551,-0.383577 -0.332796,-0.687813 0.08328,-0.193743 0.218663,-0.286893 0.593762,-0.409277 0.261325,-0.08524 0.294193,-0.105079 0.349333,-0.213424 0.08129,-0.159688 0.06726,-0.28589 -0.04599,-0.417546 -0.132656,-0.154209 -0.295537,-0.158544 -0.725537,-0.0186 -0.387835,0.126212 -0.493149,0.119609 -0.630453,-0.03927 -0.102466,-0.118572 -0.115094,-0.243207 -0.04031,-0.390157 0.05602,-0.110098 0.08521,-0.126936 0.389123,-0.225826 0.418145,-0.136178 0.520733,-0.195549 0.595313,-0.342098 0.08439,-0.165808 0.0097,-0.395171 -0.156063,-0.479557 -0.140359,-0.07143 -0.265835,-0.06074 -0.607198,0.05013 -0.392228,0.127415 -0.652611,0.03079 -0.762227,-0.28267 -0.05847,-0.167304 -0.02733,-0.318266 0.103352,-0.503329 0.0709,-0.100416 0.120156,-0.120331 1.058851,-0.425814 0.693975,-0.225874 0.905619,-0.291808 1.02681,-0.298173 z m -3.351216,0.900721 1.391646,4.276741 -0.84646,0.275435 -0.534851,-1.64331 0.602547,-0.196371 -0.322461,-0.989603 -0.60203,0.195853 -0.534851,-1.64331 z m 17.490405,1.021126 -0.1757,0.05684 c 0.03737,3.307868 -0.87282,6.552961 -2.548682,9.397359 l 0.134876,0.09198 c 1.714768,-2.88563 2.636921,-6.184481 2.589506,-9.546187 z m -0.752409,0.237711 -0.168982,0.05478 c -0.0041,2.786597 -0.712226,5.523286 -2.004529,7.980909 0.03835,0.06432 0.06671,0.135573 0.0863,0.210839 1.345628,-2.532033 2.088064,-5.357121 2.087211,-8.246525 z m -0.716752,0.233061 -0.182418,0.05943 c -0.0013,0.105398 -0.0059,0.210524 -0.0093,0.315743 h 0.0739 c 0.03716,0 0.07236,0.0061 0.106453,0.0155 0.0048,-0.130154 0.0097,-0.260211 0.01137,-0.390674 z m -0.696082,0.226343 -0.168982,0.05529 c -9.28e-4,0.03121 -0.003,0.06234 -0.0041,0.09353 h 0.166915 c 0.0017,-0.04966 0.005,-0.09912 0.0062,-0.148828 z m -34.268709,1.21543 c -0.05644,0.01348 -0.114892,0.02117 -0.175183,0.02274 0.0034,0.146124 0.0062,0.292131 0.0124,0.438733 l 0.173116,-0.05633 c -0.0055,-0.135312 -0.0073,-0.270217 -0.01033,-0.405143 z m -1.71359,0.02274 c 0.0082,0.306307 0.02013,0.613189 0.03979,0.921391 l 0.1726,-0.05633 c -0.01774,-0.288948 -0.02861,-0.576705 -0.03617,-0.86403 H 25.37675 c -0.0059,0 -0.01166,-9.13e-4 -0.01757,-0.001 z m 0.797367,0.001 c 0.006,0.224065 0.01445,0.448794 0.02687,0.67386 l 0.165881,-0.05374 c -0.01,-0.207247 -0.01611,-0.41373 -0.02067,-0.620117 z m 10.671183,0.04186 0.888318,0.06046 c 0,0 -0.132157,1.924395 -0.223759,3.260783 h 0.490926 c 0.466905,0 0.842843,0.375933 0.842843,0.842843 v 0.69143 c 0,0.46691 -0.375938,0.842843 -0.842843,0.842843 h -1.4981 c -0.466902,0 -0.842842,-0.375933 -0.842842,-0.842843 v -0.69143 c 0,-0.226426 0.08979,-0.430753 0.234094,-0.581877 -0.831052,-0.991332 -1.924947,-2.296501 -1.924947,-2.296501 l 0.682129,-0.571541 1.983341,2.365747 z m 24.222811,0.297656 c -0.268776,2.075245 -0.953174,4.086139 -1.989026,5.91075 l 0.145728,0.10232 c 1.056551,-1.855108 1.747685,-3.89932 2.014347,-6.01307 z m 0.684713,0 c -0.240952,1.961402 -0.841673,3.867366 -1.755965,5.632214 0.06323,0.0022 0.12318,0.01526 0.181384,0.03307 0.90942,-1.774411 1.508301,-3.690132 1.752348,-5.665287 z m -20.060791,0.168982 0.183451,0.56379 -2.43706,0.793233 -0.183452,-0.56379 z m 8.098214,0.628902 1.207678,3.711401 0.0067,-0.0026 0.121956,0.214457 c -0.0025,-0.0072 0.0048,-0.0087 0.0026,-0.0155 0.58699,0.05313 0.920129,0.429687 1.166337,0.949813 0.05703,-0.01481 0.115802,-0.02481 0.17725,-0.02481 0.411102,0 0.742074,0.351636 0.742074,0.788066 v 0.905887 c 0,0.43643 -0.330972,0.788066 -0.742074,0.788066 -0.411099,0 -0.742073,-0.351636 -0.742073,-0.788066 v -0.452168 l -0.210324,0.06873 -0.05064,-0.155546 -0.445968,0.145211 0.05064,0.155546 -0.26355,0.08578 -0.05064,-0.155546 -0.04547,0.01499 v 0.293005 c 0,0.43643 -0.330972,0.788066 -0.742074,0.788066 -0.353994,0 -0.64743,-0.261339 -0.722436,-0.612366 l -0.0067,0.0021 -0.09198,-0.283703 -0.0072,0.0016 c -0.24166,-0.788521 -0.351296,-1.470315 0.254765,-1.97404 l -0.0026,-0.0067 c 0,0 0.0022,0.0066 0.0088,0.0041 l -0.0124,-0.130741 -1.231966,-3.785299 z m -17.149341,1.19941 -0.749309,0.243913 a 1.115361,1.1211319 0 0 1 -0.717785,0.782381 h 1.27279 c 0.10667,0 0.208532,0.01996 0.302307,0.05581 l 0.622701,-0.202571 0.183452,0.56379 -0.328146,0.10697 c 0.02779,0.06828 0.04725,0.141073 0.05633,0.217041 l 0.541569,-0.176217 -0.321944,-0.99012 -0.602548,0.195854 z m 11.07891,0.775663 0.09509,0.291455 c 0.338844,0.109124 0.58291,0.425954 0.58291,0.802019 v 0.69143 c 0,0.0737 -0.01029,0.144862 -0.02791,0.212907 l 0.281636,0.864547 c 0.02652,-0.003 0.05332,-0.0047 0.08061,-0.0047 0.411102,0 0.742074,0.351636 0.742074,0.788066 v 0.351916 c 0.501014,0.203076 0.805373,0.680965 1.047481,1.281059 0.0376,0.09242 0.0683,0.18697 0.101286,0.288354 l -0.162264,0.05271 0.05271,0.162264 -0.31781,0.103353 -0.04806,-0.148828 -0.446485,0.145211 0.04858,0.148828 -0.26355,0.08578 -0.05271,-0.162264 -0.446485,0.145211 0.05271,0.162264 -0.270268,0.08785 -0.05271,-0.162264 -0.445967,0.145211 0.05271,0.162264 -0.26355,0.08578 -0.05271,-0.162264 -0.446484,0.145211 0.05271,0.162264 -0.290422,0.09457 -0.05736,-0.1757 -0.114721,0.03721 -0.08785,-0.270268 0.0062,-0.0026 c -0.237261,-0.775008 -0.342427,-1.443187 0.250114,-1.942517 l -0.02119,-0.202571 0.0067,-0.0021 L 42.75553,91.104 h -0.716236 c -0.466902,0 -0.842842,-0.375933 -0.842842,-0.842843 v -0.69143 c 0,-0.46691 0.37594,-0.842843 0.842842,-0.842843 h 0.892969 z M 33.271871,89.6922 v 0.568957 c 0,0.02953 -0.0012,0.0586 -0.0041,0.08733 l 0.196887,-0.06408 z m 3.942395,1.64176 c 0.411102,0 0.742074,0.351636 0.742074,0.788066 v 0.905887 c 0,0.43643 -0.330972,0.788066 -0.742074,0.788066 -0.411101,0 -0.742074,-0.351636 -0.742074,-0.788066 v -0.905887 c 0,-0.43643 0.330973,-0.788066 0.742074,-0.788066 z m 2.500106,0 c 0.411099,0 0.742073,0.351636 0.742073,0.788066 v 0.905887 c 0,0.43643 -0.330974,0.788066 -0.742073,0.788066 -0.411101,0 -0.742074,-0.351636 -0.742074,-0.788066 v -0.905887 c 0,-0.43643 0.330973,-0.788066 0.742074,-0.788066 z m 7.500317,0 c 0.411102,0 0.742074,0.351636 0.742074,0.788066 v 0.905887 c 0,0.43643 -0.330972,0.788066 -0.742074,0.788066 -0.411098,0 -0.742073,-0.351636 -0.742073,-0.788066 v -0.905887 c 0,-0.43643 0.330975,-0.788066 0.742073,-0.788066 z m -5.000211,0.388607 a 0.84787494,0.85230178 0 0 1 0.84801,0.852661 0.84787494,0.85230178 0 0 1 -0.84801,0.852144 0.84787494,0.85230178 0 0 1 -0.848011,-0.852144 0.84787494,0.85230178 0 0 1 0.848011,-0.852661 z m 20.968745,0.436149 c -0.760922,1.661682 -1.738267,3.221536 -2.909383,4.634859 a 0.84787494,0.85230178 0 0 1 0.529167,0.781348 0.84787494,0.85230178 0 0 1 -0.01085,0.06718 c 0.870253,-1.018326 1.640108,-2.114117 2.306319,-3.268534 a 0.95311534,0.95807099 0 0 1 -0.01964,-0.125574 0.95311534,0.95807099 0 0 1 0.558106,-0.859379 c 0.116675,-0.228523 0.229393,-0.45892 0.337963,-0.691431 a 0.95311534,0.95807099 0 0 1 -0.791683,-0.538468 z m -6.45697,1.010791 -0.04858,0.06976 0.08217,0.05684 c -0.01393,-0.04091 -0.02614,-0.08282 -0.03359,-0.126607 z m 1.433504,0.09508 c -0.08971,0.302758 -0.343654,0.526467 -0.653706,0.548804 l 1.686718,1.168404 -0.604097,0.872298 0.608748,0.42168 1.675867,-2.418974 -0.392741,-0.272334 c -0.123823,0.131835 -0.291525,0.216542 -0.478524,0.228926 l -0.340547,0.491443 z m -1.843298,0.266134 -0.698665,0.619084 0.315226,0.696598 -1.086239,0.962732 -0.65629,-0.393774 -0.698149,0.619083 1.382861,0.798401 h 0.532784 c 0.436424,0 0.788066,0.330974 0.788066,0.742074 0,0.0067 -8.49e-4,0.01303 -10e-4,0.01964 l 0.486792,0.28112 h 0.774629 l 0.522966,-0.463538 z m -25.643913,0.574642 -0.168982,0.05478 c 0.930324,1.207984 2.024903,2.268945 3.24373,3.161564 a 0.84787494,0.85230178 0 0 1 0.07752,-0.15968 c -1.182098,-0.866709 -2.246023,-1.89269 -3.152263,-3.056661 z m -0.689363,0.224276 -0.168982,0.05529 c 0.999198,1.343177 2.195885,2.513623 3.536218,3.490743 h 0.06304 c 0.28015,0 0.512009,0.189356 0.58136,0.447001 0.785317,0.519127 1.613427,0.975817 2.476852,1.363224 a 0.84787494,0.85230178 0 0 1 0.0615,-0.116272 l 0.01499,-0.04393 C 35.823576,99.202032 35.12442,98.82837 34.454232,98.411034 a 0.84787494,0.85230178 0 0 1 -0.619084,-0.402559 c -1.47155,-1.007458 -2.779193,-2.24317 -3.851961,-3.678845 z m -0.716752,0.23306 -0.162264,0.05323 c 0.884835,1.227402 1.928623,2.318225 3.094384,3.25975 h 0.272852 C 31.264598,96.924246 30.18372,95.813151 29.266431,94.562703 Z m -0.754993,0.253215 -0.168982,0.05478 c 0.491059,0.694966 1.030147,1.349707 1.611271,1.962154 h 0.05426 c 0.07395,0 0.144092,0.01271 0.211874,0.03049 -0.617707,-0.636423 -1.190515,-1.318806 -1.708423,-2.04742 z m 27.740426,0.741557 0.690397,1.51877 -1.428337,-0.864547 z m -3.853512,1.309481 -1.622123,0.875915 a 0.84787494,0.85230178 0 0 1 -0.535885,0.630969 l 0.284737,0.523483 1.470712,2.728001 0.731738,-0.39532 v -0.12403 c 0,-0.20775 0.157478,-0.37543 0.359668,-0.39584 h -0.54777 c -0.33517,0 -0.604615,-0.26996 -0.604615,-0.60513 v -1.048001 l -0.220658,0.118339 -0.363802,-0.681612 -0.10387,-0.205156 1.482597,-0.796334 z m -21.62297,0.544152 c 0.01261,0.05285 0.02067,0.107283 0.02067,0.163815 0,0.02823 -0.0019,0.05581 -0.0052,0.0832 0.07978,0.07372 0.161285,0.145303 0.242363,0.217558 h 0.253214 c -0.1734,-0.151413 -0.343584,-0.306518 -0.51108,-0.464572 z m 28.442709,0.564307 c -0.310934,0.321769 -0.633212,0.633666 -0.965833,0.93586 V 100.105 c 0,0.0203 -0.0043,0.0396 -0.0062,0.0594 0.658574,-0.552251 1.28095,-1.140549 1.864486,-1.761651 a 0.84787494,0.85230178 0 0 1 -0.155546,0.02429 0.84787494,0.85230178 0 0 1 -0.736906,-0.451652 z m -23.985616,0.109037 a 0.84787494,0.85230178 0 0 1 -0.129191,0.129191 c 0.515101,0.303794 1.046481,0.58148 1.593701,0.828374 l 0.05736,-0.168466 c -0.521664,-0.236228 -1.029118,-0.500742 -1.52187,-0.789099 z m 13.261206,0.644405 c -0.160198,-0.0019 -0.32606,0.01997 -0.499195,0.06511 l -1.127062,0.295072 v 0.20929 a 0.84787494,0.85230178 0 0 1 0.347265,-0.07545 0.84787494,0.85230178 0 0 1 0.671277,0.33693 l 0.287838,-0.07648 c 0.04842,-0.01202 0.09549,-0.0196 0.141593,-0.02222 0.138309,-0.0079 0.267767,0.02718 0.395325,0.109038 0.01111,0.0112 0.0286,0.02012 0.03979,0.03152 0.178857,0.13616 0.294795,0.330416 0.364835,0.591697 l 0.02584,0.0992 a 0.84787494,0.85230178 0 0 1 -0.03411,-0.21756 0.84787494,0.85230178 0 0 1 0.560173,-0.797368 c -0.0076,-0.0087 -0.01391,-0.01835 -0.0217,-0.02687 -0.107035,-0.122156 -0.238732,-0.228859 -0.393258,-0.313159 -0.240681,-0.136579 -0.491614,-0.205573 -0.75861,-0.208773 z m -14.475602,0.234095 v 0.198954 c 0.07143,0.04403 0.141855,0.08926 0.21394,0.132292 a 0.84787494,0.85230178 0 0 1 0.239779,-0.05684 c -0.152627,-0.08927 -0.303969,-0.18065 -0.453719,-0.274402 z m 3.941878,0.108003 -0.0093,0.03152 -0.06046,0.228927 -0.04806,0.150378 -0.0083,0.02894 a 0.84787494,0.85230178 0 0 1 0.126091,0.15813 z m -2.657202,0.625285 a 0.84787494,0.85230178 0 0 1 0.07596,0.224793 c 0.300733,0.151091 0.604991,0.295841 0.914673,0.430471 l 0.04393,-0.16433 c -0.350604,-0.15276 -0.695539,-0.316385 -1.034562,-0.490934 z m 2.711462,0.659914 a 0.84787494,0.85230178 0 0 1 -0.578259,0.5364 l -0.114722,0.38809 -0.03927,0.15503 -0.196887,0.67438 h 1.39578 l 0.110071,-0.16588 0.0956,-0.14315 0.309025,-0.47439 0.09767,-0.13642 0.28422,-0.43667 0.02894,-0.0434 h -0.817521 l -0.175183,0.25218 -0.02222,0.0233 -0.0093,-0.005 -0.0021,-0.0295 0.07493,-0.25166 c -0.197164,-0.0359 -0.360352,-0.16598 -0.4408,-0.34313 z m 11.144023,0.002 0.138493,0.53175 c 0.06788,0.25452 0.04825,0.49256 -0.02739,0.6966 -0.08696,0.19243 -0.238556,0.32397 -0.436666,0.38137 l -0.517798,0.13074 -0.404626,-1.54151 a 0.84787494,0.85230178 0 0 1 -0.695565,0.37052 0.84787494,0.85230178 0 0 1 -0.171566,-0.0253 l 0.320911,1.2082 h 2.52336 c 0.05422,-0.0644 0.105519,-0.13185 0.150895,-0.20568 0.18597,-0.30994 0.249594,-0.65432 0.196371,-1.02784 a 0.84787494,0.85230178 0 0 1 -0.27957,0.0506 0.84787494,0.85230178 0 0 1 -0.79685,-0.56947 z m -13.889592,0.16278 a 0.84787494,0.85230178 0 0 1 -0.103869,0.13177 c 0.293039,0.14422 0.58894,0.28324 0.889868,0.41238 l 0.05478,-0.15348 c -0.28424,-0.12276 -0.563652,-0.25442 -0.840776,-0.39067 z m -3.940844,0.18965 c 0.221596,0 0.399975,0.17838 0.399975,0.39998 v 0.0754 c 0.458729,0.32621 0.929503,0.63505 1.411283,0.92449 h 1.975074 c -0.830199,-0.41204 -1.631839,-0.88102 -2.401404,-1.39992 z m 8.588106,0 0.001,0.0243 0.0098,0.16898 0.01447,0.52607 0.0031,0.17105 0.01757,0.50953 h 0.02532 v -1.00408 c 0,-0.20775 0.157482,-0.37543 0.359668,-0.39584 z m 4.11086,0 c 0.08677,0.009 0.164384,0.0458 0.225826,0.10129 l 0.643372,-0.007 -0.357085,1.2454 -0.0093,-0.005 -0.142627,-0.447 v 0.51263 h 1.036629 l 0.430981,-1.40043 z m 12.745992,0 c 0.179909,0.0207 0.31793,0.1614 0.343648,0.34055 0.152459,-0.11142 0.302579,-0.22547 0.451652,-0.34055 z" /></g><g
     inkscape:groupmode="layer"
     id="layer5"
     inkscape:label="board"
     style="display:inline"
     transform="translate(-22.993945,-61.830215)" /><style
     type="text/css"
     id="style2">
	.st0{fill:#981B1F;}
	.st1{fill-rule:evenodd;clip-rule:evenodd;fill:#981B1F;}
	.st2{fill:#FFFFFF;}
	.st3{fill:none;}
	.st4{fill:none;stroke:#8A1919;stroke-width:5;stroke-miterlimit:10;}
</style></svg>
