<?xml version="1.0" encoding="UTF-8" standalone="no"?>
<!-- Created with Inkscape (http://www.inkscape.org/) -->

<svg
   width="50.020721mm"
   height="91.258507mm"
   viewBox="0 0 50.020721 91.258509"
   version="1.1"
   id="svg225076"
   xml:space="preserve"
   inkscape:version="1.2.1 (9c6d41e410, 2022-07-14)"
   sodipodi:docname="keep-out-zone.svg"
   xmlns:inkscape="http://www.inkscape.org/namespaces/inkscape"
   xmlns:sodipodi="http://sodipodi.sourceforge.net/DTD/sodipodi-0.dtd"
   xmlns="http://www.w3.org/2000/svg"
   xmlns:svg="http://www.w3.org/2000/svg"><sodipodi:namedview
     id="namedview225078"
     pagecolor="#ffffff"
     bordercolor="#666666"
     borderopacity="1.0"
     inkscape:showpageshadow="2"
     inkscape:pageopacity="0.0"
     inkscape:pagecheckerboard="0"
     inkscape:deskcolor="#d1d1d1"
     inkscape:document-units="mm"
     showgrid="false"
     inkscape:zoom="2.8284271"
     inkscape:cx="-13.435029"
     inkscape:cy="271.88256"
     inkscape:window-width="3840"
     inkscape:window-height="2050"
     inkscape:window-x="-12"
     inkscape:window-y="-12"
     inkscape:window-maximized="1"
     inkscape:current-layer="layer7" /><defs
     id="defs225073" /><g
     inkscape:groupmode="layer"
     id="layer7"
     inkscape:label="shape"
     style="display:inline"
     transform="translate(-70.00658,-12.993522)"><path
       id="rect243069"
       style="fill:#1426d2;fill-opacity:0.629984;fill-rule:evenodd;stroke-width:0.529167;stroke-linecap:round"
       d="m 73.289067,12.993522 v 0.267167 3.006018 2.994133 3.006018 2.993616 3.006534 2.993616 0.166915 l -5.17e-4,0.02532 -0.0015,0.02584 -0.0016,0.01085 v 0.0016 c 0,1.00806 -0.0097,1.917268 -0.01964,2.799312 -0.01225,1.091257 -0.02465,2.104669 -0.03256,3.026172 -0.0094,1.09425 -0.0062,2.087908 0.02377,2.982247 0.03427,1.021125 0.104221,1.933005 0.240296,2.753321 1.18e-4,7.15e-4 3.98e-4,0.0014 5.16e-4,0.0021 0.07116,0.428544 0.16013,0.834645 0.270268,1.22163 0.05514,0.193733 0.115552,0.383413 0.181901,0.568441 0.06627,0.184797 0.138632,0.365352 0.217041,0.542603 2.2e-4,4.96e-4 2.97e-4,0.0011 5.17e-4,0.0016 0.288987,0.652912 0.663953,1.258688 1.14825,1.845365 0.09709,0.117613 0.197764,0.235079 0.303858,0.3514 0.106128,0.11636 0.215719,0.232256 0.331246,0.347783 l 0.02842,0.02015 0.03307,0.02481 0.03772,0.02946 0.04237,0.03462 0.04599,0.03927 0.04961,0.04444 0.05374,0.05013 0.05684,0.05529 0.05994,0.0615 0.06304,0.0677 0.06563,0.0739 0.03411,0.03927 0.03411,0.04082 0.05839,0.07183 0.05943,0.07751 0.05994,0.08268 0.02945,0.04393 10e-4,0.0016 0.02894,0.04341 0.02945,0.04651 0.02946,0.04754 0.02842,0.04909 0.02842,0.05064 0.02791,0.05168 0.02687,0.05271 0.02635,0.05426 0.02532,0.05581 0.02325,0.05323 0.02222,0.05478 0.02119,0.05581 0.02067,0.05736 0.01912,0.05839 0.01809,0.05994 0.01705,0.0615 0.0155,0.06253 0.01395,0.06356 0.0124,0.06511 0.01085,0.06666 0.0093,0.06718 0.0072,0.06925 0.0052,0.06976 0.0031,0.07131 0.001,0.07286 -5.17e-4,0.06614 -0.0026,0.06563 -0.0041,0.06666 -0.0052,0.06615 -0.0072,0.06615 -0.0088,0.06615 -0.01085,0.06614 -0.01189,0.06615 -0.01344,0.06615 -0.0155,0.06615 -0.01705,0.06563 -0.0186,0.06563 -0.02015,0.06511 -0.0217,0.06511 -0.02326,0.06459 -0.0248,0.0646 -0.02532,0.06046 -0.02687,0.05994 -0.02791,0.05994 -0.02945,0.05943 -0.03101,0.05891 -0.03256,0.05839 -0.03411,0.05839 -0.01137,0.0186 -0.02377,0.03876 -0.03721,0.05684 -0.03824,0.05633 -0.03979,0.05529 -0.04134,0.05478 -0.04289,0.05426 -0.04444,0.05323 -0.04548,0.05219 -0.04703,0.05168 -0.04651,0.04806 -0.04754,0.04754 -0.04909,0.04651 -0.05064,0.04599 -0.05168,0.04444 -0.05323,0.04341 -0.05478,0.04289 -0.05581,0.04134 -0.05684,0.04031 -0.05839,0.03876 -0.05994,0.03772 -0.01447,0.0088 -0.04651,0.02791 -0.06253,0.03514 -0.06356,0.03359 -0.06511,0.03204 -0.06615,0.03101 -0.06511,0.0279 -0.06615,0.02687 -0.06666,0.0248 -0.06821,0.02325 -0.06925,0.0217 -0.07028,0.02015 -0.07131,0.0186 -0.07235,0.01654 -0.07338,0.01499 -0.07441,0.01292 -0.07493,0.01137 -0.07648,0.0093 -0.077,0.0072 -0.07803,0.0052 -0.07906,0.0031 -0.0801,10e-4 -0.28267,-0.0026 -0.256832,-0.0067 -0.234611,-0.0098 -0.214457,-0.01189 -0.357601,-0.02532 -0.153996,-0.01085 -0.139526,-0.0083 -0.06253,-0.0031 -0.05943,-0.0021 -0.05736,-10e-4 h -0.03101 -0.02429 l -0.05374,10e-4 -0.05271,0.0026 -0.05219,0.0036 -0.05219,0.0052 -0.05064,0.0062 -0.05219,0.0083 -0.05529,0.0098 -0.05736,0.01189 -0.06046,0.01447 -0.06356,0.01705 -0.06718,0.01964 -0.07183,0.02222 -0.02584,0.0088 -0.02739,0.01034 -0.02842,0.01188 -0.02945,0.01292 -0.03049,0.01447 -0.03152,0.01602 -0.03256,0.01757 -0.03359,0.01912 -0.03462,0.02119 -0.03514,0.02222 -0.03617,0.02377 -0.03669,0.02584 -0.03772,0.02687 -0.03824,0.02894 -0.03876,0.03101 -0.03979,0.03256 -0.03824,0.03256 -0.03876,0.03411 -0.03876,0.03566 -0.03876,0.03721 -0.03876,0.03824 -0.03876,0.03927 -0.03927,0.04134 -0.03876,0.04186 -0.03824,0.04392 -0.03876,0.04496 -0.03824,0.04599 -0.03772,0.04754 -0.03772,0.04858 -0.03721,0.05013 -0.03721,0.05116 -0.03669,0.05271 -0.06976,0.105937 -0.0677,0.110071 -0.06511,0.114722 -0.06201,0.118339 -0.05891,0.122473 -0.02791,0.06305 -0.02739,0.06356 -0.02584,0.0646 -0.02532,0.06511 -0.02429,0.06666 -0.02325,0.06718 -0.04186,0.134359 -0.03721,0.137459 -0.01602,0.07028 -0.01602,0.07028 -0.02739,0.14366 -0.01137,0.07338 -0.01034,0.07338 -0.0083,0.07441 -0.0072,0.07493 -0.0057,0.07597 -0.0041,0.07596 -0.0026,0.077 -0.001,0.07803 0.001,0.07648 0.0026,0.07596 0.0093,0.150378 0.0155,0.148828 0.0217,0.146245 0.02687,0.144177 0.03256,0.141593 0.03721,0.13901 0.04237,0.136426 0.04703,0.131774 0.05064,0.128675 0.05478,0.125574 0.05839,0.122473 0.06201,0.118855 0.0083,0.01395 0.05736,0.101286 0.06821,0.111621 0.0708,0.108004 0.03617,0.05168 0.03669,0.05064 0.0739,0.09767 0.07596,0.09302 0.077,0.08837 0.07752,0.08372 0.07803,0.07855 0.07855,0.07338 0.07803,0.06821 0.03927,0.03204 0.03824,0.02997 0.03824,0.02894 0.03721,0.02687 0.03617,0.02584 0.03617,0.02377 0.03514,0.02222 0.03411,0.02067 0.03359,0.01912 0.03256,0.01809 0.03204,0.01602 0.03101,0.01499 0.02946,0.01344 0.02894,0.01189 0.02791,0.01033 0.02635,0.0093 0.0708,0.0217 0.06666,0.01912 0.06356,0.01705 0.05891,0.01395 h 0.001 l 0.05788,0.0124 0.05529,0.0098 0.05323,0.0083 0.05116,0.0067 0.05168,0.0047 0.05116,0.0041 0.05271,0.0021 0.05323,0.0016 h 0.05529 l 0.05788,-10e-4 0.05994,-0.0021 0.06356,-0.0026 0.136942,-0.0083 0.152962,-0.01085 0.170533,-0.0124 0.190169,-0.01292 0.21084,-0.01188 0.23306,-0.0098 0.258899,-0.0067 0.139527,-0.0021 0.146761,-5.17e-4 0.07855,10e-4 0.07751,0.0031 0.077,0.0047 0.07648,0.0072 0.07545,0.0088 0.07441,0.01085 0.07441,0.01292 0.07286,0.01447 0.04238,0.0098 0.02997,0.0067 0.07183,0.01809 0.0708,0.02015 0.06976,0.0217 0.06925,0.02377 0.06821,0.02532 0.06718,0.02687 0.06615,0.02894 0.06511,0.02997 0.06356,0.03152 0.06305,0.03307 0.06149,0.03462 0.06046,0.03566 0.05943,0.03772 0.05839,0.03824 0.05736,0.04031 0.05581,0.04134 0.05478,0.04237 0.05374,0.04392 0.05219,0.04496 0.05116,0.04651 0.05013,0.04702 0.04909,0.04858 0.04703,0.04961 0.04599,0.05013 0.02222,0.02532 0.02274,0.02584 0.04341,0.05219 0.04237,0.05323 0.04082,0.05426 0.03979,0.05478 0.03824,0.05581 0.03669,0.05684 0.0047,0.0078 0.03101,0.04961 0.03411,0.05788 0.03307,0.05891 0.03152,0.05994 0.02997,0.05994 0.02894,0.06098 0.02687,0.0615 0.02584,0.06253 0.02429,0.06253 0.02326,0.06305 0.02119,0.06356 0.02015,0.06408 0.0186,0.0646 0.01654,0.06511 0.0155,0.06563 0.01395,0.06563 0.0124,0.06666 0.01085,0.06666 0.0093,0.06666 0.0072,0.06718 0.0062,0.0677 0.0041,0.0677 0.0026,0.0677 5.17e-4,0.06821 0.0021,1.019576 0.0016,0.941027 -0.0036,2.067574 v 0.03307 l -5.17e-4,0.0677 -0.0026,0.06821 -0.0041,0.06718 -0.0062,0.0677 -0.0072,0.06718 -0.0093,0.06666 -0.01034,0.06666 -0.0124,0.06615 -0.01395,0.06615 -0.0155,0.06563 -0.01705,0.06511 -0.01809,0.0646 -0.02015,0.06408 -0.02119,0.06356 -0.02274,0.06305 -0.02481,0.06253 -0.02584,0.06201 -0.02687,0.0615 -0.02894,0.06098 -0.02997,0.06046 -0.03152,0.05943 -0.03307,0.05891 -0.03411,0.05839 -0.03566,0.05736 -0.03721,0.05633 -0.03824,0.05581 -0.03979,0.05529 -0.04082,0.05374 -0.04237,0.05323 -0.04341,0.05219 -0.04444,0.05168 -0.04599,0.05013 -0.04754,0.04909 -0.04909,0.04858 -0.05013,0.04754 -0.05116,0.04599 -0.05219,0.04496 -0.05374,0.04393 -0.05478,0.04238 -0.05581,0.04134 -0.05736,0.04031 -0.05839,0.03876 -0.05943,0.03721 -0.06046,0.03617 -0.06149,0.03411 -0.06305,0.03307 -0.06356,0.03204 -0.06511,0.02997 -0.06615,0.02842 -0.06718,0.02687 -0.06821,0.02532 -0.06925,0.02377 -0.06976,0.02222 -0.0708,0.01964 -0.07131,0.0186 -0.07286,0.01654 -0.07286,0.01447 -0.07441,0.01292 -0.07441,0.01085 -0.07545,0.0088 -0.07648,0.0072 -0.077,0.0052 -0.07751,0.0031 -0.07803,10e-4 -0.03307,-5.17e-4 -0.253732,-0.0021 -0.258382,-0.0067 -0.233061,-0.0098 -0.210323,-0.01188 -0.361218,-0.02532 -0.152962,-0.01085 -0.136943,-0.0083 -0.06356,-0.0031 -0.06046,-0.0021 -0.05788,-0.001 h -0.05529 l -0.05323,0.0016 -0.05219,0.0021 -0.05168,0.0041 -0.05168,0.0047 -0.05116,0.0067 -0.05323,0.0083 -0.05529,0.0098 -0.05788,0.0124 -0.05994,0.01447 -0.06356,0.01654 -0.06666,0.01964 -0.0708,0.0217 -0.02635,0.0093 -0.02791,0.01033 -0.02894,0.01189 -0.02946,0.01344 -0.03101,0.01499 -0.03152,0.01602 -0.03307,0.01757 -0.03359,0.01964 -0.03411,0.02067 -0.03514,0.02222 -0.03566,0.02377 -0.03669,0.02532 -0.03721,0.02739 -0.03824,0.02842 -0.03824,0.03049 -0.03927,0.03204 -0.03876,0.03359 -0.03927,0.03462 -0.03927,0.03617 -0.03927,0.03721 -0.03876,0.03876 -0.03927,0.03979 -0.03876,0.04082 -0.03876,0.04237 -0.03876,0.04392 -0.03824,0.04444 -0.03824,0.04599 -0.03721,0.04754 -0.03772,0.04806 -0.03669,0.04961 -0.03669,0.05064 -0.03566,0.05168 -0.07131,0.108004 -0.06821,0.111104 -0.06511,0.115239 -0.06253,0.118855 -0.05839,0.122474 -0.02791,0.06201 -0.02687,0.06356 -0.02584,0.06408 -0.02481,0.0646 -0.02429,0.06563 -0.02274,0.06615 -0.04237,0.136425 -0.03721,0.13901 -0.03256,0.141593 -0.02687,0.144178 -0.0217,0.146244 -0.0083,0.0739 -0.0072,0.07441 -0.0052,0.07493 -0.0041,0.07596 -0.0026,0.07597 -5.17e-4,0.07648 5.17e-4,0.07752 0.0026,0.077 0.0098,0.151929 0.0155,0.149345 0.0217,0.146761 0.02739,0.143661 0.03204,0.141076 0.03772,0.13746 5.17e-4,0.0026 0.04134,0.131775 0.04703,0.133326 0.05116,0.130224 0.05529,0.126091 0.05891,0.12299 0.06201,0.118339 0.06511,0.114721 0.0677,0.110588 0.07028,0.105936 0.03617,0.05271 0.03721,0.05116 0.03721,0.04961 0.03772,0.04909 0.07596,0.09353 0.077,0.08837 0.07803,0.0832 0.07752,0.07803 0.07751,0.07235 0.07751,0.06718 0.03927,0.03256 0.0067,0.0052 0.03204,0.02532 0.03824,0.02894 0.03772,0.02739 0.03669,0.02584 0.03617,0.02377 0.03514,0.02222 0.03462,0.02067 0.03359,0.01912 0.03256,0.01757 0.03152,0.01602 0.03049,0.01499 0.02945,0.01292 0.02842,0.01188 0.02739,0.01033 0.02635,0.0088 0.07131,0.02222 0.06718,0.01964 0.06356,0.01654 0.06046,0.01447 0.05736,0.01189 0.05529,0.0098 0.05219,0.0083 0.05116,0.0062 0.05219,0.0052 0.05168,0.0036 0.05271,0.0026 0.05374,10e-4 h 0.05529 l 0.05736,-10e-4 0.05994,-0.0021 0.06253,-0.0026 0.13901,-0.0088 0.153996,-0.01085 0.170015,-0.0124 0.188102,-0.0124 0.213941,-0.0124 0.234094,-0.0098 0.162264,-0.0047 0.09508,-0.0026 0.137976,-0.0016 0.14521,-5.17e-4 0.07958,0.001 0.07906,0.0031 0.07803,0.0052 0.077,0.0072 0.07597,0.0093 0.07545,0.01085 0.0739,0.01292 0.07338,0.01499 0.07235,0.01654 0.07131,0.0186 0.07028,0.02015 0.06925,0.0217 0.06821,0.02325 0.06718,0.02532 0.06615,0.02635 0.06511,0.02842 0.06615,0.03049 0.0646,0.03204 0.06408,0.03359 0.06201,0.03514 0.06098,0.03669 0.05994,0.03772 0.0584,0.03876 0.05736,0.04031 0.05581,0.04134 0.05426,0.04289 0.05323,0.04341 0.05219,0.04496 0.02429,0.02222 5.17e-4,5.17e-4 0.02532,0.02274 0.04909,0.04651 0.04806,0.04754 0.04651,0.04858 0.04703,0.05116 0.04548,0.05219 0.04444,0.05323 0.04237,0.05426 0.04134,0.05478 0.03979,0.05529 0.03876,0.05633 0.03669,0.05684 0.03566,0.05736 0.03359,0.05788 0.03256,0.05839 0.03152,0.05943 0.02945,0.05943 0.02791,0.05994 0.02687,0.05994 0.02532,0.06098 0.0248,0.06408 0.02326,0.0646 0.0217,0.06511 0.02015,0.06511 0.0186,0.06563 0.01705,0.06563 0.01499,0.06563 0.01395,0.06614 0.01189,0.06615 0.01085,0.06666 0.0088,0.06615 0.0072,0.06614 0.0057,0.06666 0.0036,0.06615 0.0026,0.05994 v 0.0067 l 0.001,0.06615 -0.001,0.0677 -0.0021,0.06666 -0.0036,0.06615 -0.0052,0.06511 -0.01395,0.127124 -0.0186,0.12299 -0.02325,0.118856 -0.02739,0.115238 -0.03049,0.111105 -0.03359,0.10697 -0.03927,0.109554 -0.04134,0.105937 -0.04444,0.101802 -0.04599,0.09715 -0.04754,0.09302 -0.04858,0.08837 -0.04909,0.08423 -0.04909,0.0801 -0.05374,0.08217 -0.05426,0.07855 -0.05374,0.07441 -0.05323,0.07028 -0.05219,0.06615 -0.05064,0.06201 -0.04858,0.05736 -0.04651,0.05323 -0.04858,0.05374 -0.04651,0.04961 -0.04341,0.04599 -0.03979,0.04134 -0.03876,0.03927 -0.03566,0.03566 -0.05736,0.05684 -0.01654,0.01602 -0.0186,0.01757 -0.03876,0.03772 -0.09664,0.09147 -0.05943,0.05684 -0.06201,0.06046 -0.06511,0.0646 -0.06821,0.0677 -0.09509,0.09612 -0.09405,0.09715 -0.09302,0.09922 -0.09198,0.100252 -0.06976,0.07751 -0.0677,0.077 -0.06563,0.077 -0.06356,0.07596 -0.09405,0.116272 -0.08682,0.112137 -0.0801,0.107487 -0.07286,0.10387 -0.06666,0.09922 -0.05994,0.0956 -0.05426,0.09095 -0.04806,0.08733 -0.02791,0.05271 -0.0248,0.05116 -0.02326,0.04909 -0.02067,0.04703 -0.0186,0.04548 -0.01654,0.04341 -0.01499,0.04186 -0.01292,0.03979 -0.01292,0.04341 -0.01085,0.04082 -0.0083,0.03876 -0.0072,0.03669 -0.0047,0.03411 -0.0036,0.03256 -0.0021,0.02997 -5.17e-4,0.02842 -10e-4,0.297139 -0.0031,0.326596 -0.0031,0.21394 -0.0093,0.58136 -0.0098,0.509013 -0.01757,0.99167 -0.0062,0.535885 -0.0015,0.433049 -5.17e-4,0.102836 v 0.02222 l 0.001,0.02222 0.001,0.02222 0.0021,0.0217 0.0026,0.02119 0.0026,0.02119 0.0036,0.02119 0.0036,0.02119 0.0047,0.02067 0.0047,0.02119 0.0057,0.02015 0.0057,0.02067 0.0062,0.02067 0.0067,0.02015 0.01499,0.04082 0.0088,0.02119 0.0088,0.02119 0.01964,0.04289 0.0217,0.04341 0.02429,0.04393 0.02635,0.04496 0.02894,0.04548 0.03101,0.04651 0.03359,0.04754 0.03669,0.04961 0.03876,0.05064 0.04082,0.05116 0.04237,0.05168 0.04444,0.05219 0.04548,0.05323 0.09663,0.109554 0.216524,0.240296 0.112138,0.125057 0.113172,0.128674 0.10542,0.124023 0.03256,0.03876 0.130741,0.162264 0.12299,0.16278 0.05891,0.08217 0.05736,0.08268 0.05529,0.0832 0.05374,0.08423 0.05168,0.08527 0.05064,0.0863 0.04806,0.08785 0.04702,0.08888 0.04496,0.09095 0.04341,0.0925 0.06563,0.151412 0.05788,0.147278 0.05013,0.142627 0.04393,0.137459 0.03721,0.131775 0.0031,0.01292 0.02842,0.112655 0.02635,0.118856 0.0217,0.111104 0.02791,0.166398 0.02119,0.15813 0.0155,0.147795 0.01033,0.135909 0.0067,0.120923 0.0036,0.104903 0.0015,0.152445 -0.001,0.01395 v 0.0036 l 0.01654,1.468128 0.03307,2.972428 0.0015,0.127641 v 2.864941 3.00653 1.22266 h 1.770951 3.006018 2.994133 3.005501 2.994649 3.006019 2.993615 3.006535 2.993611 3.00602 2.99362 3.00653 2.99362 3.00653 2.72335 V 101.52869 98.522152 95.528536 92.522001 89.528385 86.522367 83.528752 80.522217 77.528601 74.522066 71.528451 68.522432 65.5283 62.522282 59.528666 56.522131 53.528516 50.522498 47.528365 44.522347 41.528731 38.522196 35.528581 32.522046 29.52843 26.522412 23.528796 20.522262 17.528646 14.522111 12.993522 h -1.46503 -3.00602 -2.99413 -3.00602 -2.99361 -3.00654 -2.99361 -3.006535 -2.993099 -3.006534 -2.993616 -3.006535 -2.993616 -3.006018 -2.994132 -3.006018 z m 2.124934,2.125452 h 2.016932 l -2.016932,2.016931 z m 5.02295,0 h 2.993615 l -8.016565,8.016565 V 20.79408 a 1.6095556,1.6095556 0 0 1 -0.691947,-1.316716 1.6095556,1.6095556 0 0 1 1.609721,-1.609721 1.6095556,1.6095556 0 0 1 1.002523,0.353984 z m 6.00015,0 h 2.993616 L 75.414001,29.135689 v -2.993615 z m 6.000151,0 h 2.993099 L 75.394881,35.15496 c 0.02808,-1.014046 0.05251,-2.026438 0.03721,-3.030823 z m 5.999634,0 h 2.993614 l -2.795694,2.795695 a 1.6095556,1.6095556 0 0 1 0.29714,-0.04703 1.6095556,1.6095556 0 0 1 1.555464,1.200961 l 3.94963,-3.94963 h 2.99361 l -0.15916,0.159163 h 1.90479 c 0.30511,0 0.57988,0.123168 0.77877,0.322461 l 0.48162,-0.481624 h 2.99413 l -5.15937,5.159375 h 2.00453 v 1.001489 l 6.16086,-6.160864 h 1.46554 v 1.528072 l -8.63978,8.639783 c 0.56801,0.04448 1.01338,0.511589 1.01338,1.091406 v 0.05374 c 0,0.6094 -0.49028,1.099675 -1.09968,1.099675 h -2.05259 c -0.0329,0 -0.0639,-0.007 -0.0961,-0.0098 L 76.650618,57.899308 C 75.907684,57.541432 75.067243,57.352535 74.241463,57.314331 L 109.02384,22.531958 h -2.99982 v -0.0062 L 79.23289,49.316886 c -0.112759,-0.502167 -0.3194,-0.985458 -0.630969,-1.421101 -0.113796,-0.195968 -0.243477,-0.381518 -0.379305,-0.562757 L 94.394238,31.161405 a 1.9106394,1.9106394 0 0 1 -0.893485,-1.599902 1.9106394,1.9106394 0 0 1 0.110071,-0.622701 L 76.860425,45.689201 c -0.367876,-0.477861 -0.679281,-0.987526 -0.82734,-1.595252 -0.04362,-0.150194 -0.07975,-0.301618 -0.118339,-0.452685 L 98.532487,21.023523 a 1.6095556,1.6095556 0 0 1 -1.210262,-1.546159 1.6095556,1.6095556 0 0 1 0.04702,-0.297139 L 75.470329,41.079146 c -0.09525,-0.945711 -0.128256,-1.901925 -0.130742,-2.862874 z m 7.595914,1.397847 -11.244271,11.244275 a 1.9106394,1.9106394 0 0 1 0.623218,-0.110071 1.9106394,1.9106394 0 0 1 1.609721,0.883151 L 108.0239,17.531746 h -0.90021 c -0.58016,0 -1.04688,-0.446432 -1.09089,-1.014925 z m 11.86956,3.13676 v 2.993615 l -7.63105,7.631059 h 0.005 v 2.253609 H 108.0177 L 96.919149,43.630412 A 1.9106394,1.9106394 0 0 1 97.322225,44.8014 1.9106394,1.9106394 0 0 1 95.411747,46.712394 1.9106394,1.9106394 0 0 1 94.24541,46.30415 L 79.18173,61.36783 c -0.111807,-0.491048 -0.26782,-0.973454 -0.490409,-1.441255 -0.107195,-0.243649 -0.239078,-0.466969 -0.387573,-0.674378 l 7.592818,-7.592818 a 1.6095556,1.6095556 0 0 1 -0.884701,-1.414384 1.6095556,1.6095556 0 0 1 1.609721,-1.609721 1.6095556,1.6095556 0 0 1 1.428853,0.870231 l 5.803781,-5.80378 a 1.9106394,1.9106394 0 0 1 0.45837,-0.45837 l 11.71143,-11.71143 v -1.25367 h 1.25367 z m 0,6.00015 v 2.993616 l -7.63571,7.63571 c 0.003,0.03185 0.009,0.0625 0.009,0.09508 v 0.05374 c 0,0.609399 -0.49028,1.099674 -1.09968,1.099674 h -0.15813 l -2.7466,2.746603 h 3.00602 l 8.62479,-8.624797 v 2.993616 l -7.6264,7.626408 v 0.258382 h -0.25839 l -2.7466,2.746602 h 1.90531 c 0.30511,0 0.57988,0.123168 0.77877,0.322461 l 7.94731,-7.947318 v 2.993615 l -9.63093,9.630937 h 2.00453 v 1.002006 l 7.6264,-7.626408 v 2.993616 l -8.63978,8.639783 c 0.568,0.0445 1.01338,0.511596 1.01338,1.091406 v 0.05323 c 0,0.609399 -0.49028,1.100191 -1.09968,1.100191 h -2.05259 c -0.0329,0 -0.0639,-0.007 -0.0961,-0.0098 L 87.478898,77.070748 a 1.6095556,1.6095556 0 0 1 0.702283,1.321883 1.6095556,1.6095556 0 0 1 -1.609721,1.609721 1.6095556,1.6095556 0 0 1 -1.321883,-0.702283 l -4.72891,4.72891 c 0.290457,0.122446 0.493509,0.40915 0.493509,0.745175 v 1.601452 c 0,0.06613 -0.01048,0.129756 -0.02532,0.191203 L 106.02402,61.531645 v -1.253154 h 1.25315 L 117.90236,49.6533 v 2.994132 l -7.63105,7.631059 h 0.005 v 2.253093 h -2.25775 L 97.536165,73.013631 a 1.6095556,1.6095556 0 0 1 0.363286,1.001489 1.6095556,1.6095556 0 0 1 -1.609204,1.609205 1.6095556,1.6095556 0 0 1 -1.002006,-0.362769 l -8.88938,8.88938 a 1.6095556,1.6095556 0 0 1 1.000455,1.473812 1.6095556,1.6095556 0 0 1 -0.157096,0.68833 l 19.10323,-19.10271 c -0.19883,-0.198825 -0.32143,-0.474064 -0.32143,-0.778764 v -0.05323 c 0,-0.609399 0.49027,-1.100191 1.09967,-1.100191 h 1.15394 l 9.62473,-9.624735 v 2.993615 l -7.63571,7.63571 c 0.003,0.03202 0.009,0.06284 0.009,0.0956 v 0.05323 c 0,0.609399 -0.49028,1.100191 -1.09968,1.100191 h -0.15864 l -2.74661,2.746603 h 3.00654 l 8.62479,-8.624797 v 2.993616 l -7.6264,7.626408 v 0.257865 h -0.25787 l -2.7466,2.746602 h 1.90479 c 0.30511,0 0.57988,0.123168 0.77877,0.322461 l 7.94731,-7.947318 v 2.994132 l -9.63093,9.630937 h 2.00453 v 1.001489 l 7.6264,-7.626408 V 76.647 l -8.63978,8.639783 c 0.56801,0.04449 1.01338,0.511589 1.01338,1.091406 v 0.05374 c 0,0.609399 -0.49028,1.099674 -1.09968,1.099674 h -2.05259 c -0.0329,0 -0.0639,-0.007 -0.0961,-0.0098 l -9.946167,9.946679 a 1.6095556,1.6095556 0 0 1 0.868164,1.406633 1.6095556,1.6095556 0 0 1 -1.609721,1.609205 1.6095556,1.6095556 0 0 1 -1.406633,-0.867648 l -2.510441,2.510438 h -2.994649 l 1.870687,-1.87069 a 1.6095556,1.6095556 0 0 1 -0.818555,-1.381305 1.6095556,1.6095556 0 0 1 1.609721,-1.609721 1.6095556,1.6095556 0 0 1 1.381311,0.818555 L 109.02384,82.531913 h -2.99982 v -0.0062 L 86.422632,102.1271 h -2.994133 l 1.769401,-1.7694 a 1.6095556,1.6095556 0 0 1 -1.017509,-1.482598 1.6095556,1.6095556 0 0 1 0.169499,-0.675411 l -3.927409,3.927409 h -1.769918 c -0.0014,-0.40581 -0.0046,-0.81166 -0.0062,-1.2175 l 0.425297,-0.42529 h -0.447001 c -0.448032,0 -0.808736,-0.36071 -0.808736,-0.80874 v -1.601453 c 0,-0.448034 0.360704,-0.808736 0.808736,-0.808736 h 0.0041 c -9.86e-4,-0.228242 -0.002,-0.456491 -0.0036,-0.684713 -0.01159,-0.540111 -0.0041,-1.094665 0.0021,-1.652612 l 7.8512,-7.851201 a 1.6095556,1.6095556 0 0 1 -0.68833,0.157614 1.6095556,1.6095556 0 0 1 -1.473812,-1.000973 l -5.780008,5.780009 c -0.09168,-0.828461 -0.270324,-1.634752 -0.600481,-2.393136 l 2.460315,-2.460831 c -0.06145,0.01484 -0.124554,0.0248 -0.190686,0.0248 h -1.630908 c -0.328401,0 -0.607936,-0.194464 -0.734839,-0.474389 l -1.118795,1.118795 c -0.26906,-0.372346 -0.462149,-0.792425 -0.486275,-1.273824 -0.0018,-0.381016 -0.03127,-0.787628 -0.03979,-1.193726 l 32.8295,-32.829517 h -3.00033 v -0.0062 L 79.204985,79.344511 c 0.163961,-0.921139 0.102113,-1.874209 -0.232544,-2.761072 L 108.0239,47.531982 h -0.90021 c -0.58017,0 -1.04742,-0.446407 -1.0914,-1.014925 l -18.499132,18.49913 a 1.6095556,1.6095556 0 0 1 0.698149,1.326534 1.6095556,1.6095556 0 0 1 -1.609721,1.609204 1.6095556,1.6095556 0 0 1 -1.321883,-0.702283 l -7.510136,7.510136 c -0.54245,-0.491143 -1.205124,-0.851141 -1.918229,-1.075387 L 85.84644,63.70929 a 1.6095556,1.6095556 0 0 1 -0.884184,-1.414384 1.6095556,1.6095556 0 0 1 1.609204,-1.609721 1.6095556,1.6095556 0 0 1 1.428853,0.870231 l 8.556067,-8.556067 a 1.6095556,1.6095556 0 0 1 -0.266133,0.02532 1.6095556,1.6095556 0 0 1 -1.54771,-1.217496 L 79.219454,67.330257 c 0.02429,-0.110253 0.04937,-0.220377 0.06563,-0.332279 0.03851,-0.937182 0.115656,-1.8998 0.131775,-2.858741 L 106.34545,37.210132 c -0.19883,-0.198825 -0.32143,-0.473548 -0.32143,-0.778247 v -0.05374 c 0,-0.609399 0.49027,-1.099674 1.09967,-1.099674 h 1.15394 z m -11.87834,14.871961 -9.331731,9.33173 a 1.6095556,1.6095556 0 0 1 1.207162,1.557528 1.6095556,1.6095556 0 0 1 -0.02481,0.266133 l 9.149309,-9.149312 h -0.99994 z M 72.421419,54.635425 a 1.6095556,1.6095556 0 0 1 1.609721,1.609204 1.6095556,1.6095556 0 0 1 -1.609721,1.609721 1.6095556,1.6095556 0 0 1 -1.609204,-1.609721 1.6095556,1.6095556 0 0 1 1.609204,-1.609204 z M 106.02402,70.525411 92.522518,84.026912 a 1.6095556,1.6095556 0 0 1 1.177189,1.548226 1.6095556,1.6095556 0 0 1 -0.03411,0.315227 L 107.02448,72.53149 h -1.00046 z M 72.421419,70.73315 a 1.6095556,1.6095556 0 0 1 1.210262,0.548804 c 0.111208,0.0031 0.220139,0.0081 0.321944,0.0155 0.459952,0.0577 0.913429,0.03426 1.351339,-0.05271 l -1.285193,1.285193 a 1.6095556,1.6095556 0 0 1 -1.598352,1.422135 1.6095556,1.6095556 0 0 1 -1.609204,-1.609721 1.6095556,1.6095556 0 0 1 1.609204,-1.609204 z m 33.611381,5.783627 -8.252722,8.252726 a 1.6095556,1.6095556 0 0 1 0.219625,0.805635 1.6095556,1.6095556 0 0 1 -1.609721,1.609204 1.6095556,1.6095556 0 0 1 -0.794783,-0.22996 L 85.114701,97.43488 a 1.6095556,1.6095556 0 0 1 0.675411,-0.169499 1.6095556,1.6095556 0 0 1 1.482597,1.017509 L 108.0239,77.531702 h -0.90021 c -0.58016,0 -1.04688,-0.446433 -1.09089,-1.014925 z m 11.86956,3.136759 v 2.993616 l -7.63105,7.631058 h 0.005 v 2.25361 h -2.25826 l -9.595284,9.59528 H 95.4288 L 106.02402,91.531881 V 90.27821 h 1.25367 z m 0,6.000151 v 2.993615 l -7.63571,7.63571 c 0.003,0.03185 0.009,0.0625 0.009,0.09508 v 0.05374 c 0,0.609399 -0.49028,1.099674 -1.09968,1.099674 h -0.15813 l -2.7373,2.737304 h 3.00602 l 8.61549,-8.615498 v 2.993616 l -7.48016,7.480162 h -0.14728 v 0.39532 h -4.25193 v -1.99574 l -1.60042,1.60042 h -2.99362 l 4.9165,-4.917011 c -0.19883,-0.198825 -0.32143,-0.473547 -0.32143,-0.778247 v -0.05374 c 0,-0.6094 0.49027,-1.099675 1.09967,-1.099675 h 1.15394 z M 90.547961,86.001469 79.284049,97.265381 h 0.971001 c 0.448033,0 0.808736,0.360702 0.808736,0.808736 v 0.418062 L 92.405212,87.150753 a 1.6095556,1.6095556 0 0 1 -0.315226,0.03359 1.6095556,1.6095556 0 0 1 -1.542025,-1.182874 z m 27.354399,11.652002 v 2.993619 l -1.48001,1.48001 h -2.99361 z" /></g></svg>
