<?xml version="1.0" encoding="UTF-8" standalone="no"?>
<!-- Created with Inkscape (http://www.inkscape.org/) -->

<svg
   width="50.021233mm"
   height="91.258507mm"
   viewBox="0 0 50.021232 91.258509"
   version="1.1"
   id="svg225076"
   xml:space="preserve"
   inkscape:version="1.2.1 (9c6d41e410, 2022-07-14)"
   sodipodi:docname="keep-out-zone.svg"
   xmlns:inkscape="http://www.inkscape.org/namespaces/inkscape"
   xmlns:sodipodi="http://sodipodi.sourceforge.net/DTD/sodipodi-0.dtd"
   xmlns="http://www.w3.org/2000/svg"
   xmlns:svg="http://www.w3.org/2000/svg"><sodipodi:namedview
     id="namedview225078"
     pagecolor="#ffffff"
     bordercolor="#666666"
     borderopacity="1.0"
     inkscape:showpageshadow="2"
     inkscape:pageopacity="0.0"
     inkscape:pagecheckerboard="0"
     inkscape:deskcolor="#d1d1d1"
     inkscape:document-units="mm"
     showgrid="false"
     inkscape:zoom="5.2312369"
     inkscape:cx="28.004849"
     inkscape:cy="135.43642"
     inkscape:window-width="1918"
     inkscape:window-height="2037"
     inkscape:window-x="1898"
     inkscape:window-y="0"
     inkscape:window-maximized="0"
     inkscape:current-layer="layer7" /><defs
     id="defs225073" /><g
     inkscape:groupmode="layer"
     id="layer7"
     inkscape:label="shape"
     style="display:inline"
     transform="translate(-69.887207,-13.084473)"><path
       id="rect243069"
       style="fill:#1426d2;fill-opacity:0.629984;fill-rule:evenodd;stroke-width:0.529167;stroke-linecap:round"
       d="m 73.169694,13.084473 v 0.267167 3.006018 2.994132 3.006018 2.993616 3.006535 2.993616 0.166914 l -5.16e-4,0.02532 -0.0016,0.02584 -0.0015,0.01085 v 0.0015 c 0,1.00804 -0.0097,1.917289 -0.01964,2.799313 -0.01225,1.091237 -0.02465,2.104689 -0.03256,3.026172 -0.0094,1.09423 -0.0062,2.087916 0.02377,2.982247 0.03427,1.021105 0.104232,1.933024 0.240295,2.75332 1.18e-4,7.15e-4 3.99e-4,0.0014 5.17e-4,0.0021 0.07116,0.428544 0.16013,0.834654 0.270268,1.221631 0.05513,0.193733 0.115552,0.383413 0.181901,0.568441 0.06626,0.184785 0.138632,0.365351 0.217041,0.542602 2.2e-4,4.96e-4 2.97e-4,10e-4 5.17e-4,0.0016 0.288975,0.652904 0.663965,1.258697 1.14825,1.845366 0.09709,0.117613 0.197764,0.235079 0.303858,0.3514 0.106116,0.116348 0.21573,0.232263 0.331245,0.347782 l 0.02842,0.02015 0.03307,0.0248 0.03772,0.02946 0.04237,0.03462 0.04599,0.03927 0.04961,0.04444 0.05374,0.05013 0.05684,0.05529 0.05994,0.0615 0.06305,0.0677 0.06563,0.0739 0.03411,0.03927 0.03411,0.04083 0.05839,0.07183 0.05943,0.07751 0.05994,0.08268 0.02945,0.04393 0.001,0.0016 0.02894,0.04341 0.02945,0.04651 0.02946,0.04754 0.02842,0.04909 0.02842,0.05064 0.02791,0.05168 0.02687,0.05271 0.02635,0.05426 0.02532,0.05581 0.02325,0.05323 0.02222,0.05478 0.02119,0.05581 0.02067,0.05736 0.01912,0.0584 0.01809,0.05994 0.01705,0.0615 0.0155,0.06253 0.01395,0.06356 0.0124,0.06511 0.01085,0.06666 0.0093,0.06718 0.0072,0.06925 0.0052,0.06976 0.0031,0.07131 10e-4,0.07286 -5.17e-4,0.06615 -0.0026,0.06563 -0.0041,0.06666 -0.0052,0.06615 -0.0072,0.06615 -0.0088,0.06615 -0.01085,0.06615 -0.01189,0.06615 -0.01344,0.06614 -0.0155,0.06615 -0.01705,0.06563 -0.0186,0.06563 -0.02015,0.06511 -0.0217,0.06511 -0.02326,0.0646 -0.0248,0.06459 -0.02532,0.06046 -0.02687,0.05994 -0.0279,0.05994 -0.02945,0.05943 -0.03101,0.05891 -0.03256,0.05839 -0.03411,0.05839 -0.01137,0.0186 -0.02377,0.03876 -0.03721,0.05685 -0.03824,0.05633 -0.03979,0.05529 -0.04134,0.05478 -0.04289,0.05426 -0.04444,0.05323 -0.04548,0.05219 -0.04702,0.05168 -0.04651,0.04806 -0.04754,0.04754 -0.04909,0.04651 -0.05064,0.04599 -0.05168,0.04444 -0.05323,0.04341 -0.05478,0.04289 -0.05581,0.04134 -0.05684,0.04031 -0.05839,0.03876 -0.05994,0.03772 -0.01447,0.0088 -0.04651,0.0279 -0.06253,0.03514 -0.06356,0.03359 -0.06511,0.03204 -0.06615,0.03101 -0.06511,0.0279 -0.06615,0.02687 -0.06666,0.02481 -0.06821,0.02325 -0.06925,0.0217 -0.07028,0.02015 -0.07131,0.0186 -0.07235,0.01654 -0.07338,0.01499 -0.07441,0.01292 -0.07493,0.01137 -0.07648,0.0093 -0.077,0.0072 -0.07803,0.0052 -0.07906,0.0031 -0.0801,10e-4 -0.282671,-0.0026 -0.256831,-0.0067 -0.234611,-0.0098 -0.214458,-0.01189 -0.357601,-0.02532 -0.153995,-0.01085 -0.139527,-0.0083 -0.06253,-0.0031 -0.05943,-0.0021 -0.05736,-10e-4 h -0.03101 -0.02429 l -0.05374,10e-4 -0.05271,0.0026 -0.05219,0.0036 -0.05219,0.0052 -0.05064,0.0062 -0.05219,0.0083 -0.05529,0.0098 -0.05736,0.01188 -0.06046,0.01447 -0.06356,0.01705 -0.06718,0.01964 -0.07183,0.02222 -0.02584,0.0088 -0.02739,0.01033 -0.02842,0.01189 -0.02946,0.01292 -0.03049,0.01447 -0.03152,0.01602 -0.03256,0.01757 -0.03359,0.01912 -0.03462,0.02119 -0.03514,0.02222 -0.03617,0.02377 -0.03669,0.02584 -0.03772,0.02687 -0.03824,0.02894 -0.03876,0.03101 -0.03979,0.03256 -0.03824,0.03256 -0.03876,0.03411 -0.03876,0.03566 -0.03876,0.03721 -0.03876,0.03824 -0.03876,0.03927 -0.03927,0.04134 -0.03876,0.04186 -0.03824,0.04392 -0.03876,0.04496 -0.03824,0.04599 -0.03772,0.04754 -0.03772,0.04858 -0.03721,0.05013 -0.03721,0.05116 -0.03669,0.05271 -0.06976,0.105936 -0.0677,0.110071 -0.06511,0.114722 -0.06201,0.118339 -0.05891,0.122473 -0.02791,0.06305 -0.02739,0.06356 -0.02584,0.0646 -0.02532,0.06511 -0.02429,0.06666 -0.02326,0.06718 -0.04186,0.134359 -0.03721,0.137459 -0.01602,0.07028 -0.01602,0.07028 -0.02739,0.143661 -0.01137,0.07338 -0.01034,0.07338 -0.0083,0.07441 -0.0072,0.07493 -0.0057,0.07596 -0.0041,0.07596 -0.0026,0.077 -10e-4,0.07803 10e-4,0.07648 0.0026,0.07596 0.0093,0.150378 0.0155,0.148829 0.02171,0.146244 0.02687,0.144177 0.03256,0.141594 0.03721,0.139009 0.04237,0.136426 0.04703,0.131775 0.05064,0.128674 0.05478,0.125574 0.05839,0.122473 0.06201,0.118856 0.0083,0.01395 0.05736,0.101286 0.06821,0.111621 0.0708,0.108004 0.03617,0.05168 0.03669,0.05064 0.0739,0.09767 0.07597,0.09302 0.077,0.08837 0.07751,0.08372 0.07803,0.07855 0.07855,0.07338 0.07803,0.06821 0.03927,0.03204 0.03824,0.02997 0.03824,0.02894 0.03721,0.02687 0.03617,0.02584 0.03617,0.02377 0.03514,0.02222 0.03411,0.02067 0.03359,0.01912 0.03256,0.01809 0.03204,0.01602 0.03101,0.01499 0.02946,0.01344 0.02894,0.01189 0.02791,0.01033 0.02635,0.0093 0.0708,0.0217 0.06666,0.01912 0.06356,0.01705 0.05891,0.01395 h 0.001 l 0.05788,0.0124 0.05529,0.0098 0.05323,0.0083 0.05116,0.0067 0.05168,0.0047 0.05116,0.0041 0.05271,0.0021 0.05323,0.0016 h 0.05529 l 0.05788,-5.17e-4 0.05994,-0.0026 0.06356,-0.0026 0.136943,-0.0083 0.152962,-0.01085 0.170532,-0.0124 0.19017,-0.01292 0.210839,-0.01189 0.233061,-0.0098 0.258899,-0.0067 0.139526,-0.0021 0.146762,-5.16e-4 0.07855,0.001 0.07751,0.0031 0.077,0.0047 0.07648,0.0072 0.07545,0.0088 0.07441,0.01085 0.07441,0.01292 0.07286,0.01447 0.04237,0.0098 0.02997,0.0067 0.07183,0.01809 0.0708,0.02015 0.06976,0.0217 0.06925,0.02377 0.06821,0.02532 0.06718,0.02687 0.06615,0.02894 0.06511,0.02997 0.06356,0.03152 0.06305,0.03307 0.06149,0.03462 0.06046,0.03566 0.05943,0.03772 0.0584,0.03824 0.05736,0.04031 0.05581,0.04134 0.05478,0.04237 0.05374,0.04393 0.05219,0.04496 0.05116,0.04651 0.05013,0.04703 0.04909,0.04857 0.04703,0.04961 0.04599,0.05013 0.02222,0.02532 0.02274,0.02584 0.04341,0.05219 0.04237,0.05323 0.04082,0.05426 0.03979,0.05478 0.03824,0.05581 0.03669,0.05684 0.0047,0.0078 0.03101,0.04961 0.03411,0.05788 0.03307,0.05891 0.03152,0.05994 0.02997,0.05994 0.02894,0.06098 0.02687,0.0615 0.02584,0.06253 0.02429,0.06253 0.02325,0.06305 0.02119,0.06356 0.02015,0.06408 0.0186,0.06459 0.01654,0.06511 0.0155,0.06563 0.01395,0.06563 0.0124,0.06666 0.01085,0.06666 0.0093,0.06666 0.0072,0.06718 0.0062,0.0677 0.0041,0.0677 0.0026,0.0677 5.17e-4,0.06821 0.0021,1.019576 0.0016,0.941028 -0.0036,2.067574 v 0.03307 l -5.17e-4,0.0677 -0.0026,0.06821 -0.0041,0.06718 -0.0062,0.0677 -0.0072,0.06718 -0.0093,0.06666 -0.01033,0.06666 -0.0124,0.06615 -0.01395,0.06615 -0.0155,0.06563 -0.01705,0.06511 -0.01809,0.06459 -0.02015,0.06408 -0.02119,0.06356 -0.02274,0.06304 -0.02481,0.06253 -0.02584,0.06201 -0.02687,0.06149 -0.02894,0.06098 -0.02997,0.06046 -0.03152,0.05943 -0.03307,0.05891 -0.03411,0.0584 -0.03566,0.05736 -0.03721,0.05633 -0.03824,0.05581 -0.03979,0.05529 -0.04082,0.05374 -0.04237,0.05323 -0.04341,0.05219 -0.04444,0.05168 -0.04599,0.05013 -0.04754,0.04909 -0.04909,0.04858 -0.05013,0.04754 -0.05116,0.04599 -0.05219,0.04496 -0.05374,0.04393 -0.05478,0.04237 -0.05581,0.04134 -0.05736,0.04031 -0.0584,0.03876 -0.05943,0.03721 -0.06046,0.03617 -0.06149,0.03411 -0.06305,0.03307 -0.06356,0.03204 -0.06511,0.02997 -0.06615,0.02842 -0.06718,0.02687 -0.06821,0.02532 -0.06925,0.02377 -0.06976,0.02222 -0.0708,0.01964 -0.07131,0.0186 -0.07286,0.01654 -0.07286,0.01447 -0.07441,0.01292 -0.07441,0.01085 -0.07545,0.0088 -0.07648,0.0072 -0.077,0.0052 -0.07751,0.0031 -0.07803,10e-4 -0.03307,-5.17e-4 -0.253731,-0.0021 -0.258382,-0.0067 -0.233061,-0.0098 -0.210323,-0.01189 -0.361218,-0.02532 -0.152962,-0.01085 -0.136943,-0.0083 -0.06356,-0.0031 -0.06046,-0.0021 -0.05788,-0.001 h -0.05529 l -0.05323,0.0016 -0.05219,0.0026 -0.05168,0.0036 -0.05168,0.0052 -0.05116,0.0067 -0.05323,0.0083 -0.05529,0.0098 -0.05788,0.0124 -0.05994,0.01447 -0.06356,0.01654 -0.06666,0.01964 -0.0708,0.0217 -0.02635,0.0093 -0.02791,0.01033 -0.02894,0.01189 -0.02946,0.01344 -0.03101,0.01499 -0.03152,0.01602 -0.03307,0.01757 -0.03359,0.01964 -0.03411,0.02067 -0.03514,0.02222 -0.03566,0.02377 -0.03669,0.02532 -0.03721,0.02739 -0.03824,0.02842 -0.03824,0.03049 -0.03927,0.03204 -0.03876,0.03359 -0.03927,0.03462 -0.03927,0.03617 -0.03927,0.03721 -0.03876,0.03876 -0.03927,0.03979 -0.03876,0.04083 -0.03876,0.04237 -0.03876,0.04393 -0.03824,0.04444 -0.03824,0.04599 -0.03721,0.04754 -0.03772,0.04806 -0.03669,0.04961 -0.03669,0.05064 -0.03566,0.05168 -0.07131,0.108004 -0.06821,0.111104 -0.06511,0.115239 -0.06253,0.118856 -0.05839,0.122473 -0.02791,0.06201 -0.02687,0.06356 -0.02584,0.06408 -0.0248,0.0646 -0.02429,0.06563 -0.02274,0.06615 -0.04237,0.136426 -0.03721,0.139009 -0.03256,0.141594 -0.02687,0.144177 -0.02171,0.146244 -0.0083,0.0739 -0.0072,0.07441 -0.0052,0.07493 -0.0041,0.07596 -0.0026,0.07596 -5.17e-4,0.07648 5.17e-4,0.07752 0.0026,0.077 0.0098,0.151928 0.0155,0.149345 0.0217,0.146761 0.02739,0.143661 0.03204,0.141076 0.03772,0.13746 5.17e-4,0.0026 0.04134,0.131774 0.04703,0.133326 0.05116,0.130224 0.05529,0.126091 0.05891,0.12299 0.06201,0.118339 0.06511,0.114721 0.0677,0.110588 0.07028,0.105937 0.03617,0.05271 0.03721,0.05116 0.03721,0.04961 0.03772,0.04909 0.07596,0.09354 0.077,0.08837 0.07803,0.0832 0.07752,0.07803 0.07751,0.07235 0.07752,0.06718 0.03927,0.03256 0.0067,0.0052 0.03204,0.02532 0.03824,0.02894 0.03772,0.02739 0.03669,0.02584 0.03617,0.02377 0.03514,0.02222 0.03462,0.02067 0.03359,0.01912 0.03256,0.01757 0.03152,0.01602 0.03049,0.01499 0.02946,0.01292 0.02842,0.01189 0.02739,0.01034 0.02635,0.0088 0.07131,0.02222 0.06718,0.01964 0.06356,0.01654 0.06046,0.01447 0.05736,0.01189 0.05529,0.0098 0.05219,0.0083 0.05116,0.0062 0.05219,0.0052 0.05168,0.0036 0.05271,0.0026 0.05374,10e-4 h 0.05529 l 0.05736,-10e-4 0.05994,-0.0021 0.06253,-0.0026 0.13901,-0.0088 0.153995,-0.01085 0.170016,-0.0124 0.188102,-0.0124 0.213941,-0.0124 0.234094,-0.0098 0.162264,-0.0047 0.09508,-0.0026 0.137977,-0.0021 0.14521,-5.16e-4 0.07958,10e-4 0.07906,0.0031 0.07803,0.0052 0.077,0.0072 0.07596,0.0093 0.07545,0.01085 0.0739,0.01292 0.07338,0.01499 0.07235,0.01654 0.07131,0.0186 0.07028,0.02015 0.06925,0.0217 0.06821,0.02326 0.06718,0.02532 0.06615,0.02636 0.06511,0.02842 0.06615,0.03049 0.0646,0.03204 0.06408,0.03359 0.06201,0.03514 0.06098,0.03669 0.05994,0.03772 0.05839,0.03876 0.05736,0.04031 0.05581,0.04134 0.05426,0.04289 0.05323,0.04341 0.05219,0.04496 0.02429,0.02222 5.17e-4,5.17e-4 0.02532,0.02274 0.04909,0.04651 0.04806,0.04754 0.04651,0.04858 0.04702,0.05116 0.04548,0.05219 0.04444,0.05323 0.04238,0.05426 0.04134,0.05478 0.03979,0.05529 0.03876,0.05633 0.03669,0.05684 0.03566,0.05736 0.03359,0.05788 0.03256,0.05839 0.03152,0.05943 0.02945,0.05943 0.0279,0.05994 0.02687,0.05994 0.02532,0.06098 0.0248,0.06408 0.02326,0.06459 0.0217,0.06511 0.02015,0.06511 0.0186,0.06563 0.01705,0.06563 0.01499,0.06563 0.01395,0.06615 0.01189,0.06615 0.01085,0.06666 0.0088,0.06615 0.0072,0.06615 0.0057,0.06666 0.0036,0.06615 0.0026,0.05994 v 0.0067 l 0.001,0.06615 -0.001,0.0677 -0.0021,0.06666 -0.0036,0.06615 -0.0052,0.06511 -0.01395,0.127124 -0.0186,0.122989 -0.02325,0.118856 -0.02739,0.115239 -0.03049,0.111104 -0.03359,0.10697 -0.03927,0.109554 -0.04134,0.105937 -0.04444,0.101803 -0.04599,0.09715 -0.04754,0.09302 -0.04858,0.08837 -0.04909,0.08423 -0.04909,0.0801 -0.05374,0.08216 -0.05426,0.07855 -0.05374,0.07441 -0.05323,0.07028 -0.05219,0.06615 -0.05064,0.06201 -0.04858,0.05736 -0.04651,0.05323 -0.04858,0.05374 -0.04651,0.04961 -0.04341,0.04599 -0.03979,0.04134 -0.03876,0.03928 -0.03566,0.03566 -0.05736,0.05684 -0.01654,0.01602 -0.0186,0.01757 -0.03876,0.03772 -0.09663,0.09147 -0.05943,0.05684 -0.06201,0.06046 -0.06511,0.06459 -0.06821,0.0677 -0.09508,0.09612 -0.09405,0.09715 -0.09302,0.09922 -0.09198,0.100252 -0.06976,0.07752 -0.0677,0.077 -0.06563,0.077 -0.06356,0.07596 -0.09405,0.116272 -0.08682,0.112138 -0.0801,0.107487 -0.07286,0.103869 -0.06666,0.09922 -0.05994,0.0956 -0.05426,0.09095 -0.04806,0.08733 -0.02791,0.05271 -0.02481,0.05116 -0.02325,0.04909 -0.02067,0.04703 -0.0186,0.04547 -0.01654,0.04341 -0.01499,0.04186 -0.01292,0.03979 -0.01292,0.04341 -0.01085,0.04082 -0.0083,0.03876 -0.0072,0.03669 -0.0047,0.03411 -0.0036,0.03256 -0.0021,0.02997 -5.17e-4,0.02842 -0.001,0.29714 -0.0031,0.326595 -0.0031,0.21394 -0.0093,0.58136 -0.0098,0.509013 -0.01757,0.991671 -0.0062,0.535884 -0.0015,0.433049 -5.17e-4,0.102836 v 0.02222 l 0.001,0.02222 10e-4,0.02222 0.0021,0.0217 0.0026,0.02119 0.0026,0.02119 0.0036,0.02119 0.0036,0.02119 0.0047,0.02067 0.0047,0.02119 0.0057,0.02015 0.0057,0.02067 0.0062,0.02067 0.0067,0.02015 0.01499,0.04082 0.0088,0.02119 0.0088,0.02119 0.01964,0.04289 0.0217,0.04341 0.02429,0.04393 0.02635,0.04496 0.02894,0.04547 0.03101,0.04651 0.03359,0.04754 0.03669,0.04961 0.03876,0.05064 0.04082,0.05116 0.04237,0.05168 0.04444,0.05219 0.04547,0.05323 0.09664,0.109554 0.216524,0.240295 0.112138,0.125057 0.113172,0.128674 0.105419,0.124024 0.03256,0.03876 0.130741,0.162264 0.12299,0.162781 0.05891,0.08217 0.05736,0.08268 0.05529,0.0832 0.05374,0.08423 0.05168,0.08527 0.05064,0.0863 0.04806,0.08785 0.04703,0.08888 0.04496,0.09095 0.04341,0.0925 0.06563,0.151412 0.05788,0.147278 0.05013,0.142627 0.04393,0.137459 0.03721,0.131775 0.0031,0.01292 0.02842,0.112654 0.02635,0.118856 0.0217,0.111105 0.02791,0.166398 0.02119,0.15813 0.0155,0.147794 0.01034,0.135909 0.0067,0.120923 0.0036,0.104903 0.0016,0.152446 -10e-4,0.01395 v 0.0036 l 0.01654,1.468127 0.03307,2.972428 0.0016,0.127641 v 2.864945 3.00653 1.22266 h 1.770951 3.006018 2.994133 3.005501 2.994649 3.006018 2.993616 3.006535 2.993613 3.00602 2.99361 3.00654 2.99361 3.00654 2.72335 v -2.05155 c -0.0141,0.29345 -0.24488,0.52503 -0.52917,0.52503 h -8.73228 c -0.21361,0 -0.39666,-0.13083 -0.48059,-0.32039 -0.003,-0.003 -0.007,-0.005 -0.0109,-0.008 v 0.12557 h -4.25193 v -1.99574 l -1.60042,1.60042 h -2.99362 l 4.9165,-4.917012 c -0.19883,-0.198813 -0.32143,-0.473547 -0.32143,-0.778247 v -0.05374 c 0,-0.60938 0.49039,-1.099675 1.09967,-1.099675 h 1.15394 l 9.62525,-9.624735 v 2.993616 l -7.63571,7.635709 c 0.003,0.03185 0.009,0.0625 0.009,0.09508 v 0.05374 c 0,0.609391 -0.49035,1.099675 -1.09967,1.099675 h -0.15813 l -2.7373,2.737309 h 3.00602 l 8.61549,-8.615503 v 2.993615 l -5.41879,5.418798 h 3.00705 l 2.41226,-2.412263 v 2.412263 h 1.59525 c 0.29346,0 0.52968,0.24662 0.52968,0.55345 v -2.097032 -2.993616 -3.006534 -2.993616 -3.006018 -2.993616 -3.006535 -2.993616 -0.347265 c 0,0.306833 -0.23622,0.553454 -0.52968,0.553454 h -2.68356 l -7.55199,7.551994 c 0.56793,0.04449 1.01337,0.511609 1.01337,1.091406 v 0.05374 c 0,0.609387 -0.49035,1.099674 -1.09967,1.099674 h -2.05259 c -0.0329,0 -0.0639,-0.007 -0.0961,-0.0098 l -9.946156,9.94668 a 1.6095556,1.6095556 0 0 1 0.868164,1.406632 1.6095556,1.6095556 0 0 1 -1.609721,1.609208 1.6095556,1.6095556 0 0 1 -1.406633,-0.867651 l -2.510441,2.510441 h -2.994649 l 1.870687,-1.87069 a 1.6095556,1.6095556 0 0 1 -0.818555,-1.381308 1.6095556,1.6095556 0 0 1 1.609721,-1.609721 1.6095556,1.6095556 0 0 1 1.381311,0.818555 L 108.90498,82.622864 h -2.99982 v -0.0062 l -19.6019,19.601386 h -2.994133 l 1.769401,-1.7694 a 1.6095556,1.6095556 0 0 1 -1.017509,-1.482596 1.6095556,1.6095556 0 0 1 0.169499,-0.675411 l -3.927409,3.927407 h -1.769918 c -0.0014,-0.40581 -0.0046,-0.81166 -0.0062,-1.2175 l 0.425297,-0.42529 h -0.447001 c -0.44802,0 -0.808736,-0.36072 -0.808736,-0.808738 v -1.601453 c 0,-0.448022 0.360716,-0.808736 0.808736,-0.808736 h 0.0041 c -9.86e-4,-0.228242 -0.002,-0.456502 -0.0036,-0.684712 -0.01159,-0.540103 -0.0036,-1.094674 0.0026,-1.652613 l 7.8512,-7.8512 a 1.6095556,1.6095556 0 0 1 -0.68833,0.157613 1.6095556,1.6095556 0 0 1 -1.473812,-1.000973 l -5.780009,5.780009 c -0.09168,-0.828441 -0.270331,-1.634763 -0.60048,-2.393135 l 2.460315,-2.460832 c -0.06145,0.01484 -0.124554,0.02481 -0.190686,0.02481 h -1.630908 c -0.328393,0 -0.607944,-0.194473 -0.734839,-0.47439 l -1.118795,1.118795 c -0.26906,-0.372338 -0.462149,-0.792437 -0.486275,-1.273824 -0.0018,-0.381008 -0.03127,-0.787636 -0.03979,-1.193726 l 32.829002,-32.82952 h -3.00033 v -0.0062 L 79.085612,79.435461 c 0.163961,-0.921119 0.102113,-1.874228 -0.232544,-2.761071 L 107.90453,47.622933 h -0.90021 c -0.58017,0 -1.04742,-0.446419 -1.0914,-1.014925 L 87.413786,65.107137 a 1.6095556,1.6095556 0 0 1 0.698149,1.326534 1.6095556,1.6095556 0 0 1 -1.609721,1.609204 1.6095556,1.6095556 0 0 1 -1.321883,-0.702283 l -7.510136,7.510136 c -0.542442,-0.491131 -1.205136,-0.851152 -1.918229,-1.075386 l 9.975101,-9.975102 a 1.6095556,1.6095556 0 0 1 -0.884183,-1.414384 1.6095556,1.6095556 0 0 1 1.609204,-1.609721 1.6095556,1.6095556 0 0 1 1.428853,0.870231 l 8.556067,-8.556067 a 1.6095556,1.6095556 0 0 1 -0.266134,0.02532 1.6095556,1.6095556 0 0 1 -1.547709,-1.217497 L 79.100082,67.421208 c 0.02429,-0.110253 0.04937,-0.220386 0.06563,-0.33228 0.03851,-0.937162 0.115656,-1.899819 0.131775,-2.85874 L 106.22607,37.301082 c -0.19883,-0.198825 -0.32142,-0.473556 -0.32142,-0.778247 v -0.05374 c 0,-0.609391 0.49027,-1.099675 1.09967,-1.099675 h 1.15394 l 2.79001,-2.79001 c -0.1723,-0.07877 -0.29146,-0.251758 -0.29146,-0.454236 V 30.86685 c 0,-0.277 0.22271,-0.499711 0.49971,-0.499711 h 1.44023 c 0.15487,0 0.2929,0.06943 0.38447,0.179317 l 4.80177,-4.801774 v 2.993615 l -6.62905,6.629053 c 8.7e-4,-5e-6 0.002,0 0.003,0 h 1.44022 c 0.277,0 0.50023,0.222723 0.50023,0.499711 v 0.562757 l 4.6855,-4.685503 v 2.993616 l -5.62963,5.629631 h 0.4439 c 0.277,0 0.50023,0.222716 0.50023,0.499711 v 1.258321 c 0,0.277 -0.22323,0.499711 -0.50023,0.499711 h -1.44022 c -0.277,0 -0.49971,-0.222711 -0.49971,-0.499711 v -0.262 l -0.50075,0.500745 v 0.258382 h -0.25838 l -2.7466,2.746603 h 1.90531 c 0.30511,0 0.57987,0.123168 0.77876,0.322461 l 7.94732,-7.947319 v 2.993616 l -4.80487,4.804874 c 0.0743,0.08723 0.11937,0.20042 0.11937,0.324528 v 1.258322 c 0,0.276988 -0.22323,0.499711 -0.50023,0.499711 h -1.44022 c -0.0767,0 -0.14913,-0.01696 -0.21394,-0.04754 l -2.79104,2.791044 h 2.00452 v 1.002006 l 0.50075,-0.500744 v -0.0026 c 0,-0.276997 0.22271,-0.499711 0.49971,-0.499711 h 0.003 l 6.62337,-6.623368 v 2.993615 l -4.6855,4.685502 v 0.702283 c 0,0.276997 -0.22323,0.499711 -0.50023,0.499711 h -0.70177 l -2.75228,2.752287 c 0.56792,0.0445 1.01337,0.511608 1.01337,1.091406 v 0.05323 c 0,0.609387 -0.49035,1.100191 -1.09967,1.100191 h -2.05259 c -0.0329,0 -0.0639,-0.007 -0.0961,-0.0098 L 87.359526,77.161698 a 1.6095556,1.6095556 0 0 1 0.702283,1.321883 1.6095556,1.6095556 0 0 1 -1.609721,1.609721 1.6095556,1.6095556 0 0 1 -1.321883,-0.702282 l -4.728911,4.72891 c 0.290457,0.122446 0.49351,0.409149 0.49351,0.745174 v 1.601453 c 0,0.06613 -0.01048,0.129767 -0.02532,0.191202 L 105.90465,61.622595 v -1.253153 h 1.25315 L 117.78299,49.74425 v 2.994133 l -7.63106,7.631059 h 0.005 v 2.253092 h -2.25774 L 97.416793,73.104582 a 1.6095556,1.6095556 0 0 1 0.363286,1.001489 1.6095556,1.6095556 0 0 1 -1.609205,1.609204 1.6095556,1.6095556 0 0 1 -1.002006,-0.362769 l -8.889379,8.88938 a 1.6095556,1.6095556 0 0 1 1.000455,1.473812 1.6095556,1.6095556 0 0 1 -0.157096,0.68833 l 19.103222,-19.10271 c -0.19883,-0.198825 -0.32142,-0.474064 -0.32142,-0.778764 v -0.05323 c 0,-0.609391 0.49027,-1.100192 1.09967,-1.100192 h 1.15394 l 9.62473,-9.624735 v 2.993616 l -7.63571,7.635709 c 0.003,0.03202 0.009,0.06284 0.009,0.0956 v 0.05323 c 0,0.609391 -0.49035,1.100192 -1.09967,1.100192 h -0.15865 l -2.7466,2.746602 h 3.00654 l 8.62479,-8.624797 v 2.993616 l -7.62641,7.626408 v 0.257865 h -0.25786 l -2.7466,2.746603 h 1.90479 c 0.30511,0 0.57987,0.123168 0.77876,0.322461 l 7.94732,-7.947319 v 2.994133 l -4.42763,4.427636 h 3.00601 l 1.42162,-1.421618 v 1.421618 h 1.59577 c 0.29346,0 0.52968,0.246622 0.52968,0.553455 v -1.10639 -2.993616 -3.006018 -2.994133 -3.006018 -2.993615 -3.006535 -2.993616 -3.006018 -2.994133 -3.006018 -2.993615 -3.006535 -2.993616 -3.006535 -2.993615 -3.006019 -2.993615 -3.006535 -2.993616 -3.006535 -1.528588 h -1.46502 -3.00602 -2.99413 -3.00602 -2.99362 -3.00653 -2.99362 -3.006533 -2.993099 -3.006535 -2.993615 -3.006535 -2.993616 -3.006018 -2.994133 -3.006018 z m 2.124935,2.125451 h 2.016931 l -2.016931,2.016931 z m 5.02295,0 h 2.993615 l -8.016565,8.016565 V 20.88503 a 1.6095556,1.6095556 0 0 1 -0.691947,-1.316716 1.6095556,1.6095556 0 0 1 1.609721,-1.60972 1.6095556,1.6095556 0 0 1 1.002523,0.353983 z m 6.00015,0 h 2.993616 l -2.709912,2.709912 h 3.006535 l 2.709912,-2.709912 h 2.993099 l -3.651457,3.651457 v 3.006535 l 6.657991,-6.657992 h 2.993617 l -2.795696,2.795695 a 1.6095556,1.6095556 0 0 1 0.29714,-0.04702 1.6095556,1.6095556 0 0 1 1.555456,1.20096 l 3.94963,-3.94963 h 2.99362 l -0.15916,0.159164 h 1.90479 c 0.30511,0 0.57987,0.123168 0.77876,0.322461 l 0.48163,-0.481625 h 2.99413 l -5.15937,5.159375 h 2.00452 v 1.001489 l 6.16087,-6.160864 h 1.46554 v 1.528072 l -8.63978,8.639783 c 0.56801,0.04448 1.01337,0.511601 1.01337,1.091406 v 0.05374 c 0,0.609388 -0.49027,1.099674 -1.09967,1.099674 h -2.05259 c -0.0329,0 -0.0634,-0.007 -0.0956,-0.0098 L 91.659522,42.861983 v 1.680518 c 0,0.293448 -0.247149,0.529683 -0.553971,0.529683 h -1.65623 L 76.531246,57.990259 C 75.788332,57.632383 74.947851,57.443485 74.122091,57.405281 L 86.455188,45.072184 h -1.29036 c -0.306834,0 -0.553971,-0.236235 -0.553971,-0.529683 v -0.632003 l -5.497339,5.497339 c -0.112759,-0.502159 -0.319401,-0.985471 -0.63097,-1.421102 -0.113784,-0.19596 -0.243477,-0.381529 -0.379305,-0.562756 l 6.507614,-6.507614 V 38.34598 h -0.435633 l -7.434171,7.434171 c -0.367868,-0.477849 -0.679289,-0.987537 -0.82734,-1.595251 -0.04362,-0.150194 -0.07976,-0.301619 -0.118339,-0.452686 l 5.386234,-5.386234 h -2.314587 c -0.188019,0 -0.350672,-0.103097 -0.436149,-0.255799 l -3.079915,3.079916 c -0.09525,-0.945691 -0.128256,-1.901946 -0.130742,-2.862875 l 3.146578,-3.146578 v -3.006018 l -3.091284,3.091285 c 0.02808,-1.014026 0.05251,-2.026458 0.03721,-3.030823 l 3.054077,-3.054077 v -3.006535 l -3.072164,3.072164 v -2.993616 l 3.072164,-3.072164 v -1.067118 c 0,-0.277 0.223228,-0.500228 0.500228,-0.500228 h 1.067118 z m 19.595701,1.397848 -11.244273,11.244275 a 1.9106394,1.9106394 0 0 1 0.623218,-0.110071 1.9106394,1.9106394 0 0 1 1.609721,0.88315 L 107.90453,17.622697 h -0.90021 c -0.58016,0 -1.04688,-0.446444 -1.09089,-1.014925 z M 86.004053,18.68103 c -0.07441,0 -0.137459,0.02481 -0.189136,0.07441 -0.05168,0.05168 -0.07751,0.113688 -0.07751,0.186035 0,0.07235 0.02584,0.133326 0.07751,0.182935 0.05168,0.05168 0.114722,0.07751 0.189136,0.07751 h 0.849561 l 2.021582,0.79375 -2.015381,0.79375 h -0.855762 c -0.07441,0 -0.137459,0.0248 -0.189136,0.07441 -0.05168,0.05168 -0.07751,0.113688 -0.07751,0.186035 0,0.07235 0.02584,0.133325 0.07751,0.182934 0.05168,0.05168 0.114722,0.07752 0.189136,0.07752 h 0.958081 l 2.700611,-1.0604 c 0.130214,-0.05374 0.195336,-0.138503 0.195336,-0.254248 0,-0.121957 -0.06512,-0.208773 -0.195336,-0.26045 L 86.962134,18.68103 Z m 11.245825,0.590145 -5.590356,5.590356 v 3.006535 l 6.753593,-6.753593 a 1.6095556,1.6095556 0 0 1 -1.210262,-1.546159 1.6095556,1.6095556 0 0 1 0.04702,-0.297139 z m 20.533112,0.473356 v 2.993616 l -7.63106,7.631059 h 0.005 v 2.253609 h -2.25878 L 96.799777,43.721362 a 1.9106394,1.9106394 0 0 1 0.403076,1.170988 1.9106394,1.9106394 0 0 1 -1.910478,1.910995 1.9106394,1.9106394 0 0 1 -1.166337,-0.408244 l -15.06368,15.06368 c -0.111807,-0.49104 -0.267832,-0.973463 -0.490409,-1.441256 -0.107195,-0.243649 -0.239079,-0.46698 -0.387574,-0.674377 l 7.592819,-7.592819 a 1.6095556,1.6095556 0 0 1 -0.884701,-1.414383 1.6095556,1.6095556 0 0 1 1.609721,-1.609721 1.6095556,1.6095556 0 0 1 1.428853,0.870231 l 5.80378,-5.80378 a 1.9106394,1.9106394 0 0 1 0.45837,-0.45837 l 11.711433,-11.71143 v -1.25367 h 1.25367 l 3.49849,-3.498495 v -1.004073 c 0,-0.277 0.22271,-0.499711 0.49971,-0.499711 h 1.00408 z m -33.172133,0.165881 -1.683102,1.683102 h 1.683102 z m -5.078243,2.587439 c -0.07028,0 -0.131259,0.02482 -0.182935,0.07441 -0.05168,0.05168 -0.07751,0.113689 -0.07751,0.186036 0,0.07028 0.02584,0.131258 0.07751,0.182934 0.05168,0.05168 0.112655,0.07752 0.182935,0.07752 h 1.53479 v 1.5875 h -1.53479 c -0.07028,0 -0.131259,0.02481 -0.182935,0.07441 -0.05168,0.05168 -0.07751,0.113688 -0.07751,0.186035 0,0.07235 0.02584,0.133325 0.07751,0.182935 0.05168,0.05168 0.114722,0.07751 0.189136,0.07751 h 3.593579 c 0.07028,0 0.131258,-0.02687 0.182934,-0.08061 0.05168,-0.05168 0.07752,-0.111621 0.07752,-0.179834 0,-0.07441 -0.02481,-0.136426 -0.07441,-0.186035 -0.05168,-0.04961 -0.113688,-0.07441 -0.186035,-0.07441 h -1.544092 v -1.581299 h 1.544092 c 0.07028,0 0.131258,-0.02687 0.182934,-0.08062 0.05168,-0.05168 0.07752,-0.113688 0.07752,-0.186035 0,-0.07028 -0.02481,-0.131259 -0.07441,-0.182935 -0.05168,-0.05168 -0.113688,-0.07751 -0.186035,-0.07751 z m 8.27288,0.0062 c -0.227376,0 -0.441317,0.10543 -0.641822,0.316259 -0.202571,0.212907 -0.303857,0.443384 -0.303857,0.691431 v 0.610815 c -0.0041,0.233578 0.09302,0.459921 0.291455,0.679029 0.198437,0.221175 0.416512,0.331762 0.654224,0.331762 h 1.100708 c 0.233567,0 0.449585,-0.110587 0.648022,-0.331762 0.198437,-0.219108 0.297656,-0.445451 0.297656,-0.679029 v -0.610815 c 0,-0.237711 -0.100252,-0.465088 -0.300757,-0.682129 -0.202561,-0.217041 -0.417555,-0.325561 -0.644921,-0.325561 z m 18.099156,0.112654 -14.245128,14.245126 v 3.006018 L 108.90446,22.622908 h -2.99981 z M 87.827198,23.03115 h 1.054199 c 0.09508,0 0.170532,0.03411 0.226343,0.10232 l 0.167431,0.195336 c 0.03721,0.04341 0.05581,0.104387 0.05581,0.182935 v 0.604614 c 0,0.08888 -0.03204,0.169499 -0.09612,0.241846 l -0.139527,0.15813 c -0.04961,0.06408 -0.118856,0.09612 -0.207739,0.09612 h -1.054199 c -0.103353,0 -0.179834,-0.03204 -0.229444,-0.09612 l -0.145727,-0.182935 c -0.05168,-0.06201 -0.07752,-0.134359 -0.07752,-0.217041 v -0.539502 c 0,-0.117822 0.02791,-0.208773 0.08372,-0.272851 l 0.151929,-0.176734 c 0.05374,-0.06408 0.124023,-0.09612 0.21084,-0.09612 z m 23.705532,2.380217 0.0734,0.743107 -0.60927,-0.341065 -0.20722,0.554488 0.66404,0.255799 -0.44441,0.633036 0.53588,0.322978 0.32866,-0.669727 0.32298,0.669727 0.54829,-0.322978 -0.45114,-0.627352 0.67024,-0.255798 -0.20722,-0.560173 -0.61495,0.341065 0.0791,-0.743107 z m -28.406537,1.188558 c -0.07028,0 -0.131259,0.0248 -0.182935,0.07441 -0.05168,0.05168 -0.07752,0.113688 -0.07752,0.186035 v 0.533301 h -1.944067 v -0.5271 c 0,-0.07235 -0.02584,-0.134359 -0.07752,-0.186035 -0.05168,-0.04961 -0.112654,-0.07441 -0.182934,-0.07441 -0.07235,0 -0.134359,0.02481 -0.186035,0.07441 -0.05374,0.05168 -0.08062,0.113688 -0.08062,0.186035 v 0.79375 c 0,0.07235 0.02687,0.133325 0.08062,0.182935 0.05168,0.05168 0.113688,0.07751 0.186035,0.07751 h 2.204516 v 0.520899 c 0,0.07235 0.02584,0.134358 0.07752,0.186035 0.04961,0.05374 0.110588,0.08061 0.182935,0.08061 0.07235,0 0.134358,-0.02584 0.186035,-0.07751 0.04961,-0.05168 0.07441,-0.112654 0.07441,-0.182934 v -1.5875 c 0,-0.07235 -0.02481,-0.134359 -0.07441,-0.186035 -0.05168,-0.04961 -0.113688,-0.07441 -0.186035,-0.07441 z m 2.871659,0.0062 c -0.07235,0 -0.133325,0.02481 -0.182935,0.07441 -0.05168,0.05168 -0.07751,0.113688 -0.07751,0.186035 v 0.79375 c 0,0.07028 0.02584,0.131258 0.07751,0.182935 0.05168,0.05168 0.112655,0.07751 0.182935,0.07751 h 3.33313 v 0.5271 c 0,0.07028 0.02584,0.131258 0.07751,0.182934 0.05167,0.05168 0.112654,0.07751 0.182934,0.07751 0.07235,0 0.135392,-0.02584 0.189136,-0.07751 0.05168,-0.04961 0.07751,-0.110587 0.07751,-0.182934 v -1.575098 c 0,-0.07235 -0.02584,-0.134359 -0.07751,-0.186035 -0.05374,-0.04961 -0.116789,-0.07441 -0.189136,-0.07441 -0.07028,0 -0.131268,0.02481 -0.182934,0.07441 -0.05168,0.05168 -0.07751,0.113688 -0.07751,0.186035 v 0.520899 h -3.072681 v -0.5271 c 0,-0.07235 -0.02481,-0.134359 -0.07441,-0.186035 -0.05168,-0.04961 -0.113688,-0.07441 -0.186035,-0.07441 z m -6.465238,0.514697 -0.229444,0.0062 c -0.07235,0 -0.133325,0.02481 -0.182934,0.07441 -0.05168,0.05168 -0.07752,0.113699 -0.07752,0.186035 v 0.272852 c 0,0.07235 0.02584,0.133325 0.07752,0.182935 0.04961,0.05168 0.110587,0.07751 0.182934,0.07751 h 0.223242 c 0.07235,0 0.135393,-0.02584 0.189136,-0.07751 0.05168,-0.04961 0.07752,-0.110588 0.07752,-0.182935 v -0.279053 c 0,-0.07441 -0.02688,-0.137469 -0.08062,-0.189135 -0.05374,-0.04961 -0.113699,-0.07338 -0.179834,-0.07131 z m 13.958837,1.908927 -1.831929,1.83193 V 33.8677 l 2.615344,-2.615344 a 1.9106394,1.9106394 0 0 1 -0.893485,-1.599903 1.9106394,1.9106394 0 0 1 0.11007,-0.622701 z m -12.123291,1.14515 c -0.121946,0 -0.237711,0.02274 -0.347265,0.06821 -0.109554,0.04754 -0.191203,0.103353 -0.244947,0.167432 l -0.182934,0.21394 c -0.132292,0.152962 -0.198438,0.332797 -0.198438,0.539502 v 0.375171 c 0,0.204638 0.07236,0.390684 0.217041,0.558105 l 0.151929,0.179834 -0.102319,-0.0062 c -0.07028,0 -0.131258,0.02584 -0.182935,0.07751 -0.05168,0.05168 -0.07751,0.112655 -0.07751,0.182935 0,0.07234 0.02584,0.134358 0.07751,0.186035 0.04961,0.05374 0.110588,0.08062 0.182935,0.08062 h 2.920752 c 0.221175,0 0.410311,-0.08889 0.567407,-0.26665 l 0.182935,-0.21084 c 0.04754,-0.05374 0.08888,-0.130225 0.124023,-0.229444 0.03514,-0.09715 0.05271,-0.188102 0.05271,-0.272851 v -1.128614 c 0,-0.07234 -0.02481,-0.134358 -0.07441,-0.186035 -0.04961,-0.04961 -0.111621,-0.07441 -0.186035,-0.07441 -0.07235,0 -0.133326,0.02481 -0.182935,0.07441 -0.04961,0.05168 -0.07441,0.113699 -0.07441,0.186035 v 1.128614 c 0,0.06821 -0.02584,0.132291 -0.07752,0.192236 l -0.151928,0.176733 c -0.04548,0.05994 -0.10542,0.08992 -0.179834,0.08992 h -0.79375 c 0.245979,-0.243902 0.368969,-0.481634 0.368969,-0.713134 v -0.399976 c 0,-0.206705 -0.07131,-0.392751 -0.21394,-0.558105 l -0.173633,-0.195337 c -0.05374,-0.06408 -0.132292,-0.11989 -0.235644,-0.167432 -0.103353,-0.04547 -0.204639,-0.06821 -0.303858,-0.06821 z m 5.758305,0 c -0.07235,0 -0.133325,0.02481 -0.182934,0.07441 -0.05168,0.05168 -0.07751,0.113688 -0.07751,0.186035 v 0.272852 H 86.2273 c -0.07235,0 -0.133325,0.02481 -0.182934,0.07441 -0.05168,0.05168 -0.07751,0.113688 -0.07751,0.186035 0,0.06821 0.02584,0.128158 0.07751,0.179834 0.05168,0.05374 0.112654,0.08062 0.182934,0.08062 h 0.638721 v 1.047998 c 0,0.07028 0.02584,0.131259 0.07751,0.182935 0.05168,0.05168 0.112654,0.07751 0.182934,0.07751 0.07235,0 0.134359,-0.02584 0.186035,-0.07751 0.04961,-0.05168 0.07441,-0.112655 0.07441,-0.182935 V 31.2229 h 1.68982 c 0.07028,0 0.131258,0.02584 0.182934,0.07752 0.05168,0.05374 0.07751,0.116789 0.07751,0.189136 v 0.508496 c 0,0.138492 -0.07441,0.230477 -0.223242,0.275952 -0.150895,0.04547 -0.226343,0.133325 -0.226343,0.26355 0,0.07648 0.02584,0.138493 0.07752,0.186035 0.04961,0.04961 0.112664,0.07441 0.189135,0.07441 0.157097,0 0.314193,-0.07441 0.47129,-0.223242 0.155019,-0.146761 0.232543,-0.334864 0.232543,-0.564307 v -0.520898 c 0,-0.214974 -0.07648,-0.399976 -0.229443,-0.555005 -0.152962,-0.155029 -0.33693,-0.232544 -0.551904,-0.232544 h -1.68982 v -0.266651 c 0,-0.07235 -0.0248,-0.134358 -0.07441,-0.186035 -0.04961,-0.04961 -0.111621,-0.07441 -0.186035,-0.07441 z m 24.406265,0.236678 0.0734,0.743107 -0.60927,-0.341064 -0.20722,0.554488 0.66404,0.255798 -0.44441,0.633037 0.53588,0.322977 0.32866,-0.669726 0.32298,0.669726 0.54829,-0.322977 -0.45114,-0.627352 0.67024,-0.255799 -0.20722,-0.560172 -0.61495,0.341064 0.0791,-0.743107 z m -30.183173,0.284221 h 0.868164 c 0.07028,0 0.136436,0.03411 0.198437,0.102319 l 0.151929,0.170532 c 0.04547,0.05374 0.06821,0.110588 0.06821,0.170532 v 0.424781 c 0,0.06201 -0.03101,0.130224 -0.09302,0.204638 l -0.350366,0.412378 c -0.05581,0.06408 -0.124023,0.09612 -0.204638,0.09612 h -0.393775 c -0.09508,0 -0.172599,-0.03617 -0.232544,-0.10852 l -0.362768,-0.42478 c -0.05581,-0.05994 -0.08372,-0.134369 -0.08372,-0.223242 V 31.17019 c 0,-0.07648 0.02997,-0.149861 0.08992,-0.220141 l 0.133325,-0.161231 c 0.05168,-0.06201 0.121957,-0.09302 0.21084,-0.09302 z m 7.417118,3.308325 c -0.217041,0 -0.402043,0.07648 -0.555005,0.229443 -0.155029,0.155029 -0.232544,0.341065 -0.232544,0.558106 v 1.020092 c 0,0.05581 0.0124,0.136426 0.03721,0.241846 l -0.368969,-0.0062 c -0.07235,0 -0.133326,-0.02584 -0.182935,-0.07751 -0.05168,-0.04961 -0.07751,-0.110587 -0.07751,-0.182934 v -0.989087 c 0,-0.07028 -0.02584,-0.131258 -0.07751,-0.182935 -0.05168,-0.05168 -0.112655,-0.07751 -0.182935,-0.07751 -0.07235,0 -0.133325,0.0248 -0.182934,0.07441 -0.05168,0.05168 -0.07751,0.113688 -0.07751,0.186035 v 0.989087 c 0,0.214973 0.07545,0.397918 0.226343,0.548803 0.150895,0.152963 0.335897,0.232544 0.555005,0.238746 l 1.950268,0.06511 c 0.07235,0 0.134359,-0.02584 0.186035,-0.07751 0.04961,-0.05168 0.07441,-0.112654 0.07441,-0.182934 0,-0.07441 -0.0248,-0.13746 -0.07441,-0.189136 -0.05168,-0.05168 -0.113688,-0.07751 -0.186035,-0.07751 l 0.260449,-0.440283 v -0.880566 c 0,-0.219108 -0.07648,-0.405144 -0.229443,-0.558106 -0.152962,-0.152962 -0.339008,-0.229443 -0.558105,-0.229443 z m -9.234061,0.0062 c -0.07028,0 -0.130235,0.02481 -0.179834,0.07441 -0.04961,0.05168 -0.07442,0.113688 -0.07442,0.186035 0,0.07235 0.02584,0.133325 0.07752,0.182935 0.04961,0.05168 0.110588,0.07751 0.182935,0.07751 h 1.314648 l -0.272851,0.41858 c -0.11989,0.190159 -0.179834,0.359668 -0.179834,0.508496 v 0.322461 c 0,0.212896 0.07648,0.395841 0.229443,0.548803 0.150895,0.152962 0.334863,0.232544 0.551904,0.238745 l 1.950269,0.06511 c 0.07235,0.0021 0.134359,-0.02274 0.186035,-0.07441 0.04961,-0.05168 0.07441,-0.113689 0.07441,-0.186036 0,-0.07234 -0.02584,-0.133325 -0.07752,-0.182934 -0.05374,-0.04961 -0.114721,-0.07545 -0.182934,-0.07751 l -1.95647,-0.06511 c -0.07028,-0.0021 -0.131268,-0.02894 -0.182934,-0.08062 -0.05168,-0.05168 -0.07752,-0.113688 -0.07752,-0.186035 v -0.291455 c 0,-0.06615 0.02584,-0.138493 0.07752,-0.217042 l 0.483691,-0.74104 h 1.655713 c 0.07235,0 0.134359,-0.02584 0.186035,-0.07751 0.04961,-0.04961 0.07441,-0.110588 0.07441,-0.182935 0,-0.07235 -0.02481,-0.134359 -0.07441,-0.186035 -0.05168,-0.04961 -0.113688,-0.07441 -0.186035,-0.07441 z m 9.240262,0.520898 h 0.291455 c 0.07028,0 0.131259,0.02584 0.182935,0.07751 0.05168,0.05168 0.07752,0.112655 0.07752,0.182935 v 0.734839 l -0.331763,0.567407 -0.220142,-0.0155 c -0.07441,-0.0021 -0.136425,-0.0279 -0.186035,-0.07751 -0.04961,-0.04961 -0.07441,-0.110587 -0.07441,-0.182934 v -1.026294 c 0,-0.07235 0.02584,-0.134369 0.07751,-0.186035 0.04961,-0.04961 0.110587,-0.07442 0.182934,-0.07442 z m 22.759854,0.880567 0.0734,0.743107 -0.60927,-0.341065 -0.20722,0.554489 0.66404,0.255798 -0.44441,0.633036 0.53588,0.322978 0.32866,-0.669727 0.32298,0.669727 0.54829,-0.322978 -0.45114,-0.627352 0.67024,-0.255798 -0.20722,-0.560173 -0.61495,0.341065 0.0791,-0.743107 z m -0.87592,0.452685 -0.50953,0.50953 c 0.003,0.03184 0.009,0.06251 0.009,0.09509 v 0.05374 c 0,0.609391 -0.49035,1.099675 -1.09967,1.099675 h -0.15813 l -2.7466,2.746602 h 3.00602 l 2.74401,-2.744019 h -0.74517 c -0.277,0 -0.49971,-0.222711 -0.49971,-0.499711 v -1.258321 z m -22.823411,1.981275 c -0.121956,0 -0.237712,0.02274 -0.347266,0.06821 -0.109554,0.04754 -0.191203,0.103353 -0.244946,0.167431 l -0.182935,0.213941 c -0.132291,0.152962 -0.198437,0.332796 -0.198437,0.539502 v 0.375171 c 0,0.204628 0.07235,0.390674 0.217041,0.558105 l 0.151929,0.179834 -0.10232,-0.0062 c -0.07028,0 -0.131258,0.02584 -0.182934,0.07752 -0.05168,0.05168 -0.07751,0.112654 -0.07751,0.182934 0,0.07235 0.02584,0.134359 0.07751,0.186035 0.04961,0.05374 0.110587,0.08062 0.182934,0.08062 h 2.920752 c 0.221175,0 0.410321,-0.08888 0.567407,-0.266651 l 0.182935,-0.21084 c 0.04754,-0.05374 0.08888,-0.130224 0.124023,-0.229443 0.03514,-0.09715 0.05271,-0.188102 0.05271,-0.272852 v -1.128613 c 0,-0.07235 -0.0248,-0.134359 -0.07441,-0.186035 C 90.850269,38.124805 90.788257,38.1 90.713843,38.1 c -0.07235,0 -0.133325,0.02481 -0.182934,0.07441 -0.04961,0.05168 -0.07441,0.113688 -0.07441,0.186035 v 1.128613 c 0,0.06821 -0.02584,0.132292 -0.07752,0.192237 l -0.151929,0.176733 c -0.04547,0.05994 -0.10542,0.08992 -0.179834,0.08992 h -0.79375 c 0.24598,-0.243912 0.36897,-0.481625 0.36897,-0.713135 v -0.399975 c 0,-0.206706 -0.07132,-0.392741 -0.21394,-0.558106 l -0.173633,-0.195337 c -0.05374,-0.06408 -0.132292,-0.119889 -0.235645,-0.167431 -0.103353,-0.04548 -0.204639,-0.06821 -0.303857,-0.06821 z m -0.0186,0.520898 h 0.868164 c 0.07028,0 0.136426,0.03411 0.198438,0.10232 l 0.151929,0.170532 c 0.04547,0.05374 0.06821,0.110587 0.06821,0.170532 v 0.42478 c 0,0.06201 -0.03101,0.130225 -0.09302,0.204639 l -0.350366,0.412378 c -0.05581,0.06408 -0.124024,0.09612 -0.204639,0.09612 h -0.393774 c -0.09508,0 -0.1726,-0.03617 -0.232544,-0.10852 l -0.362769,-0.424781 c -0.05581,-0.05994 -0.08372,-0.134359 -0.08372,-0.223242 V 38.84104 c 0,-0.07648 0.02997,-0.149862 0.08992,-0.220142 l 0.133325,-0.16123 c 0.05168,-0.06201 0.121957,-0.09302 0.21084,-0.09302 z m 23.717931,2.045353 0.0734,0.743108 -0.60927,-0.341065 -0.2067,0.554488 0.66352,0.255799 -0.44441,0.633036 0.53588,0.322978 0.32866,-0.669727 0.32298,0.669727 0.54829,-0.322978 -0.45114,-0.627352 0.67024,-0.255798 -0.20722,-0.560173 -0.61495,0.341065 0.0791,-0.743108 z m -5.62808,0.204639 -9.331729,9.33173 a 1.6095556,1.6095556 0 0 1 1.207162,1.557528 1.6095556,1.6095556 0 0 1 -0.02481,0.266134 l 9.149317,-9.149313 h -0.99994 z m -18.148762,1.064535 c -0.06821,0 -0.160197,0.02584 -0.275952,0.07751 -0.115755,0.05374 -0.205672,0.120923 -0.269751,0.201538 l -0.170532,0.217041 c -0.115755,0.142627 -0.173633,0.300757 -0.173633,0.47439 v 0.731738 c 0,0.183968 0.07649,0.357601 0.229443,0.520899 l 0.186036,0.195337 c 0.12608,0.140559 0.314193,0.210839 0.564306,0.210839 h 0.629419 c 0.07028,0 0.131258,-0.02584 0.182935,-0.07751 0.05168,-0.05168 0.07751,-0.112655 0.07751,-0.182935 v -1.841748 h 0.151929 c 0.08888,0 0.164331,0.03824 0.226343,0.114722 l 0.127124,0.151929 c 0.06408,0.08268 0.09612,0.16123 0.09612,0.235644 v 1.339453 c 0,0.07028 0.02584,0.131258 0.07752,0.182935 0.04961,0.05168 0.110587,0.07751 0.182934,0.07751 0.07028,0 0.131258,-0.02687 0.182935,-0.08062 0.05168,-0.05168 0.07751,-0.111621 0.07751,-0.179834 v -1.373559 c 0,-0.09095 -0.0186,-0.187069 -0.05581,-0.288355 -0.03927,-0.09922 -0.07958,-0.172599 -0.120923,-0.220141 l -0.204639,-0.232544 c -0.05788,-0.07235 -0.138493,-0.133326 -0.241845,-0.182935 -0.103353,-0.04754 -0.198438,-0.07131 -0.285254,-0.07131 z m 0.04961,0.5333 h 0.403076 v 1.581299 h -0.362769 c -0.09715,0 -0.171566,-0.02997 -0.223242,-0.08992 l -0.133325,-0.151928 c -0.06408,-0.07855 -0.09612,-0.148829 -0.09612,-0.21084 V 42.68886 c 0,-0.08062 0.02791,-0.153996 0.08371,-0.220142 l 0.127124,-0.151928 c 0.05168,-0.06821 0.118856,-0.10232 0.201539,-0.10232 z m 23.727232,3.197738 0.0734,0.743107 -0.60927,-0.341064 -0.2067,0.554488 0.66352,0.255798 -0.44441,0.633036 0.53588,0.322978 0.32866,-0.669726 0.32298,0.669726 0.54829,-0.322978 -0.45062,-0.627351 0.66972,-0.255799 -0.20722,-0.560172 -0.61495,0.341064 0.0791,-0.743107 z m 0,5.000212 0.0734,0.743107 -0.60927,-0.341065 -0.2067,0.554488 0.66352,0.255799 -0.44441,0.633036 0.53588,0.322978 0.32866,-0.669727 0.32298,0.669727 0.54829,-0.322978 -0.45062,-0.627352 0.66972,-0.255798 -0.20722,-0.560173 -0.61495,0.341065 0.0791,-0.743107 z m -39.230679,4.313948 a 1.6095556,1.6095556 0 0 1 1.609721,1.609204 1.6095556,1.6095556 0 0 1 -1.609721,1.609721 1.6095556,1.6095556 0 0 1 -1.609204,-1.609721 1.6095556,1.6095556 0 0 1 1.609204,-1.609204 z m 33.602599,15.88999 -13.501504,13.501502 a 1.6095556,1.6095556 0 0 1 1.177189,1.548226 1.6095556,1.6095556 0 0 1 -0.03411,0.315226 L 106.9051,72.62244 h -1.00045 z m -33.602603,0.20774 a 1.6095556,1.6095556 0 0 1 1.210262,0.548803 c 0.111208,0.0031 0.220139,0.0081 0.321944,0.0155 0.459944,0.0577 0.913429,0.03426 1.351339,-0.05271 l -1.285193,1.285193 a 1.6095556,1.6095556 0 0 1 -1.598352,1.422136 1.6095556,1.6095556 0 0 1 -1.609204,-1.609721 1.6095556,1.6095556 0 0 1 1.609204,-1.609204 z m 43.286763,4.461743 c -0.0192,0 -0.0354,0.0069 -0.0486,0.02067 -0.0137,0.01317 -0.0207,0.02936 -0.0207,0.04858 v 0.05943 c 0,0.01921 0.007,0.03585 0.0207,0.05013 0.0132,0.01372 0.0294,0.02067 0.0486,0.02067 h 0.0739 c 0.0198,0 0.0365,-0.0074 0.0501,-0.0217 0.0132,-0.01427 0.0197,-0.02998 0.0191,-0.04754 l -0.002,-0.06098 c 0,-0.01921 -0.006,-0.0354 -0.0196,-0.04858 -0.0136,-0.0136 -0.0301,-0.02055 -0.0491,-0.02067 h -5.2e-4 z m -4.05608,0.12609 0.0796,0.743107 -0.61547,-0.341064 -0.2067,0.560172 0.66972,0.255799 -0.45061,0.627352 0.54777,0.322461 0.32297,-0.669727 0.32918,0.669727 0.53589,-0.322461 -0.44494,-0.633553 0.66404,-0.255799 -0.20722,-0.553971 -0.60875,0.341064 0.0729,-0.743107 z m 7.61865,0.201022 c -0.0158,0.0015 -0.0298,0.0081 -0.0418,0.02015 -0.0137,0.01373 -0.0207,0.02992 -0.0207,0.04858 v 0.04444 c -0.067,-0.07466 -0.13312,-0.111621 -0.19844,-0.111621 h -0.032 c -0.0489,0 -0.0937,0.01803 -0.13488,0.05426 l -0.11524,0.09974 c -0.0505,0.04392 -0.076,0.0994 -0.076,0.166915 v 0.216007 c 0,0.06807 0.0273,0.125421 0.0816,0.172083 l 0.11265,0.09715 c 0.0373,0.03403 0.0845,0.05064 0.1416,0.05064 h 0.0305 c 0.0538,0 0.0996,-0.01848 0.13694,-0.05581 l 0.0532,-0.05323 v 0.305924 c 0,0.01976 0.007,0.03692 0.0207,0.05064 0.0132,0.01373 0.0294,0.02015 0.0486,0.02015 0.0192,0 0.0359,-0.0064 0.0501,-0.02015 0.0137,-0.01373 0.0207,-0.03088 0.0207,-0.05064 v -0.986503 c 0,-0.01867 -0.007,-0.03486 -0.0207,-0.04858 -0.0137,-0.01372 -0.0304,-0.02015 -0.0501,-0.02015 -0.002,0 -0.004,-2.15e-4 -0.007,0 z m -3.5698,0.03204 c -0.0161,0.0016 -0.0298,0.0087 -0.0414,0.02119 -0.0137,0.01373 -0.0207,0.0304 -0.0207,0.04961 v 0.585494 h -0.13849 c -0.0192,0 -0.0354,0.0064 -0.0491,0.02015 -0.0143,0.01317 -0.0217,0.02936 -0.0217,0.04858 0,0.01921 0.007,0.03588 0.0207,0.04961 0.0137,0.01317 0.0299,0.01964 0.0486,0.01964 h 0.42168 c 0.0192,0 0.0359,-0.0065 0.0496,-0.01964 0.0132,-0.01373 0.0196,-0.0304 0.0196,-0.04961 0,-0.01867 -0.006,-0.03486 -0.0196,-0.04858 -0.0137,-0.01373 -0.0304,-0.02015 -0.0496,-0.02015 h -0.14159 v -0.516248 h 0.14004 c 0.0192,0 0.0354,-0.0069 0.0491,-0.02067 0.0132,-0.01372 0.0202,-0.02991 0.0202,-0.04858 0,-0.01921 -0.007,-0.03588 -0.0202,-0.04961 -0.0137,-0.01427 -0.0299,-0.02119 -0.0491,-0.02119 h -0.21084 c -0.002,0 -0.005,-2.23e-4 -0.007,0 z m -1.74873,0.0016 c -0.0455,0.0024 -0.0885,0.0229 -0.1292,0.06098 l -0.0522,0.04909 c -0.0373,0.03349 -0.0558,0.08344 -0.0558,0.149862 v 0.167431 c 0,0.01867 0.007,0.03486 0.0207,0.04858 0.0137,0.01373 0.0299,0.02067 0.0486,0.02067 h 0.48886 v 0.04031 c 0,0.02361 -0.0102,0.04348 -0.0305,0.05994 l -0.0403,0.03359 c -0.0219,0.01702 -0.0427,0.02584 -0.0625,0.02584 h -0.35553 c -0.0187,0 -0.0349,0.0069 -0.0486,0.02067 -0.0137,0.01317 -0.0207,0.02936 -0.0207,0.04857 0,0.01867 0.007,0.03486 0.0212,0.04858 0.0137,0.01373 0.0299,0.02067 0.0481,0.02067 h 0.36483 c 0.0241,0 0.0495,-0.0051 0.0765,-0.01499 0.0263,-0.01043 0.0457,-0.02107 0.0584,-0.03204 l 0.062,-0.05426 c 0.0192,-0.01537 0.0354,-0.03715 0.0486,-0.0646 0.0126,-0.02745 0.0186,-0.05239 0.0186,-0.07545 v -0.317293 c 0,-0.01811 -0.007,-0.04264 -0.0207,-0.07338 -0.0143,-0.03074 -0.0318,-0.05429 -0.0532,-0.07131 l -0.0579,-0.04548 c -0.0379,-0.03074 -0.0794,-0.04599 -0.12557,-0.04599 h -0.1943 c -0.003,0 -0.006,-1.58e-4 -0.009,0 z m 0.6475,0 c -0.0161,0.0015 -0.0298,0.0087 -0.0413,0.02067 -0.0137,0.01317 -0.0207,0.02936 -0.0207,0.04858 v 0.131775 l 0.23978,0.545186 c 0.0154,0.03239 0.0358,0.04858 0.061,0.04858 h 0.0889 c 0.0324,0 0.056,-0.01716 0.0708,-0.05064 l 0.23771,-0.541569 v -0.133325 c 0,-0.01921 -0.006,-0.0354 -0.0196,-0.04858 -0.0137,-0.01373 -0.0304,-0.02067 -0.0496,-0.02067 -0.0192,0 -0.0354,0.0069 -0.0486,0.02067 -0.0137,0.01317 -0.0207,0.02936 -0.0207,0.04858 v 0.105936 l -0.21033,0.47439 -0.20929,-0.47594 v -0.104386 c 0,-0.01921 -0.007,-0.0354 -0.0207,-0.04858 -0.0137,-0.01373 -0.0304,-0.02067 -0.0501,-0.02067 -0.002,0 -0.005,-2.14e-4 -0.007,0 z m 1.76062,0 c -0.0456,0.0017 -0.0864,0.01665 -0.12196,0.04444 -0.0379,0.02909 -0.0568,0.05778 -0.0568,0.08578 0,0.01976 0.007,0.03595 0.0217,0.04858 0.0137,0.01263 0.029,0.0186 0.046,0.0186 0.0219,0 0.0418,-0.0097 0.06,-0.02945 0.0181,-0.01976 0.0371,-0.02946 0.0568,-0.02946 h 0.31316 c 0.0307,0 0.046,0.01244 0.046,0.03824 0,0.01811 -0.0101,0.03201 -0.0305,0.04134 l -0.36793,0.163297 c -0.0373,0.01647 -0.0679,0.0428 -0.0915,0.07958 -0.0241,0.03623 -0.0362,0.07646 -0.0362,0.120923 0,0.05929 0.0208,0.109723 0.063,0.150895 0.0417,0.04117 0.0894,0.06201 0.14263,0.06201 h 0.28009 c 0.0483,0 0.0932,-0.01483 0.13487,-0.04393 0.0411,-0.02909 0.062,-0.0573 0.062,-0.08475 0,-0.01811 -0.007,-0.03381 -0.0201,-0.04754 -0.0137,-0.01427 -0.0313,-0.0217 -0.0527,-0.0217 -0.0175,0 -0.036,0.0097 -0.0558,0.02946 -0.0203,0.01976 -0.0495,0.02997 -0.0873,0.02997 h -0.25786 c -0.0203,0 -0.0374,-0.0079 -0.0512,-0.02325 -0.0137,-0.01592 -0.0202,-0.03395 -0.0202,-0.05426 0,-0.03129 0.0152,-0.05398 0.046,-0.0677 l 0.37103,-0.166915 c 0.0357,-0.01592 0.0635,-0.03905 0.0827,-0.06925 0.0192,-0.03019 0.0284,-0.0607 0.0284,-0.09198 0,-0.04941 -0.0166,-0.09245 -0.0506,-0.128674 -0.0346,-0.03623 -0.0772,-0.05426 -0.12764,-0.05426 h -0.31678 c -0.003,0 -0.006,-1.16e-4 -0.009,0 z m 0.82269,0 c -0.0456,0.0017 -0.0859,0.01665 -0.12144,0.04444 -0.0379,0.02909 -0.0569,0.05778 -0.0569,0.08578 0,0.01976 0.007,0.03595 0.0212,0.04858 0.0137,0.01263 0.029,0.0186 0.046,0.0186 0.0219,0 0.0423,-0.0097 0.0605,-0.02945 0.0181,-0.01976 0.0366,-0.02946 0.0563,-0.02946 h 0.31316 c 0.0307,0 0.046,0.01244 0.046,0.03824 0,0.01811 -0.0101,0.03201 -0.0305,0.04134 l -0.36793,0.163297 c -0.0373,0.01647 -0.0679,0.0428 -0.0915,0.07958 -0.0241,0.03623 -0.0362,0.07646 -0.0362,0.120923 0,0.05929 0.0213,0.109723 0.0636,0.150895 0.0417,0.04117 0.0889,0.06201 0.14211,0.06201 h 0.28008 c 0.0483,0 0.0932,-0.01483 0.13488,-0.04393 0.0412,-0.02909 0.062,-0.0573 0.062,-0.08475 0,-0.01811 -0.006,-0.03381 -0.0196,-0.04754 -0.0137,-0.01427 -0.0313,-0.0217 -0.0527,-0.0217 -0.0175,0 -0.0365,0.0097 -0.0563,0.02946 -0.0203,0.01976 -0.0495,0.02997 -0.0873,0.02997 h -0.25734 c -0.0203,0 -0.0374,-0.0079 -0.0512,-0.02325 -0.0137,-0.01592 -0.0207,-0.03395 -0.0207,-0.05426 0,-0.03129 0.0153,-0.05398 0.046,-0.0677 l 0.37155,-0.166915 c 0.0357,-0.01592 0.063,-0.03905 0.0822,-0.06925 0.0192,-0.03019 0.0289,-0.0607 0.0289,-0.09198 0,-0.04941 -0.0171,-0.09245 -0.0511,-0.128674 -0.0346,-0.03623 -0.0772,-0.05426 -0.12765,-0.05426 h -0.31677 c -0.003,0 -0.006,-1.16e-4 -0.009,0 z m 0.86196,0 c -0.0525,0.0023 -0.0973,0.02238 -0.13488,0.05994 -0.0406,0.04007 -0.0619,0.08909 -0.0636,0.147278 l -0.017,0.518314 c 0,0.01921 0.007,0.03537 0.0207,0.04909 0.0137,0.01317 0.0299,0.02015 0.0486,0.02015 0.0197,0 0.0364,-0.007 0.0501,-0.02015 0.0137,-0.01373 0.0207,-0.02988 0.0207,-0.04909 l 0.11679,0.06925 h 0.23409 c 0.0582,0 0.10719,-0.02036 0.1478,-0.06098 0.0406,-0.04062 0.061,-0.09012 0.061,-0.148312 v -0.08061 c 0,-0.05764 -0.0204,-0.107173 -0.061,-0.147795 -0.0412,-0.04117 -0.0902,-0.0615 -0.1478,-0.0615 h -5.1e-4 -0.2713 c -0.0148,0 -0.0361,0.0032 -0.0641,0.0098 l 0.002,-0.09819 c 0,-0.01921 0.007,-0.0354 0.0207,-0.04858 0.0132,-0.01373 0.0294,-0.02015 0.0486,-0.02015 h 0.26252 c 0.0187,0 0.0348,-0.0069 0.0486,-0.02067 0.0137,-0.01372 0.0207,-0.02991 0.0207,-0.04858 0,-0.01921 -0.006,-0.0354 -0.0196,-0.04858 -0.0137,-0.01373 -0.0304,-0.02067 -0.0496,-0.02067 h -0.26252 c -0.004,0 -0.007,-1.56e-4 -0.0109,0 z m 0.92707,0.108004 c 0.002,-1.8e-4 0.004,0 0.006,0 h 0.0403 c 0.0153,0 0.0357,0.01247 0.0605,0.03772 l 0.10283,0.101802 c 0.0181,0.01811 0.0274,0.03847 0.0274,0.06098 v 0.17725 c 0,0.02141 -0.0101,0.04221 -0.0305,0.06253 l -0.0997,0.09974 c -0.0247,0.0247 -0.0465,0.03721 -0.0651,0.03721 h -0.0357 c -0.017,0 -0.0351,-0.0088 -0.0543,-0.02584 l -0.10801,-0.09457 c -0.0181,-0.01427 -0.0269,-0.0337 -0.0269,-0.0584 V 75.92978 c 0,-0.02196 0.0102,-0.04138 0.0305,-0.05839 l 0.11576,-0.09974 c 0.0115,-0.01009 0.024,-0.01579 0.0372,-0.01705 z m -5.00331,0.03204 c 0.001,-6.6e-5 0.002,0 0.003,0 h 0.17415 c 0.0214,0 0.0408,0.0074 0.0584,0.02222 l 0.0403,0.03359 c 0.0181,0.01373 0.0274,0.03179 0.0274,0.05374 h -5.1e-4 v 0.106971 h -0.41962 v -0.09663 c 0,-0.0258 0.008,-0.04519 0.0238,-0.05891 l 0.0403,-0.03566 c 0.0196,-0.01596 0.037,-0.02432 0.0527,-0.02532 z m 4.07469,0.29714 c 0.001,-5.2e-5 0.002,0 0.004,0 h 0.27285 c 0.0192,0 0.0354,0.0069 0.0491,0.02067 0.0132,0.01317 0.0196,0.02936 0.0196,0.04858 v 0.07752 c 0,0.01867 -0.006,0.03486 -0.0202,0.04858 -0.0137,0.01373 -0.0299,0.02015 -0.0486,0.02015 h -0.19534 l -0.15089,-0.08785 0.004,-0.0584 c 5.5e-4,-0.01976 0.007,-0.03643 0.0207,-0.04961 0.0124,-0.01235 0.0273,-0.01886 0.045,-0.01964 z m -12.01064,0.523999 -8.252724,8.252726 a 1.6095556,1.6095556 0 0 1 0.219625,0.805636 1.6095556,1.6095556 0 0 1 -1.609721,1.609204 1.6095556,1.6095556 0 0 1 -0.794784,-0.22996 L 84.995329,97.52583 a 1.6095556,1.6095556 0 0 1 0.675411,-0.169499 1.6095556,1.6095556 0 0 1 1.482597,1.017509 L 107.90453,77.622652 h -0.90021 c -0.58016,0 -1.04688,-0.446445 -1.09089,-1.014925 z m 12.69122,0.0036 c -0.0192,0 -0.0354,0.0069 -0.0491,0.02067 -0.0143,0.01317 -0.0217,0.02936 -0.0217,0.04858 v 0.956014 c 0,0.01921 0.007,0.03588 0.0207,0.04961 0.0137,0.01317 0.0299,0.01964 0.0486,0.01964 0.0197,0 0.0364,-0.0065 0.0496,-0.01964 0.0132,-0.01373 0.0196,-0.0304 0.0196,-0.04961 v -0.03049 c 0.0675,0.06643 0.13092,0.09973 0.18966,0.09973 h 0.1173 c 0.0472,0 0.0944,-0.02036 0.14159,-0.06098 l 0.0579,-0.04858 c 0.0132,-0.01263 0.0257,-0.03392 0.0377,-0.06356 0.0115,-0.02965 0.0176,-0.0574 0.0176,-0.0832 v -0.28112 c 0,-0.03129 -0.007,-0.06186 -0.0202,-0.09095 -0.0132,-0.02965 -0.0285,-0.05184 -0.046,-0.06666 l -0.0568,-0.04858 c -0.0406,-0.03513 -0.0882,-0.05271 -0.14315,-0.05271 h -0.0997 c -0.0543,0 -0.10383,0.01945 -0.14831,0.05788 l -0.0476,0.04031 v -0.327112 c 0,-0.01921 -0.006,-0.0354 -0.0196,-0.04858 -0.0132,-0.01373 -0.0294,-0.02067 -0.0481,-0.02067 z m -4.52169,0.06098 c -0.0181,0 -0.0338,0.0069 -0.0475,0.02067 -0.0143,0.01372 -0.0217,0.02991 -0.0217,0.04858 v 0.169499 h -0.27802 c -0.0187,0 -0.0348,0.0069 -0.0486,0.02067 -0.0137,0.01372 -0.0207,0.02991 -0.0207,0.04858 0,0.01921 0.007,0.03588 0.0207,0.04961 0.0137,0.01317 0.0299,0.01964 0.0486,0.01964 h 0.28009 v 0.449069 c 0,0.01867 -0.007,0.03486 -0.0207,0.04857 -0.0143,0.01373 -0.0309,0.02015 -0.0501,0.02015 h -0.13539 c -0.0368,0 -0.0613,-0.01938 -0.0734,-0.05891 -0.0121,-0.04007 -0.0352,-0.06046 -0.0698,-0.06046 -0.0203,0 -0.037,0.0069 -0.0496,0.02067 -0.0132,0.01317 -0.0196,0.02981 -0.0196,0.05013 0,0.04172 0.0199,0.08385 0.0594,0.125574 0.039,0.04117 0.0889,0.06149 0.14986,0.06149 h 0.13849 c 0.0571,0 0.10609,-0.02036 0.14728,-0.06098 0.0412,-0.04062 0.0615,-0.08915 0.0615,-0.146244 V 77.04956 h 0.0708 c 0.0192,0 0.0359,-0.0065 0.0496,-0.01964 0.0132,-0.01317 0.0196,-0.02984 0.0196,-0.04961 0,-0.01921 -0.006,-0.0354 -0.0196,-0.04858 -0.0137,-0.01373 -0.0304,-0.02067 -0.0496,-0.02067 h -0.0723 v -0.169499 c 0,-0.01921 -0.006,-0.0354 -0.0196,-0.04858 -0.0137,-0.01373 -0.0304,-0.02067 -0.0496,-0.02067 z m 2.60501,0.237195 c -0.0177,8.05e-4 -0.0326,0.0078 -0.045,0.02067 -0.0137,0.01373 -0.0207,0.03037 -0.0207,0.05013 v 0.08682 l -0.11266,-0.09664 c -0.0467,-0.03952 -0.0925,-0.05943 -0.13694,-0.05943 h -0.10128 c -0.0571,0 -0.10612,0.02036 -0.14676,0.06098 -0.0406,0.04062 -0.0605,0.08967 -0.0605,0.146761 v 0.03721 c 0,0.01976 0.006,0.0364 0.0202,0.05013 0.0132,0.01373 0.0294,0.02067 0.0486,0.02067 0.0192,0 0.0359,-0.007 0.0496,-0.02015 0.0132,-0.01373 0.0196,-0.02988 0.0196,-0.04909 v -0.03876 c 0,-0.01921 0.007,-0.0354 0.0207,-0.04858 0.0132,-0.01373 0.0294,-0.02067 0.0486,-0.02067 h 0.0899 c 0.0192,0 0.0405,0.01018 0.0641,0.03049 l 0.19689,0.170532 v 0.386023 c 0,0.01921 0.007,0.03588 0.0207,0.04961 0.0137,0.01317 0.0299,0.01964 0.0486,0.01964 0.0192,0 0.0353,-0.0065 0.0491,-0.01964 0.0132,-0.01373 0.0202,-0.0304 0.0202,-0.04961 v -0.656291 c 0,-0.01921 -0.007,-0.03537 -0.0202,-0.04909 -0.0137,-0.01427 -0.0299,-0.0217 -0.0491,-0.0217 -0.001,0 -0.002,-5.3e-5 -0.004,0 z m 0.45578,0 c -0.0579,0.0021 -0.1144,0.02814 -0.16898,0.07752 -0.0587,0.0527 -0.0879,0.110503 -0.0879,0.173633 v 0.292488 c 0,0.06203 0.0291,0.119386 0.0879,0.172083 0.0582,0.0527 0.11833,0.07906 0.18035,0.07906 h 0.16227 c 0.0631,0 0.12375,-0.02685 0.18138,-0.0801 0.0577,-0.0538 0.0863,-0.110667 0.0863,-0.171049 v -0.292488 c 0,-0.06039 -0.0277,-0.117289 -0.0837,-0.170532 -0.0565,-0.0538 -0.11809,-0.08062 -0.18397,-0.08062 h -0.16227 c -0.004,-6.6e-5 -0.008,-1.43e-4 -0.0114,0 z m 0.82269,0 c -0.0579,0.0021 -0.11388,0.02814 -0.16846,0.07752 -0.0587,0.0527 -0.0884,0.110503 -0.0884,0.173633 v 0.292488 c 0,0.06203 0.0291,0.119386 0.0879,0.172083 0.0582,0.0527 0.11833,0.07906 0.18035,0.07906 h 0.16227 c 0.0631,0 0.12375,-0.02685 0.18138,-0.0801 0.0577,-0.0538 0.0863,-0.110667 0.0863,-0.171049 v -0.292488 c 0,-0.06039 -0.0277,-0.117289 -0.0837,-0.170532 -0.0565,-0.0538 -0.11808,-0.08062 -0.18396,-0.08062 h -0.16227 c -0.004,-6.6e-5 -0.008,-1.43e-4 -0.0114,0 z m -3.48195,0.0016 c -0.0192,0 -0.0354,0.0069 -0.0486,0.02067 -0.0137,0.01317 -0.0207,0.02936 -0.0207,0.04858 0,0.01976 0.007,0.03643 0.0207,0.04961 0.0132,0.01317 0.0294,0.01964 0.0486,0.01964 h 0.29713 c 0.0187,0 0.0362,0.0074 0.0532,0.02222 l 0.11111,0.09457 c 0.0181,0.01537 0.0274,0.03621 0.0274,0.06201 v 0.168982 c 0,0.01811 -0.007,0.03336 -0.0212,0.04599 l -0.12196,0.103869 c -0.0154,0.01373 -0.0358,0.02015 -0.061,0.02015 h -0.28318 c -0.0187,0 -0.0349,0.0069 -0.0486,0.02067 -0.0137,0.01317 -0.0207,0.02936 -0.0207,0.04858 0,0.01921 0.007,0.03588 0.0207,0.04961 0.0132,0.01317 0.0294,0.01964 0.0486,0.01964 h 0.29558 c 0.0521,0 0.0965,-0.01573 0.13333,-0.04702 l 0.13436,-0.116789 c 0.0428,-0.03568 0.0641,-0.08427 0.0641,-0.145211 v -0.179834 c 0.002,-0.05874 -0.022,-0.110114 -0.0724,-0.153479 l -0.12092,-0.104386 c -0.039,-0.03184 -0.0811,-0.04806 -0.12558,-0.04806 z m 2.66805,0.136942 c 0.001,-5.4e-5 0.003,0 0.004,0 h 0.14366 c 0.0313,0 0.0553,0.0074 0.0724,0.02222 l 0.047,0.04031 c 0.017,0.01427 0.0253,0.03276 0.0253,0.05581 v 0.280086 c 0,0.02525 -0.009,0.04513 -0.0269,0.05994 l -0.0522,0.04496 c -0.0115,0.0099 -0.0277,0.01447 -0.0486,0.01447 h -0.16072 c -0.0236,0 -0.0449,-0.0083 -0.0641,-0.02532 l -0.0418,-0.03721 c -0.017,-0.01317 -0.0258,-0.03169 -0.0258,-0.05529 v -0.27957 c 0,-0.02745 0.009,-0.0478 0.0258,-0.06098 l 0.0486,-0.03876 c 0.0154,-0.01287 0.033,-0.01987 0.0532,-0.02067 z m 0.82321,0 c 10e-4,-5.4e-5 0.002,0 0.004,0 h 0.14366 c 0.0313,0 0.0553,0.0074 0.0724,0.02222 l 0.047,0.04031 c 0.017,0.01427 0.0253,0.03276 0.0253,0.05581 v 0.280086 c 0,0.02525 -0.009,0.04513 -0.0269,0.05994 l -0.0522,0.04496 c -0.0115,0.0099 -0.0277,0.01447 -0.0486,0.01447 h -0.16072 c -0.0236,0 -0.0449,-0.0083 -0.0641,-0.02532 l -0.0418,-0.03721 c -0.017,-0.01317 -0.0253,-0.03169 -0.0253,-0.05529 v -0.27957 c 0,-0.02745 0.008,-0.0478 0.0253,-0.06098 l 0.0486,-0.03876 c 0.0154,-0.01287 0.0335,-0.01987 0.0538,-0.02067 z m 0.89761,0.0015 h 0.0961 c 0.0203,0 0.0388,0.0074 0.0553,0.02222 l 0.0444,0.03876 c 0.0153,0.01372 0.0233,0.0313 0.0233,0.05271 v 0.293005 c 0,0.01921 -0.009,0.03682 -0.0274,0.05219 l -0.0455,0.03876 c -0.0143,0.01263 -0.029,0.0186 -0.045,0.0186 h -0.11317 c -0.0148,0 -0.0324,-0.0083 -0.0527,-0.02532 l -0.10955,-0.09095 c -0.0181,-0.01592 -0.0269,-0.0353 -0.0269,-0.05891 v -0.149862 c 0,-0.03349 0.01,-0.05849 0.0289,-0.07441 l 0.11266,-0.09612 c 0.0148,-0.01373 0.0347,-0.02067 0.0594,-0.02067 z m -3.56929,0.03566 c -0.015,0.0014 -0.0288,0.0081 -0.0413,0.01964 -0.0143,0.01263 -0.0217,0.02879 -0.0217,0.04909 v 0.06098 c 0,0.01921 0.007,0.03637 0.0207,0.05064 0.0132,0.01373 0.0294,0.02015 0.0486,0.02015 h 0.55863 c 0.0192,0 0.0354,-0.0064 0.0491,-0.02015 0.0132,-0.01427 0.0202,-0.03143 0.0202,-0.05064 v -0.06098 c 0,-0.01921 -0.007,-0.0354 -0.0202,-0.04858 -0.0137,-0.01373 -0.0299,-0.02015 -0.0491,-0.02015 h -0.55863 c -0.002,0 -0.004,-2.06e-4 -0.006,0 z m -4.60902,0.740523 -2.54351,2.543514 h 2.00453 v 1.00149 l 3.545,-3.545004 z m 7.08794,1.918746 v 2.993616 l -7.63106,7.631059 h 0.005 v 2.253609 h -2.25826 l -9.595279,9.595281 H 95.309428 L 105.90465,91.622831 v -1.25367 h 1.25367 z M 90.428589,86.092419 79.164677,97.356331 h 0.971 c 0.448033,0 0.808737,0.360714 0.808737,0.808736 V 98.58313 L 92.28584,87.241703 a 1.6095556,1.6095556 0 0 1 -0.315226,0.03359 1.6095556,1.6095556 0 0 1 -1.542025,-1.182874 z m 25.160221,14.184151 c -0.0192,0 -0.0354,0.007 -0.0486,0.0207 -0.0137,0.0132 -0.0207,0.0294 -0.0207,0.0486 v 0.0594 c 0,0.0192 0.007,0.0359 0.0207,0.0501 0.0132,0.0137 0.0294,0.0207 0.0486,0.0207 h 0.0739 c 0.0198,0 0.0365,-0.007 0.0501,-0.0217 0.0132,-0.0143 0.0197,-0.0299 0.0191,-0.0475 l -0.002,-0.061 c 0,-0.0192 -0.006,-0.0354 -0.0196,-0.0486 -0.0136,-0.0136 -0.0301,-0.0206 -0.0491,-0.0207 h -5.2e-4 z m -4.05608,0.12609 0.0796,0.7431 -0.61547,-0.34106 -0.2067,0.56017 0.66972,0.2558 -0.45061,0.62735 0.54777,0.32246 0.32297,-0.66972 0.32918,0.66972 0.53589,-0.32246 -0.44494,-0.63355 0.66404,-0.2558 -0.20722,-0.55397 -0.60875,0.34106 0.0729,-0.7431 z m 7.62537,0.2005 c -0.0187,0 -0.0348,0.007 -0.0486,0.0207 -0.0137,0.0137 -0.0207,0.0299 -0.0207,0.0486 v 0.045 c -0.067,-0.0747 -0.13312,-0.11214 -0.19844,-0.11214 h -0.032 c -0.0489,0 -0.0937,0.0181 -0.13488,0.0543 l -0.11524,0.0997 c -0.0505,0.0439 -0.076,0.0994 -0.076,0.16692 v 0.21601 c 0,0.0681 0.0273,0.12542 0.0816,0.17208 l 0.11265,0.0971 c 0.0373,0.0341 0.0845,0.0512 0.1416,0.0512 h 0.0305 c 0.0538,0 0.0996,-0.019 0.13694,-0.0563 l 0.0532,-0.0532 v 0.30592 c 0,0.0198 0.007,0.0365 0.0207,0.0501 0.0132,0.0137 0.0294,0.0207 0.0486,0.0207 0.0192,0 0.0359,-0.007 0.0501,-0.0207 0.0137,-0.0137 0.0207,-0.0304 0.0207,-0.0501 v -0.9865 c 0,-0.0187 -0.007,-0.0348 -0.0207,-0.0486 -0.0137,-0.0137 -0.0304,-0.0207 -0.0501,-0.0207 z m -3.56929,0.0326 c -0.0192,0 -0.0354,0.007 -0.0486,0.0212 -0.0137,0.0137 -0.0207,0.0304 -0.0207,0.0496 v 0.58498 h -0.13849 c -0.0192,0 -0.0354,0.007 -0.0491,0.0207 -0.0143,0.0132 -0.0217,0.0294 -0.0217,0.0486 0,0.0192 0.007,0.0359 0.0207,0.0496 0.0137,0.0132 0.0299,0.0196 0.0486,0.0196 h 0.42168 c 0.0192,0 0.0359,-0.006 0.0496,-0.0196 0.0132,-0.0137 0.0196,-0.0304 0.0196,-0.0496 0,-0.0187 -0.006,-0.0348 -0.0196,-0.0486 -0.0137,-0.0137 -0.0304,-0.0202 -0.0496,-0.0202 h -0.14159 v -0.51677 h 0.14004 c 0.0192,0 0.0354,-0.006 0.0491,-0.0202 0.0132,-0.0137 0.0202,-0.0299 0.0202,-0.0486 0,-0.0192 -0.007,-0.0359 -0.0202,-0.0496 -0.0137,-0.0143 -0.0299,-0.0212 -0.0491,-0.0212 z m -1.74666,0.002 c -0.0489,0 -0.0951,0.0204 -0.1385,0.061 l -0.0522,0.0496 c -0.0372,0.0334 -0.0557,0.0837 -0.0558,0.14986 v 0.16691 c 0,0.0187 0.007,0.0348 0.0207,0.0486 0.0137,0.0137 0.0299,0.0207 0.0486,0.0207 h 0.48886 v 0.0403 c 0,0.0236 -0.0102,0.0435 -0.0305,0.0599 l -0.0403,0.0341 c -0.0219,0.017 -0.0427,0.0253 -0.0625,0.0253 h -0.35553 c -0.0187,0 -0.0349,0.007 -0.0486,0.0207 -0.0137,0.0132 -0.0207,0.0294 -0.0207,0.0486 0,0.0187 0.007,0.0348 0.0212,0.0486 0.0137,0.0137 0.0299,0.0207 0.0481,0.0207 h 0.36483 c 0.0241,0 0.0495,-0.005 0.0765,-0.015 0.0263,-0.0104 0.0457,-0.021 0.0584,-0.032 l 0.062,-0.0543 c 0.0192,-0.0154 0.0354,-0.0367 0.0486,-0.0641 0.0126,-0.0275 0.0186,-0.0529 0.0186,-0.076 v -0.31677 c 0,-0.0181 -0.007,-0.0426 -0.0207,-0.0734 -0.0143,-0.0307 -0.0318,-0.0548 -0.0532,-0.0718 l -0.0579,-0.045 c -0.0379,-0.0307 -0.0794,-0.0465 -0.12557,-0.0465 z m 0.64544,0 c -0.0192,0 -0.0354,0.007 -0.0486,0.0207 -0.0137,0.0132 -0.0207,0.0294 -0.0207,0.0486 v 0.13178 l 0.23978,0.54519 c 0.0154,0.0324 0.0358,0.0486 0.061,0.0486 h 0.0889 c 0.0324,0 0.056,-0.0172 0.0708,-0.0506 l 0.23771,-0.54157 v -0.13333 c 0,-0.0192 -0.006,-0.0354 -0.0196,-0.0486 -0.0137,-0.0137 -0.0304,-0.0207 -0.0496,-0.0207 -0.0192,0 -0.0354,0.007 -0.0486,0.0207 -0.0137,0.0132 -0.0207,0.0294 -0.0207,0.0486 v 0.10594 l -0.21033,0.47439 -0.20929,-0.47594 v -0.10439 c 0,-0.0192 -0.007,-0.0354 -0.0207,-0.0486 -0.0137,-0.0137 -0.0304,-0.0207 -0.0501,-0.0207 z m 1.76268,0 c -0.0494,0 -0.0934,0.0148 -0.13126,0.0444 -0.0379,0.0291 -0.0568,0.0578 -0.0568,0.0858 0,0.0197 0.007,0.0359 0.0217,0.0486 0.0137,0.0126 0.029,0.0186 0.046,0.0186 0.0219,0 0.0418,-0.01 0.06,-0.0294 0.0181,-0.0197 0.0371,-0.0295 0.0568,-0.0295 h 0.31316 c 0.0307,0 0.046,0.013 0.046,0.0388 0,0.0181 -0.0101,0.0315 -0.0305,0.0408 l -0.36793,0.1633 c -0.0373,0.0165 -0.0679,0.0428 -0.0915,0.0796 -0.0241,0.0362 -0.0362,0.0769 -0.0362,0.12144 0,0.0593 0.0208,0.10919 0.063,0.15038 0.0417,0.0412 0.0894,0.062 0.14263,0.062 h 0.28009 c 0.0483,0 0.0932,-0.0149 0.13487,-0.0439 0.0411,-0.0291 0.062,-0.0573 0.062,-0.0847 0,-0.0181 -0.007,-0.0338 -0.0201,-0.0476 -0.0137,-0.0143 -0.0313,-0.0217 -0.0527,-0.0217 -0.0175,0 -0.036,0.0102 -0.0558,0.03 -0.0203,0.0197 -0.0495,0.0295 -0.0873,0.0295 h -0.25786 c -0.0203,0 -0.0374,-0.007 -0.0512,-0.0227 -0.0137,-0.0159 -0.0202,-0.0345 -0.0202,-0.0548 0,-0.0313 0.0152,-0.0534 0.046,-0.0672 l 0.37103,-0.16743 c 0.0357,-0.0159 0.0635,-0.039 0.0827,-0.0692 0.0192,-0.0302 0.0284,-0.0607 0.0284,-0.092 0,-0.0494 -0.0166,-0.0924 -0.0506,-0.12867 -0.0346,-0.0362 -0.0772,-0.0543 -0.12764,-0.0543 z m 0.82269,0 c -0.0494,0 -0.0929,0.0148 -0.13074,0.0444 -0.0379,0.0291 -0.0569,0.0578 -0.0569,0.0858 0,0.0197 0.007,0.0359 0.0212,0.0486 0.0137,0.0126 0.029,0.0186 0.046,0.0186 0.0219,0 0.0423,-0.01 0.0605,-0.0294 0.0181,-0.0197 0.0366,-0.0295 0.0563,-0.0295 h 0.31316 c 0.0307,0 0.046,0.013 0.046,0.0388 0,0.0181 -0.0101,0.0315 -0.0305,0.0408 l -0.36793,0.1633 c -0.0373,0.0165 -0.0679,0.0428 -0.0915,0.0796 -0.0241,0.0362 -0.0362,0.0769 -0.0362,0.12144 0,0.0593 0.0213,0.10919 0.0636,0.15038 0.0417,0.0412 0.0889,0.062 0.14211,0.062 h 0.28008 c 0.0483,0 0.0932,-0.0149 0.13488,-0.0439 0.0412,-0.0291 0.062,-0.0573 0.062,-0.0847 0,-0.0181 -0.006,-0.0338 -0.0196,-0.0476 -0.0137,-0.0143 -0.0313,-0.0217 -0.0527,-0.0217 -0.0175,0 -0.0365,0.0102 -0.0563,0.03 -0.0203,0.0197 -0.0495,0.0295 -0.0873,0.0295 h -0.25734 c -0.0203,0 -0.0374,-0.007 -0.0512,-0.0227 -0.0137,-0.0159 -0.0207,-0.0345 -0.0207,-0.0548 0,-0.0313 0.0153,-0.0534 0.046,-0.0672 l 0.37155,-0.16743 c 0.0357,-0.0159 0.063,-0.039 0.0822,-0.0692 0.0192,-0.0302 0.0289,-0.0607 0.0289,-0.092 0,-0.0494 -0.0171,-0.0924 -0.0511,-0.12867 -0.0346,-0.0362 -0.0772,-0.0543 -0.12765,-0.0543 z m 0.86351,0 c -0.0571,0 -0.10563,0.0199 -0.14573,0.0599 -0.0406,0.0401 -0.0619,0.0891 -0.0636,0.14728 l -0.017,0.51832 c 0,0.0192 0.007,0.0354 0.0207,0.0491 0.0137,0.0132 0.0299,0.0202 0.0486,0.0202 0.0197,0 0.0364,-0.007 0.0501,-0.0202 0.0137,-0.0137 0.0207,-0.0299 0.0207,-0.0491 l 0.11679,0.0692 h 0.23409 c 0.0582,0 0.10719,-0.0204 0.1478,-0.061 0.0406,-0.0406 0.061,-0.0901 0.061,-0.14831 v -0.0806 c 0,-0.0577 -0.0204,-0.10669 -0.061,-0.14728 -0.0412,-0.0412 -0.0902,-0.062 -0.1478,-0.062 h -5.1e-4 -0.2713 c -0.0148,0 -0.0361,0.003 -0.0641,0.01 l 0.002,-0.0977 c 0,-0.0192 0.007,-0.0354 0.0207,-0.0486 0.0132,-0.0137 0.0294,-0.0207 0.0486,-0.0207 h 0.26252 c 0.0187,0 0.0348,-0.007 0.0486,-0.0207 0.0137,-0.0137 0.0207,-0.0299 0.0207,-0.0486 0,-0.0192 -0.006,-0.0354 -0.0196,-0.0486 -0.0137,-0.0137 -0.0304,-0.0207 -0.0496,-0.0207 z m 0.92191,0.10748 h 0.0403 c 0.0153,0 0.0357,0.013 0.0605,0.0383 l 0.10283,0.1018 c 0.0181,0.0181 0.0274,0.0385 0.0274,0.061 v 0.17725 c 0,0.0214 -0.0101,0.0422 -0.0305,0.0625 l -0.0997,0.0997 c -0.0247,0.0247 -0.0465,0.0367 -0.0651,0.0367 v 5.2e-4 h -0.0357 c -0.017,0 -0.0351,-0.009 -0.0543,-0.0258 l -0.10801,-0.0946 c -0.0181,-0.0143 -0.0269,-0.0337 -0.0269,-0.0584 v -0.22325 c 0,-0.0219 0.0102,-0.0413 0.0305,-0.0584 l 0.11576,-0.0997 c 0.0132,-0.0115 0.0276,-0.0176 0.0429,-0.0176 z m -5.0059,0.0326 h 0.17415 c 0.0214,0 0.0408,0.007 0.0584,0.0222 l 0.0403,0.0336 c 0.0181,0.0137 0.0274,0.0318 0.0274,0.0538 h -5.1e-4 v 0.10697 h -0.41962 v -0.0966 c 0,-0.0258 0.008,-0.0452 0.0238,-0.0589 l 0.0403,-0.0357 c 0.0209,-0.017 0.0393,-0.0253 0.0558,-0.0253 z m 4.07521,0.29714 h 0.27285 c 0.0192,0 0.0354,0.007 0.0491,0.0207 0.0132,0.0132 0.0196,0.0294 0.0196,0.0486 v 0.0775 c 0,0.0187 -0.006,0.0348 -0.0202,0.0486 -0.0137,0.0137 -0.0299,0.0202 -0.0486,0.0202 h -0.19534 l -0.15089,-0.0879 0.004,-0.0584 c 5.5e-4,-0.0197 0.007,-0.0364 0.0207,-0.0496 0.0132,-0.0132 0.0294,-0.0196 0.0486,-0.0196 z m 0.67696,0.52762 c -0.0192,0 -0.0354,0.007 -0.0491,0.0207 -0.0143,0.0132 -0.0217,0.0294 -0.0217,0.0486 v 0.95602 c 0,0.0192 0.007,0.0359 0.0207,0.0496 0.0137,0.0132 0.0299,0.0196 0.0486,0.0196 0.0197,0 0.0364,-0.006 0.0496,-0.0196 0.0132,-0.0137 0.0196,-0.0304 0.0196,-0.0496 v -0.0305 c 0.0675,0.0664 0.13092,0.0997 0.18966,0.0997 h 0.1173 c 0.0472,0 0.0944,-0.0204 0.14159,-0.061 l 0.0579,-0.0486 c 0.0132,-0.0126 0.0257,-0.0339 0.0377,-0.0636 0.0115,-0.0297 0.0176,-0.0574 0.0176,-0.0832 v -0.28164 c 0,-0.0313 -0.007,-0.0613 -0.0202,-0.0904 -0.0132,-0.0297 -0.0285,-0.0519 -0.046,-0.0667 l -0.0568,-0.0486 c -0.0406,-0.0351 -0.0882,-0.0527 -0.14315,-0.0527 h -0.0997 c -0.0543,0 -0.10383,0.019 -0.14831,0.0574 l -0.0476,0.0408 v -0.32712 c 0,-0.0192 -0.006,-0.0354 -0.0196,-0.0486 -0.0132,-0.0137 -0.0294,-0.0207 -0.0481,-0.0207 z m -4.52169,0.061 c -0.0181,0 -0.0338,0.007 -0.0475,0.0207 -0.0143,0.0137 -0.0217,0.0299 -0.0217,0.0486 v 0.1695 h -0.27802 c -0.0187,0 -0.0348,0.007 -0.0486,0.0207 -0.0137,0.0137 -0.0207,0.0299 -0.0207,0.0486 0,0.0192 0.007,0.0359 0.0207,0.0496 0.0137,0.0132 0.0299,0.0196 0.0486,0.0196 h 0.28009 v 0.44907 c 0,0.0187 -0.007,0.0348 -0.0207,0.0486 -0.0143,0.0137 -0.0309,0.0202 -0.0501,0.0202 h -0.13539 c -0.0368,0 -0.0613,-0.0194 -0.0734,-0.0589 -0.0121,-0.0401 -0.0352,-0.0605 -0.0698,-0.0605 -0.0203,0 -0.037,0.007 -0.0496,0.0207 -0.0132,0.0132 -0.0196,0.0299 -0.0196,0.0501 0,0.0417 0.0199,0.0839 0.0594,0.12557 0.039,0.0412 0.0889,0.0615 0.14986,0.0615 h 0.13849 c 0.0571,0 0.10609,-0.0204 0.14728,-0.061 0.0412,-0.0406 0.0615,-0.0891 0.0615,-0.14625 v -0.44907 h 0.0708 c 0.0192,0 0.0359,-0.006 0.0496,-0.0196 0.0132,-0.0132 0.0196,-0.0299 0.0196,-0.0496 0,-0.0192 -0.006,-0.0354 -0.0196,-0.0486 -0.0137,-0.0137 -0.0304,-0.0207 -0.0496,-0.0207 h -0.0723 v -0.1695 c 0,-0.0192 -0.006,-0.0354 -0.0196,-0.0486 -0.0137,-0.0137 -0.0304,-0.0207 -0.0496,-0.0207 z m 2.60863,0.23719 c -0.0192,0 -0.0354,0.007 -0.0486,0.0207 -0.0137,0.0137 -0.0207,0.0304 -0.0207,0.0501 v 0.0868 l -0.11266,-0.0966 c -0.0467,-0.0395 -0.0925,-0.0589 -0.13694,-0.0589 h -0.10128 c -0.0571,0 -0.10612,0.0199 -0.14676,0.0605 -0.0406,0.0406 -0.0605,0.0896 -0.0605,0.14676 v 0.0372 c 0,0.0198 0.006,0.0365 0.0202,0.0501 0.0132,0.0137 0.0294,0.0207 0.0486,0.0207 0.0192,0 0.0359,-0.007 0.0496,-0.0202 0.0132,-0.0137 0.0196,-0.0299 0.0196,-0.0491 v -0.0388 c 0,-0.0192 0.007,-0.0354 0.0207,-0.0486 0.0132,-0.0137 0.0294,-0.0207 0.0486,-0.0207 h 0.0899 c 0.0192,0 0.0405,0.0102 0.0641,0.0305 l 0.19689,0.17053 v 0.38603 c 0,0.0192 0.007,0.0359 0.0207,0.0496 0.0137,0.0132 0.0299,0.0196 0.0486,0.0196 0.0192,0 0.0353,-0.006 0.0491,-0.0196 0.0132,-0.0137 0.0202,-0.0304 0.0202,-0.0496 v -0.65629 c 0,-0.0192 -0.007,-0.0354 -0.0202,-0.0491 -0.0137,-0.0143 -0.0299,-0.0217 -0.0491,-0.0217 z m 0.46353,0 c -0.062,-0.001 -0.12213,0.0246 -0.18035,0.0775 -0.0587,0.0527 -0.0879,0.11054 -0.0879,0.17364 v 0.29249 c 0,0.0621 0.0291,0.11941 0.0879,0.17208 0.0582,0.0527 0.11833,0.0791 0.18035,0.0791 h 0.16227 c 0.0631,0 0.12375,-0.0268 0.18138,-0.0801 0.0577,-0.0538 0.0863,-0.11066 0.0863,-0.17104 v -0.29249 c 0,-0.0604 -0.0277,-0.1173 -0.0837,-0.17053 -0.0565,-0.0538 -0.11809,-0.0806 -0.18397,-0.0806 z m 0.82269,0 c -0.062,-0.001 -0.12161,0.0246 -0.17983,0.0775 -0.0587,0.0527 -0.0884,0.11054 -0.0884,0.17364 v 0.29249 c 0,0.0621 0.0291,0.11941 0.0879,0.17208 0.0582,0.0527 0.11833,0.0791 0.18035,0.0791 h 0.16227 c 0.0631,0 0.12375,-0.0268 0.18138,-0.0801 0.0577,-0.0538 0.0863,-0.11066 0.0863,-0.17104 v -0.29249 c 0,-0.0604 -0.0277,-0.1173 -0.0837,-0.17053 -0.0565,-0.0538 -0.11808,-0.0806 -0.18396,-0.0806 z m -3.49332,0.002 c -0.0192,0 -0.0354,0.007 -0.0486,0.0207 -0.0137,0.0132 -0.0207,0.0294 -0.0207,0.0486 0,0.0198 0.007,0.0365 0.0207,0.0496 0.0132,0.0132 0.0294,0.0196 0.0486,0.0196 h 0.29713 c 0.0187,0 0.0362,0.007 0.0532,0.0222 l 0.11111,0.0946 c 0.0181,0.0153 0.0274,0.0361 0.0274,0.062 v 0.16899 c 0,0.0181 -0.007,0.0334 -0.0212,0.046 l -0.12196,0.10387 c -0.0154,0.0137 -0.0358,0.0202 -0.061,0.0202 h -0.28318 c -0.0187,0 -0.0349,0.007 -0.0486,0.0207 -0.0137,0.0132 -0.0207,0.0294 -0.0207,0.0486 0,0.0192 0.007,0.0359 0.0207,0.0496 0.0132,0.0132 0.0294,0.0196 0.0486,0.0196 h 0.29558 c 0.0521,0 0.0965,-0.0158 0.13333,-0.047 l 0.13436,-0.11679 c 0.0428,-0.0357 0.0641,-0.0837 0.0641,-0.14469 v -0.18036 c 0.002,-0.0587 -0.022,-0.1101 -0.0724,-0.15347 l -0.12092,-0.10439 c -0.039,-0.0319 -0.0811,-0.0481 -0.12558,-0.0481 z m 2.67218,0.13694 h 0.14366 c 0.0313,0 0.0553,0.007 0.0724,0.0222 l 0.047,0.0403 c 0.017,0.0143 0.0253,0.0333 0.0253,0.0563 v 0.28008 c 0,0.0253 -0.009,0.0452 -0.0269,0.06 l -0.0522,0.0444 c -0.0115,0.01 -0.0277,0.015 -0.0486,0.015 h -0.16072 c -0.0236,0 -0.0449,-0.009 -0.0641,-0.0258 l -0.0418,-0.0372 c -0.017,-0.0132 -0.0258,-0.0312 -0.0258,-0.0548 v -0.28009 c 0,-0.0275 0.009,-0.0478 0.0258,-0.061 l 0.0486,-0.0388 c 0.0165,-0.0137 0.0354,-0.0207 0.0574,-0.0207 z m 0.82269,0 h 0.14366 c 0.0313,0 0.0553,0.007 0.0724,0.0222 l 0.047,0.0403 c 0.017,0.0143 0.0253,0.0333 0.0253,0.0563 v 0.28008 c 0,0.0253 -0.009,0.0452 -0.0269,0.06 l -0.0522,0.0444 c -0.0115,0.01 -0.0277,0.015 -0.0486,0.015 h -0.16072 c -0.0236,0 -0.0449,-0.009 -0.0641,-0.0258 l -0.0418,-0.0372 c -0.017,-0.0132 -0.0253,-0.0312 -0.0253,-0.0548 v -0.28009 c 0,-0.0275 0.008,-0.0478 0.0253,-0.061 l 0.0486,-0.0388 c 0.0165,-0.0137 0.0354,-0.0207 0.0574,-0.0207 z m 0.894,0.002 h 0.0961 c 0.0203,0 0.0388,0.007 0.0553,0.0222 l 0.0444,0.0388 c 0.0153,0.0137 0.0233,0.0313 0.0233,0.0527 v 0.29301 c 0,0.0192 -0.009,0.0368 -0.0274,0.0522 l -0.0455,0.0388 c -0.0143,0.0126 -0.029,0.0186 -0.045,0.0186 h -0.11317 c -0.0148,0 -0.0324,-0.008 -0.0527,-0.0253 l -0.10955,-0.091 c -0.0181,-0.0159 -0.0269,-0.0353 -0.0269,-0.0589 v -0.14986 c 0,-0.0335 0.01,-0.0585 0.0289,-0.0744 l 0.11266,-0.0961 c 0.0148,-0.0137 0.0347,-0.0207 0.0594,-0.0207 z m -3.56309,0.0357 c -0.0176,0 -0.0333,0.006 -0.0475,0.0196 -0.0143,0.0126 -0.0217,0.0288 -0.0217,0.0491 v 0.061 c 0,0.0192 0.007,0.0359 0.0207,0.0501 0.0132,0.0137 0.0294,0.0207 0.0486,0.0207 h 0.55863 c 0.0192,0 0.0354,-0.007 0.0491,-0.0207 0.0132,-0.0143 0.0202,-0.0309 0.0202,-0.0501 v -0.061 c 0,-0.0192 -0.007,-0.0354 -0.0202,-0.0486 -0.0137,-0.0137 -0.0299,-0.0202 -0.0491,-0.0202 z" /><g
       aria-label="*"
       id="text288"
       style="font-size:51.9895px;line-height:1.25;font-family:Oswald;-inkscape-font-specification:'Oswald, @wght=600';font-variation-settings:'wght' 600;stroke-width:0.264582"
       transform="translate(-32.209917,-13.934787)" /></g></svg>
