<?xml version="1.0" encoding="UTF-8" standalone="no"?>
<!-- Created with Inkscape (http://www.inkscape.org/) -->

<svg
   width="50.020626mm"
   height="91.258644mm"
   viewBox="0 0 50.020626 91.258644"
   version="1.1"
   id="svg3120"
   inkscape:version="1.2.2 (732a01da63, 2022-12-09)"
   sodipodi:docname="koz.svg"
   xmlns:inkscape="http://www.inkscape.org/namespaces/inkscape"
   xmlns:sodipodi="http://sodipodi.sourceforge.net/DTD/sodipodi-0.dtd"
   xmlns="http://www.w3.org/2000/svg"
   xmlns:svg="http://www.w3.org/2000/svg">
  <sodipodi:namedview
     id="namedview3122"
     pagecolor="#ffffff"
     bordercolor="#000000"
     borderopacity="0.25"
     inkscape:showpageshadow="2"
     inkscape:pageopacity="0.0"
     inkscape:pagecheckerboard="0"
     inkscape:deskcolor="#d1d1d1"
     inkscape:document-units="mm"
     showgrid="false"
     inkscape:zoom="2.2469333"
     inkscape:cx="94.350822"
     inkscape:cy="172.45728"
     inkscape:window-width="1920"
     inkscape:window-height="991"
     inkscape:window-x="-9"
     inkscape:window-y="-9"
     inkscape:window-maximized="1"
     inkscape:current-layer="layer1" />
  <defs
     id="defs3117" />
  <g
     inkscape:label="Layer 1"
     inkscape:groupmode="layer"
     id="layer1"
     transform="translate(-46.284463,-48.198324)">
    <path
       id="path3104"
       d="m 63.578013,75.989689 v -1.499478 q 0.529349,0.03502 0.529349,0.638514 0,0.376929 -0.185375,0.66529 h 0.488154 q 0.175076,-0.311018 0.175076,-0.81565 0,-0.543766 -0.306898,-0.846545 -0.306899,-0.30072 -0.854785,-0.30072 -0.545826,0 -0.88568,0.321317 -0.341914,0.321317 -0.341914,0.807411 0,0.484034 0.29454,0.755918 0.292481,0.273943 0.805351,0.273943 z M 63.16195,75.369712 q -0.510811,0 -0.510811,-0.414004 0,-0.170956 0.140061,-0.302779 0.140061,-0.131822 0.37075,-0.164777 z m 1.116369,-2.004108 q 0.634394,0 0.976308,-0.362511 0.343973,-0.360452 0.343973,-1.04016 0,-0.461377 -0.131822,-0.733261 h -0.568483 q 0.205972,0.354272 0.205972,0.714724 0,0.356332 -0.191554,0.556125 -0.189494,0.201852 -0.527289,0.201852 H 64.19593 v -0.0103 q 0.389287,-0.240988 0.389287,-0.716783 0,-0.430482 -0.306898,-0.690007 -0.306899,-0.257465 -0.821829,-0.257465 -0.574663,0 -0.916576,0.284241 -0.343974,0.286301 -0.343974,0.749739 0,0.420183 0.327496,0.630275 v 0.0103 h -0.271883 v 0.663231 z m -1.033981,-0.657052 q -0.226569,0 -0.381048,-0.138001 -0.156539,-0.135942 -0.156539,-0.343973 0,-0.243048 0.191554,-0.385168 0.189495,-0.140061 0.533468,-0.140061 0.29866,0 0.471676,0.135941 0.170957,0.135942 0.170957,0.360451 0,0.22657 -0.175076,0.368691 -0.175076,0.14212 -0.455199,0.14212 z m -0.854784,-3.92583 q -0.08651,0.15448 -0.140061,0.411945 -0.05355,0.259525 -0.05355,0.44284 0,0.955711 0.957771,0.955711 h 1.375894 V 69.960883 H 64.19799 v -0.0082 q 0.387227,-0.232748 0.387227,-0.681768 0,-0.323376 -0.183315,-0.519049 -0.185375,-0.193614 -0.502572,-0.193614 -0.654992,0 -0.762097,0.780634 l -0.08445,0.626156 q -0.397526,0 -0.397526,-0.414004 0,-0.407825 0.247167,-0.768277 z m 1.10813,0.751799 q 0.04737,-0.360451 0.325436,-0.360451 0.127703,0 0.205972,0.08651 0.07827,0.08857 0.07827,0.236868 0,0.203912 -0.144181,0.335734 -0.14418,0.131823 -0.358391,0.131823 h -0.162718 z m 1.005144,-1.213176 q 0.08239,-0.150359 0.08239,-0.455198 0,-0.725022 -0.762097,-0.725022 h -1.075174 v -0.37487 h -0.496393 v 0.37487 H 61.75104 l -0.189494,0.66117 h 0.690007 v 0.51905 h 0.496393 v -0.51905 h 0.95983 q 0.364571,0 0.364571,0.288361 0,0.111225 -0.06591,0.230689 z m 0.02678,-2.599369 H 61.15784 v 0.663231 h 3.371765 z M 63.40088,62.823948 q -0.562304,0 -0.88362,0.335735 -0.321317,0.337794 -0.321317,0.906277 0,0.549946 0.317197,0.873322 0.315138,0.323376 0.848606,0.323376 0.560244,0 0.891859,-0.331615 0.331615,-0.331615 0.331615,-0.898038 0,-0.556125 -0.317197,-0.883621 -0.319257,-0.325436 -0.867143,-0.325436 z m -0.0082,0.673529 q 0.681768,0 0.681768,0.556125 0,0.533468 -0.700305,0.533468 -0.66735,0 -0.66735,-0.537588 0,-0.261584 0.179196,-0.407824 0.179196,-0.144181 0.506691,-0.144181 z m -2.053581,-0.568483 3.190509,-1.10813 v -0.768276 l -3.190509,-1.093713 v 0.733261 l 2.255395,0.690007 q 0.166838,0.05149 0.315138,0.06385 v 0.01236 q -0.15242,0.01648 -0.323377,0.07003 l -2.247156,0.690007 z m -2.082379,9.3223 v -0.66323 h -1.297624 q -0.525229,0 -0.525229,-0.383108 0,-0.191554 0.14624,-0.317197 0.14624,-0.123584 0.378989,-0.123584 h 1.297624 v -0.66529 h -3.371764 v 0.66529 h 1.435626 v 0.0082 q -0.397526,0.261585 -0.397526,0.704425 0,0.774455 0.935113,0.774455 z m -0.251286,-2.753848 q 0.634395,0 0.976308,-0.362511 0.343974,-0.360451 0.343974,-1.040159 0,-0.461378 -0.131822,-0.733261 h -0.568483 q 0.205972,0.354272 0.205972,0.714723 0,0.356332 -0.191554,0.556125 -0.189495,0.201853 -0.527289,0.201853 h -0.189495 v -0.0103 q 0.389288,-0.240987 0.389288,-0.716783 0,-0.430482 -0.306899,-0.690007 -0.306898,-0.257465 -0.821829,-0.257465 -0.574662,0 -0.916576,0.284242 -0.343973,0.286301 -0.343973,0.749739 0,0.420183 0.327496,0.630274 v 0.0103 h -0.271884 v 0.66323 z m -1.03398,-0.657051 q -0.226569,0 -0.381048,-0.138001 -0.156539,-0.135942 -0.156539,-0.343974 0,-0.243047 0.191554,-0.385168 0.189494,-0.140061 0.533468,-0.140061 0.298659,0 0.471676,0.135942 0.170957,0.135941 0.170957,0.360451 0,0.22657 -0.175076,0.36869 -0.175077,0.142121 -0.455199,0.142121 z m -1.728106,-2.852714 q -0.15242,0 -0.247167,0.107105 -0.09681,0.109165 -0.09681,0.278063 0,0.173016 0.09887,0.280122 0.09681,0.107105 0.245107,0.107105 0.150359,0 0.251286,-0.109165 0.09887,-0.109165 0.09887,-0.278062 0,-0.166838 -0.100926,-0.276003 -0.100926,-0.109165 -0.249226,-0.109165 z m 3.013372,0.04943 h -2.278052 v 0.66323 h 2.278052 z m 0,-0.669407 V 64.687996 H 57.940558 V 63.32858 h 1.316162 v -0.679708 h -3.190508 v 0.679708 h 1.287326 v 1.359416 h -1.287326 v 0.679708 z m 28.48364,46.186156 q 0.0868,-0.05 0.2104,-0.05 0.16185,0 0.25749,0.12359 0.0942,0.12359 0.0942,0.33988 v 0.78275 h 0.47525 v -1.6273 h -0.47525 v 0.30604 h -0.006 q -0.11771,-0.334 -0.42816,-0.334 -0.0839,0 -0.12801,0.0191 z m 3.11483,0.3899 q 0,-0.40167 -0.23982,-0.6312 -0.2413,-0.22953 -0.64739,-0.22953 -0.39285,0 -0.62385,0.22658 -0.23101,0.22512 -0.23101,0.6062 0,0.4002 0.23689,0.63709 0.23689,0.23689 0.64151,0.23689 0.39726,0 0.6312,-0.22659 0.23247,-0.22806 0.23247,-0.61944 z m -0.48112,-0.006 q 0,0.48702 -0.39727,0.48702 -0.38107,0 -0.38107,-0.50026 0,-0.47671 0.38402,-0.47671 0.18686,0 0.29132,0.128 0.103,0.12801 0.103,0.36195 z m 2.46155,0.006 q 0,-0.40167 -0.23983,-0.6312 -0.2413,-0.22953 -0.64739,-0.22953 -0.39285,0 -0.62385,0.22658 -0.231,0.22512 -0.231,0.6062 0,0.4002 0.23689,0.63709 0.23688,0.23689 0.6415,0.23689 0.39727,0 0.63121,-0.22659 0.23247,-0.22806 0.23247,-0.61944 z m -0.48113,-0.006 q 0,0.48702 -0.39726,0.48702 -0.38108,0 -0.38108,-0.50026 0,-0.47671 0.38402,-0.47671 0.18686,0 0.29133,0.128 0.10299,0.12801 0.10299,0.36195 z m 2.72199,0.8122 v -2.27911 h -0.78717 q -1.21386,0 -1.21386,1.11086 0,0.52822 0.33988,0.84897 0.33988,0.31928 0.87692,0.31928 z m -0.48555,-1.88185 v 1.48459 h -0.26484 q -0.34576,0 -0.54292,-0.20599 -0.19716,-0.20599 -0.19716,-0.55764 0,-0.33988 0.20598,-0.52968 0.20599,-0.19128 0.53557,-0.19128 z m -6.85057,25.67625 q 0.0868,-0.05 0.2104,-0.05 0.16185,0 0.25749,0.12359 0.0942,0.1236 0.0942,0.33988 v 0.78276 h 0.47525 v -1.62731 h -0.47525 v 0.30604 h -0.006 q -0.11771,-0.33399 -0.42816,-0.33399 -0.0839,0 -0.12801,0.0191 z m 3.11483,0.3899 q 0,-0.40167 -0.23982,-0.6312 -0.2413,-0.22953 -0.64739,-0.22953 -0.39285,0 -0.62385,0.22658 -0.23101,0.22512 -0.23101,0.6062 0,0.4002 0.23689,0.63709 0.23689,0.23688 0.64151,0.23688 0.39726,0 0.6312,-0.22658 0.23247,-0.22806 0.23247,-0.61944 z m -0.48112,-0.006 q 0,0.48701 -0.39727,0.48701 -0.38107,0 -0.38107,-0.50025 0,-0.47672 0.38402,-0.47672 0.18686,0 0.29132,0.12801 0.103,0.128 0.103,0.36195 z m 2.46155,0.006 q 0,-0.40167 -0.23983,-0.6312 -0.2413,-0.22953 -0.64739,-0.22953 -0.39285,0 -0.62385,0.22658 -0.231,0.22512 -0.231,0.6062 0,0.4002 0.23689,0.63709 0.23688,0.23688 0.6415,0.23688 0.39727,0 0.63121,-0.22658 0.23247,-0.22806 0.23247,-0.61944 z m -0.48113,-0.006 q 0,0.48701 -0.39726,0.48701 -0.38108,0 -0.38108,-0.50025 0,-0.47672 0.38402,-0.47672 0.18686,0 0.29133,0.12801 0.10299,0.128 0.10299,0.36195 z m 2.72199,0.8123 v -2.27911 h -0.78717 q -1.21386,0 -1.21386,1.11086 0,0.52821 0.33988,0.84897 0.33988,0.31928 0.87692,0.31928 z m -0.48555,-1.88185 v 1.48459 h -0.26484 q -0.34576,0 -0.54292,-0.20599 -0.19716,-0.20599 -0.19716,-0.55764 0,-0.33988 0.20598,-0.52968 0.20599,-0.19128 0.53557,-0.19128 z M 90.44966,90.609992 h -2.27911 v 0.787168 q 0,1.213858 1.11086,1.213858 0.52821,0 0.84897,-0.33988 0.31928,-0.33988 0.31928,-0.87692 z m -1.88185,0.485543 h 1.48458 v 0.264842 q 0,0.345765 -0.20598,0.542925 -0.20599,0.19716 -0.55764,0.19716 -0.33988,0 -0.52969,-0.205988 -0.19127,-0.205988 -0.19127,-0.535569 z m 1.88261,4.514453 h -2.27911 v 0.787168 q 0,1.213858 1.11086,1.213858 0.52822,0 0.84897,-0.33988 0.31928,-0.33988 0.31928,-0.87692 z m -1.88185,0.485543 h 1.48459 v 0.264842 q 0,0.345765 -0.20599,0.542925 -0.20599,0.19716 -0.55764,0.19716 -0.33988,0 -0.52968,-0.205988 -0.19128,-0.205988 -0.19128,-0.535569 z m 1.79869,-13.600749 q 0.12212,-0.248656 0.12212,-0.648862 0,-0.51497 -0.30751,-0.818066 -0.30898,-0.301626 -0.82248,-0.301626 -0.53998,0 -0.8828,0.336938 -0.3443,0.338409 -0.3443,0.872506 0,0.333995 0.0868,0.55911 h 0.46936 q -0.13536,-0.231 -0.13536,-0.523798 0,-0.333994 0.21334,-0.534097 0.21335,-0.200103 0.55764,-0.200103 0.33547,0 0.53998,0.189804 0.20452,0.189803 0.20452,0.513498 0,0.304568 -0.14713,0.554696 z m 2e-5,4.999993 q 0.12212,-0.248657 0.12212,-0.648862 0,-0.51497 -0.30751,-0.818067 -0.30898,-0.301625 -0.82248,-0.301625 -0.53999,0 -0.88281,0.336937 -0.34429,0.338409 -0.34429,0.872507 0,0.333994 0.0868,0.55911 h 0.46936 q -0.13537,-0.231001 -0.13537,-0.523798 0,-0.333995 0.21335,-0.534098 0.21334,-0.200102 0.55764,-0.200102 0.33546,0 0.53998,0.189803 0.20451,0.189803 0.20451,0.513499 0,0.304568 -0.14713,0.554696 z m 0.0831,-16.722197 h -2.27911 v 0.809239 q 0,0.372249 0.14125,0.573823 0.14125,0.201574 0.39138,0.201574 0.18538,0 0.32516,-0.125064 0.13978,-0.125064 0.19275,-0.314867 h 0.006 q 0.0294,0.238357 0.17656,0.38402 0.14714,0.147134 0.36931,0.147134 0.31046,0 0.49437,-0.220701 0.18245,-0.220701 0.18245,-0.603251 z m -1.91716,0.485543 h 0.56352 v 0.231001 q 0,0.166262 -0.0794,0.261899 -0.0795,0.09564 -0.22217,0.09564 -0.2619,0 -0.2619,-0.382549 z m 0.92989,0 h 0.62532 v 0.288383 q 0,0.183918 -0.0853,0.286912 -0.0853,0.104465 -0.23688,0.104465 -0.1442,0 -0.22365,-0.102994 -0.0794,-0.102993 -0.0794,-0.292797 z m 0.98728,4.514453 h -2.27911 v 0.809239 q 0,0.372249 0.14125,0.573823 0.14125,0.201574 0.39137,0.201574 0.18539,0 0.32517,-0.125064 0.13978,-0.125064 0.19275,-0.314867 h 0.006 q 0.0294,0.238357 0.17656,0.38402 0.14714,0.147135 0.36931,0.147135 0.31045,0 0.49437,-0.220702 0.18245,-0.220701 0.18245,-0.60325 z m -1.91716,0.485543 h 0.56352 v 0.231001 q 0,0.166262 -0.0794,0.261899 -0.0795,0.09564 -0.22217,0.09564 -0.2619,0 -0.2619,-0.382549 z m 0.92989,0 h 0.62532 v 0.288384 q 0,0.183917 -0.0853,0.286911 -0.0853,0.104466 -0.23689,0.104466 -0.14419,0 -0.22364,-0.102994 -0.0794,-0.102994 -0.0794,-0.292798 z m 0.98725,-13.536005 v -0.529683 l -0.52233,-0.170676 v -0.828366 l 0.52233,-0.167733 v -0.52674 l -2.27911,0.834251 v 0.570881 z m -0.89752,-0.815123 -0.79011,-0.258957 q -0.075,-0.02501 -0.19863,-0.03531 v -0.01324 q 0.10005,-0.0088 0.19274,-0.03973 l 0.796,-0.260428 z m 0.89753,5.81512 v -0.529684 l -0.52232,-0.170676 v -0.828366 l 0.52232,-0.167733 v -0.52674 l -2.27911,0.834251 v 0.570881 z m -0.89752,-0.815124 -0.79011,-0.258957 q -0.075,-0.02501 -0.19863,-0.03531 v -0.01324 q 0.10005,-0.0088 0.19275,-0.03973 L 89.55286,66.29932 Z M 49.567017,48.199034 v 0.267167 3.006018 2.994133 3.006018 2.993615 3.006535 2.993616 0.166915 l -5.17e-4,0.02532 -0.0015,0.02584 -0.0016,0.01085 v 0.0016 c 0,1.008049 -0.0097,1.917279 -0.01964,2.799312 -0.01225,1.091246 -0.02465,2.10468 -0.03256,3.026172 -0.0094,1.094173 -0.0062,2.087962 0.02377,2.982247 0.03427,1.021038 0.104249,1.933057 0.240295,2.75332 0.07123,0.429443 0.160437,0.835987 0.270785,1.223698 0.1102,0.387224 0.242025,0.756321 0.398942,1.111044 2.2e-4,4.96e-4 2.96e-4,10e-4 5.16e-4,0.0016 0.288987,0.652901 0.663959,1.258699 1.148251,1.845365 0.09709,0.117613 0.197763,0.235079 0.303857,0.3514 0.106128,0.11636 0.215719,0.232261 0.331246,0.347782 l 0.02842,0.02015 0.03307,0.02481 0.03772,0.02945 0.04237,0.03462 0.04599,0.03927 0.04961,0.04444 0.05374,0.05013 0.05684,0.05529 0.05994,0.0615 0.06304,0.0677 0.06563,0.0739 0.03411,0.03927 0.03411,0.04082 0.0584,0.07183 0.05943,0.07751 0.05994,0.08268 0.02946,0.04393 0.001,0.0016 0.02894,0.04341 0.02946,0.04651 0.02945,0.04754 0.02842,0.04909 0.02842,0.05064 0.02791,0.05168 0.02687,0.05271 0.02635,0.05426 0.02532,0.05581 0.02325,0.05323 0.02222,0.05478 0.02119,0.05581 0.02067,0.05736 0.01912,0.05839 0.01809,0.05994 0.01705,0.0615 0.0155,0.06253 0.01395,0.06356 0.0124,0.06511 0.01085,0.06666 0.0093,0.06718 0.0072,0.06925 0.0052,0.06976 0.0031,0.07131 10e-4,0.07286 -5.16e-4,0.06615 -0.0026,0.06563 -0.0041,0.06666 -0.0052,0.06615 -0.0072,0.06615 -0.0088,0.06615 -0.01085,0.06615 -0.01188,0.06615 -0.01344,0.06615 -0.0155,0.06615 -0.01705,0.06563 -0.0186,0.06563 -0.02015,0.06511 -0.0217,0.06511 -0.02325,0.06459 -0.02481,0.0646 -0.02532,0.06046 -0.02687,0.05994 -0.02791,0.05994 -0.02946,0.05943 -0.03101,0.05891 -0.03256,0.05839 -0.03411,0.05839 -0.01137,0.0186 -0.02377,0.03876 -0.03721,0.05684 -0.03824,0.05633 -0.03979,0.05529 -0.04134,0.05478 -0.04289,0.05426 -0.04444,0.05323 -0.04547,0.05219 -0.04703,0.05168 -0.04651,0.04806 -0.04754,0.04754 -0.04909,0.04651 -0.05064,0.04599 -0.05168,0.04444 -0.05323,0.04341 -0.05478,0.04289 -0.05581,0.04134 -0.05684,0.04031 -0.0584,0.03876 -0.05994,0.03772 -0.01447,0.0088 -0.04651,0.0279 -0.06253,0.03514 -0.06356,0.03359 -0.06511,0.03204 -0.06615,0.03101 -0.06511,0.02791 -0.06615,0.02687 -0.06666,0.02481 -0.06821,0.02325 -0.06925,0.0217 -0.07028,0.02015 -0.07131,0.0186 -0.07235,0.01654 -0.07338,0.01499 -0.07441,0.01292 -0.07493,0.01137 -0.07648,0.0093 -0.077,0.0072 -0.07803,0.0052 -0.07906,0.0031 -0.0801,0.001 -0.28267,-0.0026 -0.256832,-0.0067 -0.234611,-0.0098 -0.214457,-0.01188 -0.357601,-0.02532 -0.153996,-0.01085 -0.139526,-0.0083 -0.06253,-0.0031 -0.05943,-0.0021 -0.05736,-0.001 h -0.03101 -0.02429 l -0.05374,0.001 -0.05271,0.0026 -0.05219,0.0036 -0.05219,0.0052 -0.05064,0.0062 -0.05219,0.0083 -0.05529,0.0098 -0.05736,0.01189 -0.06046,0.01447 -0.06356,0.01705 -0.06718,0.01964 -0.07183,0.02222 -0.02584,0.0088 -0.02739,0.01034 -0.02842,0.01188 -0.02946,0.01292 -0.03049,0.01447 -0.03152,0.01602 -0.03256,0.01757 -0.03359,0.01912 -0.03462,0.02119 -0.03514,0.02222 -0.03617,0.02377 -0.03669,0.02584 -0.03772,0.02687 -0.03824,0.02894 -0.03876,0.03101 -0.03979,0.03256 -0.03824,0.03256 -0.03876,0.03411 -0.03876,0.03566 -0.03876,0.03721 -0.03876,0.03824 -0.03876,0.03927 -0.03927,0.04134 -0.03876,0.04186 -0.03824,0.04392 -0.03876,0.04496 -0.03824,0.04599 -0.03772,0.04754 -0.03772,0.04857 -0.03721,0.05013 -0.03721,0.05116 -0.03669,0.05271 -0.06976,0.105937 -0.0677,0.110071 -0.06511,0.114721 -0.06201,0.118339 -0.05891,0.122474 -0.02791,0.06305 -0.02739,0.06356 -0.02584,0.06459 -0.02532,0.06511 -0.02429,0.06666 -0.02325,0.06718 -0.04186,0.134358 -0.03721,0.13746 -0.01602,0.07028 -0.01602,0.07028 -0.02739,0.14366 -0.01137,0.07338 -0.01034,0.07338 -0.0083,0.07441 -0.0072,0.07493 -0.0057,0.07596 -0.0041,0.07597 -0.0026,0.077 -10e-4,0.07803 10e-4,0.07648 0.0026,0.07596 0.0093,0.150378 0.0155,0.148828 0.0217,0.146244 0.02687,0.144178 0.03256,0.141593 0.03721,0.13901 0.04238,0.136425 0.04702,0.131775 0.05064,0.128675 0.05478,0.125573 0.05839,0.122474 0.06201,0.118855 0.0083,0.01395 0.05736,0.101286 0.06821,0.111621 0.0708,0.108004 0.03617,0.05168 0.03669,0.05064 0.0739,0.09767 0.07596,0.09302 0.077,0.08837 0.07752,0.08371 0.07803,0.07855 0.07855,0.07338 0.07803,0.06821 0.03927,0.03204 0.03824,0.02997 0.03824,0.02894 0.03721,0.02687 0.03617,0.02584 0.03617,0.02377 0.03514,0.02222 0.03411,0.02067 0.03359,0.01912 0.03256,0.01809 0.03204,0.01602 0.03101,0.01499 0.02945,0.01344 0.02894,0.01189 0.02791,0.01033 0.02635,0.0093 0.0708,0.0217 0.06666,0.01912 0.06356,0.01705 0.05891,0.01395 h 10e-4 l 0.05788,0.0124 0.05529,0.0098 0.05323,0.0083 0.05116,0.0067 0.05168,0.0047 0.05116,0.0041 0.05271,0.0021 0.05323,0.0016 h 0.05529 l 0.05788,-0.001 0.05994,-0.0021 0.06356,-0.0026 0.136942,-0.0083 0.152963,-0.01085 0.170532,-0.0124 0.190169,-0.01292 0.21084,-0.01189 0.233061,-0.0098 0.258899,-0.0067 0.139526,-0.0021 0.146761,-5.17e-4 0.07855,0.001 0.07751,0.0031 0.077,0.0047 0.07648,0.0072 0.07545,0.0088 0.07441,0.01085 0.07441,0.01292 0.07286,0.01447 0.04238,0.0098 0.02997,0.0067 0.07183,0.01809 0.0708,0.02015 0.06976,0.02171 0.06925,0.02377 0.06821,0.02532 0.06718,0.02687 0.06615,0.02894 0.06511,0.02997 0.06356,0.03152 0.06305,0.03307 0.06149,0.03462 0.06046,0.03566 0.05943,0.03772 0.05839,0.03824 0.05736,0.04031 0.05581,0.04134 0.05478,0.04237 0.05374,0.04392 0.05219,0.04496 0.05116,0.04651 0.05013,0.04702 0.04909,0.04858 0.04703,0.04961 0.04599,0.05013 0.02222,0.02532 0.02274,0.02584 0.04341,0.05219 0.04237,0.05323 0.04082,0.05426 0.03979,0.05478 0.03824,0.05581 0.03669,0.05684 0.0047,0.0078 0.03101,0.04961 0.03411,0.05788 0.03307,0.05891 0.03152,0.05994 0.02997,0.05994 0.02894,0.06098 0.02687,0.0615 0.02584,0.06253 0.02429,0.06253 0.02325,0.06305 0.02119,0.06356 0.02015,0.06408 0.0186,0.0646 0.01654,0.06511 0.0155,0.06563 0.01395,0.06563 0.0124,0.06666 0.01085,0.06666 0.0093,0.06666 0.0072,0.06718 0.0062,0.0677 0.0041,0.0677 0.0026,0.0677 5.16e-4,0.06821 0.0021,1.019576 0.0016,0.941028 -0.0036,2.067573 v 0.0331 l -5.16e-4,0.0677 -0.0026,0.0682 -0.0041,0.0672 -0.0062,0.0677 -0.0072,0.0672 -0.0093,0.0667 -0.01033,0.0667 -0.0124,0.0662 -0.01395,0.0661 -0.0155,0.0656 -0.01705,0.0651 -0.01809,0.0646 -0.02015,0.0641 -0.02119,0.0636 -0.02274,0.0631 -0.02481,0.0625 -0.02584,0.062 -0.02687,0.0615 -0.02894,0.061 -0.02997,0.0605 -0.03152,0.0594 -0.03307,0.0589 -0.03411,0.0584 -0.03566,0.0574 -0.03721,0.0563 -0.03824,0.0558 -0.03979,0.0553 -0.04082,0.0537 -0.04237,0.0532 -0.04341,0.0522 -0.04444,0.0517 -0.04599,0.0501 -0.04754,0.0491 -0.04909,0.0486 -0.05013,0.0475 -0.05116,0.046 -0.05219,0.045 -0.05374,0.0439 -0.05478,0.0424 -0.05581,0.0413 -0.05736,0.0403 -0.05839,0.0388 -0.05943,0.0372 -0.06046,0.0362 -0.06149,0.0341 -0.06305,0.0331 -0.06356,0.032 -0.06511,0.03 -0.06615,0.0284 -0.06718,0.0269 -0.06821,0.0253 -0.06925,0.0238 -0.06976,0.0222 -0.0708,0.0196 -0.07131,0.0186 -0.07286,0.0165 -0.07286,0.0145 -0.07441,0.0129 -0.07441,0.0109 -0.07545,0.009 -0.07648,0.007 -0.077,0.005 -0.07751,0.003 -0.07803,10e-4 -0.03307,-5.1e-4 -0.253731,-0.002 -0.258382,-0.007 -0.233061,-0.01 -0.210323,-0.0119 -0.361219,-0.0253 -0.152962,-0.0108 -0.136942,-0.008 -0.06356,-0.003 -0.06046,-0.002 -0.05788,-10e-4 h -0.05529 l -0.05323,0.002 -0.05219,0.002 -0.05168,0.004 -0.05168,0.005 -0.05116,0.007 -0.05323,0.009 -0.05529,0.009 -0.05788,0.0124 -0.05994,0.0145 -0.06356,0.0166 -0.06666,0.0196 -0.0708,0.0217 -0.02635,0.009 -0.02791,0.0103 -0.02894,0.0119 -0.02945,0.0134 -0.03101,0.015 -0.03152,0.016 -0.03307,0.0176 -0.03359,0.0202 -0.03411,0.0202 -0.03514,0.0222 -0.03566,0.0238 -0.03669,0.0253 -0.03721,0.0274 -0.03824,0.0284 -0.03824,0.0305 -0.03927,0.032 -0.03876,0.0336 -0.03927,0.0346 -0.03928,0.0362 -0.03927,0.0372 -0.03876,0.0388 -0.03927,0.0398 -0.03876,0.0408 -0.03876,0.0424 -0.03876,0.0439 -0.03824,0.0444 -0.03824,0.046 -0.03721,0.0475 -0.03772,0.0481 -0.03669,0.0496 -0.03669,0.0506 -0.03566,0.0517 -0.07131,0.10801 -0.06821,0.1111 -0.06511,0.11524 -0.06253,0.11886 -0.05839,0.12247 -0.02791,0.062 -0.02687,0.0636 -0.02584,0.0641 -0.02481,0.0646 -0.02429,0.0656 -0.02274,0.0661 -0.04238,0.13643 -0.03721,0.13901 -0.03256,0.14159 -0.02687,0.14418 -0.0217,0.14624 -0.0083,0.0739 -0.0072,0.0744 -0.0052,0.0749 -0.0041,0.076 -0.0026,0.076 -5.17e-4,0.0765 5.17e-4,0.0775 0.0026,0.077 0.0098,0.15193 0.0155,0.14934 0.0217,0.14677 0.02739,0.14366 0.03204,0.14107 0.03772,0.13746 5.16e-4,0.003 0.04134,0.13178 0.04702,0.13332 0.05116,0.13023 0.05529,0.12609 0.05891,0.12299 0.06201,0.11834 0.06511,0.11472 0.0677,0.11058 0.07028,0.10594 0.03617,0.0527 0.03721,0.0512 0.03721,0.0496 0.03772,0.0491 0.07596,0.0935 0.077,0.0884 0.07803,0.0832 0.07751,0.078 0.07751,0.0724 0.07752,0.0672 0.03927,0.0326 0.0067,0.005 0.03204,0.0253 0.03824,0.0289 0.03772,0.0274 0.03669,0.0258 0.03617,0.0238 0.03514,0.0222 0.03462,0.0207 0.03359,0.0191 0.03256,0.0176 0.03152,0.016 0.03049,0.015 0.02946,0.0129 0.02842,0.0119 0.02739,0.0103 0.02635,0.009 0.07131,0.0222 0.06718,0.0196 0.06356,0.0165 0.06046,0.0145 0.05736,0.0119 0.05529,0.01 0.05219,0.008 0.05116,0.006 0.05219,0.005 0.05168,0.004 0.05271,0.003 0.05374,0.001 h 0.05529 l 0.05736,-0.001 0.05994,-0.002 0.06253,-0.003 0.139009,-0.009 0.153996,-0.0108 0.170016,-0.0124 0.188102,-0.0124 0.21394,-0.0124 0.234094,-0.01 0.162264,-0.005 0.09508,-0.003 0.137976,-0.002 0.145211,-5.2e-4 0.07958,0.001 0.07906,0.003 0.07803,0.005 0.077,0.007 0.07596,0.009 0.07545,0.0109 0.0739,0.0129 0.07338,0.015 0.07235,0.0165 0.07131,0.0186 0.07028,0.0202 0.06925,0.0217 0.06821,0.0233 0.06718,0.0253 0.06615,0.0264 0.06511,0.0284 0.06615,0.0305 0.06459,0.032 0.06408,0.0336 0.06201,0.0351 0.06098,0.0367 0.05994,0.0377 0.05839,0.0388 0.05736,0.0403 0.05581,0.0413 0.05426,0.0429 0.05323,0.0434 0.05219,0.045 0.02429,0.0222 5.17e-4,5.2e-4 0.02532,0.0227 0.04909,0.0465 0.04806,0.0475 0.04651,0.0486 0.04703,0.0512 0.04547,0.0522 0.04444,0.0532 0.04237,0.0543 0.04134,0.0548 0.03979,0.0553 0.03876,0.0563 0.03669,0.0568 0.03566,0.0574 0.03359,0.0579 0.03256,0.0584 0.03152,0.0594 0.02946,0.0594 0.02791,0.0599 0.02687,0.0599 0.02532,0.061 0.02481,0.0641 0.02325,0.0646 0.0217,0.0651 0.02015,0.0651 0.0186,0.0656 0.01705,0.0656 0.01499,0.0656 0.01395,0.0662 0.01188,0.0661 0.01085,0.0667 0.0088,0.0661 0.0072,0.0662 0.0057,0.0667 0.0036,0.0661 0.0026,0.0599 v 0.007 l 5.16e-4,0.0661 -5.16e-4,0.0677 -0.0026,0.0667 -0.0031,0.0662 -0.0057,0.0651 -0.01395,0.12713 -0.0186,0.12299 -0.02326,0.11885 -0.02739,0.11524 -0.03049,0.1111 -0.03359,0.10697 -0.03927,0.10956 -0.04134,0.10593 -0.04444,0.10181 -0.04599,0.0971 -0.04703,0.093 -0.04909,0.0884 -0.04909,0.0842 -0.04858,0.0801 -0.05374,0.0822 -0.05426,0.0785 -0.05374,0.0744 -0.05323,0.0703 -0.05219,0.0662 -0.05064,0.062 -0.04858,0.0574 -0.04651,0.0532 -0.04858,0.0537 -0.04651,0.0496 -0.04393,0.046 -0.03927,0.0413 -0.03927,0.0393 -0.03566,0.0357 -0.05736,0.0568 -0.01654,0.016 -0.0186,0.0176 -0.03876,0.0377 -0.09664,0.0915 -0.05943,0.0568 -0.06201,0.0605 -0.06511,0.0646 -0.06821,0.0677 -0.09508,0.0961 -0.09405,0.0971 -0.09302,0.0992 -0.09198,0.10025 -0.06976,0.0775 -0.0677,0.077 -0.06563,0.077 -0.06356,0.076 -0.09405,0.11627 -0.08682,0.11214 -0.0801,0.10749 -0.07286,0.10387 -0.06666,0.0992 -0.05994,0.0956 -0.05426,0.091 -0.04806,0.0873 -0.0279,0.0527 -0.02481,0.0512 -0.02274,0.0491 -0.02067,0.047 -0.0186,0.0455 -0.01654,0.0434 -0.0155,0.0419 -0.01292,0.0398 -0.01292,0.0434 -0.01085,0.0408 -0.0083,0.0388 -0.0067,0.0367 -0.0052,0.0341 -0.0036,0.0326 -0.0021,0.03 -5.17e-4,0.0284 -10e-4,0.29714 -0.0031,0.32659 -0.0124,0.7953 -0.0098,0.50902 -0.01757,0.99167 -0.0062,0.53588 -0.0021,0.53589 v 0.0222 l 10e-4,0.0222 10e-4,0.0222 0.0021,0.0217 0.0026,0.0212 0.0026,0.0212 0.0036,0.0212 0.0036,0.0212 0.0047,0.0207 0.0052,0.0212 0.0057,0.0201 0.0057,0.0207 0.0062,0.0207 0.0067,0.0202 0.01499,0.0408 0.0088,0.0212 0.0088,0.0212 0.01964,0.0429 0.0217,0.0434 0.02429,0.0439 0.02635,0.045 0.02894,0.0455 0.031,0.0465 0.03359,0.0475 0.03669,0.0496 0.03876,0.0506 0.04082,0.0512 0.04238,0.0517 0.04444,0.0522 0.04548,0.0532 0.09663,0.10955 0.216524,0.2403 0.112138,0.12505 0.113171,0.12868 0.10542,0.12402 0.03256,0.0388 0.130742,0.16226 0.122989,0.16278 0.05891,0.0822 0.05736,0.0827 0.05529,0.0832 0.05374,0.0842 0.05168,0.0853 0.05064,0.0863 0.04806,0.0878 0.04703,0.0889 0.04496,0.091 0.04341,0.0925 0.06563,0.15142 0.05788,0.14727 0.05013,0.14263 0.04393,0.13746 0.03721,0.13177 0.0031,0.0129 0.02842,0.11266 0.02635,0.11886 0.0217,0.1111 0.02791,0.1664 0.02119,0.15813 0.0155,0.14779 0.01034,0.13591 0.0067,0.12092 0.0036,0.10491 10e-4,0.15244 -5.17e-4,0.0139 v 0.004 l 0.01654,1.46813 0.03307,2.97243 0.0015,0.12764 v 2.86494 3.00653 1.22266 h 1.770952 3.006018 2.994132 3.005502 2.994649 3.006018 2.993616 3.006535 2.993611 3.00602 2.99362 3.00653 2.99362 3.00653 2.72335 v -2.72348 -3.00654 -2.99361 -3.00654 -2.99361 -3.00602 -2.99362 -3.00653 -2.99362 -3.00653 -2.99362 -3.00602 -2.99413 -3.006016 -2.993616 -3.006535 -2.993616 -3.006018 -2.994132 -3.006018 -2.993616 -3.006535 -2.993615 -3.006535 -2.993616 -3.006018 -2.993616 -3.006535 -2.993615 -3.006535 -1.528589 H 94.84006 91.83404 88.83991 85.83389 82.84028 79.83374 76.84013 73.833595 70.840496 67.833961 64.840345 61.83381 58.840195 55.834177 52.840044 49.834026 Z m 2.124935,2.125452 h 2.016931 l -2.016931,2.016931 z m 5.022949,0 h 2.993616 l -8.016565,8.016565 v -2.34146 a 1.6095556,1.6095556 0 0 1 -0.691948,-1.316715 1.6095556,1.6095556 0 0 1 1.609721,-1.609721 1.6095556,1.6095556 0 0 1 1.00459,0.351917 z m 6.000151,0 h 2.993615 l -8.50284,8.50284 h 3.006535 l 8.50284,-8.50284 h 2.993099 l -8.50284,8.50284 h 2.500623 c 0.152679,0 0.299828,0.02395 0.437182,0.06873 l 8.57157,-8.571569 h 2.993614 l -2.795693,2.795695 a 1.6095556,1.6095556 0 0 1 0.297139,-0.04703 1.6095556,1.6095556 0 0 1 1.554424,1.201994 l 3.95067,-3.950663 h 2.99361 l -0.15916,0.159163 h 1.90479 c 0.30511,0 0.57988,0.123168 0.77877,0.322461 l 0.48162,-0.481624 h 2.99413 l -5.15937,5.159375 h 2.00453 v 1.001489 l 6.16086,-6.160864 h 1.46554 v 1.528072 l -8.63978,8.639782 c 0.56801,0.04448 1.01338,0.51159 1.01338,1.091407 v 0.05374 c 0,0.6094 -0.49028,1.099675 -1.09968,1.099675 h -2.05259 c -0.0329,0 -0.0639,-0.007 -0.0961,-0.0098 L 52.928569,93.10482 C 52.185646,92.746949 51.345183,92.558047 50.519414,92.519843 L 65.937077,77.102179 c -0.07508,0.01236 -0.152313,0.01912 -0.230993,0.01912 H 62.911939 L 55.51084,84.522398 C 55.398081,84.020242 55.191435,83.536934 54.879871,83.101296 54.766076,82.905334 54.636388,82.719779 54.500566,82.53854 l 5.41724,-5.41724 h -3.006018 l -3.773413,3.773413 c -0.36787,-0.477861 -0.679286,-0.987526 -0.827339,-1.595252 -0.04362,-0.150189 -0.07976,-0.301618 -0.118339,-0.452685 l 2.391585,-2.391586 c -0.130955,-0.21314 -0.206706,-0.464276 -0.206706,-0.733805 v -2.066024 l -2.629297,2.629297 c -0.09525,-0.9457 -0.128255,-1.901936 -0.130741,-2.862874 l 2.760038,-2.760038 v -3.006018 l -2.704744,2.704744 c 0.02808,-1.014035 0.05251,-2.026449 0.03721,-3.030823 l 2.667534,-2.667537 v -3.006535 l -2.685624,2.685624 V 61.347585 Z M 82.31075,51.722333 71.06648,62.966608 a 1.9106394,1.9106394 0 0 1 0.623218,-0.110071 1.9106394,1.9106394 0 0 1 1.608687,0.884184 L 84.30185,52.737258 h -0.90021 c -0.58016,0 -1.04688,-0.446432 -1.09089,-1.014925 z m -8.663549,2.663403 -6.541203,6.541203 v 3.006535 l 7.704439,-7.704439 a 1.6095556,1.6095556 0 0 1 -1.210262,-1.546159 1.6095556,1.6095556 0 0 1 0.04703,-0.29714 z m 20.533109,0.473357 v 2.993615 l -3.2122,3.212207 c 6.6e-4,0.01507 0.001,0.03024 0.001,0.04548 v 0.999939 c 0,0.553992 -0.44594,0.999939 -0.99994,0.999939 h -1.04645 l -2.37349,2.373498 h 0.005 V 67.73738 H 84.29565 L 73.196582,78.83644 a 1.9106394,1.9106394 0 0 1 0.403593,1.170472 1.9106394,1.9106394 0 0 1 -1.910477,1.910994 1.9106394,1.9106394 0 0 1 -1.166337,-0.408244 l -15.06368,15.06368 c -0.111807,-0.491037 -0.267821,-0.973465 -0.49041,-1.441255 -0.107195,-0.243649 -0.239083,-0.466969 -0.387573,-0.674378 l 7.592818,-7.592818 a 1.6095556,1.6095556 0 0 1 -0.8847,-1.414384 1.6095556,1.6095556 0 0 1 1.609721,-1.609721 1.6095556,1.6095556 0 0 1 1.427819,0.871265 l 5.804814,-5.804814 a 1.9106394,1.9106394 0 0 1 0.45837,-0.45837 l 11.71143,-11.71143 v -1.25367 h 1.25367 l 4.09691,-4.096907 v -0.276469 c 0,-0.554 0.44594,-0.999939 0.99994,-0.999939 h 0.27647 z M 82.30197,57.731269 67.105998,72.92724 v 2.794145 c 0,0.07869 -0.0068,0.155915 -0.01912,0.230994 L 85.30179,57.73747 h -2.99982 z m 11.87834,3.127974 v 2.993616 l -3.21117,3.211173 v 0.04651 c 0,0.554 -0.44594,0.999939 -0.99994,0.999939 h -0.0465 l -3.37809,3.378089 c 0.003,0.03184 0.009,0.0625 0.009,0.09508 v 0.05374 c 0,0.609388 -0.49033,1.099674 -1.09967,1.099674 h -0.15813 l -2.74661,2.746602 h 3.00602 l 2.54093,-2.54093 c -0.2682,-0.179019 -0.4436,-0.484148 -0.4436,-0.831983 v -1.000456 c 0,-0.553994 0.44594,-0.999939 0.99994,-0.999939 h 1.31671 c 0.26643,0 0.50791,0.103628 0.68678,0.272335 l 3.52382,-3.523816 v 2.993616 l -5.25808,5.258077 h 1.04748 c 0.54125,0 0.97644,0.426512 0.99632,0.962732 l 3.21428,-3.214275 v 2.993616 l -4.25762,4.257621 h 0.047 c 0.554,0 0.99994,0.44646 0.99994,1.000456 v 0.959115 l 3.21066,-3.210657 v 2.993616 l -3.52847,3.528467 c 0.19499,0.182253 0.31781,0.43996 0.31781,0.729154 v 0.999939 c 0,0.553997 -0.44594,0.999939 -0.99994,0.999939 h -1.31671 c -0.20775,0 -0.40063,-0.0624 -0.56018,-0.170016 L 85.54,90.492576 c 0.56794,0.0445 1.01337,0.511597 1.01337,1.091407 v 0.05323 c 0,0.609394 -0.49033,1.100192 -1.09967,1.100192 h -2.05259 c -0.0329,0 -0.0639,-0.007 -0.0961,-0.0098 L 63.756849,112.27626 a 1.6095556,1.6095556 0 0 1 0.702282,1.32188 1.6095556,1.6095556 0 0 1 -1.609721,1.60972 1.6095556,1.6095556 0 0 1 -1.321883,-0.70228 l -4.72891,4.72891 c 0.290452,0.12245 0.49351,0.40915 0.49351,0.74518 v 1.60145 c 0,0.0661 -0.01048,0.12975 -0.02532,0.1912 L 82.30197,96.737157 v -1.253154 h 1.25315 l 4.09743,-4.097424 v -0.275952 c 0,-0.554 0.44594,-0.999939 0.99994,-0.999939 h 0.27595 l 5.25187,-5.251876 v 2.994132 l -3.2153,3.215308 c 6e-4,0.01436 0.004,0.02785 0.004,0.04237 v 0.999939 c 0,0.553998 -0.44594,0.999939 -0.99994,0.999939 h -1.04645 l -2.37349,2.373498 h 0.005 v 2.253093 H 84.29639 L 73.814116,108.21914 a 1.6095556,1.6095556 0 0 1 0.363285,1.00149 1.6095556,1.6095556 0 0 1 -1.609204,1.60921 1.6095556,1.6095556 0 0 1 -1.002006,-0.36277 l -8.88938,8.88938 a 1.6095556,1.6095556 0 0 1 1.000456,1.47381 1.6095556,1.6095556 0 0 1 -0.153479,0.68471 L 82.6234,102.41588 c -0.19883,-0.19882 -0.32143,-0.47406 -0.32143,-0.77876 v -0.0532 c 0,-0.60939 0.49027,-1.10019 1.09967,-1.10019 h 1.15394 l 3.13004,-3.130047 c -0.0195,-0.07827 -0.0331,-0.158905 -0.0331,-0.243396 v -0.999939 c 0,-0.553999 0.44594,-0.999939 0.99994,-0.999939 h 1.2764 l 4.25142,-4.25142 v 2.993616 l -3.21117,3.211174 v 0.04651 c 0,0.554 -0.44594,1.000456 -0.99994,1.000456 h -0.047 l -3.37758,3.377575 c 0.003,0.032 0.009,0.0628 0.009,0.0956 v 0.0532 c 0,0.60939 -0.49033,1.10019 -1.09967,1.10019 h -0.15865 l -2.7466,2.7466 H 85.5552 L 94.18,96.859114 v 2.993616 l -7.62641,7.62641 v 0.25786 h -0.25787 l -2.7466,2.7466 h 1.9048 c 0.30511,0 0.57987,0.12318 0.77876,0.32247 L 94.18,102.85875 v 2.99413 l -4.09898,4.09897 h 3.00602 L 94.18,108.8589 v 1.09295 h 0.42323 c 0.554,0 0.99994,0.44646 0.99994,1.00046 v 1.31672 c 0,0.55399 -0.44594,0.99993 -0.99994,0.99993 h -1.83968 l -7.22333,7.22334 c 0.56795,0.0445 1.01337,0.5116 1.01337,1.0914 v 0.0537 c 0,0.6094 -0.49033,1.09968 -1.09967,1.09968 h -2.05259 c -0.0329,0 -0.0639,-0.007 -0.0961,-0.01 l -9.946164,9.94668 a 1.6095556,1.6095556 0 0 1 0.868164,1.40663 1.6095556,1.6095556 0 0 1 -1.60972,1.60921 1.6095556,1.6095556 0 0 1 -1.406633,-0.86765 l -2.510441,2.51044 h -2.994649 l 1.870687,-1.87069 a 1.6095556,1.6095556 0 0 1 -0.818555,-1.38131 1.6095556,1.6095556 0 0 1 1.609721,-1.60972 1.6095556,1.6095556 0 0 1 1.381311,0.81855 L 85.30179,117.73743 h -2.99982 v -0.006 L 62.700582,137.33261 H 59.70645 l 1.769401,-1.7694 a 1.6095556,1.6095556 0 0 1 -1.017509,-1.4826 1.6095556,1.6095556 0 0 1 0.169499,-0.67541 l -3.927409,3.92741 h -1.769918 c -0.0014,-0.40581 -0.0046,-0.81166 -0.0062,-1.2175 l 0.425297,-0.42529 H 54.90261 c -0.448027,0 -0.808737,-0.36071 -0.808737,-0.80874 v -1.60145 c 0,-0.44804 0.36071,-0.80874 0.808737,-0.80874 h 0.0041 c -9.86e-4,-0.22824 -0.002,-0.45649 -0.0036,-0.68471 -0.01159,-0.5401 -0.0041,-1.09468 0.0021,-1.65261 l 7.847067,-7.84707 a 1.6095556,1.6095556 0 0 1 -0.684196,0.15348 1.6095556,1.6095556 0 0 1 -1.473812,-1.00097 l -5.780009,5.78001 c -0.09168,-0.82845 -0.270329,-1.63476 -0.60048,-2.39314 l 2.460315,-2.46083 c -0.06145,0.0148 -0.124554,0.0248 -0.190686,0.0248 H 54.8525 c -0.328395,0 -0.607941,-0.19447 -0.734838,-0.47439 l -1.118795,1.11879 c -0.269055,-0.37234 -0.462149,-0.79243 -0.486275,-1.27382 -0.0018,-0.38101 -0.03127,-0.78763 -0.03979,-1.19372 L 85.3023,87.737189 h -3.00033 v -0.0062 L 55.482935,114.55002 c 0.163956,-0.92112 0.102108,-1.87422 -0.232544,-2.76107 L 84.30185,82.737494 h -0.90021 c -0.58017,0 -1.04742,-0.446407 -1.0914,-1.014925 L 63.809558,100.22325 a 1.6095556,1.6095556 0 0 1 0.699699,1.32498 1.6095556,1.6095556 0 0 1 -1.60972,1.60921 1.6095556,1.6095556 0 0 1 -1.321884,-0.70229 l -7.510136,7.51014 c -0.542439,-0.49114 -1.205129,-0.85114 -1.918229,-1.07539 l 9.975102,-9.975099 a 1.6095556,1.6095556 0 0 1 -0.884184,-1.414384 1.6095556,1.6095556 0 0 1 1.609204,-1.60972 1.6095556,1.6095556 0 0 1 1.42782,0.871264 l 8.556584,-8.556583 a 1.6095556,1.6095556 0 0 1 -0.265617,0.0248 1.6095556,1.6095556 0 0 1 -1.547709,-1.217496 L 55.497404,102.53577 c 0.02429,-0.11025 0.04937,-0.22038 0.06563,-0.33228 0.03851,-0.93717 0.115656,-1.89981 0.131775,-2.858741 L 82.6234,72.415644 c -0.19883,-0.198825 -0.32143,-0.473559 -0.32143,-0.778247 v -0.05374 c 0,-0.609388 0.49027,-1.099674 1.09967,-1.099674 h 1.15394 l 3.12694,-3.126941 c -0.0198,-0.07876 -0.03,-0.161413 -0.03,-0.246497 v -0.999943 c 0,-0.553993 0.44594,-0.999939 0.99994,-0.999939 h 1.2764 z m -24.291536,3.285071 -2.782776,2.782776 v 3.006018 l 3.566191,-3.566191 a 1.9106394,1.9106394 0 0 1 -0.893486,-1.599902 1.9106394,1.9106394 0 0 1 0.110071,-0.622701 z m 12.413196,11.58689 -9.332764,9.332763 a 1.6095556,1.6095556 0 0 1 1.208195,1.556494 1.6095556,1.6095556 0 0 1 -0.02429,0.265617 l 9.148799,-9.148795 h -0.99994 z m 5.35058,0.648539 -1.09916,1.099158 v 0.258382 h -0.25838 l -2.7466,2.746602 h 1.90531 c 0.30511,0 0.57987,0.123168 0.77876,0.322461 l 2.69596,-2.695959 h -0.27595 c -0.554,0 -0.99994,-0.445944 -0.99994,-0.999939 z m 0.031,5.969145 -3.13469,3.134692 h 2.00453 v 1.002006 l 3.37499,-3.374988 h -1.27589 c -0.47143,0 -0.86219,-0.324071 -0.96894,-0.76171 z m -38.98418,7.492049 a 1.6095556,1.6095556 0 0 1 1.609721,1.609204 1.6095556,1.6095556 0 0 1 -1.609721,1.609721 1.6095556,1.6095556 0 0 1 -1.609204,-1.609721 1.6095556,1.6095556 0 0 1 1.609204,-1.609204 z m 33.6026,15.889983 -13.501502,13.5015 a 1.6095556,1.6095556 0 0 1 1.177189,1.54823 1.6095556,1.6095556 0 0 1 -0.03307,0.31419 L 83.30243,107.737 h -1.00046 z m -33.6026,0.20774 a 1.6095556,1.6095556 0 0 1 1.207161,0.54829 c 0.112283,0.003 0.222308,0.009 0.325045,0.016 0.459946,0.0577 0.913434,0.0343 1.351339,-0.0527 l -1.285193,1.28519 a 1.6095556,1.6095556 0 0 1 -1.598352,1.42214 1.6095556,1.6095556 0 0 1 -1.609204,-1.60972 1.6095556,1.6095556 0 0 1 1.609204,-1.60921 z m 33.61138,5.78363 -8.252205,8.25221 a 1.6095556,1.6095556 0 0 1 0.219108,0.80615 1.6095556,1.6095556 0 0 1 -1.60972,1.6092 1.6095556,1.6095556 0 0 1 -0.794784,-0.22996 l -10.480497,10.4805 a 1.6095556,1.6095556 0 0 1 0.675411,-0.1695 1.6095556,1.6095556 0 0 1 1.482597,1.01751 l 20.75119,-20.75119 h -0.90021 c -0.58016,0 -1.04688,-0.44644 -1.09089,-1.01492 z m 5.02605,0.9741 -2.78742,2.78743 h 2.00453 v 1.00148 l 3.21634,-3.21634 h -1.52859 c -0.40081,0 -0.74511,-0.23367 -0.90486,-0.57257 z m 6.84351,2.16266 v 2.99361 l -7.63105,7.63106 h 0.005 v 2.25361 H 84.296 l -9.595277,9.59528 H 71.706751 L 82.30197,126.73739 v -1.25367 h 1.25367 z m 0,6.00015 v 2.99361 l -7.63571,7.63571 c 0.003,0.0319 0.009,0.0625 0.009,0.0951 v 0.0537 c 0,0.60939 -0.49033,1.09968 -1.09967,1.09968 H 85.2958 l -2.73731,2.73729 h 3.00602 l 8.6155,-8.61549 v 2.99362 l -5.09013,5.09013 h 3.00653 l 2.0836,-2.08359 v 2.08359 h 0.42323 c 0.554,0 0.99994,0.44593 0.99994,0.99993 v 1.31724 c 0,0.554 -0.44594,0.99993 -0.99994,0.99993 h -6.36189 c -0.554,0 -0.99994,-0.44593 -0.99994,-0.99993 v -0.46871 l -0.54157,0.54157 h -0.14727 v 0.39532 h -4.25194 v -1.99574 l -1.60042,1.60042 h -2.99362 l 4.9165,-4.91701 c -0.19904,-0.19882 -0.32164,-0.47354 -0.32164,-0.77824 v -0.0537 c 0,-0.60939 0.49028,-1.09967 1.09968,-1.09967 h 1.15393 z M 66.825912,121.20698 55.562,132.47089 h 0.971 c 0.448028,0 0.808736,0.3607 0.808736,0.80874 v 0.41806 l 11.34091,-11.34091 a 1.6095556,1.6095556 0 0 1 -0.314709,0.0331 1.6095556,1.6095556 0 0 1 -1.542025,-1.18287 z"
       style="font-weight:bold;font-size:4.21831px;font-family:'Microsoft YaHei';-inkscape-font-specification:'Microsoft YaHei, Bold';text-align:center;text-anchor:middle;display:inline;fill:#d40000;stroke-width:0.664301" />
  </g>
</svg>
