<?xml version="1.0" encoding="UTF-8" standalone="no"?>
<!-- Created with Inkscape (http://www.inkscape.org/) -->

<svg
   width="4.9000039mm"
   height="90.439995mm"
   viewBox="0 0 4.9000039 90.439997"
   version="1.1"
   id="svg144760"
   xml:space="preserve"
   inkscape:version="1.2.1 (9c6d41e410, 2022-07-14)"
   sodipodi:docname="labels.svg"
   xmlns:inkscape="http://www.inkscape.org/namespaces/inkscape"
   xmlns:sodipodi="http://sodipodi.sourceforge.net/DTD/sodipodi-0.dtd"
   xmlns="http://www.w3.org/2000/svg"
   xmlns:svg="http://www.w3.org/2000/svg"><sodipodi:namedview
     id="namedview144762"
     pagecolor="#ffffff"
     bordercolor="#666666"
     borderopacity="1.0"
     inkscape:showpageshadow="2"
     inkscape:pageopacity="0.0"
     inkscape:pagecheckerboard="0"
     inkscape:deskcolor="#d1d1d1"
     inkscape:document-units="mm"
     showgrid="false"
     inkscape:zoom="170.94354"
     inkscape:cx="11.015333"
     inkscape:cy="180.10625"
     inkscape:window-width="3840"
     inkscape:window-height="2050"
     inkscape:window-x="-12"
     inkscape:window-y="-12"
     inkscape:window-maximized="1"
     inkscape:current-layer="layer1" /><defs
     id="defs144757" /><g
     inkscape:label="Layer 1"
     inkscape:groupmode="layer"
     id="layer1"
     transform="translate(-222.36967,-88.064224)"><g
       id="path151275"
       style="stroke:#000000;stroke-opacity:1;stroke-width:0.06614583;stroke-dasharray:none"><path
         style="color:#000000;fill:#f2eda1;fill-opacity:0;stroke-width:0.06614583;stroke-linecap:round;stroke-linejoin:round;stroke:#000000;stroke-opacity:1;stroke-dasharray:none"
         d="m 222.44967,98.159224 h 4.67"
         id="path162117" /><path
         style="color:#000000;fill:#f2eda1;stroke-linecap:round;stroke-linejoin:round;stroke:#000000;stroke-opacity:1;stroke-width:0.06614583;stroke-dasharray:none"
         d="m 222.44922,98.083984 a 0.075,0.075 0 0 0 -0.0742,0.07617 0.075,0.075 0 0 0 0.0742,0.07422 h 4.66992 a 0.075,0.075 0 0 0 0.0762,-0.07422 0.075,0.075 0 0 0 -0.0762,-0.07617 z"
         id="path162119" /></g><path
       style="color:#000000;fill:#f2eda1;stroke:#000000;stroke-width:0.0661458;stroke-linecap:round;stroke-linejoin:round;stroke-dasharray:none;stroke-opacity:1"
       d="m 225.03711,99.197266 a 0.15001501,0.15001501 0 0 0 -0.0664,0.01563 l -0.1914,0.0957 a 0.15001501,0.15001501 0 0 0 -0.0391,0.02734 l -0.0937,0.0957 a 0.15001501,0.15001501 0 0 0 -0.0293,0.04492 l -0.0449,-0.04492 a 0.15001501,0.15001501 0 0 0 -0.0391,-0.0293 l -0.1914,-0.09375 a 0.15001501,0.15001501 0 0 0 -0.0664,-0.01563 h -0.18945 a 0.15001501,0.15001501 0 0 0 -0.0684,0.01563 l -0.18946,0.09375 a 0.15001501,0.15001501 0 0 0 -0.0391,0.0293 l -0.0957,0.0957 a 0.15001501,0.15001501 0 0 0 -0.0273,0.03906 l -0.0957,0.189453 a 0.15001501,0.15001501 0 0 0 -0.0156,0.06641 v 0.667961 a 0.15001501,0.15001501 0 0 0 0.15039,0.1504 h 0.95117 1.04883 a 0.15001501,0.15001501 0 0 0 0.14844,-0.1504 v -0.761711 a 0.15001501,0.15001501 0 0 0 -0.0156,-0.06836 l -0.0937,-0.189453 a 0.15001501,0.15001501 0 0 0 -0.0293,-0.03906 l -0.0957,-0.0957 a 0.15001501,0.15001501 0 0 0 -0.0391,-0.02734 l -0.18946,-0.0957 a 0.15001501,0.15001501 0 0 0 -0.0664,-0.01563 z m 0.0352,0.298828 h 0.21484 l 0.13867,0.06836 0.0606,0.0625 0.0684,0.136719 v 0.576167 h -0.74805 v -0.492183 l 0.0762,-0.228515 0.0527,-0.05469 z m -0.95118,0.0957 h 0.11914 l 0.13672,0.06836 0.0606,0.06055 0.0684,0.138672 v 0.480464 h -0.65234 v -0.480464 l 0.0684,-0.138672 0.0625,-0.06055 z"
       id="path162322" /><path
       id="path162213"
       style="color:#000000;fill:#f2eda1;stroke:#000000;stroke-width:0.0661458;stroke-linecap:round;stroke-linejoin:round;stroke-dasharray:none;stroke-opacity:1"
       d="M 223.7794 176.04077 A 0.15000001 0.15000001 0 0 0 223.62902 176.19166 L 223.62902 177.14251 A 0.15001501 0.15001501 0 0 0 223.7794 177.29289 L 224.73232 177.29289 L 224.73852 177.29289 L 225.77928 177.29289 A 0.15001501 0.15001501 0 0 0 225.92966 177.14251 L 225.92966 176.19166 A 0.15000001 0.15000001 0 0 0 225.77928 176.04077 A 0.15000001 0.15000001 0 0 0 225.6289 176.19166 L 225.6289 176.9942 L 224.88063 176.9942 L 224.88063 176.4764 A 0.15000001 0.15000001 0 0 0 224.73232 176.32602 A 0.15000001 0.15000001 0 0 0 224.58194 176.4764 L 224.58194 176.9942 L 223.92978 176.9942 L 223.92978 176.19166 A 0.15000001 0.15000001 0 0 0 223.7794 176.04077 z " /><path
       style="color:#000000;fill:#f2eda1;stroke:#000000;stroke-width:0.0661458;stroke-linecap:round;stroke-linejoin:round;stroke-dasharray:none;stroke-opacity:1"
       d="m 225.20703,174.13672 a 0.15001501,0.15001501 0 0 0 -0.0664,0.0156 l -0.18945,0.0957 a 0.15001501,0.15001501 0 0 0 -0.0391,0.0273 l -0.0957,0.0957 a 0.15001501,0.15001501 0 0 0 -0.0273,0.0391 l -0.0957,0.18945 a 0.15001501,0.15001501 0 0 0 -0.0117,0.0312 l -0.0918,0.36523 -0.0762,0.1543 -0.0605,0.0606 -0.13671,0.0684 h -0.1211 l -0.13672,-0.0684 -0.0605,-0.0606 -0.0684,-0.13672 v -0.41797 l 0.0879,-0.26172 a 0.15000001,0.15000001 0 0 0 -0.0957,-0.18945 0.15000001,0.15000001 0 0 0 -0.18945,0.0937 l -0.0957,0.28711 a 0.15001501,0.15001501 0 0 0 -0.008,0.0469 v 0.47656 a 0.15001501,0.15001501 0 0 0 0.0176,0.0664 l 0.0937,0.19141 a 0.15001501,0.15001501 0 0 0 0.0293,0.0391 l 0.0937,0.0937 a 0.15001501,0.15001501 0 0 0 0.0391,0.0293 l 0.19141,0.0937 a 0.15001501,0.15001501 0 0 0 0.0664,0.0176 h 0.1914 a 0.15001501,0.15001501 0 0 0 0.0664,-0.0176 l 0.1914,-0.0937 a 0.15001501,0.15001501 0 0 0 0.0391,-0.0293 l 0.0937,-0.0937 a 0.15001501,0.15001501 0 0 0 0.0293,-0.0391 l 0.0937,-0.19141 a 0.15001501,0.15001501 0 0 0 0.0117,-0.0312 l 0.0918,-0.36523 0.0762,-0.15234 0.0606,-0.0605 0.13867,-0.0703 h 0.11914 l 0.13672,0.0703 0.0606,0.0605 0.0684,0.13671 v 0.41602 l -0.0879,0.26172 a 0.15000001,0.15000001 0 0 0 0.0957,0.19141 0.15000001,0.15000001 0 0 0 0.18945,-0.0957 l 0.0957,-0.28515 a 0.15001501,0.15001501 0 0 0 0.008,-0.0488 v -0.47461 a 0.15001501,0.15001501 0 0 0 -0.0156,-0.0684 l -0.0957,-0.18945 a 0.15001501,0.15001501 0 0 0 -0.0273,-0.0391 l -0.0957,-0.0957 a 0.15001501,0.15001501 0 0 0 -0.0391,-0.0273 l -0.19141,-0.0957 a 0.15001501,0.15001501 0 0 0 -0.0664,-0.0156 z"
       id="path162201" /><path
       id="path162195"
       style="color:#000000;fill:#f2eda1;stroke:#000000;stroke-width:0.0661458;stroke-linecap:round;stroke-linejoin:round;stroke-dasharray:none;stroke-opacity:1"
       d="M 224.44551 172.80272 A 0.15000001 0.15000001 0 0 0 224.29668 172.9531 L 224.29668 173.27918 L 223.7794 173.27918 A 0.15000001 0.15000001 0 0 0 223.62902 173.42956 A 0.15000001 0.15000001 0 0 0 223.7794 173.57993 L 224.29668 173.57993 L 224.29668 173.71481 A 0.15000001 0.15000001 0 0 0 224.44551 173.86519 A 0.15000001 0.15000001 0 0 0 224.59589 173.71481 L 224.59589 173.57993 L 225.49403 173.57993 A 0.15001501 0.15001501 0 0 0 225.56069 173.56236 L 225.75189 173.46883 A 0.15001501 0.15001501 0 0 0 225.81856 173.4001 L 225.91416 173.21096 A 0.15001501 0.15001501 0 0 0 225.92966 173.14224 L 225.92966 172.9531 A 0.15000001 0.15000001 0 0 0 225.77928 172.80272 A 0.15000001 0.15000001 0 0 0 225.6289 172.9531 L 225.6289 173.10761 L 225.57206 173.22285 L 225.45889 173.27918 L 224.59589 173.27918 L 224.59589 172.9531 A 0.15000001 0.15000001 0 0 0 224.44551 172.80272 z " /><path
       id="path162183"
       style="color:#000000;fill:#f2eda1;stroke:#000000;stroke-width:0.0661458;stroke-linecap:round;stroke-linejoin:round;stroke-dasharray:none;stroke-opacity:1"
       d="M 224.82637 171.1837 A 0.15001501 0.15001501 0 0 0 224.7597 171.1992 L 224.57005 171.2948 A 0.15001501 0.15001501 0 0 0 224.5313 171.32219 L 224.43569 171.41779 A 0.15001501 0.15001501 0 0 0 224.40624 171.45707 L 224.3127 171.64827 A 0.15001501 0.15001501 0 0 0 224.29668 171.71493 L 224.29668 172.09579 A 0.15001501 0.15001501 0 0 0 224.3127 172.16193 L 224.32872 172.19449 A 0.15000001 0.15000001 0 0 0 224.29668 172.28699 A 0.15000001 0.15000001 0 0 0 224.44551 172.4353 L 224.52251 172.4353 A 0.15000001 0.15000001 0 0 0 224.55868 172.4353 L 225.67748 172.4353 A 0.15000001 0.15000001 0 0 0 225.69143 172.4353 L 226.44539 172.4353 A 0.15000001 0.15000001 0 0 0 226.59577 172.28699 A 0.15000001 0.15000001 0 0 0 226.44539 172.13661 L 225.92398 172.13661 A 0.15001501 0.15001501 0 0 0 225.92966 172.09579 L 225.92966 171.71493 A 0.15001501 0.15001501 0 0 0 225.91416 171.64827 L 225.81856 171.45707 A 0.15001501 0.15001501 0 0 0 225.79117 171.41779 L 225.69557 171.32219 A 0.15001501 0.15001501 0 0 0 225.65629 171.2948 L 225.46509 171.1992 A 0.15001501 0.15001501 0 0 0 225.39843 171.1837 L 224.82637 171.1837 z M 224.86306 171.48446 L 225.36329 171.48446 L 225.50023 171.55267 L 225.56069 171.61313 L 225.6289 171.75007 L 225.6289 172.06065 L 225.59118 172.13661 L 224.63361 172.13661 L 224.59537 172.06065 L 224.59537 171.75007 L 224.6641 171.61313 L 224.72457 171.55267 L 224.86306 171.48446 z " /><path
       id="path162171"
       style="color:#000000;fill:#f2eda1;stroke:#000000;stroke-width:0.0661458;stroke-linecap:round;stroke-linejoin:round;stroke-dasharray:none;stroke-opacity:1"
       d="M 225.79013 169.27994 A 0.15000001 0.15000001 0 0 0 225.73226 169.28717 L 225.17467 169.47269 A 0.15000001 0.15000001 0 0 0 225.14573 169.48251 L 223.73238 169.95328 A 0.15001501 0.15001501 0 0 0 223.73238 170.23854 L 225.14676 170.70931 A 0.15000001 0.15000001 0 0 0 225.17312 170.71809 L 225.73226 170.90413 A 0.15000001 0.15000001 0 0 0 225.92191 170.81059 A 0.15000001 0.15000001 0 0 0 225.82631 170.62094 L 225.3576 170.46436 L 225.3576 169.72849 L 225.82631 169.57243 A 0.15000001 0.15000001 0 0 0 225.92191 169.38071 A 0.15000001 0.15000001 0 0 0 225.79013 169.27994 z M 225.05839 169.82823 L 225.05839 170.36463 L 224.25379 170.09591 L 225.05839 169.82823 z " /><path
       id="path162904"
       style="color:#000000;fill:#f2eda1;stroke:#000000;stroke-width:0.0661458;stroke-linecap:round;stroke-linejoin:round;stroke-dasharray:none;stroke-opacity:1"
       d="M 223.7794 166.18349 A 0.15000001 0.15000001 0 0 0 223.62902 166.33387 L 223.62902 167.2873 A 0.15001501 0.15001501 0 0 0 223.7794 167.43561 L 224.73232 167.43561 L 225.77928 167.43561 A 0.15001501 0.15001501 0 0 0 225.92966 167.2873 L 225.92966 166.33387 A 0.15000001 0.15000001 0 0 0 225.77928 166.18349 A 0.15000001 0.15000001 0 0 0 225.6289 166.33387 L 225.6289 167.13692 L 224.88063 167.13692 L 224.88063 166.61912 A 0.15000001 0.15000001 0 0 0 224.73232 166.46874 A 0.15000001 0.15000001 0 0 0 224.58194 166.61912 L 224.58194 167.13692 L 223.92978 167.13692 L 223.92978 166.33387 A 0.15000001 0.15000001 0 0 0 223.7794 166.18349 z " /><path
       style="color:#000000;fill:#f2eda1;stroke:#000000;stroke-width:0.0661458;stroke-linecap:round;stroke-linejoin:round;stroke-dasharray:none;stroke-opacity:1"
       d="m 225.20703,164.2793 a 0.15001501,0.15001501 0 0 0 -0.0664,0.0156 l -0.18945,0.0957 a 0.15001501,0.15001501 0 0 0 -0.0391,0.0273 l -0.0957,0.0957 a 0.15001501,0.15001501 0 0 0 -0.0273,0.0391 l -0.0957,0.18946 a 0.15001501,0.15001501 0 0 0 -0.0117,0.0312 l -0.0918,0.36523 -0.0762,0.1543 -0.0605,0.0606 -0.13671,0.0684 h -0.1211 l -0.13672,-0.0684 -0.0605,-0.0606 -0.0684,-0.13672 v -0.41602 l 0.0879,-0.26367 a 0.15000001,0.15000001 0 0 0 -0.0957,-0.18945 0.15000001,0.15000001 0 0 0 -0.18945,0.0937 l -0.0957,0.28711 a 0.15001501,0.15001501 0 0 0 -0.008,0.0469 v 0.47657 a 0.15001501,0.15001501 0 0 0 0.0176,0.0664 l 0.0937,0.19141 a 0.15001501,0.15001501 0 0 0 0.0293,0.0391 l 0.0937,0.0937 a 0.15001501,0.15001501 0 0 0 0.0391,0.0293 l 0.19141,0.0957 a 0.15001501,0.15001501 0 0 0 0.0664,0.0156 h 0.1914 a 0.15001501,0.15001501 0 0 0 0.0664,-0.0156 l 0.1914,-0.0957 a 0.15001501,0.15001501 0 0 0 0.0391,-0.0293 l 0.0937,-0.0937 a 0.15001501,0.15001501 0 0 0 0.0293,-0.0391 l 0.0937,-0.19141 a 0.15001501,0.15001501 0 0 0 0.0117,-0.0312 l 0.0918,-0.36328 0.0762,-0.1543 0.0606,-0.0605 0.13867,-0.0684 h 0.11914 l 0.13672,0.0684 0.0606,0.0605 0.0684,0.13672 v 0.41602 l -0.0879,0.26367 a 0.15000001,0.15000001 0 0 0 0.0957,0.18945 0.15000001,0.15000001 0 0 0 0.18945,-0.0957 l 0.0957,-0.28516 a 0.15001501,0.15001501 0 0 0 0.008,-0.0469 v -0.47656 a 0.15001501,0.15001501 0 0 0 -0.0156,-0.0684 l -0.0957,-0.18946 a 0.15001501,0.15001501 0 0 0 -0.0273,-0.0391 l -0.0957,-0.0957 a 0.15001501,0.15001501 0 0 0 -0.0391,-0.0273 l -0.19141,-0.0957 a 0.15001501,0.15001501 0 0 0 -0.0664,-0.0156 z"
       id="path162892" /><path
       style="color:#000000;fill:#f2eda1;stroke:#000000;stroke-width:0.0661458;stroke-linecap:round;stroke-linejoin:round;stroke-dasharray:none;stroke-opacity:1"
       d="m 225.11328,159.32617 a 0.15001501,0.15001501 0 0 0 -0.0684,0.0156 l -0.18945,0.0957 a 0.15001501,0.15001501 0 0 0 -0.0391,0.0293 l -0.0957,0.0937 a 0.15001501,0.15001501 0 0 0 -0.0273,0.0469 l -0.0469,-0.0469 a 0.15001501,0.15001501 0 0 0 -0.0391,-0.0274 l -0.18945,-0.0957 a 0.15001501,0.15001501 0 0 0 -0.0664,-0.0156 h -0.1914 a 0.15001501,0.15001501 0 0 0 -0.0664,0.0156 l -0.19141,0.0957 a 0.15001501,0.15001501 0 0 0 -0.0391,0.0274 l -0.0957,0.0957 a 0.15001501,0.15001501 0 0 0 -0.0274,0.0391 l -0.0957,0.19141 a 0.15001501,0.15001501 0 0 0 -0.0156,0.0664 v 0.66602 a 0.15001501,0.15001501 0 0 0 0.15039,0.15039 h 0.95312 1.04688 a 0.15001501,0.15001501 0 0 0 0.15039,-0.15039 v -0.76172 a 0.15001501,0.15001501 0 0 0 -0.0156,-0.0664 l -0.0957,-0.19141 a 0.15001501,0.15001501 0 0 0 -0.0273,-0.0391 l -0.0957,-0.0937 a 0.15001501,0.15001501 0 0 0 -0.0391,-0.0293 l -0.19141,-0.0957 a 0.15001501,0.15001501 0 0 0 -0.0664,-0.0156 z m 0.0352,0.30078 h 0.21484 l 0.13672,0.0684 0.0606,0.0606 0.0684,0.13672 v 0.57617 h -0.74805 v -0.48633 l 0.0781,-0.23437 0.0527,-0.0527 z m -0.95313,0.0957 h 0.11914 l 0.13867,0.0684 0.0605,0.0605 0.0684,0.13672 v 0.48047 h -0.65234 v -0.48047 l 0.0684,-0.13672 0.0605,-0.0605 z"
       id="path162862" /><path
       id="path162874"
       style="color:#000000;fill:#f2eda1;stroke:#000000;stroke-width:0.0661458;stroke-linecap:round;stroke-linejoin:round;stroke-dasharray:none;stroke-opacity:1"
       d="M 224.82637 161.32642 A 0.15001501 0.15001501 0 0 0 224.7597 161.34192 L 224.57005 161.43752 A 0.15001501 0.15001501 0 0 0 224.5313 161.46698 L 224.43569 161.56051 A 0.15001501 0.15001501 0 0 0 224.40624 161.59979 L 224.3127 161.79099 A 0.15001501 0.15001501 0 0 0 224.29668 161.85714 L 224.29668 162.23799 A 0.15001501 0.15001501 0 0 0 224.3127 162.30672 L 224.32821 162.33824 A 0.15000001 0.15000001 0 0 0 224.29668 162.42971 A 0.15000001 0.15000001 0 0 0 224.44551 162.58009 L 226.44539 162.58009 A 0.15000001 0.15000001 0 0 0 226.59577 162.42971 A 0.15000001 0.15000001 0 0 0 226.44539 162.27933 L 225.92501 162.27933 A 0.15001501 0.15001501 0 0 0 225.92966 162.23799 L 225.92966 161.85714 A 0.15001501 0.15001501 0 0 0 225.91416 161.79099 L 225.81856 161.59979 A 0.15001501 0.15001501 0 0 0 225.79117 161.56051 L 225.69557 161.46698 A 0.15001501 0.15001501 0 0 0 225.65629 161.43752 L 225.46509 161.34192 A 0.15001501 0.15001501 0 0 0 225.39843 161.32642 L 224.82637 161.32642 z M 224.86306 161.62666 L 225.36329 161.62666 L 225.50023 161.69539 L 225.56069 161.75585 L 225.6289 161.89279 L 225.6289 162.20337 L 225.59118 162.27933 L 224.63361 162.27933 L 224.59537 162.20337 L 224.59537 161.89279 L 224.6641 161.75585 L 224.72457 161.69539 L 224.86306 161.62666 z " /><path
       id="path162886"
       style="color:#000000;fill:#f2eda1;stroke:#000000;stroke-width:0.0661458;stroke-linecap:round;stroke-linejoin:round;stroke-dasharray:none;stroke-opacity:1"
       d="M 224.44551 162.94544 A 0.15000001 0.15000001 0 0 0 224.29668 163.09582 L 224.29668 163.4219 L 223.7794 163.4219 A 0.15000001 0.15000001 0 0 0 223.62902 163.57228 A 0.15000001 0.15000001 0 0 0 223.7794 163.72265 L 224.29668 163.72265 L 224.29668 163.85753 A 0.15000001 0.15000001 0 0 0 224.44551 164.00791 A 0.15000001 0.15000001 0 0 0 224.59589 163.85753 L 224.59589 163.72265 L 225.49403 163.72265 A 0.15001501 0.15001501 0 0 0 225.56069 163.70715 L 225.75189 163.61155 A 0.15001501 0.15001501 0 0 0 225.81856 163.54282 L 225.91416 163.35369 A 0.15001501 0.15001501 0 0 0 225.92966 163.28702 L 225.92966 163.09582 A 0.15000001 0.15000001 0 0 0 225.77928 162.94544 A 0.15000001 0.15000001 0 0 0 225.6289 163.09582 L 225.6289 163.25188 L 225.57206 163.36505 L 225.45889 163.4219 L 224.59589 163.4219 L 224.59589 163.09582 A 0.15000001 0.15000001 0 0 0 224.44551 162.94544 z " /><path
       style="color:#000000;fill:#f2eda1;stroke:#000000;stroke-width:0.0661458;stroke-linecap:round;stroke-linejoin:round;stroke-dasharray:none;stroke-opacity:1"
       d="m 224.33398,154.58789 a 0.250025,0.250025 0 0 0 -0.0605,0.008 l -0.47657,0.11914 a 0.250025,0.250025 0 0 0 -0.11523,0.0645 l -0.23828,0.23828 a 0.250025,0.250025 0 0 0 -0.0469,0.0664 l -0.11914,0.23633 a 0.250025,0.250025 0 0 0 -0.0273,0.11328 v 0.47657 a 0.25,0.25 0 0 0 0.0234,0.0547 0.25,0.25 0 0 0 0.004,0.0566 l 0.11914,0.23829 a 0.250025,0.250025 0 0 0 0.0469,0.0644 l 0.23828,0.23828 a 0.250025,0.250025 0 0 0 0.11523,0.0664 l 0.47657,0.11718 a 0.250025,0.250025 0 0 0 0.0605,0.008 h 0.83399 a 0.250025,0.250025 0 0 0 0.0606,-0.008 l 0.47656,-0.11718 a 0.250025,0.250025 0 0 0 0.11523,-0.0664 l 0.23828,-0.23828 a 0.250025,0.250025 0 0 0 0.0469,-0.0644 l 0.11914,-0.23829 a 0.250025,0.250025 0 0 0 0.0254,-0.11132 v -0.47657 a 0.250025,0.250025 0 0 0 -0.0254,-0.11328 l -0.11914,-0.23633 a 0.250025,0.250025 0 0 0 -0.0469,-0.0664 l -0.23828,-0.23828 a 0.250025,0.250025 0 0 0 -0.11523,-0.0645 l -0.47656,-0.11914 a 0.250025,0.250025 0 0 0 -0.0606,-0.008 z m 0.0312,0.5 h 0.77149 l 0.3789,0.0937 0.16016,0.16211 0.0742,0.14844 v 0.35742 l -0.0742,0.15039 -0.16016,0.16016 -0.3789,0.0937 h -0.77149 l -0.3789,-0.0937 L 223.82422,156 223.75,155.84961 v -0.35742 l 0.0742,-0.14844 0.16211,-0.16211 z"
       id="path162291" /><path
       style="color:#000000;fill:#f2eda1;stroke:#000000;stroke-width:0.0661458;stroke-linecap:round;stroke-linejoin:round;stroke-dasharray:none;stroke-opacity:1"
       d="m 223.5,152.08789 a 0.25,0.25 0 0 0 -0.25,0.25 0.25,0.25 0 0 0 0.25,0.25 h 1.96484 l 0.15039,0.0742 0.0606,0.0625 0.0742,0.14844 v 0.35742 l -0.0742,0.15039 -0.0606,0.0605 -0.15039,0.0742 H 223.5 a 0.25,0.25 0 0 0 -0.25,0.25 0.25,0.25 0 0 0 0.25,0.25 h 2.02539 a 0.250025,0.250025 0 0 0 0.11133,-0.0254 L 225.875,153.871 a 0.250025,0.250025 0 0 0 0.0644,-0.0469 l 0.11914,-0.11914 a 0.250025,0.250025 0 0 0 0.0469,-0.0645 l 0.11914,-0.23828 a 0.250025,0.250025 0 0 0 0.0254,-0.11132 v -0.47657 a 0.250025,0.250025 0 0 0 -0.0254,-0.11133 l -0.11914,-0.23828 a 0.250025,0.250025 0 0 0 -0.0469,-0.0664 l -0.11914,-0.11914 a 0.250025,0.250025 0 0 0 -0.0644,-0.0469 l -0.23828,-0.11914 a 0.250025,0.250025 0 0 0 -0.11133,-0.0254 z"
       id="path162285" /><path
       id="path162279"
       style="color:#000000;fill:#f2eda1;stroke:#000000;stroke-width:0.0661458;stroke-linecap:round;stroke-linejoin:round;stroke-dasharray:none;stroke-opacity:1"
       d="M 223.49983 149.82635 A 0.25 0.25 0 0 0 223.25024 150.07594 L 223.25024 150.79114 L 223.25024 151.50376 A 0.25 0.25 0 0 0 223.49983 151.75388 A 0.25 0.25 0 0 0 223.74995 151.50376 L 223.74995 151.04126 L 225.99994 151.04126 A 0.25 0.25 0 0 0 226.25005 150.79114 A 0.25 0.25 0 0 0 225.99994 150.54103 L 223.74995 150.54103 L 223.74995 150.07594 A 0.25 0.25 0 0 0 223.49983 149.82635 z " /><path
       style="color:#000000;fill:#f2eda1;stroke:#000000;stroke-width:0.0661458;stroke-linecap:round;stroke-linejoin:round;stroke-dasharray:none;stroke-opacity:1"
       d="m 224.86328,145.96094 a 0.15001501,0.15001501 0 0 0 -0.15039,0.15039 v 0.38086 a 0.15000001,0.15000001 0 0 0 0.15039,0.15039 0.15000001,0.15000001 0 0 0 0.14844,-0.15039 v -0.23047 h 0.45508 l 0.0254,0.0254 0.0781,0.22851 v 0.14258 l -0.0781,0.22852 -0.14649,0.14844 -0.15429,0.0781 -0.34766,0.0859 h -0.24805 l -0.34765,-0.0859 -0.1543,-0.0781 -0.14844,-0.14844 -0.0762,-0.22852 v -0.22656 l 0.0801,-0.1582 a 0.15000001,0.15000001 0 0 0 -0.0684,-0.20117 0.15000001,0.15000001 0 0 0 -0.20117,0.0664 l -0.0937,0.19141 a 0.15001501,0.15001501 0 0 0 -0.0156,0.0664 v 0.28516 a 0.15001501,0.15001501 0 0 0 0.008,0.0488 l 0.0937,0.28515 a 0.15001501,0.15001501 0 0 0 0.0371,0.0586 l 0.18946,0.1914 a 0.15001501,0.15001501 0 0 0 0.0391,0.0273 l 0.19141,0.0957 a 0.15001501,0.15001501 0 0 0 0.0312,0.0117 l 0.38086,0.0937 a 0.15001501,0.15001501 0 0 0 0.0351,0.006 h 0.28516 a 0.15001501,0.15001501 0 0 0 0.0371,-0.006 l 0.38086,-0.0937 a 0.15001501,0.15001501 0 0 0 0.0312,-0.0117 l 0.18945,-0.0957 a 0.15001501,0.15001501 0 0 0 0.0391,-0.0273 l 0.19141,-0.1914 a 0.15001501,0.15001501 0 0 0 0.0352,-0.0586 l 0.0957,-0.28515 a 0.15001501,0.15001501 0 0 0 0.008,-0.0488 v -0.18945 a 0.15001501,0.15001501 0 0 0 -0.008,-0.0469 l -0.0957,-0.28711 a 0.15001501,0.15001501 0 0 0 -0.0352,-0.0586 l -0.0957,-0.0937 a 0.15001501,0.15001501 0 0 0 -0.10547,-0.0449 z"
       id="path162267" /><path
       style="color:#000000;fill:#f2eda1;stroke:#000000;stroke-width:0.0661458;stroke-linecap:round;stroke-linejoin:round;stroke-dasharray:none;stroke-opacity:1"
       d="m 225.67187,143.87305 a 0.15000001,0.15000001 0 0 0 -0.0859,0.0762 l -0.0742,0.14453 -0.11328,0.0586 h -1.67969 a 0.15000001,0.15000001 0 0 0 -0.14844,0.14844 0.15000001,0.15000001 0 0 0 0.14844,0.15039 h 1.71484 a 0.15001501,0.15001501 0 0 0 0.0664,-0.0156 l 0.19141,-0.0957 a 0.15001501,0.15001501 0 0 0 0.0664,-0.0664 l 0.0957,-0.19141 a 0.15000001,0.15000001 0 0 0 -0.0664,-0.20117 0.15000001,0.15000001 0 0 0 -0.11524,-0.008 z"
       id="path162255" /><path
       id="path162249"
       style="color:#000000;fill:#f2eda1;stroke:#000000;stroke-width:0.0661458;stroke-linecap:round;stroke-linejoin:round;stroke-dasharray:none;stroke-opacity:1"
       d="M 224.3866 142.24593 A 0.15000001 0.15000001 0 0 0 224.23622 142.39631 A 0.15000001 0.15000001 0 0 0 224.26775 142.48829 L 224.25173 142.51981 A 0.15001501 0.15001501 0 0 0 224.23622 142.58803 L 224.23622 142.96888 A 0.15001501 0.15001501 0 0 0 224.25173 143.03503 L 224.34784 143.22675 A 0.15001501 0.15001501 0 0 0 224.37472 143.26551 L 224.47083 143.35956 A 0.15001501 0.15001501 0 0 0 224.50959 143.3885 L 224.69924 143.48255 A 0.15001501 0.15001501 0 0 0 224.76746 143.50012 L 225.33796 143.50012 A 0.15001501 0.15001501 0 0 0 225.40618 143.48255 L 225.59583 143.3885 A 0.15001501 0.15001501 0 0 0 225.6351 143.35956 L 225.73071 143.26551 A 0.15001501 0.15001501 0 0 0 225.75809 143.22675 L 225.8537 143.03503 A 0.15001501 0.15001501 0 0 0 225.8692 142.96888 L 225.8692 142.58803 A 0.15001501 0.15001501 0 0 0 225.86351 142.54669 L 225.97048 142.54669 L 226.10743 142.61542 L 226.16789 142.67588 L 226.23662 142.81282 L 226.23662 143.02728 L 226.15652 143.18747 A 0.15000001 0.15000001 0 0 0 226.22473 143.38901 A 0.15000001 0.15000001 0 0 0 226.42575 143.32028 L 226.5198 143.13115 A 0.15001501 0.15001501 0 0 0 226.53531 143.06242 L 226.53531 142.77716 A 0.15001501 0.15001501 0 0 0 226.5198 142.71102 L 226.42575 142.5193 A 0.15001501 0.15001501 0 0 0 226.39681 142.48054 L 226.3007 142.38649 A 0.15001501 0.15001501 0 0 0 226.26194 142.35755 L 226.07229 142.26195 A 0.15001501 0.15001501 0 0 0 226.00614 142.24593 L 225.62529 142.24593 L 224.48014 142.24593 L 224.3866 142.24593 z M 224.5747 142.54669 L 225.53175 142.54669 L 225.57051 142.62317 L 225.57051 142.93374 L 225.50023 143.07017 L 225.43925 143.13115 L 225.30282 143.19936 L 224.8026 143.19936 L 224.66617 143.13115 L 224.60571 143.07017 L 224.53698 142.93374 L 224.53698 142.62317 L 224.5747 142.54669 z " /><path
       id="path162237"
       style="color:#000000;fill:#f2eda1;stroke:#000000;stroke-width:0.0661458;stroke-linecap:round;stroke-linejoin:round;stroke-dasharray:none;stroke-opacity:1"
       d="M 224.67186 140.43725 A 0.15001501 0.15001501 0 0 0 224.60571 140.45327 L 224.41399 140.54888 A 0.15001501 0.15001501 0 0 0 224.34784 140.61502 L 224.25173 140.80674 A 0.15001501 0.15001501 0 0 0 224.23622 140.87289 L 224.23622 141.15814 A 0.15001501 0.15001501 0 0 0 224.25173 141.22635 L 224.28635 141.29508 L 223.71894 141.29508 A 0.15000001 0.15000001 0 0 0 223.57011 141.44546 A 0.15000001 0.15000001 0 0 0 223.71894 141.59377 L 224.57057 141.59377 A 0.15000001 0.15000001 0 0 0 224.58194 141.59377 L 225.71882 141.59377 A 0.15000001 0.15000001 0 0 0 225.8692 141.44546 A 0.15000001 0.15000001 0 0 0 225.71882 141.29508 L 224.63982 141.29508 L 224.60519 141.25994 L 224.53698 141.123 L 224.53698 140.90803 L 224.59382 140.79486 L 224.707 140.73853 L 225.71882 140.73853 A 0.15000001 0.15000001 0 0 0 225.8692 140.58815 A 0.15000001 0.15000001 0 0 0 225.71882 140.43777 L 224.67186 140.43725 z " /><path
       id="path162225"
       style="color:#000000;fill:#f2eda1;stroke:#000000;stroke-width:0.0661458;stroke-linecap:round;stroke-linejoin:round;stroke-dasharray:none;stroke-opacity:1"
       d="M 224.3866 139.00788 A 0.15000001 0.15000001 0 0 0 224.23622 139.15826 L 224.23622 139.48434 L 223.71894 139.48434 A 0.15000001 0.15000001 0 0 0 223.57011 139.63472 A 0.15000001 0.15000001 0 0 0 223.71894 139.7851 L 224.23622 139.7851 L 224.23622 139.91997 A 0.15000001 0.15000001 0 0 0 224.3866 140.07035 A 0.15000001 0.15000001 0 0 0 224.53491 139.91997 L 224.53491 139.7851 L 225.43357 139.7851 A 0.15001501 0.15001501 0 0 0 225.50023 139.7696 L 225.69143 139.67399 A 0.15001501 0.15001501 0 0 0 225.75758 139.60733 L 225.8537 139.41613 A 0.15001501 0.15001501 0 0 0 225.8692 139.34947 L 225.8692 139.15826 A 0.15000001 0.15000001 0 0 0 225.71882 139.00995 A 0.15000001 0.15000001 0 0 0 225.57051 139.15826 L 225.57051 139.31433 L 225.5116 139.4275 L 225.39843 139.48434 L 224.53491 139.48434 L 224.53491 139.15826 A 0.15000001 0.15000001 0 0 0 224.3866 139.00788 z " /><path
       style="color:#000000;fill:#f2eda1;stroke:#000000;stroke-width:0.0661458;stroke-linecap:round;stroke-linejoin:round;stroke-dasharray:none;stroke-opacity:1"
       d="m 224.86328,135.4375 a 0.15001501,0.15001501 0 0 0 -0.15039,0.15039 v 0.38086 a 0.15000001,0.15000001 0 0 0 0.15039,0.15039 0.15000001,0.15000001 0 0 0 0.14844,-0.15039 v -0.23047 h 0.45508 l 0.0254,0.0254 0.0781,0.22852 v 0.14258 l -0.0781,0.22851 -0.14649,0.14844 -0.15429,0.0762 -0.34766,0.0879 h -0.24805 l -0.34765,-0.0879 -0.1543,-0.0762 -0.14844,-0.14844 -0.0762,-0.22851 v -0.22657 l 0.0801,-0.1582 a 0.15000001,0.15000001 0 0 0 -0.0684,-0.20117 0.15000001,0.15000001 0 0 0 -0.20117,0.0664 l -0.0937,0.19141 a 0.15001501,0.15001501 0 0 0 -0.0156,0.0664 v 0.28515 a 0.15001501,0.15001501 0 0 0 0.008,0.0488 l 0.0937,0.28516 a 0.15001501,0.15001501 0 0 0 0.0371,0.0586 l 0.18946,0.18945 a 0.15001501,0.15001501 0 0 0 0.0391,0.0293 l 0.19141,0.0957 a 0.15001501,0.15001501 0 0 0 0.0312,0.01 l 0.38086,0.0957 a 0.15001501,0.15001501 0 0 0 0.0351,0.004 h 0.28516 a 0.15001501,0.15001501 0 0 0 0.0371,-0.004 l 0.38086,-0.0957 a 0.15001501,0.15001501 0 0 0 0.0312,-0.01 l 0.18945,-0.0957 a 0.15001501,0.15001501 0 0 0 0.0391,-0.0293 l 0.19141,-0.18945 a 0.15001501,0.15001501 0 0 0 0.0352,-0.0586 l 0.0957,-0.28516 a 0.15001501,0.15001501 0 0 0 0.008,-0.0488 v -0.18945 a 0.15001501,0.15001501 0 0 0 -0.008,-0.0488 l -0.0957,-0.28515 a 0.15001501,0.15001501 0 0 0 -0.0352,-0.0586 l -0.0957,-0.0957 a 0.15001501,0.15001501 0 0 0 -0.10547,-0.043 z"
       id="path162856" /><path
       id="path162844"
       style="color:#000000;fill:#f2eda1;stroke:#000000;stroke-width:0.0661458;stroke-linecap:round;stroke-linejoin:round;stroke-dasharray:none;stroke-opacity:1"
       d="M 224.76746 132.67597 A 0.15001501 0.15001501 0 0 0 224.69924 132.69147 L 224.50959 132.78708 A 0.15001501 0.15001501 0 0 0 224.47083 132.81446 L 224.37472 132.91007 A 0.15001501 0.15001501 0 0 0 224.34784 132.94934 L 224.25173 133.13848 A 0.15001501 0.15001501 0 0 0 224.23622 133.2072 L 224.23622 133.58806 A 0.15001501 0.15001501 0 0 0 224.24191 133.62682 L 223.71894 133.62682 A 0.15000001 0.15000001 0 0 0 223.57011 133.7772 A 0.15000001 0.15000001 0 0 0 223.71894 133.92757 L 224.47497 133.92757 A 0.15000001 0.15000001 0 0 0 224.4884 133.92757 L 225.61702 133.92757 A 0.15000001 0.15000001 0 0 0 225.63045 133.92757 L 225.71882 133.92757 A 0.15000001 0.15000001 0 0 0 225.8692 133.7772 A 0.15000001 0.15000001 0 0 0 225.83819 133.68521 L 225.8537 133.65421 A 0.15001501 0.15001501 0 0 0 225.8692 133.58806 L 225.8692 133.2072 A 0.15001501 0.15001501 0 0 0 225.8537 133.13848 L 225.75809 132.94934 A 0.15001501 0.15001501 0 0 0 225.73071 132.91007 L 225.6351 132.81446 A 0.15001501 0.15001501 0 0 0 225.59583 132.78708 L 225.40669 132.69147 A 0.15001501 0.15001501 0 0 0 225.33796 132.67597 L 224.76746 132.67597 z M 224.8026 132.97466 L 225.30282 132.97466 L 225.43977 133.04494 L 225.50023 133.1054 L 225.56844 133.24234 L 225.56844 133.55292 L 225.53175 133.62682 L 224.57367 133.62682 L 224.53698 133.55292 L 224.53698 133.24234 L 224.60571 133.1054 L 224.66617 133.04494 L 224.8026 132.97466 z " /><path
       id="path162820"
       style="color:#000000;fill:#f2eda1;stroke:#000000;stroke-width:0.0661458;stroke-linecap:round;stroke-linejoin:round;stroke-dasharray:none;stroke-opacity:1"
       d="m 224.67178,129.81841 a 0.15001501,0.15001501 0 0 0 -0.0661,0.0155 l -0.19172,0.0961 a 0.15001501,0.15001501 0 0 0 -0.0661,0.0661 l -0.0961,0.1912 a 0.15001501,0.15001501 0 0 0 -0.0155,0.0667 v 0.28525 a 0.15001501,0.15001501 0 0 0 0.0155,0.0682 l 0.0486,0.0956 a 0.15000001,0.15000001 0 0 0 -0.0641,0.12298 0.15000001,0.15000001 0 0 0 0.15038,0.14883 h 0.17467 a 0.15000001,0.15000001 0 0 0 0.0315,0 h 1.12603 a 0.15000001,0.15000001 0 0 0 0.15038,-0.14883 0.15000001,0.15000001 0 0 0 -0.15038,-0.15037 h -1.07849 l -0.0351,-0.0351 -0.0682,-0.13643 v -0.21497 l 0.0568,-0.11317 0.11318,-0.0568 h 1.01182 a 0.15000001,0.15000001 0 0 0 0.15038,-0.15038 0.15000001,0.15000001 0 0 0 -0.15038,-0.15038 z" /><path
       id="path162767"
       style="color:#000000;fill:#f2eda1;stroke:#000000;stroke-width:0.0661458;stroke-linecap:round;stroke-linejoin:round;stroke-dasharray:none;stroke-opacity:1"
       d="M 225.70848 125.4175 A 0.15000001 0.15000001 0 0 0 225.6289 125.4454 L 224.91215 125.94667 A 0.15001501 0.15001501 0 0 0 224.89665 125.88104 L 224.80105 125.69138 A 0.15001501 0.15001501 0 0 0 224.77366 125.65211 L 224.67806 125.55651 A 0.15001501 0.15001501 0 0 0 224.63878 125.52912 L 224.44706 125.43352 A 0.15001501 0.15001501 0 0 0 224.38092 125.41802 L 224.09566 125.41802 A 0.15001501 0.15001501 0 0 0 224.02745 125.43352 L 223.8378 125.52912 A 0.15001501 0.15001501 0 0 0 223.79852 125.55651 L 223.70292 125.65211 A 0.15001501 0.15001501 0 0 0 223.67553 125.69138 L 223.57993 125.88104 A 0.15001501 0.15001501 0 0 0 223.56443 125.94925 L 223.56443 126.71096 A 0.15001501 0.15001501 0 0 0 223.71481 126.85927 L 224.76177 126.85927 L 225.71469 126.85927 A 0.15000001 0.15000001 0 0 0 225.86506 126.71096 A 0.15000001 0.15000001 0 0 0 225.71469 126.56058 L 224.91215 126.56058 L 224.91215 126.31202 L 225.80099 125.68932 A 0.15000001 0.15000001 0 0 0 225.83768 125.48054 A 0.15000001 0.15000001 0 0 0 225.70848 125.4175 z M 224.1308 125.71671 L 224.34578 125.71671 L 224.4822 125.78544 L 224.54318 125.8459 L 224.61139 125.98439 L 224.61139 126.56058 L 223.86519 126.56058 L 223.86519 125.98439 L 223.93392 125.8459 L 223.99438 125.78544 L 224.1308 125.71671 z " /><path
       id="path162749"
       style="color:#000000;fill:#f2eda1;stroke:#000000;stroke-width:0.0661458;stroke-linecap:round;stroke-linejoin:round;stroke-dasharray:none;stroke-opacity:1"
       d="M 224.76177 122.65643 A 0.15001501 0.15001501 0 0 0 224.69511 122.67193 L 224.50391 122.76547 A 0.15001501 0.15001501 0 0 0 224.46463 122.79492 L 224.3711 122.89052 A 0.15001501 0.15001501 0 0 0 224.34164 122.9298 L 224.24604 123.11893 A 0.15001501 0.15001501 0 0 0 224.23054 123.18559 L 224.23054 123.56645 A 0.15001501 0.15001501 0 0 0 224.23622 123.60727 L 223.71481 123.60727 A 0.15000001 0.15000001 0 0 0 223.56443 123.75765 A 0.15000001 0.15000001 0 0 0 223.71481 123.90803 L 224.47445 123.90803 L 225.62115 123.90803 L 225.71469 123.90803 A 0.15000001 0.15000001 0 0 0 225.86506 123.75765 A 0.15000001 0.15000001 0 0 0 225.83302 123.66463 L 225.84749 123.63466 A 0.15001501 0.15001501 0 0 0 225.86506 123.56645 L 225.86506 123.18559 A 0.15001501 0.15001501 0 0 0 225.84749 123.11893 L 225.75396 122.9298 A 0.15001501 0.15001501 0 0 0 225.7245 122.89052 L 225.63097 122.79492 A 0.15001501 0.15001501 0 0 0 225.5917 122.76547 L 225.40049 122.67193 A 0.15001501 0.15001501 0 0 0 225.33383 122.65643 L 224.76177 122.65643 z M 224.79691 122.95512 L 225.29869 122.95512 L 225.43563 123.02333 L 225.49609 123.08379 L 225.56431 123.2228 L 225.56431 123.53131 L 225.52607 123.60727 L 224.56902 123.60727 L 224.5313 123.53131 L 224.5313 123.2228 L 224.59951 123.08379 L 224.65997 123.02333 L 224.79691 122.95512 z " /><path
       id="path162737"
       style="color:#000000;fill:#f2eda1;stroke:#000000;stroke-width:0.0661458;stroke-linecap:round;stroke-linejoin:round;stroke-dasharray:none;stroke-opacity:1"
       d="M 224.38092 121.32214 A 0.15000001 0.15000001 0 0 0 224.23054 121.47252 L 224.23054 121.7986 L 223.71481 121.7986 A 0.15000001 0.15000001 0 0 0 223.56443 121.94898 A 0.15000001 0.15000001 0 0 0 223.71481 122.09781 L 224.23054 122.09781 L 224.23054 122.23423 A 0.15000001 0.15000001 0 0 0 224.38092 122.38461 A 0.15000001 0.15000001 0 0 0 224.5313 122.23423 L 224.5313 122.09781 L 225.42995 122.09781 A 0.15001501 0.15001501 0 0 0 225.49609 122.08179 L 225.68575 121.98618 A 0.15001501 0.15001501 0 0 0 225.75396 121.92004 L 225.84749 121.73039 A 0.15001501 0.15001501 0 0 0 225.86506 121.66217 L 225.86506 121.47252 A 0.15000001 0.15000001 0 0 0 225.71469 121.32214 A 0.15000001 0.15000001 0 0 0 225.56431 121.47252 L 225.56431 121.62703 L 225.50798 121.74227 L 225.39274 121.7986 L 224.5313 121.7986 L 224.5313 121.47252 A 0.15000001 0.15000001 0 0 0 224.38092 121.32214 z " /><path
       id="path162725"
       style="color:#000000;fill:#f2eda1;stroke:#000000;stroke-width:0.0661458;stroke-linecap:round;stroke-linejoin:round;stroke-dasharray:none;stroke-opacity:1"
       d="M 224.66617 119.79872 A 0.15001501 0.15001501 0 0 0 224.59951 119.81422 L 224.41037 119.91034 A 0.15001501 0.15001501 0 0 0 224.34164 119.97649 L 224.24604 120.16614 A 0.15001501 0.15001501 0 0 0 224.23054 120.23435 L 224.23054 120.51961 A 0.15001501 0.15001501 0 0 0 224.24604 120.58575 L 224.29462 120.68342 A 0.15000001 0.15000001 0 0 0 224.23054 120.80486 A 0.15000001 0.15000001 0 0 0 224.38092 120.95524 L 224.55558 120.95524 A 0.15000001 0.15000001 0 0 0 224.58711 120.95524 L 225.71469 120.95524 A 0.15000001 0.15000001 0 0 0 225.86506 120.80486 A 0.15000001 0.15000001 0 0 0 225.71469 120.65603 L 224.63465 120.65603 L 224.59951 120.62089 L 224.5313 120.48447 L 224.5313 120.26949 L 224.58762 120.15632 L 224.70286 120.09793 L 225.71469 120.09793 A 0.15000001 0.15000001 0 0 0 225.86506 119.9491 A 0.15000001 0.15000001 0 0 0 225.71469 119.79872 L 224.66617 119.79872 z " /><path
       id="path162435"
       style="color:#000000;fill:#f2eda1;stroke:#000000;stroke-width:0.0661458;stroke-linecap:round;stroke-linejoin:round;stroke-dasharray:none;stroke-opacity:1"
       d="M 223.70499 115.91007 A 0.15000001 0.15000001 0 0 0 223.55461 116.06045 L 223.55461 117.01388 A 0.15001501 0.15001501 0 0 0 223.70499 117.16426 L 224.65635 117.16426 L 225.70487 117.16426 A 0.15001501 0.15001501 0 0 0 225.8537 117.01388 L 225.8537 116.06045 A 0.15000001 0.15000001 0 0 0 225.70487 115.91007 A 0.15000001 0.15000001 0 0 0 225.55449 116.06045 L 225.55449 116.8635 L 224.80673 116.8635 L 224.80673 116.34777 A 0.15000001 0.15000001 0 0 0 224.65635 116.19739 A 0.15000001 0.15000001 0 0 0 224.50597 116.34777 L 224.50597 116.8635 L 223.8533 116.8635 L 223.8533 116.06045 A 0.15000001 0.15000001 0 0 0 223.70499 115.91007 z " /><path
       style="color:#000000;fill:#f2eda1;stroke:#000000;stroke-width:0.0661458;stroke-linecap:round;stroke-linejoin:round;stroke-dasharray:none;stroke-opacity:1"
       d="m 225.13281,114.00586 a 0.15001501,0.15001501 0 0 0 -0.0664,0.0156 l -0.19141,0.0957 a 0.15001501,0.15001501 0 0 0 -0.0391,0.0293 l -0.0937,0.0937 a 0.15001501,0.15001501 0 0 0 -0.0293,0.0391 l -0.0957,0.1914 a 0.15001501,0.15001501 0 0 0 -0.01,0.0293 l -0.0918,0.36523 -0.0781,0.1543 -0.0606,0.0605 -0.13672,0.0684 h -0.11914 l -0.13672,-0.0684 -0.0605,-0.0605 -0.0684,-0.13672 v -0.41601 l 0.0859,-0.26367 a 0.15000001,0.15000001 0 0 0 -0.0937,-0.18946 0.15000001,0.15000001 0 0 0 -0.18946,0.0957 l -0.0957,0.28515 a 0.15001501,0.15001501 0 0 0 -0.008,0.0469 v 0.47656 a 0.15001501,0.15001501 0 0 0 0.0156,0.0664 l 0.0957,0.1914 a 0.15001501,0.15001501 0 0 0 0.0273,0.0391 l 0.0957,0.0957 a 0.15001501,0.15001501 0 0 0 0.0391,0.0273 l 0.18946,0.0957 a 0.15001501,0.15001501 0 0 0 0.0684,0.0156 h 0.18945 a 0.15001501,0.15001501 0 0 0 0.0684,-0.0156 l 0.18945,-0.0957 a 0.15001501,0.15001501 0 0 0 0.0391,-0.0273 l 0.0957,-0.0957 a 0.15001501,0.15001501 0 0 0 0.0273,-0.0391 l 0.0957,-0.1914 a 0.15001501,0.15001501 0 0 0 0.0117,-0.0293 l 0.0918,-0.36524 0.0762,-0.15429 0.0606,-0.0606 0.13672,-0.0684 h 0.12109 l 0.13672,0.0684 0.0606,0.0606 0.0684,0.13672 v 0.41601 l -0.0879,0.26367 a 0.15000001,0.15000001 0 0 0 0.0957,0.18946 0.15000001,0.15000001 0 0 0 0.18945,-0.0957 l 0.0957,-0.28515 a 0.15001501,0.15001501 0 0 0 0.006,-0.0469 v -0.47656 a 0.15001501,0.15001501 0 0 0 -0.0156,-0.0664 l -0.0937,-0.1914 a 0.15001501,0.15001501 0 0 0 -0.0293,-0.0391 l -0.0957,-0.0937 a 0.15001501,0.15001501 0 0 0 -0.0391,-0.0293 l -0.18946,-0.0957 a 0.15001501,0.15001501 0 0 0 -0.0664,-0.0156 z"
       id="path162423" /><path
       id="path162417"
       style="color:#000000;fill:#f2eda1;stroke:#000000;stroke-width:0.0661458;stroke-linecap:round;stroke-linejoin:round;stroke-dasharray:none;stroke-opacity:1"
       d="M 224.3711 112.67357 A 0.15000001 0.15000001 0 0 0 224.22072 112.8224 L 224.22072 113.14848 L 223.70499 113.14848 A 0.15000001 0.15000001 0 0 0 223.55461 113.29886 A 0.15000001 0.15000001 0 0 0 223.70499 113.44924 L 224.22072 113.44924 L 224.22072 113.58411 A 0.15000001 0.15000001 0 0 0 224.3711 113.73449 A 0.15000001 0.15000001 0 0 0 224.52148 113.58411 L 224.52148 113.44924 L 225.41806 113.44924 A 0.15001501 0.15001501 0 0 0 225.48628 113.43373 L 225.67593 113.33813 A 0.15001501 0.15001501 0 0 0 225.74414 113.27147 L 225.83819 113.08027 A 0.15001501 0.15001501 0 0 0 225.8537 113.01361 L 225.8537 112.8224 A 0.15000001 0.15000001 0 0 0 225.70487 112.67409 L 225.70487 112.67357 A 0.15000001 0.15000001 0 0 0 225.55449 112.8224 L 225.55449 112.97847 L 225.49816 113.09164 L 225.38292 113.14848 L 224.52148 113.14848 L 224.52148 112.8224 A 0.15000001 0.15000001 0 0 0 224.3711 112.67357 z " /><path
       id="path162405"
       style="color:#000000;fill:#f2eda1;stroke:#000000;stroke-width:0.0661458;stroke-linecap:round;stroke-linejoin:round;stroke-dasharray:none;stroke-opacity:1"
       d="M 224.75195 111.05455 A 0.15001501 0.15001501 0 0 0 224.68581 111.07005 L 224.49409 111.16617 A 0.15001501 0.15001501 0 0 0 224.45481 111.19304 L 224.35921 111.28916 A 0.15001501 0.15001501 0 0 0 224.33182 111.32792 L 224.23622 111.51757 A 0.15001501 0.15001501 0 0 0 224.22072 111.58372 L 224.22072 111.96664 A 0.15001501 0.15001501 0 0 0 224.23622 112.0333 L 224.25224 112.06483 A 0.15000001 0.15000001 0 0 0 224.22072 112.15629 A 0.15000001 0.15000001 0 0 0 224.3711 112.30667 L 224.46463 112.30667 L 225.61133 112.30667 L 226.37098 112.30667 A 0.15000001 0.15000001 0 0 0 226.52135 112.15629 A 0.15000001 0.15000001 0 0 0 226.37098 112.00592 L 225.84801 112.00592 A 0.15001501 0.15001501 0 0 0 225.8537 111.96664 L 225.8537 111.58372 A 0.15001501 0.15001501 0 0 0 225.83819 111.51757 L 225.74414 111.32792 A 0.15001501 0.15001501 0 0 0 225.7152 111.28916 L 225.61908 111.19304 A 0.15001501 0.15001501 0 0 0 225.58033 111.16617 L 225.39067 111.07005 A 0.15001501 0.15001501 0 0 0 225.32453 111.05455 L 224.75195 111.05455 z M 224.78709 111.35376 L 225.28732 111.35376 L 225.42581 111.42197 L 225.48628 111.48243 L 225.55501 111.62093 L 225.55501 111.92943 L 225.51676 112.00592 L 224.55868 112.00592 L 224.52148 111.92943 L 224.52148 111.62093 L 224.58969 111.48243 L 224.65067 111.42197 L 224.78709 111.35376 z " /><path
       id="path162393"
       style="color:#000000;fill:#f2eda1;stroke:#000000;stroke-width:0.0661458;stroke-linecap:round;stroke-linejoin:round;stroke-dasharray:none;stroke-opacity:1"
       d="M 225.71469 109.14821 A 0.15000001 0.15000001 0 0 0 225.65629 109.15648 L 223.65641 109.82414 A 0.15001501 0.15001501 0 0 0 223.65641 110.10732 L 225.65629 110.7755 A 0.15000001 0.15000001 0 0 0 225.84749 110.6799 A 0.15000001 0.15000001 0 0 0 225.75189 110.49025 L 225.28319 110.33367 L 225.28319 109.59728 L 225.75189 109.44121 A 0.15000001 0.15000001 0 0 0 225.84749 109.25208 A 0.15000001 0.15000001 0 0 0 225.71469 109.14821 z M 224.98243 109.69701 L 224.98243 110.23341 L 224.17783 109.9647 L 224.98243 109.69701 z " /><path
       style="color:#000000;fill:#f2eda1;stroke:#000000;stroke-width:0.0661458;stroke-linecap:round;stroke-linejoin:round;stroke-dasharray:none;stroke-opacity:1"
       d="m 223.42578,90.052734 a 0.25,0.25 0 0 0 -0.25,0.25 0.25,0.25 0 0 0 0.25,0.25 h 1.55859 l -1.68359,0.960938 a 0.250025,0.250025 0 0 0 0.125,0.46875 h 2.5 a 0.25,0.25 0 0 0 0.25,-0.25 0.25,0.25 0 0 0 -0.25,-0.25 h -1.56055 l 1.6836,-0.962891 a 0.250025,0.250025 0 0 0 -0.12305,-0.466797 z"
       id="path162523" /><path
       id="path162539"
       style="color:#000000;fill:#f2eda1;fill-opacity:0;stroke:#000000;stroke-width:0.0661458;stroke-linecap:round;stroke-linejoin:round;stroke-dasharray:none;stroke-opacity:1"
       d="M 223.42594 94.575971 A 0.25 0.25 0 0 0 223.17582 94.826085 A 0.25 0.25 0 0 0 223.42594 95.076199 L 224.36541 95.076199 L 224.36541 96.005858 L 223.42594 96.005858 A 0.25 0.25 0 0 0 223.17582 96.255972 A 0.25 0.25 0 0 0 223.42594 96.506086 L 225.92553 96.506086 A 0.25 0.25 0 0 0 226.17564 96.255972 A 0.25 0.25 0 0 0 225.92553 96.005858 L 224.86512 96.005858 L 224.86512 95.076199 L 225.92553 95.076199 A 0.25 0.25 0 0 0 226.17564 94.826085 A 0.25 0.25 0 0 0 225.92553 94.575971 L 224.61501 94.575971 L 223.42594 94.575971 z " /><path
       id="path162334"
       style="color:#000000;fill:#f2eda1;stroke:#000000;stroke-width:0.0661458;stroke-linecap:round;stroke-linejoin:round;stroke-dasharray:none;stroke-opacity:1"
       d="M 224.75195 101.19727 A 0.15001501 0.15001501 0 0 0 224.68581 101.21278 L 224.49409 101.30838 A 0.15001501 0.15001501 0 0 0 224.45481 101.33577 L 224.35921 101.43137 A 0.15001501 0.15001501 0 0 0 224.33182 101.47064 L 224.23622 101.66029 A 0.15001501 0.15001501 0 0 0 224.22072 101.72851 L 224.22072 102.10936 A 0.15001501 0.15001501 0 0 0 224.23622 102.17602 L 224.25173 102.20755 A 0.15000001 0.15000001 0 0 0 224.22072 102.29901 A 0.15000001 0.15000001 0 0 0 224.3711 102.44939 L 224.46515 102.44939 L 225.61133 102.44939 L 226.37098 102.44939 A 0.15000001 0.15000001 0 0 0 226.52135 102.29901 A 0.15000001 0.15000001 0 0 0 226.37098 102.14864 L 225.84801 102.14864 A 0.15001501 0.15001501 0 0 0 225.8537 102.10936 L 225.8537 101.72851 A 0.15001501 0.15001501 0 0 0 225.83819 101.66029 L 225.74414 101.47064 A 0.15001501 0.15001501 0 0 0 225.7152 101.43137 L 225.61908 101.33577 A 0.15001501 0.15001501 0 0 0 225.58033 101.30838 L 225.39067 101.21278 A 0.15001501 0.15001501 0 0 0 225.32453 101.19727 L 224.75195 101.19727 z M 224.78709 101.49596 L 225.28732 101.49596 L 225.42581 101.56469 L 225.48628 101.6267 L 225.55501 101.76365 L 225.55501 102.07422 L 225.51728 102.14864 L 224.55817 102.14864 L 224.52148 102.07422 L 224.52148 101.76365 L 224.58969 101.6267 L 224.65067 101.56469 L 224.78709 101.49596 z " /><path
       id="path162364"
       style="color:#000000;fill:#f2eda1;stroke:#000000;stroke-width:0.0661458;stroke-linecap:round;stroke-linejoin:round;stroke-dasharray:none;stroke-opacity:1"
       d="M 223.70499 106.05486 A 0.15000001 0.15000001 0 0 0 223.55461 106.20317 L 223.55461 107.15608 A 0.15001501 0.15001501 0 0 0 223.70499 107.30646 L 224.65635 107.30646 L 224.66824 107.30646 L 225.70487 107.30646 A 0.15001501 0.15001501 0 0 0 225.8537 107.15608 L 225.8537 106.20317 A 0.15000001 0.15000001 0 0 0 225.70487 106.05486 A 0.15000001 0.15000001 0 0 0 225.55449 106.20317 L 225.55449 107.0057 L 224.80673 107.0057 L 224.80673 106.48997 A 0.15000001 0.15000001 0 0 0 224.65635 106.33959 A 0.15000001 0.15000001 0 0 0 224.50597 106.48997 L 224.50597 107.0057 L 223.8533 107.0057 L 223.8533 106.20317 A 0.15000001 0.15000001 0 0 0 223.70499 106.05486 z " /><g
       transform="matrix(9.9999996e-7,0,0,9.9999996e-7,97.729671,64.509225)"
       id="text151213"
       style="font-size:2000000px;opacity:0;fill-opacity:0;stroke:#000000;stroke-width:66145.83597917;stroke-linecap:round;stroke-linejoin:round;stroke-opacity:1;stroke-dasharray:none" /><g
       transform="matrix(9.9999996e-7,0,0,9.9999996e-7,97.729671,64.509225)"
       id="text151223"
       style="font-size:2000000px;opacity:0;fill-opacity:0;stroke:#000000;stroke-width:66145.83597917;stroke-linecap:round;stroke-linejoin:round;stroke-opacity:1;stroke-dasharray:none" /><g
       transform="matrix(9.9999996e-7,0,0,9.9999996e-7,97.729671,64.509225)"
       id="text151233"
       style="font-size:2000000px;opacity:0;fill-opacity:0;stroke:#000000;stroke-width:66145.83597917;stroke-linecap:round;stroke-linejoin:round;stroke-opacity:1;stroke-dasharray:none" /><g
       transform="matrix(9.9999996e-7,0,0,9.9999996e-7,97.729671,64.509225)"
       id="text151243"
       style="font-size:2000000px;opacity:0;fill-opacity:0;stroke:#000000;stroke-width:66145.83597917;stroke-linecap:round;stroke-linejoin:round;stroke-opacity:1;stroke-dasharray:none" /><g
       transform="matrix(9.9999996e-7,0,0,9.9999996e-7,97.729671,64.509225)"
       id="text151253"
       style="font-size:2000000px;opacity:0;fill-opacity:0;stroke:#000000;stroke-width:66145.83597917;stroke-linecap:round;stroke-linejoin:round;stroke-opacity:1;stroke-dasharray:none" /><g
       id="path151273"
       style="stroke:#000000;stroke-opacity:1;stroke-width:0.06614583;stroke-dasharray:none"><path
         style="color:#000000;fill:#f2eda1;fill-opacity:0;stroke-width:0.06614583;stroke-linecap:round;stroke-linejoin:round;stroke:#000000;stroke-opacity:1;stroke-dasharray:none"
         d="m 222.44467,88.139224 h 4.67"
         id="path162123" /><path
         style="color:#000000;fill:#f2eda1;stroke-linecap:round;stroke-linejoin:round;stroke:#000000;stroke-opacity:1;stroke-width:0.06614583;stroke-dasharray:none"
         d="m 222.44531,88.064453 a 0.075,0.075 0 0 0 -0.0762,0.07422 0.075,0.075 0 0 0 0.0762,0.07617 h 4.66992 a 0.075,0.075 0 0 0 0.0742,-0.07617 0.075,0.075 0 0 0 -0.0742,-0.07422 z"
         id="path162125" /></g><g
       id="path151277"
       style="stroke:#000000;stroke-opacity:1;stroke-width:0.06614583;stroke-dasharray:none"><path
         style="color:#000000;fill:#f2eda1;fill-opacity:0;stroke-width:0.06614583;stroke-linecap:round;stroke-linejoin:round;stroke:#000000;stroke-opacity:1;stroke-dasharray:none"
         d="m 222.44967,108.15922 h 4.67"
         id="path162111" /><path
         style="color:#000000;fill:#f2eda1;stroke-linecap:round;stroke-linejoin:round;stroke:#000000;stroke-opacity:1;stroke-width:0.06614583;stroke-dasharray:none"
         d="m 222.44922,108.08398 a 0.075,0.075 0 0 0 -0.0742,0.0762 0.075,0.075 0 0 0 0.0742,0.0742 h 4.66992 a 0.075,0.075 0 0 0 0.0762,-0.0742 0.075,0.075 0 0 0 -0.0762,-0.0762 z"
         id="path162113" /></g><path
       style="color:#000000;fill:#f2eda1;stroke:#000000;stroke-width:0.0661458;stroke-linecap:round;stroke-linejoin:round;stroke-dasharray:none;stroke-opacity:1"
       d="m 225.13281,104.14844 a 0.15001501,0.15001501 0 0 0 -0.0664,0.0176 l -0.19141,0.0937 a 0.15001501,0.15001501 0 0 0 -0.0391,0.0293 l -0.0937,0.0937 a 0.15001501,0.15001501 0 0 0 -0.0293,0.0391 l -0.0957,0.1914 a 0.15001501,0.15001501 0 0 0 -0.01,0.0312 l -0.0918,0.36524 -0.0781,0.15234 -0.0606,0.0606 -0.13672,0.0703 h -0.11914 l -0.13672,-0.0703 -0.0605,-0.0606 -0.0684,-0.13672 v -0.41601 l 0.0859,-0.26368 a 0.15000001,0.15000001 0 0 0 -0.0937,-0.18945 0.15000001,0.15000001 0 0 0 -0.18946,0.0957 l -0.0957,0.28516 a 0.15001501,0.15001501 0 0 0 -0.008,0.0469 v 0.47657 a 0.15001501,0.15001501 0 0 0 0.0156,0.0684 l 0.0957,0.18945 a 0.15001501,0.15001501 0 0 0 0.0273,0.0391 l 0.0957,0.0957 a 0.15001501,0.15001501 0 0 0 0.0391,0.0273 l 0.18946,0.0957 a 0.15001501,0.15001501 0 0 0 0.0684,0.0156 h 0.18945 a 0.15001501,0.15001501 0 0 0 0.0684,-0.0156 l 0.18945,-0.0957 a 0.15001501,0.15001501 0 0 0 0.0391,-0.0273 l 0.0957,-0.0957 a 0.15001501,0.15001501 0 0 0 0.0273,-0.0391 l 0.0957,-0.18945 a 0.15001501,0.15001501 0 0 0 0.0117,-0.0312 l 0.0918,-0.36524 0.0762,-0.15429 0.0606,-0.0606 0.13672,-0.0684 h 0.12109 l 0.13672,0.0684 0.0606,0.0606 0.0684,0.13671 v 0.41797 l -0.0879,0.26172 a 0.15000001,0.15000001 0 0 0 0.0957,0.18945 0.15000001,0.15000001 0 0 0 0.18945,-0.0937 l 0.0957,-0.2871 a 0.15001501,0.15001501 0 0 0 0.006,-0.0469 v -0.47656 a 0.15001501,0.15001501 0 0 0 -0.0156,-0.0664 l -0.0937,-0.1914 a 0.15001501,0.15001501 0 0 0 -0.0293,-0.0391 l -0.0957,-0.0937 a 0.15001501,0.15001501 0 0 0 -0.0391,-0.0293 l -0.18946,-0.0937 a 0.15001501,0.15001501 0 0 0 -0.0664,-0.0176 z"
       id="path162352" /><path
       style="color:#000000;fill:#f2eda1;fill-opacity:0;stroke:#000000;stroke-width:0.0661458;stroke-linecap:round;stroke-linejoin:round;stroke-dasharray:none;stroke-opacity:1"
       d="m 224.3711,103.72779 v -0.7619"
       id="path162344" /><path
       id="path162346"
       style="color:#000000;fill:#f2eda1;stroke:#000000;stroke-width:0.0661458;stroke-linecap:round;stroke-linejoin:round;stroke-dasharray:none;stroke-opacity:1"
       d="M 224.3711 102.8163 A 0.15000001 0.15000001 0 0 0 224.22072 102.96667 L 224.22072 103.29275 L 223.70499 103.29275 A 0.15000001 0.15000001 0 0 0 223.55461 103.44158 A 0.15000001 0.15000001 0 0 0 223.70499 103.59196 L 224.22072 103.59196 L 224.22072 103.72838 A 0.15000001 0.15000001 0 0 0 224.3711 103.8767 A 0.15000001 0.15000001 0 0 0 224.52148 103.72838 L 224.52148 103.59196 L 225.41806 103.59196 A 0.15001501 0.15001501 0 0 0 225.48628 103.57646 L 225.67593 103.48034 A 0.15001501 0.15001501 0 0 0 225.74414 103.41419 L 225.83819 103.22247 A 0.15001501 0.15001501 0 0 0 225.8537 103.15633 L 225.8537 102.96667 A 0.15000001 0.15000001 0 0 0 225.70487 102.8163 A 0.15000001 0.15000001 0 0 0 225.55449 102.96667 L 225.55449 103.12119 L 225.49816 103.23436 L 225.38292 103.29275 L 224.52148 103.29275 L 224.52148 102.96667 A 0.15000001 0.15000001 0 0 0 224.3711 102.8163 z " /><g
       id="path151353"
       style="stroke:#000000;stroke-opacity:1;stroke-width:0.06614583;stroke-dasharray:none"><path
         style="color:#000000;fill:#f2eda1;fill-opacity:0;stroke-width:0.06614583;stroke-linecap:round;stroke-linejoin:round;stroke:#000000;stroke-opacity:1;stroke-dasharray:none"
         d="m 222.45967,118.18922 h 4.67"
         id="path162157" /><path
         style="color:#000000;fill:#f2eda1;stroke-linecap:round;stroke-linejoin:round;stroke:#000000;stroke-opacity:1;stroke-width:0.06614583;stroke-dasharray:none"
         d="m 222.45898,118.11328 a 0.075,0.075 0 0 0 -0.0742,0.0762 0.075,0.075 0 0 0 0.0742,0.0742 h 4.66993 a 0.075,0.075 0 0 0 0.0762,-0.0742 0.075,0.075 0 0 0 -0.0762,-0.0762 z"
         id="path162159" /></g><g
       id="path151435"
       style="stroke:#000000;stroke-opacity:1;stroke-width:0.06614583;stroke-dasharray:none"><path
         style="color:#000000;fill:#f2eda1;fill-opacity:0;stroke-width:0.06614583;stroke-linecap:round;stroke-linejoin:round;stroke:#000000;stroke-opacity:1;stroke-dasharray:none"
         d="m 222.46467,138.20922 h 4.67"
         id="path162139" /><path
         style="color:#000000;fill:#f2eda1;stroke-linecap:round;stroke-linejoin:round;stroke:#000000;stroke-opacity:1;stroke-width:0.06614583;stroke-dasharray:none"
         d="m 222.46484,138.13477 a 0.075,0.075 0 0 0 -0.0742,0.0742 0.075,0.075 0 0 0 0.0742,0.0762 h 4.66993 a 0.075,0.075 0 0 0 0.0742,-0.0762 0.075,0.075 0 0 0 -0.0742,-0.0742 z"
         id="path162141" /></g><g
       id="path151437"
       style="stroke:#000000;stroke-opacity:1;stroke-width:0.06614583;stroke-dasharray:none"><path
         style="color:#000000;fill:#f2eda1;fill-opacity:0;stroke-width:0.06614583;stroke-linecap:round;stroke-linejoin:round;stroke:#000000;stroke-opacity:1;stroke-dasharray:none"
         d="m 222.46467,128.20922 h 4.67"
         id="path162133" /><path
         style="color:#000000;fill:#f2eda1;stroke-linecap:round;stroke-linejoin:round;stroke:#000000;stroke-opacity:1;stroke-width:0.06614583;stroke-dasharray:none"
         d="m 222.46484,128.13477 a 0.075,0.075 0 0 0 -0.0742,0.0742 0.075,0.075 0 0 0 0.0742,0.0762 h 4.66993 a 0.075,0.075 0 0 0 0.0742,-0.0762 0.075,0.075 0 0 0 -0.0742,-0.0742 z"
         id="path162135" /></g><g
       id="path151459"
       style="stroke:#000000;stroke-opacity:1;stroke-width:0.06614583;stroke-dasharray:none"><path
         style="color:#000000;fill:#f2eda1;fill-opacity:0;stroke-width:0.06614583;stroke-linecap:round;stroke-linejoin:round;stroke:#000000;stroke-opacity:1;stroke-dasharray:none"
         d="m 222.51967,148.26922 h 4.67"
         id="path162145" /><path
         style="color:#000000;fill:#f2eda1;stroke-linecap:round;stroke-linejoin:round;stroke:#000000;stroke-opacity:1;stroke-width:0.06614583;stroke-dasharray:none"
         d="m 222.51953,148.19336 a 0.075,0.075 0 0 0 -0.0742,0.0762 0.075,0.075 0 0 0 0.0742,0.0742 h 4.66992 a 0.075,0.075 0 0 0 0.0762,-0.0742 0.075,0.075 0 0 0 -0.0762,-0.0762 z"
         id="path162147" /></g><g
       id="path151489"
       style="stroke:#000000;stroke-opacity:1;stroke-width:0.06614583;stroke-dasharray:none"><path
         style="color:#000000;fill:#f2eda1;fill-opacity:0;stroke-width:0.06614583;stroke-linecap:round;stroke-linejoin:round;stroke:#000000;stroke-opacity:1;stroke-dasharray:none"
         d="m 222.52467,168.28922 h 4.67"
         id="path162151" /><path
         style="color:#000000;fill:#f2eda1;stroke-linecap:round;stroke-linejoin:round;stroke:#000000;stroke-opacity:1;stroke-width:0.06614583;stroke-dasharray:none"
         d="m 222.52539,168.21484 a 0.075,0.075 0 0 0 -0.0762,0.0742 0.075,0.075 0 0 0 0.0762,0.0742 h 4.66992 a 0.075,0.075 0 0 0 0.0742,-0.0742 0.075,0.075 0 0 0 -0.0742,-0.0742 z"
         id="path162153" /></g><g
       id="path151665"
       style="stroke:#000000;stroke-opacity:1;stroke-width:0.06614583;stroke-dasharray:none"><path
         style="color:#000000;fill:#f2eda1;fill-opacity:0;stroke-width:0.06614583;stroke-linecap:round;stroke-linejoin:round;stroke:#000000;stroke-opacity:1;stroke-dasharray:none"
         d="m 222.52467,158.28922 h 4.67"
         id="path162104" /><path
         style="color:#000000;fill:#f2eda1;stroke-linecap:round;stroke-linejoin:round;stroke:#000000;stroke-opacity:1;stroke-width:0.06614583;stroke-dasharray:none"
         d="m 222.52539,158.21484 a 0.075,0.075 0 0 0 -0.0762,0.0742 0.075,0.075 0 0 0 0.0762,0.0742 h 4.66992 a 0.075,0.075 0 0 0 0.0742,-0.0742 0.075,0.075 0 0 0 -0.0742,-0.0742 z"
         id="path162106" /></g><g
       id="path151667"
       style="stroke:#000000;stroke-opacity:1;stroke-width:0.06614583;stroke-dasharray:none"><path
         style="color:#000000;fill:#f2eda1;fill-opacity:0;stroke-width:0.06614583;stroke-linecap:round;stroke-linejoin:round;stroke:#000000;stroke-opacity:1;stroke-dasharray:none"
         d="m 222.52467,178.42922 h 4.67"
         id="path162098" /><path
         style="color:#000000;fill:#f2eda1;stroke-linecap:round;stroke-linejoin:round;stroke:#000000;stroke-opacity:1;stroke-width:0.06614583;stroke-dasharray:none"
         d="m 222.52539,178.35352 a 0.075,0.075 0 0 0 -0.0762,0.0762 0.075,0.075 0 0 0 0.0762,0.0742 h 4.66992 a 0.075,0.075 0 0 0 0.0742,-0.0742 0.075,0.075 0 0 0 -0.0742,-0.0762 z"
         id="path162100" /></g><path
       id="path166178"
       style="color:#000000;fill:#f2eda1;stroke:#000000;stroke-width:0.0661458;stroke-linecap:round;stroke-linejoin:round;stroke-dasharray:none;stroke-opacity:1"
       d="M 224.38092 121.32214 A 0.15000001 0.15000001 0 0 0 224.23054 121.47252 L 224.23054 121.7986 L 223.71481 121.7986 A 0.15000001 0.15000001 0 0 0 223.56443 121.94898 A 0.15000001 0.15000001 0 0 0 223.71481 122.09781 L 224.23054 122.09781 L 224.23054 122.23423 A 0.15000001 0.15000001 0 0 0 224.38092 122.38461 A 0.15000001 0.15000001 0 0 0 224.5313 122.23423 L 224.5313 122.09781 L 225.42995 122.09781 A 0.15001501 0.15001501 0 0 0 225.49609 122.08179 L 225.68575 121.98618 A 0.15001501 0.15001501 0 0 0 225.75396 121.92004 L 225.84749 121.73039 A 0.15001501 0.15001501 0 0 0 225.86506 121.66217 L 225.86506 121.47252 A 0.15000001 0.15000001 0 0 0 225.71469 121.32214 A 0.15000001 0.15000001 0 0 0 225.56431 121.47252 L 225.56431 121.62703 L 225.50798 121.74227 L 225.39274 121.7986 L 224.5313 121.7986 L 224.5313 121.47252 A 0.15000001 0.15000001 0 0 0 224.38092 121.32214 z " /><path
       id="path166180"
       style="color:#000000;fill:#f2eda1;stroke:#000000;stroke-width:0.0661458;stroke-linecap:round;stroke-linejoin:round;stroke-dasharray:none;stroke-opacity:1"
       d="m 224.38092,131.3418 a 0.15000001,0.15000001 0 0 0 -0.15038,0.15038 v 0.32608 h -0.51573 a 0.15000001,0.15000001 0 0 0 -0.15038,0.15038 0.15000001,0.15000001 0 0 0 0.15038,0.14883 h 0.51573 v 0.13642 a 0.15000001,0.15000001 0 0 0 0.15038,0.15038 0.15000001,0.15000001 0 0 0 0.15038,-0.15038 v -0.13642 h 0.89865 a 0.15001501,0.15001501 0 0 0 0.0661,-0.016 l 0.18966,-0.0956 a 0.15001501,0.15001501 0 0 0 0.0682,-0.0661 l 0.0935,-0.18965 a 0.15001501,0.15001501 0 0 0 0.0176,-0.0682 v -0.18965 a 0.15000001,0.15000001 0 0 0 -0.15037,-0.15038 0.15000001,0.15000001 0 0 0 -0.15038,0.15038 v 0.15451 l -0.0563,0.11524 -0.11524,0.0563 h -0.86144 v -0.32608 a 0.15000001,0.15000001 0 0 0 -0.15038,-0.15038 z" /><circle
       style="fill:#b3ff80;fill-opacity:0.559809;fill-rule:evenodd;stroke:#000000;stroke-width:0.0661458;stroke-linecap:round;stroke-dasharray:none;stroke-opacity:1"
       id="path166286"
       cx="225.62556"
       cy="124.71088"
       r="0.22042127" /><circle
       style="fill:#b3ff80;fill-opacity:0.559809;fill-rule:evenodd;stroke:#000000;stroke-width:0.0661458;stroke-linecap:round;stroke-dasharray:none;stroke-opacity:1"
       id="circle166288"
       cx="225.62556"
       cy="134.7305"
       r="0.22042127" /><circle
       style="fill:#b3ff80;fill-opacity:0.559809;fill-rule:evenodd;stroke:#000000;stroke-width:0.0661458;stroke-linecap:round;stroke-dasharray:none;stroke-opacity:1"
       id="circle166290"
       cx="225.62556"
       cy="145.25388"
       r="0.22042127" /></g></svg>
