<?xml version="1.0" encoding="UTF-8" standalone="no"?>
<!-- Created with Inkscape (http://www.inkscape.org/) -->

<svg
   width="5.0339556mm"
   height="5.6462402mm"
   viewBox="0 0 5.0339556 5.6462404"
   version="1.1"
   id="svg248500"
   xml:space="preserve"
   inkscape:version="1.2.1 (9c6d41e410, 2022-07-14)"
   sodipodi:docname="logo.svg"
   xmlns:inkscape="http://www.inkscape.org/namespaces/inkscape"
   xmlns:sodipodi="http://sodipodi.sourceforge.net/DTD/sodipodi-0.dtd"
   xmlns="http://www.w3.org/2000/svg"
   xmlns:svg="http://www.w3.org/2000/svg"><sodipodi:namedview
     id="namedview248502"
     pagecolor="#ffffff"
     bordercolor="#666666"
     borderopacity="1.0"
     inkscape:showpageshadow="2"
     inkscape:pageopacity="0.0"
     inkscape:pagecheckerboard="0"
     inkscape:deskcolor="#d1d1d1"
     inkscape:document-units="mm"
     showgrid="false"
     inkscape:zoom="1.8761364"
     inkscape:cx="416.81405"
     inkscape:cy="400.29073"
     inkscape:window-width="3840"
     inkscape:window-height="2050"
     inkscape:window-x="-12"
     inkscape:window-y="-12"
     inkscape:window-maximized="1"
     inkscape:current-layer="layer1" /><defs
     id="defs248497" /><g
     inkscape:label="Layer 1"
     inkscape:groupmode="layer"
     id="layer1"
     transform="translate(82.966466,129.4241)"><path
       id="rect1159"
       style="fill:#000000;fill-opacity:1;fill-rule:evenodd;stroke-width:0.0999999;stroke-linecap:round"
       d="m -78.826866,-129.42406 -0.206705,0.24555 c -0.205781,0.24449 -0.17462,0.60699 0.06986,0.81277 0.244484,0.20578 0.606985,0.17462 0.812767,-0.0699 l 0.205949,-0.24467 a 0.89161499,0.89161499 0 0 1 -0.196192,0.7219 0.89161499,0.89161499 0 0 1 -0.678137,0.31685 l -0.265198,0.31508 c -0.248354,-0.30201 -0.497043,-0.60376 -0.74579,-0.90545 l 0.128383,-0.15253 a 0.89161499,0.89161499 0 0 1 0.196452,-0.72227 0.89161499,0.89161499 0 0 1 0.678607,-0.31737 z m -2.987013,3.54879 c 0.24843,0.30192 0.497197,0.60356 0.746051,0.90513 l -0.129242,0.15355 a 0.89161499,0.89161499 0 0 1 -0.196452,0.72227 0.89161499,0.89161499 0 0 1 -0.677853,0.31646 l 0.20595,-0.24467 c 0.205782,-0.24449 0.17462,-0.60696 -0.06986,-0.81274 -0.244485,-0.20578 -0.606985,-0.17462 -0.812766,0.0699 l -0.205924,0.24467 a 0.89161499,0.89161499 0 0 1 0.196167,-0.72191 0.89161499,0.89161499 0 0 1 0.67858,-0.31737 z m 0.841475,-2.87243 -1.486191,1.22727 c -0.17073,0.14098 -0.194676,0.39193 -0.05369,0.56266 l 2.023047,2.44986 c 0.140985,0.17073 0.391933,0.19467 0.562662,0.0537 l 1.486191,-1.22727 c 0.17073,-0.14099 0.194675,-0.39194 0.05369,-0.56267 l -2.023046,-2.44985 c -0.140985,-0.17073 -0.391933,-0.19468 -0.562663,-0.0537 z" /></g></svg>
