<?xml version="1.0" encoding="UTF-8" standalone="no"?>
<svg
   version="1.1"
   width="5.1019831cm"
   height="4.4868426cm"
   viewBox="0 0 51019831 44868428"
   id="svg1236"
   sodipodi:docname="makehaven _b_silkscreen.svg"
   xml:space="preserve"
   inkscape:version="1.3 (0e150ed6c4, 2023-07-21)"
   xmlns:inkscape="http://www.inkscape.org/namespaces/inkscape"
   xmlns:sodipodi="http://sodipodi.sourceforge.net/DTD/sodipodi-0.dtd"
   xmlns="http://www.w3.org/2000/svg"
   xmlns:svg="http://www.w3.org/2000/svg"
   xmlns:rdf="http://www.w3.org/1999/02/22-rdf-syntax-ns#"
   xmlns:cc="http://creativecommons.org/ns#"
   xmlns:dc="http://purl.org/dc/elements/1.1/"><defs
     id="defs1236" /><sodipodi:namedview
     id="namedview1236"
     pagecolor="#ffffff"
     bordercolor="#000000"
     borderopacity="0.25"
     inkscape:showpageshadow="2"
     inkscape:pageopacity="0.0"
     inkscape:pagecheckerboard="0"
     inkscape:deskcolor="#d1d1d1"
     inkscape:document-units="cm"
     inkscape:zoom="3.9156992"
     inkscape:cx="101.13136"
     inkscape:cy="83.893062"
     inkscape:window-width="1920"
     inkscape:window-height="991"
     inkscape:window-x="-9"
     inkscape:window-y="-9"
     inkscape:window-maximized="1"
     inkscape:current-layer="layer5" /><title
     id="title1">SVG Picture created as mh-custom-v1.3-B_Silkscreen.svg date 2023/07/30 20:45:48 </title><desc
     id="desc1">Picture generated by PCBNEW </desc><g
     inkscape:groupmode="layer"
     id="layer5"
     inkscape:label="Logo"
     style="display:inline"
     transform="translate(-32897631,-69329365)"><path
       id="path1346"
       style="display:inline;fill:#ff00ff;fill-opacity:0.231084;stroke:none;stroke-width:52916.7;stroke-linecap:round;stroke-linejoin:round;stroke-dasharray:none;stroke-opacity:1"
       d="m -6941204.3,59900326 c -2715295.3,49120 -5450654.7,526977 -8112683.7,1449524 139698,282836 102819,625818 -128157,856796 l -515731,515730 c -291993,291993 -767681,286000 -1067119,-13435 l -445967,-445968 c -31007,52938 -68295,102917 -113688,148311 l -515731,515731 c -261657,261657 -664981,270491 -962732,56844 -1534480,813991 -2957961,1757808 -4261239,2815332 107643,34553 185519,124120 185519,232544 v 1092957 c 1512078,-1297292 3202323,-2434561 5058606,-3372404 8819092.9,-4455637 19039023.7,-3228501 26482105.3,2292883 v -1415417 c -333960.7,-231534 -673529.6,-454326 -1016992.2,-669727 -75205,33804 -157386.2,54777 -245463.1,54777 h -696081.6 c -332398.6,0 -599963.4,-267565 -599963.4,-599963 v -100253 c 0,-78681 17143.8,-152445 44441.8,-221175 -3996802,-2156798 -8511231.7,-3275900 -13089124.1,-3193087 z m 150378.4,2245858 -498160.8,3927409 -97151.7,883150 1119311.5,142627 131258.2,-1045931 266133.6,-2064473 h 19637.1 l 296105.9,1469678 43408.2,201021 98702,425814 240812.2,1148250 751375.4,86300 518314.6,-1086239 164847.8,-326078 88366.7,-189653 268717.5,-543119 80615.2,-186552 284220.4,-569991 3617.4,-31006 h 19120.3 l 516.7,38757 -82682.3,604098 -26355,197404 -71313.4,589111 -29972.4,189653 -41341.1,321427 -142627,1119312 1127063.1,138493 119889.3,-1010791 37723.8,-290422 18086.7,-193787 79065,-592728 22220.9,-185519 79064.9,-631486 22220.9,-186035 82165.5,-681612 22737.6,-186035 112654.7,-852145 -1471744.9,-187068 -311092.1,670760 -80615.3,186035 -295072.4,624768 -76997.9,193787 -272334.8,574125 -76481.1,193786 -260966,558623 -88366.7,190169 -26871.8,62012 -11368.8,-4134 -19637,-57878 -35656.8,-205155 -122473.1,-607199 -35656.8,-204638 -115238.4,-630969 -43408.2,-201022 -304374.2,-1601453 z m -3481958.1,479041 -595313,106970 -599963,99735 -260449,1759583 a 800000.06,800000.06 0 0 1 774630,790133 800000.06,800000.06 0 0 1 -799952,799951 800000.06,800000.06 0 0 1 -197404,-82166 l -107487,726054 -165881,1072803 1179773,-198437 115755,-979786 1423686,-253731 437182.6,884701 1167887.5,-202572 -526582.9,-1004073 z m -4207495,1000972 -1630392,707451 c -170130,76464 -318180,171661 -455269,275435 a 800000.06,800000.06 0 0 1 667143,615466 c 44968,-30789 78772,-70487 131774,-95084 l 595313,-261483 1141532,2623613 113172,243396 -598930,254248 c -220230,101565 -433392,102056 -650606,-1551 -30986,-3742 -46474,-14818 -62012,-26355 -232826,-134516 -415410,-343015 -548287,-644405 l -351917,-811320 c -79811,-168573 -115642,-327474 -126090,-481107 a 800000.06,800000.06 0 0 1 -378788,157096 800000.06,800000.06 0 0 1 -656291,-452686 c -92821,399755 -50554,812481 133325,1237651 l 347783,803569 c 136857,328470 323746,583389 568440,779797 159237,123195 337875,226727 531751,303341 504040,191448 1014954,166255 1540474,-60462 l 1630392,-707450 -433565,-993221 z m 3862296,618567 h 19121 l 702799.2,1410250 -920874.2,154513 z m 11441162.95,48576 -23254.39,228927 c 2166250.84,786026 4264950.54,1885265 6235278.54,3262333 H 7399523 c 7160,0 13055.8,3888 20153.8,4134 C 5344630.9,66304149 3124687.7,65122654 823179.95,64293340 Z m -65112.31,1050582 -21704.1,251664 c 1859236.16,681621 3664265.46,1609585 5375382.76,2748670 5628.9,-80836 25648.7,-155542 59944.6,-224276 C 4445243.6,66971346 2627344.8,66033709 758067.64,65343922 Z m -20271631.64,796334 -2523877,1915128 514180,690914 1643828,-1238167 634070,833541 -1369943,1031462 525550,694531 1369942,-1031462 564823,752409 163298,208773 -1643827,1237650 525549,694532 2535246,-1910995 -654224,-872298 z m 20187399.06,195853 -22220.87,251665 c 2070720.91,776963 4064781.11,1866596 5924703.21,3222542 42301,-9390 81916.1,-25321 127124,-25321 h 223759 C 4968615.3,68323711 2861752.9,67158298 673835.06,66336109 Z M -24178913,66758823 c -504451,458655 -992308,931331 -1455725,1423685 h 1560112 c 13595,0 24824,7075 38240,7752 177925,-173211 358967,-343708 542603,-512114 h -406177 c -154588,0 -279053,-111385 -279053,-249597 z m 24795387.21,544669 -22220.86,251148 c 1923852.05,736815 3785350.95,1758712 5527828.15,3022554 -5028,-31377 -18603.5,-59663 -18603.5,-92500 v -99736 c 0,-30827 13128,-57265 17570,-86816 C 4383809.7,69046979 2532508.3,68034278 616474.21,67303492 Z m 7343221.29,883151 c 22086,62667 39790.9,127510 39790.9,197920 v 100253 c 0,3103 -1503.3,5692 -1550.3,8785 223630.8,170674 444333.4,345873 664042.2,523999 v -294039 c -231097.8,-185001 -466941,-360075 -702282.8,-536918 z m -14062708.1,106970 c -2843006.1,-82719 -5744683.4,519282 -8458398.4,1890324 -3919230,1980094 -6772576,5235190 -8333859,8999451 a 850000.06,850000.06 0 0 1 565857,732255 850000.06,850000.06 0 0 1 -850077,850077 850000.06,850000.06 0 0 1 -257349,-106453 c -696558,2227806 -944934,4597373 -713135,6967533 a 900000.06,900000.06 0 0 1 695565,-406693 900000.06,900000.06 0 0 1 900204,899687 900000.06,900000.06 0 0 1 -900204,900203 900000.06,900000.06 0 0 1 -538468,-223242 c 38587,232111 71756,464615 119889,696081 138677,-137333 330279,-222208 542602,-222208 h 1522905 c 425169,0 767395,339353 767395,761194 v 697115 c 0,421839 -342226,761710 -767395,761710 h -1522388 c 142809,426990 292195,852778 469739,1273308 l -6810437,3441134 c -732411,-1717695 -1248307,-3479027 -1579232,-5252910 v 4346505 c 357835,987180 762414,1966362 1247469,2926436 198143,392190 405834,776522 620634,1154452 v -135392 c 0,-412940 340827,-745175 764294,-745175 h 2223637 l -1125512,-2227771 967383,-488859 902787,1786971 c 117623,-109419 274026,-179317 449068,-179317 h 167432 l 189652,-2014864 -183968,-363285 228927,-115756 16536,-174149 263033,33073 458887,-232027 156580,309541 196887,24805 c 0,0 -9411,115586 -25838,313676 l 1681551,3327962 h 1208195 c 25142,0 46290,11663 70797,13953 l -309542,-613399 2850472,-1439706 -460437,-911055 688330,-347783 -571541,-1131197 -688331,347783 -145210,-287321 c -87149,43780 -182043,73897 -286288,73897 -272792,0 -503772,-168691 -600480,-408761 l -2278414,1151351 -488859,-967382 288871,-145728 c -42405,-87500 -71313,-182941 -71313,-287321 v -1012341 c 0,-364430 289991,-657841 650089,-657841 360100,0 650090,293411 650090,657841 v 678511 l 890385,-450101 c -321780,-719910 -215285,-1618059 349849,-2298052 488937,-585555 1195284,-855055 1871204,-804085 132047,-228954 370325,-389640 656291,-389640 h 306958 c 1283391,-1423903 2433331,-2684913 4108276,-3537769 53021,-26983 130220,-71801 190686,-102836 -112727,-224848 -224542,-449881 -337964,-674377 l 518832,-262000 v -402043 c 0,-421839 342227,-761194 767395,-761194 h 1522904 c 2931,0 5346,1519 8269,1551 l 983402.1,-496611 -530717.1,-1050582 -1452624,733806 -1100708,-2178679 c -830571,409927 -1861856,38424 -2306837,-842326 -444978,-880750 -274741,-1849176 690914,-2356445 l -300240,-594796 1776636,-897619 -1221631,-575676 41858,-89400 -5684,-1393714 c -81485,-46115 -151370,-107766 -194304,-192753 -113196,-224051 -21479,-502787 202572,-615983 231776,-117101 503304,-21481 616500,202572 113198,224047 21479,503302 -202572,616500 -38630,19516 -73741,26968 -116272,38757 l 1034,1153935 1330668,637170 1699638,-858862 -579810,-2568319 c -131741,-30418 -252256,-114614 -314709,-238228 -113196,-224051 -21477,-503304 202571,-616500 231777,-117101 503302,-21479 616500,202571 105389,208597 32844,468268 -167948,589112 l 560172,2471167 1722892.8,-870231 269234.2,532784 c 1050959.9,-472788 1908899.3,170337 2287199,842326 441074.5,873027 -65229.6,2001621 -675411,2348694 l 957047.5,1893941 a 850000.06,850000.06 0 0 1 492476.5,701766 850000.06,850000.06 0 0 1 -850077.4,850077 850000.06,850000.06 0 0 1 -732255.1,-566373 l -187585.4,94567 530717,1051099 1539440.9,-777730 v -1501717 h 1699638 v 642854 l 554488.1,-280086 c 126092.9,240069 250618.8,480821 375687.7,721403 56267.9,-29748 112722,-58587 168981.9,-86816 1115961.9,-559410 2242649.583,-814542 3426664.4,-985470 a 850000.06,850000.06 0 0 1 -75447.6,-181901 850000.06,850000.06 0 0 1 850077.4,-850077 850000.06,850000.06 0 0 1 842842.6,833541 c 298696.7,-29821 590500.6,-59883 900720.2,-91468 252037.8,-825598 1019653.6,-1455892 1983341.6,-1506368 1101070.9,-64223 2045025.2,650461 2260844,1634009 70508.9,98372 120406.1,212857 120406.1,343648 v 99736 c 0,69344 -17823.1,133474 -39274.1,195337 49597,32784 78480.3,50329 133325.2,86816 l 1048514.9,697632 603064,1223181 603063.6,1223182 -45475,155029 c -61177,207527 -249838,302758 -453202.2,228926 -145227.9,-52733 -166958.2,-83287 -524515.9,-742590 -366402.6,-675612 -376948.4,-689840 -576192.2,-800468 -215632.8,-119731 -545199.8,-137302 -785998.6,-58394 -68454.9,211056 -246748.5,362012 -470772.3,397908 -72836.9,116224 -128352.2,240677 -142110.2,357601 -14103,119790 -8588.8,199317 39274.1,335897 h 10335.3 c 332399.7,0 599963.4,267565 599963.4,599963 v 100253 c 0,141679 -55931.4,266022 -137459.3,368453 81589.9,197353 110921,308932 83199,403076 -61160.9,207591 -249795.5,303343 -453202.3,229443 l -151928.7,-55294 -178283.7,-345715 h -458370 c -332398.6,0 -599963.4,-267565 -599963.4,-599963 v -100253 c 0,-264002 171723.3,-480560 407727.1,-561206 l -430981.5,-835091 23254.4,-501778 v -76998 c 0,-8271 4322.9,-15067 4650.9,-23254 l 28938.8,-624252 c 20995,-452929 41991.9,-736283 68212.9,-961698 -58938.9,-92898 -101802.6,-197126 -101802.6,-315743 v -99736 c 0,-332398 267564.8,-599963 599963.4,-599963 h 8268.3 c -236102.8,-297332 -615010.6,-482891 -1039213.1,-464054 -381611.7,23403 -711038.8,204749 -919840.6,473873 l -2724381.6,1376660 h 712618 v 1700154 h -725537.1 c 93601.9,101690 191371.4,250188 326078.3,491960 266317.7,477992 278004.8,492404 437182.6,531751 221849.8,54856 456757,-63885 544152.9,-274919 62967.9,-152090 58918.3,-167532 -178800.5,-687813 -186671.8,-408550 -238352.2,-562648 -223242.2,-664043 34107,-228771 183478.5,-416059 372070.4,-504878 113174.8,-53269 240304.5,-70841 365352.3,-41341 345581.7,81526 339899.3,72519 1385445.3,2141988 626099.3,1239245 959458.1,1935762 968933.1,2025199 17451,164312 -42733.5,390239 -130741.4,492477 -35361.9,41093 -142022.9,115509 -237194.8,165364 -147203.9,77123 -210672,79496 -423746.8,17570 l -250113.9,-72347 -293522.2,-521932 c -277711.7,-494155 -301365.9,-524558 -452168.8,-574125 -224534.7,-73800 -478453.9,55736 -552937.8,282153 -50694,154129 -40922.9,189496 177766.9,670244 129921.9,285624 228095.5,556385 224792.5,619600 -20699,395216 -373408.7,691185 -725020.4,608232 -313601.7,-73983 -386736.6,-155257 -703316.2,-781865 -396909.6,-785619 -391283.4,-851928 96118.1,-1141015 313407.7,-185901 430058.1,-371770 392224.2,-623735 -32357,-215482 -201804.8,-406206 -417545.6,-469739 -124091.9,-36540 -211941.7,-19111 -492476.4,97669 -305863.7,127322 -357821,135293 -496093.8,78031 -147582.9,-61109 -167959.4,-89667 -453719.1,-655257 -265396.7,-525315 -297538.8,-613867 -289904.81,-786515 4737,-106953 44304.71,-250497 88366.71,-319361 23172,-36194 57617.4,-70704 95601.4,-103353 h -127640.8 v -1433504 c -188215.81,22044 -377462.85,33178 -564306.66,67696 -422702.576,12306 -1184757.79,184370 -2459281.54,729672 131028.9,254582 262239.1,508909 392740.9,763777 L -12277830,87418028 c -123833,-249198 -248071,-498135 -372070,-747242 -2615977,1531978 -3048910,2504757 -3048910,2504757 l -291455,147278 c 293531,106765 504362,379867 504362,709001 v 697115 c 0,421839 -342226,761710 -767395,761710 h -1046964 l 491959,431499 c 141815,53440 253290,157078 328146,287837 l 1295528,1135848 v -811836 c 0,-217060 109969,-399679 269234,-519349 l -174150,-2051554 1080038,-91467 c 0,0 290570,3416501 413928,4867920 l 341065,299206 -357084,407728 c -59934,68359 -131496,115634 -208257,144694 -68934,44549 -149688,73938 -240295,81648 l -540019,45992 -38757,-452168 c -530033,-464810 -1013322,-888799 -1777669,-1559079 -72168,283790 -314483,496611 -618050,496611 -360100,0 -649573,-293411 -649573,-657841 v -950330 c -130412,-114360 -627869,-550870 -627869,-550870 l 493510,-562757 c -404153,-22870 -725020,-346533 -725020,-753442 v -128675 c -380656,-31849 -781564,120436 -1056783,449585 -210500,254360 -295796,564651 -279053,864030 59889,-18310 119571,-37723 185518,-37723 171466,0 324370,69760 440283,178800 l 9819,-4651 8785,17570 c 84627,85340 134326,198721 162264,320911 l 2298568,4549593 -3524850,1781287 c 136588,134520 221175,319386 221175,524516 v 125573 l 1316199,-665075 c 689924,656689 1428848,1249703 2205034,1780252 v -1240750 c 0,-412940 340825,-745175 764294,-745175 h 2785877 c -118419,-117419 -191720,-279246 -191720,-458886 0,-360100 293411,-650090 657841,-650090 h 1012341 c 364429,0 657841,289990 657841,650090 0,179640 -73301,341467 -191719,458886 h 3044775.3 c 423468.6,0 764294.5,332235 764294.5,745175 v 1313100 c 0,412940 -340825.9,745690 -764294.5,745690 h -1937349.5 l 6201.2,7230 11885.5,14990 11368.9,16020 10335.2,16020 9818.6,16540 8785,17570 7751.4,17570 7234.7,18080 6201.2,18610 5167.6,19120 4650.9,19630 3617.4,19640 2583.8,20150 1550.3,20160 516.7,20670 v 1004070 h 8340576.6 v -1004070 l 516.7,-20670 1550.3,-20160 2583.8,-20150 3100.6,-19640 4650.9,-19630 5167.7,-19120 6717.9,-18610 6717.9,-18080 8268.3,-17570 8784.9,-17570 9818.6,-16540 10335.3,-16020 10852,-16020 11885.6,-14990 12402.3,-14470 13435.9,-13950 13952.6,-12920 14469.4,-12920 14986.2,-11880 15502.9,-10850 3100.6,-2070 h -95601.4 c -423468.6,0 -764294.4,-332240 -764294.4,-745180 v -1313094 c 0,-62650 21382.5,-118147 36173.5,-176216 l -12402.4,6201 -85782.9,-169499 -510046.4,257349 85782.9,170015 -301273.6,152446 -93534.3,-185519 -510046.5,257349 94051.2,185518 -309025.1,156063 -94051.1,-185002 -509529.7,257349 93534.4,185520 -301273.6,151930 -93534.4,-185000 -510046.4,257340 93534.3,185520 -332279.4,167950 -101285.8,-201020 -131258.2,66150 -156062.8,-309030 7751.5,-3620 c -429531.6,-888566 -680738.9,-1673348 -60461.5,-2384348 l -63045.2,-239778 7751.4,-4134 -2154390.5,-4264340 423746.7,-213940 v -574125 c 0,-74220 19151.2,-142333 41341.2,-208773 l -589111.4,297656 -948779.3,-1878438 688330.1,-347783 -572058.1,-1131714 -687813.4,347783 -460436.6,-910539 -1125513,568441 h 639237 c 417765,0 751625.3,328921 763261.3,740523 l 765328,-387056 325561.5,644922 -1106909.2,559139 c -50730.6,372379 -357574.6,662491 -747241.6,662491 h -563790 l -367419,185519 -93534,-185519 h -287838 l 275435,544670 688330,-347782 863514,1709456 v -862996 c 0,-364430 289990.6,-657841 650089.2,-657841 360099.6,0 650089.5,293411 650089.5,657841 v 1012341 c 0,364430 -289989.9,657841 -650089.5,657841 -340170.7,0 -609045.2,-264807 -638721.2,-600997 l -893485,451652 -1311031,-2595190 c -347344,-73030 -611849,-363696 -611849,-730705 v -480074 l -546737,-1082105 3801835.4,-1920813 2385901,4722709 c 94253.9,-53719 197894.8,-92500 314192.7,-92500 333779.7,0 596911.4,255840 635103.4,582910 l 152962.2,-77515 2197282,4349089 81648.8,104386 -3617.4,-7751 c 963525.1,-89170 1562293.4,519959 2076875.9,1384928 53552,89510 100861.5,184464 150378.5,282154 95204.9,-41360 199274.4,-66663 310575.3,-66663 h 1118278.07 c -84202.92,-109220 -143143.73,-239063 -143143.73,-387573 0,-360100 293412.38,-650090 657841.01,-650090 H 1212303.5 c 364427.6,0 657841,289990 657841,650090 0,148510 -58941.8,278353 -143143.7,387573 h 1371492.6 c 423468.5,0 764294.4,332235 764294.4,745174 v 951364 C 6385480.3,98265641 8307264.6,95811039 9519290.3,93063161 H 8933279.6 V 91363523 H 10167830 c 789067,-2432802 1054137,-5045561 730704,-7643978 l 7178374,-3626652 c 128800,507145 235086,1016400 331246,1526522 64042,112923 110587,236674 110587,377238 v 220142 c 137128,838516 225177,1679281 275953,2519226 l 1550,-90434 3617,-610816 517,-38240 1550,-37724 4651,-76481 8268,-76481 11369,-76481 13953,-76481 17053,-76481 20154,-76998 22221,-76481 22221,-67697 24288,-68213 26354,-69246 28939,-69763 31006,-70280 33073,-71314 35657,-72347 37724,-72347 64595,-116272 70280,-118339 75964,-120406 82166,-123506 88883,-125574 94568,-127641 36174,-46509 c -265566,-1646613 -689400,-3284775 -1282609,-4893758 l -43408,1034 h -76998 l -78032,-2068 -79065,-3617 -80098,-5684 -82166,-7752 -81648,-10335 -82166,-12919 -83716,-14986 -84749,-18087 -87333,-20671 -88884,-23254 -91467,-26355 -94568,-29456 -57361,-19637 -57361,-21704 -57361,-23254 -57360,-25322 -57361,-27388 -57361,-29456 -57361,-30489 -56844,-32556 -56844,-34623 -56844,-35657 -56327,-37207 -55811,-39274 -55811,-40308 -54777,-41858 -54777,-43408 -54777,-44441 -53226,-45992 -53227,-47026 -53227,-48576 -52710,-50126 -52710,-52193 -52193,-53227 -52193,-54777 -51677,-55811 -50642,-57877 -50643,-58911 -50126,-60462 -49610,-62011 -49092,-63046 -48060,-65112 -47542,-65629 -47025,-67179 -89917,-136426 -86817,-141594 -83199,-147277 -80098,-151929 -75448,-157613 -36173,-80099 -34624,-82165 -34106,-82683 -32040,-84232 -31005,-85266 -29973,-86300 -53743,-173633 -48576,-178283 -41858,-182418 -8785,-48059 -6196004.5,3130041 c -380285.6,-639123 -807998.8,-1234082 -1255737.3,-1808158 h -945162 c -138211.9,0 -249597.2,-124465 -249597.2,-279053 v -742074 c 0,-99433 49224.9,-182112 118855.8,-231510 -901889.1,-954951 -1892900,-1802258 -2962610,-2522327 a 1050000,1050000 0 0 1 10335.3,91468 1050000,1050000 0 0 1 -1050065.1,1049548 1050000,1050000 0 0 1 -1050065.2,-1049548 1050000,1050000 0 0 1 681095.4,-951364 c -946259.02,-516397 -1933822.45,-949239 -2952791.4,-1285709 -1610623.4,-524587 -3295441.1,-821117 -5001245.4,-870748 z m 13605371.7,770495 c -34674,6187 -66330.1,20671 -102836.1,20671 h -237711.6 c 510348.5,375816 1011116.4,769116 1500166.9,1184424 v -279053 c -380687.6,-319863 -766523.6,-629635 -1159619.2,-926042 z M -27375617,70229929 c -1664178,2176604 -2956698,4595286 -3874182,7146851 v 4321183 c 552040,-2954960 1620684,-5800285 3167249,-8388119 -49884,-87582 -86300,-183056 -86300,-291455 v -696081 c 0,-332400 267565,-599964 599963,-599964 h 100253 c 128614,0 240499,48926 337964,117306 341249,-490360 698801,-970141 1075903,-1437122 h -848527 c -181793,0 -341399,-69999 -472323,-172599 z m 20945492.6,121439 h 2100130.3 v 2099614 h -2100130.3 z m 21227645.4,233578 c -125753,99108 -275991,167948 -447518,167948 h -697631 v 212907 c 357218,467645 696617,953569 1025260,1449524 l 17053,-165364 27906,-190686 35139,-186552 41858,-183452 48576,-179834 54777,-176216 59945,-170016 65629,-165364 23771,-54261 c -85322,-119129 -167787,-241163 -254765,-358634 z m -6823356,25321 c -17395,79493 -47659.7,150849 -93017.6,214974 282232.7,234279 560301.7,474876 834574.4,722437 -31887,-85320 -53743.5,-176296 -53743.5,-273368 v -82683 c -226039.8,-199661 -456740.6,-390468 -687813.3,-581360 z m -1172021.6,474390 c 1030279,801177 2015813.9,1686602 2936255,2661336 l 197920.8,-100252 C 9062381,72711904 8129019.5,71862405 7157160.5,71084657 Z m -32130339.4,505396 -96635,141076 c 310590,23499 556038,274369 556038,591179 v 696081 c 0,309826 -235652,554039 -536401,587044 l 2421557,3193087 642855,-937410 -577226,-729671 999939,-1457793 891419,272335 642855,-936894 -2485120,-713134 v 1072802 c 0,4047 -2373,7371 -2584,11369 l 47026,14470 -679545,990120 -1262456,-1591117 597380,185001 v -1006657 c 0,-16261 7043,-30614 10335,-45992 z m 34533810.4,407210 c 304912.7,289242 601966.9,589736 895552.6,895552 v -327628 c -172067.8,-175532 -340532.8,-356035 -516247.6,-526066 h -177766.9 c -71658,0 -136055.2,-22655 -201538.1,-41858 z m -36248951.4,2318205 -1467094,3269568 823205,368969 527617,-1176155 3399276,1525488 410310,-914673 -3399275,-1525488 529166,-1178223 z m 40968560,1124996 c 132214,-10825 242963,25294 372070,105420 142024,88146 185981,167888 1144117,2063956 1102699,2182159 1086013,2136956 906404,2449980 -175573,306007 -624861,384123 -926558,160714 -124189,-91963 -207512,-235178 -649573,-1110010 -328102,-649303 -540993,-1030723 -602547,-1080037 -176385,-141310 -492316,-73510 -640271,137459 -130129,185581 -75076,354736 468705,1431437 468417,927486 508102,1020994 495577,1177706 -35974,450233 -564691,707915 -972034,473356 -115385,-66438 -192573,-194806 -691430,-1154451 l -561206,-1080038 -150896,-49609 c -177996,-58510 -308106,-29134 -459920,104386 -209575,184336 -194006,244255 378788,1412834 454037,926273 518442,1079363 513664,1228866 -11209,351049 -332519,639704 -681095,611849 -341149,-27256 -314448,13652 -1428337,-2191081 -1127187.7,-2231055 -1093880.8,-2139033 -881083,-2456181 87447.9,-130360 178185.3,-196608 469222,-343649 572111,-289032 606113,-281795 1509985,333830 537137,365848 666446,403514 932243,269234 257085,-129881 310725,-281835 326595,-927592 25637,-1043379 51158,-1100302 627352,-1391129 214548,-108290 368015,-166426 500228,-177250 z m -22765019.5,916223 c -143978.9,6827 -287510.4,43313 -422713.3,111621 -548538.4,277134 -750833.2,970828 -461987.3,1542542 292749.7,579441 967134.4,820254 1515669.8,543119 548538.5,-277135 750833.1,-970826 461987.4,-1542542 -225355.8,-431652 -661018.1,-675220 -1092956.6,-654740 z m -2908349.5,1469678 c -144960,7321 -289713,43887 -426848,113171 -548536,277135 -750832,970827 -461987,1542542 292750,579440 967133,820768 1515670,543636 548536,-277137 750838,-970827 461987,-1542542 -219560,-434581 -653945,-678772 -1088822,-656807 z m -10281027,1239201 h 1699638 v 1700154 h -1699638 z m -6340182,316259 c -47480,169127 -89158,340572 -133325,511080 h 229444 c 37216,-141706 71563,-284581 111104,-425297 a 850000.06,850000.06 0 0 1 -207223,-85783 z m 1011308,167432 c -33272,113058 -57699,229903 -89400,343648 h 236678 c 19016,-67371 32618,-136997 52193,-204122 z m 817005,536401 c -315964,1123955 -543610,2285554 -700216,3468523 79341,12845 154684,30729 223759,65629 155896,-1159984 381310,-2299366 691947,-3402377 z m 33829977.4,76481 c -55750.9,3922 -111147.6,18612 -163297.5,44959 -208605.8,105380 -296593.7,372758 -191202.8,581360 7966,15766 21555.9,25453 31005.8,39791 H 7399523 c 86309.9,0 167307,19659 241328.9,52193 116384.9,-130271 147309.8,-321497 66145.9,-482141 -81970.9,-162245 -250806.5,-247926 -418062.4,-236162 z m -33009356.4,447518 c -603749,2174890 -893832,4486061 -859379,6852812 a 900000.06,900000.06 0 0 1 225826,-93534 c -17997,-2287289 267355,-4523178 848527,-6628019 z m -2988448,78032 c -214670,950039 -368554,1922039 -480591,2905766 69742,-29908 148584,-39322 227377,-47543 77152,-658570 178977,-1309223 302824,-1952852 h -49610 z m 853695,905371 c -130541,637753 -235225,1283936 -317810,1937349 h 229443 c 83782,-653498 188869,-1299963 320911,-1937349 z m 27259835.83,1338936 c 376901.62,22129 353649.19,-13048 1444873.1,2176612 939097.07,1884405 973996.57,1962214 948262.57,2105815 -14672,82013 -57915.2,200812 -96118.2,264066 -58683.9,97157 -246645.6,204463 -1211295.59,692981 -1119183.88,566760 -1145581.25,578345 -1326534.07,556555 -403520.64,-48550 -628436.34,-375436 -527616.44,-765844 64215,-248635 209535.4,-386109 638204.01,-603064 298635.7,-151135 334621.37,-181335 380855.32,-321945 68117.94,-207277 27934.41,-356648 -132808.43,-494026 -188292.81,-160931 -385486.59,-135644 -876949.1,112654 -443262.6,223955 -571096.9,235454 -765844.8,69763 -145346.8,-123647 -184133.5,-271252 -121439.6,-461987 46972,-142866 78990,-168666 426330.6,-344165 477958.5,-241479 591186,-331719 653706.9,-521932 70735.9,-215225 -61771.9,-477545 -276985.7,-548287 -182184.8,-59885 -331725.2,-23729 -721919.8,173116 -448335.5,226208 -779339.1,158449 -969449.9,-198437 -101450.9,-190457 -91876,-378298 31005.9,-625285 66664.9,-134013 121886.2,-166961 1194759.1,-709001 1057564.98,-534313 1135960.3,-567736 1308964.13,-557589 z m 16382463.17,119373 -193270,97668 c 23492,153628 34342,308089 54260,461988 h 205673 c -23642,-186554 -37849,-373409 -66663,-559656 z m -819071,413411 -208773,105420 c 1925,13588 2755,27235 4651,40825 h 219625 c -6518,-48673 -8622,-97594 -15503,-146245 z m -38298440,65629 h 1522905 c 425169,0 767395,339355 767395,761194 v 697115 c 0,421840 -342226,761711 -767395,761711 h -1522905 c -425166,0 -767395,-339871 -767395,-761711 v -697115 c 0,-421839 342229,-761194 767395,-761194 z m 5554184,0 h 1522904 c 425169,0 767395,339355 767395,761194 v 697115 c 0,421840 -342226,761711 -767395,761711 h -1522904 c -425168,0 -767395,-339871 -767395,-761711 v -697115 c 0,-421839 342227,-761194 767395,-761194 z m 31948438,336414 -193269,97669 c 212571,1713039 177588,3442618 -72347,5141805 a 1550000.1,1550000.1 0 0 1 36690,136942 1550000.1,1550000.1 0 0 1 -140560,525550 c -70497,387387 -153056,772635 -246497,1155485 73399,5940 145062,17378 210840,43408 440894,-1815298 622023,-3686225 533301,-5556767 v -5684 c -24493,-513186 -61938,-1026651 -128158,-1538408 z m -18761645.8,779797 2469616.8,4888074 -967382.8,488859 -949296.1,-1878438 688330.1,-347782 -571541.4,-1131197 -688330.1,347265 -948779.3,-1877921 z m 10942485,156580 h 1396814 c 138212.9,0 249597.2,124465 249597.2,279053 v 742073 c 0,154588 -111384.3,279053 -249597.2,279053 h -1396814 c -138211.9,0 -249597.2,-124465 -249597.2,-279053 v -742073 c 0,-154588 111385.3,-279053 249597.2,-279053 z m 8567435.8,607715 c 94718,2084584 -143032,4171003 -690914,6189803 2643,26290 14987,48935 14987,75965 v 652673 c 685835,-2240431 990709,-4578338 890901,-6918441 z m 879533,0 c 118260,2951932 -390843,5907040 -1484147,8664588 l 194303,96635 c 1093487,-2788388 1609829,-5772492 1493449,-8761223 z m -45147117,170532 c -52633,1252056 -27104,2520874 87850,3799252 65443,-37154 135504,-60728 211357,-77515 -105912,-1211872 -134225,-2415222 -88367,-3603398 -78422,-27223 -146501,-68931 -210840,-118339 z m 2133203,139527 c -49477,9869 -95301,29455 -147794,29455 h -78548 c -53911,1159823 -35017,2335497 66145,3520199 h 12403 c 74334,0 141409,21955 209289,41341 -103866,-1208011 -121922,-2407642 -61495,-3590995 z m -1152384,29455 c -48537,1160767 -26969,2336359 75448,3520199 h 219108 c -99770,-1184427 -118124,-2359626 -67696,-3520199 z m 20942391.8,328145 948779.3,1878439 -688330.1,347782 572058.1,1131197 687813.4,-347782 949296.1,1878438 -967899.6,488859 -2469100.1,-4888073 z m 3398242.3,946713 325561.5,644405 -2785359.8,1407149 -325561.5,-644405 z m 6165515.4,364835 h 1522387.8 c 425168.5,0 767911.8,339870 767911.8,761711 v 697115 c 0,421840 -342743.3,761194 -767911.8,761194 H 2139895.5 c -425167.6,0 -767395.1,-339354 -767395.1,-761194 v -697115 c 0,-421841 342227.5,-761711 767395.1,-761711 z m 16624308.5,886768 c -54719,681971 -136617,1360528 -245463,2033984 v 359668 c 129666,-112219 291696,-187585 475424,-187585 h 658357 c 28125,-174585 39940,-351880 64596,-527100 l -76481,-84232 -104903,-119373 -53227,-61495 -53227,-63045 -52710,-64596 -51676,-65112 -51160,-66662 -50126,-67180 -47542,-67696 -46509,-69246 -44959,-71831 -43925,-73897 -41858,-75964 -19637,-39274 -19637,-39274 -19120,-40308 -18087,-40308 -17570,-41341 -17053,-41858 -15503,-42374 -15503,-42892 -13952,-43408 -13436,-43925 -12403,-44442 -11368,-44442 -10852,-45475 -9302,-45475 -8268,-46509 -7752,-46509 z m -45287676,523999 c 67245,1019522 190408,2046072 378788,3074231 l 197921,-100252 c -171888,-962719 -288315,-1924663 -352434,-2880961 a 900000.06,900000.06 0 0 1 -224275,-93018 z m 27215393.81,75448 1863968.99,3689697 v -32039 c 0,-364430 289990.9,-657841 650089.5,-657841 360099.7,0 650089.6,293411 650089.6,657841 v 978235 c 445291.5,247079 773121.7,718802 1075903.4,1280542 l 7751.4,-4135 163814.3,324529 -115755.2,58394 93534.4,185518 -347782.5,175700 -81648.7,-162264 -510046.4,257866 82165.5,162264 -309025.1,156062 -89917,-177767 -510046.4,257866 89917,177767 -301273.6,151929 -89917,-177767 -510046.4,257865 89917,177767 -301273.6,151929 -89917,-177767 -510046.4,257865 89917,177767 -324528,163814 -93534.4,-185518 -85266.1,42891 -163814.3,-324528 -7751.5,4134 c -437335.52,-904019 -696186.75,-1704298 -60461.4,-2423108 l -3617.3,-7751 c 0,0 3631.8,7507 11368.8,3617 l -39274.1,-154512 -2185913.2,-4326351 z M -26896576,91320115 c -60702,47010 -123405,90016 -196887,117306 26330,158480 50917,316873 80098,475423 88432,26250 167908,67320 236161,126090 -45663,-239649 -80395,-479229 -119372,-718819 z m 43017014,22738 c -252181,1059169 -574509,2103348 -977718,3121256 a 1550000.1,1550000.1 0 0 1 233061,-62011 c 295576,-752929 546193,-1519725 759643,-2295984 -2599,-26080 -14986,-48648 -14986,-75448 z m -45116111,125574 c 90368,558309 192573,1116957 315743,1675866 l 197404,-99735 c -112888,-518110 -204341,-1036141 -288871,-1553911 h -112655 c -39591,0 -73677,-16540 -111621,-22220 z m 995805,22220 c 53346,319630 107990,639365 172599,959115 17228,-131150 66724,-249485 148312,-344165 -38100,-205020 -73431,-410020 -106971,-614950 z m 23706047.4,385507 c 360099.7,0 650089.6,293411 650089.6,657841 v 1012341 c 0,364430 -289989.9,657841 -650089.6,657841 -360098.6,0 -650089.5,-293411 -650089.5,-657841 v -1012341 c 0,-364430 289990.9,-657841 650089.5,-657841 z m 2500105.9,0 c 360099.7,0 649572.8,293411 649572.8,657841 v 1012341 c 0,364430 -289473.1,657841 -649572.8,657841 -360098.6,0 -650089.5,-293411 -650089.5,-657841 v -1012341 c 0,-364430 289990.9,-657841 650089.5,-657841 z m 7499800.9,0 c 360099.7,0 650089.6,293411 650089.6,657841 v 1012341 c 0,364430 -289989.9,657841 -650089.6,657841 -360098.6,0 -650089.5,-293411 -650089.5,-657841 v -1012341 c 0,-364430 289990.9,-657841 650089.5,-657841 z m 12542903.8,731738 c -71438,61810 -152528,108150 -243396,139010 -210842,798839 -464088,1585593 -751375,2360062 a 1550000.1,1550000.1 0 0 1 189136,706417 1550000.1,1550000.1 0 0 1 -1093990,1427820 c -483033,1009619 -1031163,1989688 -1646412,2931089 h 1358057 c 867132,-1410940 1600483,-2896168 2187980,-4435907 z m -36929013,1821078 325561,644405 -2785359,1407149 -325562,-644405 z m 29371852,371553 -438217,901754 443901,216007 v -1115177 z m 3653007,1007691 -100252,205672 v 2061889 l 587044,-1206644 a 1550000.1,1550000.1 0 0 1 -488343,-1055750 1550000.1,1550000.1 0 0 1 1551,-5167 z m -3866948,1281058 a 850000,850000 0 0 1 -694531.1,474390 850000,850000 0 0 1 -363285.3,-150378 l 235644.5,361218 -1128096.5,1360640 -862996.5,-352433 -725020.4,874882 3757910.3,1459339 v -1088820 l -414962,-171048 a 850000,850000 0 0 1 -499194.1,206188 850000,850000 0 0 1 -850077.3,-850076 850000,850000 0 0 1 850077.3,-849561 850000,850000 0 0 1 849561.1,849561 850000,850000 0 0 1 -15503,38240 l 80098,122474 v -1932699 z m -34384466,140043 c -7225,83220 -13302,130715 -20670,214974 72744,30990 138072,75275 194303,128675 z m 354501,701250 c 6580,37020 22220,70614 22220,109554 0,179640 -73301,341467 -191719,458886 h 456820 z m 29329993.5,2932125 -2253609.3,1706350 h 1421101.9 l 1346171.1,-1015440 z m -33946766.5,440280 c 299273,434790 614179,853960 935860,1266070 h 316777 v -999940 l 516,-20670 1551,-20150 2584,-20160 3100,-19630 4651,-19640 5168,-19120 6718,-18600 6718,-18090 8268,-17570 8785,-17570 9818,-16540 10336,-16020 10852,-16020 11885,-14980 9819,-11370 z m 12938229,0 c 319395,179160 645384,344950 974101,504360 v -242360 l 516,-20670 1551,-20160 2583,-20150 3101,-19640 4651,-19630 5168,-19120 6718,-18610 6717,-18080 8269,-17570 8785,-17570 9818,-16540 10336,-16020 10852,-16020 11885,-14990 6201,-7230 z m -5649785,273370 -192753,97670 c 326983,311600 665970,608150 1012341,895030 h 332797 c -394967,-317090 -782548,-643960 -1152385,-992700 z m -788065,398420 -192753,97150 c 174620,172060 359074,332130 539501,497130 h 301274 c -218326,-195370 -438363,-388570 -648022,-594280 z m -818555,413410 -28939,14470 v 166400 h 222726 c -63414,-61710 -131119,-118290 -193787,-180870 z m 30674614.6,1669670 -571541.3,430460 v 223250 h 1067635.1 z"
       transform="translate(64173888,9459784)" /></g><style
     type="text/css"
     id="style2">&#10;	.st0{fill:#981B1F;}&#10;	.st1{fill-rule:evenodd;clip-rule:evenodd;fill:#981B1F;}&#10;	.st2{fill:#FFFFFF;}&#10;	.st3{fill:none;}&#10;	.st4{fill:none;stroke:#8A1919;stroke-width:5;stroke-miterlimit:10;}&#10;</style><metadata
     id="metadata87"><rdf:RDF><cc:Work
         rdf:about=""><dc:title>SVG Picture created as mh-custom-v1.3-B_Silkscreen.svg date 2023/07/30 20:45:48 </dc:title></cc:Work></rdf:RDF></metadata></svg>
