<?xml version="1.0" encoding="UTF-8" standalone="no"?>
<!-- Created with Inkscape (http://www.inkscape.org/) -->

<svg
   width="8.3322926mm"
   height="45.311665mm"
   viewBox="0 0 8.3322926 45.311665"
   version="1.1"
   id="svg95339"
   inkscape:version="1.2.1 (9c6d41e410, 2022-07-14)"
   sodipodi:docname="squiggle.svg"
   xmlns:inkscape="http://www.inkscape.org/namespaces/inkscape"
   xmlns:sodipodi="http://sodipodi.sourceforge.net/DTD/sodipodi-0.dtd"
   xmlns="http://www.w3.org/2000/svg"
   xmlns:svg="http://www.w3.org/2000/svg">
  <sodipodi:namedview
     id="namedview95341"
     pagecolor="#ffffff"
     bordercolor="#666666"
     borderopacity="1.0"
     inkscape:showpageshadow="2"
     inkscape:pageopacity="0.0"
     inkscape:pagecheckerboard="0"
     inkscape:deskcolor="#d1d1d1"
     inkscape:document-units="mm"
     showgrid="false"
     inkscape:zoom="10.668197"
     inkscape:cx="15.747741"
     inkscape:cy="85.628343"
     inkscape:window-width="3840"
     inkscape:window-height="2050"
     inkscape:window-x="-12"
     inkscape:window-y="-12"
     inkscape:window-maximized="1"
     inkscape:current-layer="layer1" />
  <defs
     id="defs95336" />
  <g
     inkscape:label="Layer 1"
     inkscape:groupmode="layer"
     id="layer1"
     transform="translate(-17.269751,-71.267255)">
    <path
       style="display:inline;fill-opacity:0.559809;fill-rule:evenodd;stroke-width:0.1;stroke-linecap:round"
       d="m 23.840412,71.277081 a 0.55000001,0.55000001 0 0 1 0.411861,0.08475 c 0.02335,0.01585 0.296231,0.17753 0.666626,0.622701 0.152783,0.183627 0.325967,0.429208 0.459404,0.729155 0.124647,0.280198 0.220141,0.61914 0.220141,1.00924 0,0.351558 -0.0684,0.709638 -0.206189,1.052133 -0.130081,0.323327 -0.323321,0.635004 -0.578776,0.907438 -0.243485,0.25967 -0.545841,0.48561 -0.902787,0.645438 -0.342976,0.153573 -0.733881,0.244947 -1.162203,0.244947 -0.39582,0 -0.714624,-0.01373 -0.98857,-0.03101 -0.2626,-0.01657 -0.47496,-0.03534 -0.651123,-0.04444 -0.171155,-0.0088 -0.306082,-0.0094 -0.445451,0.0062 -0.133054,0.01486 -0.282354,0.04615 -0.478524,0.109554 -0.136218,0.04403 -0.323907,0.145609 -0.536401,0.323495 -0.204758,0.171408 -0.418205,0.402062 -0.611849,0.685229 -0.18954,0.277169 -0.357536,0.600979 -0.47749,0.961699 -0.117717,0.353992 -0.189127,0.743586 -0.189136,1.159102 -9e-6,0.409497 0.06939,0.79898 0.189136,1.159102 0.118179,0.35541 0.284608,0.680153 0.47749,0.962216 0.190719,0.278895 0.403334,0.510674 0.611849,0.685229 0.209342,0.175249 0.397231,0.278505 0.536401,0.323495 0.193334,0.06249 0.342931,0.09389 0.478524,0.109037 0.136886,0.0153 0.271146,0.01574 0.445451,0.0067 0.172842,-0.0089 0.382865,-0.02755 0.650606,-0.04444 0.266478,-0.01681 0.58721,-0.03101 0.989087,-0.03101 0.419255,0 0.810845,0.0871 1.162203,0.24443 0.348611,0.156097 0.6527,0.378733 0.902787,0.645438 0.248567,0.265089 0.444329,0.57453 0.57826,0.907438 0.133372,0.331509 0.206705,0.689592 0.206705,1.052649 0,1.14964 0.0036,1.956704 0.0036,1.960604 0,-4.14e-4 -0.0036,0.949854 -0.0036,2.100647 0,0.362968 -0.07278,0.720533 -0.206189,1.052132 -0.133899,0.332819 -0.330143,0.64228 -0.578776,0.907439 -0.250013,0.266627 -0.554082,0.489299 -0.902787,0.645438 -0.351253,0.157284 -0.742834,0.244945 -1.162203,0.244946 -0.401791,0 -0.721988,-0.01419 -0.98857,-0.03101 -0.267658,-0.01688 -0.478228,-0.03554 -0.651123,-0.04444 -0.174249,-0.009 -0.308519,-0.0091 -0.445451,0.0062 -0.135543,0.01514 -0.285133,0.04704 -0.478524,0.109554 -0.139106,0.04497 -0.326989,0.148189 -0.536401,0.323495 -0.208424,0.174478 -0.421056,0.406225 -0.611849,0.685229 -0.192798,0.281935 -0.359257,0.606142 -0.47749,0.961698 -0.119692,0.359944 -0.189134,0.749423 -0.189136,1.159103 -2e-6,0.415322 0.07136,0.804918 0.189136,1.159102 0.119884,0.360532 0.287835,0.684874 0.47749,0.962215 0.193528,0.283001 0.406949,0.513701 0.611849,0.68523 0.212361,0.177775 0.400056,0.279427 0.536401,0.323494 0.19604,0.06337 0.345354,0.09416 0.478524,0.109038 0.139244,0.0156 0.274137,0.01554 0.445451,0.0067 0.175981,-0.0091 0.388239,-0.02786 0.651123,-0.04444 0.273493,-0.01725 0.592375,-0.03152 0.98857,-0.03152 0.427715,10e-7 0.818663,0.09112 1.162203,0.244946 0.356328,0.159549 0.658805,0.385242 0.902787,0.645439 0.254882,0.271825 0.448371,0.583305 0.578776,0.907435 0.137373,0.34146 0.206189,0.69999 0.206189,1.05265 0,0.36421 -0.06571,0.68859 -0.159163,0.9679 -0.0999,0.29861 -0.234108,0.55357 -0.365352,0.76016 -0.14287,0.2249 -0.292434,0.4085 -0.412895,0.54415 -0.06605,0.0744 -0.127204,0.13858 -0.178284,0.19069 -0.05312,0.0542 -0.101575,0.10203 -0.131775,0.13178 -0.02099,0.0207 -0.04726,0.0459 -0.0739,0.0713 -0.01896,0.0182 -0.07767,0.0733 -0.09663,0.0915 -0.07709,0.0738 -0.162005,0.15661 -0.254765,0.24959 -0.12669,0.12699 -0.252162,0.2582 -0.374137,0.39274 -0.09417,0.10388 -0.183281,0.20648 -0.266651,0.30748 -0.260554,0.31566 -0.441707,0.58593 -0.562756,0.81287 -0.07672,0.14383 -0.12742,0.26693 -0.15968,0.37052 -0.03696,0.11866 -0.05013,0.21227 -0.05013,0.28474 0,0.38235 -0.0054,0.80824 -0.01654,1.41903 0.0073,-0.38247 -0.01714,0.89149 -0.0098,0.50901 -0.01141,0.59895 -0.02584,1.35853 -0.02584,2.06344 0,0.12029 0.02299,0.22931 0.06511,0.33745 0.04379,0.11244 0.110728,0.22906 0.203088,0.35708 0.0958,0.13281 0.212317,0.26927 0.345199,0.41807 0.139084,0.15574 0.291123,0.32013 0.441833,0.49402 0.377944,0.43608 0.675662,0.85414 0.902788,1.35186 0.186631,0.40897 0.281396,0.78008 0.334346,1.06608 0.08386,0.45289 0.08682,0.84019 0.08682,0.98651 a 0.55000001,0.55000001 0 0 1 -1.099675,0 c 0,-0.12442 -0.0032,-0.43236 -0.06873,-0.786 -0.041,-0.22145 -0.113344,-0.50214 -0.253731,-0.80977 -0.169961,-0.37245 -0.39838,-0.70248 -0.732772,-1.08831 -0.135732,-0.15661 -0.282517,-0.3148 -0.431498,-0.48162 -0.138273,-0.15484 -0.286394,-0.32638 -0.417029,-0.50746 -0.127814,-0.17717 -0.248267,-0.376 -0.335897,-0.601 -0.08759,-0.22489 -0.139526,-0.46923 -0.139526,-0.73691 0,-0.71722 0.01446,-1.48715 0.02584,-2.08411 0.0012,-0.0629 0.0087,-0.44563 0.0098,-0.50849 0.01113,-0.60849 0.01602,-1.02654 0.01602,-1.39888 0,-0.20259 0.03603,-0.40731 0.09974,-0.61185 0.05581,-0.17921 0.135239,-0.36619 0.239262,-0.56121 0.163305,-0.30615 0.389662,-0.63721 0.685229,-0.99529 0.09512,-0.11523 0.195667,-0.23088 0.300241,-0.34623 0.135392,-0.14935 0.273116,-0.29294 0.41031,-0.43046 0.100477,-0.10072 0.191992,-0.18971 0.272852,-0.26717 0.19755,-0.18849 -0.09988,0.0949 0.09767,-0.0935 0.02748,-0.0262 0.04774,-0.0454 0.06149,-0.0589 0.03357,-0.0331 0.07369,-0.0723 0.118339,-0.11782 0.04203,-0.0429 0.09051,-0.0934 0.141594,-0.1509 0.09379,-0.10562 0.203693,-0.24186 0.306441,-0.40359 0.09444,-0.14866 0.184911,-0.32292 0.250631,-0.51935 0.06102,-0.18241 0.102319,-0.38892 0.102319,-0.61908 0,-0.20961 -0.04085,-0.42866 -0.126607,-0.64182 -0.08145,-0.20247 -0.202032,-0.3972 -0.360185,-0.56586 -0.150998,-0.16104 -0.335956,-0.29778 -0.550354,-0.39377 -0.205448,-0.092 -0.443426,-0.14883 -0.712618,-0.14883 -0.368662,0 -0.664002,0.0128 -0.919324,0.0289 -0.247464,0.0156 -0.456782,0.0348 -0.664042,0.0455 -0.201257,0.0104 -0.403359,0.0127 -0.623734,-0.0119 -0.217001,-0.0242 -0.438844,-0.0734 -0.694532,-0.15607 -0.305841,-0.09886 -0.615927,-0.285139 -0.904337,-0.52658 -0.285608,-0.239089 -0.566238,-0.545782 -0.813904,-0.907955 -0.243489,-0.356062 -0.45907,-0.771469 -0.613399,-1.235583 -0.151967,-0.457003 -0.245466,-0.96383 -0.245463,-1.506368 3e-6,-0.535186 0.091,-1.041366 0.245463,-1.505851 0.152211,-0.457734 0.365881,-0.874147 0.613399,-1.236101 0.244055,-0.356887 0.523644,-0.664451 0.813904,-0.907438 0.283582,-0.237395 0.593969,-0.426773 0.904337,-0.527099 0.251768,-0.08139 0.474025,-0.130907 0.694532,-0.155547 0.217656,-0.02432 0.418222,-0.02248 0.623734,-0.01189 0.203626,0.01048 0.412085,0.02906 0.664042,0.04496 0.24892,0.0157 0.545472,0.02894 0.919324,0.02894 0.264099,0 0.502465,-0.05421 0.712618,-0.148311 0.209753,-0.09392 0.395682,-0.229338 0.550354,-0.394291 0.15425,-0.164502 0.276545,-0.357456 0.360185,-0.56534 0.08334,-0.207142 0.126607,-0.425916 0.126607,-0.641822 0,-1.153006 0.0036,-2.10423 0.0036,-2.10013 0,-5.93e-4 -0.0036,-0.809207 -0.0036,-1.961121 0,-0.21596 -0.0433,-0.434732 -0.126607,-0.641821 -0.08366,-0.207942 -0.206492,-0.401397 -0.360702,-0.565857 -0.154716,-0.164996 -0.340139,-0.299874 -0.549837,-0.393774 -0.210214,-0.09413 -0.44858,-0.148828 -0.712618,-0.148828 -0.373923,0 -0.671017,0.01375 -0.91984,0.02945 -0.252031,0.0159 -0.459962,0.03448 -0.663526,0.04496 -0.205592,0.01058 -0.40613,0.01242 -0.623734,-0.01189 -0.220579,-0.02465 -0.443361,-0.07419 -0.695048,-0.155546 -0.310471,-0.10036 -0.620348,-0.289795 -0.903821,-0.5271 -0.290377,-0.243085 -0.569945,-0.551203 -0.813904,-0.907954 -0.247628,-0.362121 -0.461256,-0.778029 -0.613399,-1.235584 -0.154529,-0.464719 -0.245474,-0.971405 -0.245463,-1.506368 1.1e-5,-0.54278 0.09357,-1.049101 0.245463,-1.505851 0.154415,-0.464347 0.370057,-0.880258 0.613399,-1.2361 0.247816,-0.362386 0.528487,-0.66851 0.813904,-0.907439 0.288627,-0.24162 0.5987,-0.428299 0.904337,-0.527099 0.255876,-0.08271 0.477701,-0.131316 0.694532,-0.155546 0.22052,-0.02464 0.422708,-0.02224 0.623734,-0.01189 0.207475,0.01068 0.416843,0.02937 0.664042,0.04496 0.25574,0.01614 0.551007,0.02945 0.919324,0.02945 0.269559,0 0.507513,-0.05699 0.712618,-0.148828 0.214774,-0.09617 0.399657,-0.233578 0.550354,-0.394291 0.15851,-0.169046 0.278935,-0.36338 0.360185,-0.56534 0.08601,-0.2138 0.126607,-0.432889 0.126607,-0.641822 0,-0.206038 -0.05045,-0.394008 -0.125057,-0.561722 -0.08138,-0.182935 -0.192295,-0.343103 -0.30024,-0.47284 -0.256539,-0.308223 -0.46208,-0.432311 -0.43873,-0.416451 a 0.55000001,0.55000001 0 0 1 0.206189,-0.994771 z"
       id="path95261" />
  </g>
</svg>
