G04 #@! TF.GenerationSoftware,KiCad,Pcbnew,(6.0.10)*
G04 #@! TF.CreationDate,2023-07-26T20:27:47-04:00*
G04 #@! TF.ProjectId,reader-daughter,72656164-6572-42d6-9461-756768746572,rev?*
G04 #@! TF.SameCoordinates,Original*
G04 #@! TF.FileFunction,Soldermask,Top*
G04 #@! TF.FilePolarity,Negative*
%FSLAX46Y46*%
G04 Gerber Fmt 4.6, Leading zero omitted, Abs format (unit mm)*
G04 Created by KiCad (PCBNEW (6.0.10)) date 2023-07-26 20:27:47*
%MOMM*%
%LPD*%
G01*
G04 APERTURE LIST*
G04 Aperture macros list*
%AMRoundRect*
0 Rectangle with rounded corners*
0 $1 Rounding radius*
0 $2 $3 $4 $5 $6 $7 $8 $9 X,Y pos of 4 corners*
0 Add a 4 corners polygon primitive as box body*
4,1,4,$2,$3,$4,$5,$6,$7,$8,$9,$2,$3,0*
0 Add four circle primitives for the rounded corners*
1,1,$1+$1,$2,$3*
1,1,$1+$1,$4,$5*
1,1,$1+$1,$6,$7*
1,1,$1+$1,$8,$9*
0 Add four rect primitives between the rounded corners*
20,1,$1+$1,$2,$3,$4,$5,0*
20,1,$1+$1,$4,$5,$6,$7,0*
20,1,$1+$1,$6,$7,$8,$9,0*
20,1,$1+$1,$8,$9,$2,$3,0*%
G04 Aperture macros list end*
%ADD10RoundRect,0.250000X-0.625000X0.350000X-0.625000X-0.350000X0.625000X-0.350000X0.625000X0.350000X0*%
%ADD11O,1.750000X1.200000*%
%ADD12R,2.100000X2.100000*%
%ADD13C,2.100000*%
%ADD14R,2.000000X2.000000*%
%ADD15C,2.000000*%
%ADD16RoundRect,0.200000X-0.275000X0.200000X-0.275000X-0.200000X0.275000X-0.200000X0.275000X0.200000X0*%
%ADD17RoundRect,0.250000X0.625000X-0.350000X0.625000X0.350000X-0.625000X0.350000X-0.625000X-0.350000X0*%
%ADD18R,1.700000X1.700000*%
%ADD19O,1.700000X1.700000*%
%ADD20RoundRect,0.200000X0.275000X-0.200000X0.275000X0.200000X-0.275000X0.200000X-0.275000X-0.200000X0*%
%ADD21RoundRect,0.150000X-0.587500X-0.150000X0.587500X-0.150000X0.587500X0.150000X-0.587500X0.150000X0*%
%ADD22C,1.600000*%
%ADD23O,1.600000X1.600000*%
G04 APERTURE END LIST*
D10*
X145161000Y-87579200D03*
D11*
X145161000Y-89579200D03*
X145161000Y-91579200D03*
X145161000Y-93579200D03*
D12*
X144627600Y-79679800D03*
D13*
X144627600Y-77139800D03*
X144627600Y-74599800D03*
D14*
X117154800Y-78130400D03*
D15*
X124754800Y-78130400D03*
D16*
X129438400Y-80949800D03*
X129438400Y-82599800D03*
D17*
X141850000Y-118600000D03*
D11*
X141850000Y-116600000D03*
X141850000Y-114600000D03*
X141850000Y-112600000D03*
X141850000Y-110600000D03*
X141850000Y-108600000D03*
D18*
X133907000Y-74015600D03*
D19*
X133907000Y-76555600D03*
X133907000Y-79095600D03*
X133907000Y-81635600D03*
X133907000Y-84175600D03*
X133907000Y-86715600D03*
X133907000Y-89255600D03*
X133907000Y-91795600D03*
X133907000Y-94335600D03*
X133907000Y-96875600D03*
D18*
X108507000Y-74015600D03*
D19*
X108507000Y-76555600D03*
X108507000Y-79095600D03*
X108507000Y-81635600D03*
X108507000Y-84175600D03*
X108507000Y-86715600D03*
X108507000Y-89255600D03*
X108507000Y-91795600D03*
X108507000Y-94335600D03*
X108507000Y-96875600D03*
D20*
X118973600Y-93446600D03*
X118973600Y-91796600D03*
X148800000Y-94425000D03*
X148800000Y-92775000D03*
D18*
X137185400Y-74015600D03*
D19*
X137185400Y-76555600D03*
X137185400Y-79095600D03*
X137185400Y-81635600D03*
X137185400Y-84175600D03*
X137185400Y-86715600D03*
X137185400Y-89255600D03*
X137185400Y-91795600D03*
X137185400Y-94335600D03*
X137185400Y-96875600D03*
X137185400Y-99415600D03*
X137185400Y-101955600D03*
X137185400Y-104495600D03*
X137185400Y-107035600D03*
X137185400Y-109575600D03*
X137185400Y-112115600D03*
X137185400Y-114655600D03*
X137185400Y-117195600D03*
X137185400Y-119735600D03*
D21*
X122227100Y-89893600D03*
X122227100Y-91793600D03*
X124102100Y-90843600D03*
D18*
X111785400Y-74015600D03*
D19*
X111785400Y-76555600D03*
X111785400Y-79095600D03*
X111785400Y-81635600D03*
X111785400Y-84175600D03*
X111785400Y-86715600D03*
X111785400Y-89255600D03*
X111785400Y-91795600D03*
X111785400Y-94335600D03*
X111785400Y-96875600D03*
X111785400Y-99415600D03*
X111785400Y-101955600D03*
X111785400Y-104495600D03*
X111785400Y-107035600D03*
X111785400Y-109575600D03*
X111785400Y-112115600D03*
X111785400Y-114655600D03*
X111785400Y-117195600D03*
X111785400Y-119735600D03*
D20*
X129438400Y-76783200D03*
X129438400Y-75133200D03*
D18*
X147800000Y-101925000D03*
D19*
X147800000Y-104465000D03*
X147800000Y-107005000D03*
X147800000Y-109545000D03*
X147800000Y-112085000D03*
X147800000Y-114625000D03*
X147800000Y-117165000D03*
X147800000Y-119705000D03*
D22*
X141400000Y-103400000D03*
D23*
X143940000Y-103400000D03*
D16*
X148800000Y-86975000D03*
X148800000Y-88625000D03*
D22*
X141400000Y-99000000D03*
D23*
X143940000Y-99000000D03*
D16*
X118973600Y-87300800D03*
X118973600Y-88950800D03*
M02*
