%TF.GenerationSoftware,KiCad,Pcbnew,(6.0.10)*%
%TF.CreationDate,2023-07-26T20:27:44-04:00*%
%TF.ProjectId,reader-daughter,72656164-6572-42d6-9461-756768746572,rev?*%
%TF.SameCoordinates,Original*%
%TF.FileFunction,Drillmap*%
%TF.FilePolarity,Positive*%
%FSLAX45Y45*%
G04 Gerber Fmt 4.5, Leading zero omitted, Abs format (unit mm)*
G04 Created by KiCad (PCBNEW (6.0.10)) date 2023-07-26 20:27:44*
%MOMM*%
%LPD*%
G01*
G04 APERTURE LIST*
%ADD10C,0.100000*%
%ADD11C,0.200000*%
G04 APERTURE END LIST*
D10*
X10660000Y-7210000D02*
X15020000Y-7210000D01*
X15020000Y-7210000D02*
X15020000Y-12170000D01*
X15020000Y-12170000D02*
X10660000Y-12170000D01*
X10660000Y-12170000D02*
X10660000Y-7210000D01*
X12897500Y-10940000D02*
G75*
G03*
X12897500Y-10940000I-217500J0D01*
G01*
D11*
X10912619Y-12485476D02*
X10912619Y-12285476D01*
X10960238Y-12285476D01*
X10988810Y-12295000D01*
X11007857Y-12314048D01*
X11017381Y-12333095D01*
X11026905Y-12371190D01*
X11026905Y-12399762D01*
X11017381Y-12437857D01*
X11007857Y-12456905D01*
X10988810Y-12475952D01*
X10960238Y-12485476D01*
X10912619Y-12485476D01*
X11112619Y-12485476D02*
X11112619Y-12352143D01*
X11112619Y-12390238D02*
X11122143Y-12371190D01*
X11131667Y-12361667D01*
X11150714Y-12352143D01*
X11169762Y-12352143D01*
X11236428Y-12485476D02*
X11236428Y-12352143D01*
X11236428Y-12285476D02*
X11226905Y-12295000D01*
X11236428Y-12304524D01*
X11245952Y-12295000D01*
X11236428Y-12285476D01*
X11236428Y-12304524D01*
X11360238Y-12485476D02*
X11341190Y-12475952D01*
X11331667Y-12456905D01*
X11331667Y-12285476D01*
X11465000Y-12485476D02*
X11445952Y-12475952D01*
X11436428Y-12456905D01*
X11436428Y-12285476D01*
X11693571Y-12485476D02*
X11693571Y-12285476D01*
X11760238Y-12428333D01*
X11826905Y-12285476D01*
X11826905Y-12485476D01*
X12007857Y-12485476D02*
X12007857Y-12380714D01*
X11998333Y-12361667D01*
X11979286Y-12352143D01*
X11941190Y-12352143D01*
X11922143Y-12361667D01*
X12007857Y-12475952D02*
X11988809Y-12485476D01*
X11941190Y-12485476D01*
X11922143Y-12475952D01*
X11912619Y-12456905D01*
X11912619Y-12437857D01*
X11922143Y-12418809D01*
X11941190Y-12409286D01*
X11988809Y-12409286D01*
X12007857Y-12399762D01*
X12103095Y-12352143D02*
X12103095Y-12552143D01*
X12103095Y-12361667D02*
X12122143Y-12352143D01*
X12160238Y-12352143D01*
X12179286Y-12361667D01*
X12188809Y-12371190D01*
X12198333Y-12390238D01*
X12198333Y-12447381D01*
X12188809Y-12466428D01*
X12179286Y-12475952D01*
X12160238Y-12485476D01*
X12122143Y-12485476D01*
X12103095Y-12475952D01*
X12284048Y-12466428D02*
X12293571Y-12475952D01*
X12284048Y-12485476D01*
X12274524Y-12475952D01*
X12284048Y-12466428D01*
X12284048Y-12485476D01*
X12284048Y-12361667D02*
X12293571Y-12371190D01*
X12284048Y-12380714D01*
X12274524Y-12371190D01*
X12284048Y-12361667D01*
X12284048Y-12380714D01*
M02*
