M48
; DRILL file {KiCad (6.0.10)} date Thu Jul 27 10:12:41 2023
; FORMAT={-:-/ absolute / metric / decimal}
; #@! TF.CreationDate,2023-07-27T10:12:41-04:00
; #@! TF.GenerationSoftware,Kicad,Pcbnew,(6.0.10)
; #@! TF.FileFunction,Plated,1,2,PTH
FMAT,2
METRIC
; #@! TA.AperFunction,Plated,PTH,ViaDrill
T1C0.400
; #@! TA.AperFunction,Plated,PTH,ComponentDrill
T2C0.750
; #@! TA.AperFunction,Plated,PTH,ComponentDrill
T3C0.800
; #@! TA.AperFunction,Plated,PTH,ComponentDrill
T4C1.000
; #@! TA.AperFunction,Plated,PTH,ComponentDrill
T5C1.100
%
G90
G05
T1
X110.2Y-80.6
X121.768Y-86.703
X129.438Y-73.431
X129.438Y-78.232
X129.438Y-79.451
X129.438Y-84.201
X135.2Y-100.6
X135.2Y-102.4
X139.6Y-75.6
X139.6Y-90.4
X139.8Y-92.4
X140.0Y-81.2
X140.8Y-107.0
X141.8Y-105.6
X142.8Y-101.6
X143.1Y-111.6
X143.215Y-105.6
X145.2Y-113.6
X147.6Y-95.6
X148.0Y-85.6
X148.8Y-90.8
T2
X141.85Y-108.6
X141.85Y-110.6
X141.85Y-112.6
X141.85Y-114.6
X141.85Y-116.6
X141.85Y-118.6
X145.161Y-87.579
X145.161Y-89.579
X145.161Y-91.579
X145.161Y-93.579
T3
X141.4Y-99.0
X141.4Y-103.4
X143.94Y-99.0
X143.94Y-103.4
T4
X108.507Y-74.016
X108.507Y-76.556
X108.507Y-79.096
X108.507Y-81.636
X108.507Y-84.176
X108.507Y-86.716
X108.507Y-89.256
X108.507Y-91.796
X108.507Y-94.336
X108.507Y-96.876
X111.785Y-74.016
X111.785Y-76.556
X111.785Y-79.096
X111.785Y-81.636
X111.785Y-84.176
X111.785Y-86.716
X111.785Y-89.256
X111.785Y-91.796
X111.785Y-94.336
X111.785Y-96.876
X111.785Y-99.416
X111.785Y-101.956
X111.785Y-104.496
X111.785Y-107.036
X111.785Y-109.576
X111.785Y-112.116
X111.785Y-114.656
X111.785Y-117.196
X111.785Y-119.736
X117.155Y-78.13
X124.755Y-78.13
X133.907Y-74.016
X133.907Y-76.556
X133.907Y-79.096
X133.907Y-81.636
X133.907Y-84.176
X133.907Y-86.716
X133.907Y-89.256
X133.907Y-91.796
X133.907Y-94.336
X133.907Y-96.876
X137.185Y-74.016
X137.185Y-76.556
X137.185Y-79.096
X137.185Y-81.636
X137.185Y-84.176
X137.185Y-86.716
X137.185Y-89.256
X137.185Y-91.796
X137.185Y-94.336
X137.185Y-96.876
X137.185Y-99.416
X137.185Y-101.956
X137.185Y-104.496
X137.185Y-107.036
X137.185Y-109.576
X137.185Y-112.116
X137.185Y-114.656
X137.185Y-117.196
X137.185Y-119.736
X147.8Y-101.925
X147.8Y-104.465
X147.8Y-107.005
X147.8Y-109.545
X147.8Y-112.085
X147.8Y-114.625
X147.8Y-117.165
X147.8Y-119.705
T5
X144.628Y-74.6
X144.628Y-77.14
X144.628Y-79.68
T0
M30
