%TF.GenerationSoftware,KiCad,Pcbnew,(6.0.10)*%
%TF.CreationDate,2023-07-27T10:12:43-04:00*%
%TF.ProjectId,reader-daughter,72656164-6572-42d6-9461-756768746572,rev?*%
%TF.SameCoordinates,Original*%
%TF.FileFunction,Drillmap*%
%TF.FilePolarity,Positive*%
%FSLAX45Y45*%
G04 Gerber Fmt 4.5, Leading zero omitted, Abs format (unit mm)*
G04 Created by KiCad (PCBNEW (6.0.10)) date 2023-07-27 10:12:43*
%MOMM*%
%LPD*%
G01*
G04 APERTURE LIST*
%ADD10C,0.100000*%
%ADD11C,0.200000*%
%ADD12C,0.040000*%
%ADD13C,0.075000*%
%ADD14C,0.080000*%
%ADD15C,0.110000*%
G04 APERTURE END LIST*
D10*
X12897500Y-10940000D02*
G75*
G03*
X12897500Y-10940000I-217500J0D01*
G01*
X10660000Y-7210000D02*
X15020000Y-7210000D01*
X15020000Y-7210000D02*
X15020000Y-12170000D01*
X15020000Y-12170000D02*
X10660000Y-12170000D01*
X10660000Y-12170000D02*
X10660000Y-7210000D01*
D11*
D12*
X11000000Y-8040000D02*
X11040000Y-8080000D01*
X11040000Y-8040000D02*
X11000000Y-8080000D01*
X12156760Y-8650340D02*
X12196760Y-8690340D01*
X12196760Y-8650340D02*
X12156760Y-8690340D01*
X12923840Y-7323140D02*
X12963840Y-7363140D01*
X12963840Y-7323140D02*
X12923840Y-7363140D01*
X12923840Y-7803200D02*
X12963840Y-7843200D01*
X12963840Y-7803200D02*
X12923840Y-7843200D01*
X12923840Y-7925120D02*
X12963840Y-7965120D01*
X12963840Y-7925120D02*
X12923840Y-7965120D01*
X12923840Y-8400100D02*
X12963840Y-8440100D01*
X12963840Y-8400100D02*
X12923840Y-8440100D01*
X13500000Y-10040000D02*
X13540000Y-10080000D01*
X13540000Y-10040000D02*
X13500000Y-10080000D01*
X13500000Y-10220000D02*
X13540000Y-10260000D01*
X13540000Y-10220000D02*
X13500000Y-10260000D01*
X13940000Y-7540000D02*
X13980000Y-7580000D01*
X13980000Y-7540000D02*
X13940000Y-7580000D01*
X13940000Y-9020000D02*
X13980000Y-9060000D01*
X13980000Y-9020000D02*
X13940000Y-9060000D01*
X13960000Y-9220000D02*
X14000000Y-9260000D01*
X14000000Y-9220000D02*
X13960000Y-9260000D01*
X13980000Y-8100000D02*
X14020000Y-8140000D01*
X14020000Y-8100000D02*
X13980000Y-8140000D01*
X14060000Y-10680000D02*
X14100000Y-10720000D01*
X14100000Y-10680000D02*
X14060000Y-10720000D01*
X14160000Y-10540000D02*
X14200000Y-10580000D01*
X14200000Y-10540000D02*
X14160000Y-10580000D01*
X14260000Y-10140000D02*
X14300000Y-10180000D01*
X14300000Y-10140000D02*
X14260000Y-10180000D01*
X14290000Y-11140000D02*
X14330000Y-11180000D01*
X14330000Y-11140000D02*
X14290000Y-11180000D01*
X14301550Y-10540000D02*
X14341550Y-10580000D01*
X14341550Y-10540000D02*
X14301550Y-10580000D01*
X14500000Y-11340000D02*
X14540000Y-11380000D01*
X14540000Y-11340000D02*
X14500000Y-11380000D01*
X14740000Y-9540000D02*
X14780000Y-9580000D01*
X14780000Y-9540000D02*
X14740000Y-9580000D01*
X14780000Y-8540000D02*
X14820000Y-8580000D01*
X14820000Y-8540000D02*
X14780000Y-8580000D01*
X14860000Y-9060000D02*
X14900000Y-9100000D01*
X14900000Y-9060000D02*
X14860000Y-9100000D01*
D13*
X14222500Y-10860000D02*
G75*
G03*
X14222500Y-10860000I-37500J0D01*
G01*
X14222500Y-11060000D02*
G75*
G03*
X14222500Y-11060000I-37500J0D01*
G01*
X14222500Y-11260000D02*
G75*
G03*
X14222500Y-11260000I-37500J0D01*
G01*
X14222500Y-11460000D02*
G75*
G03*
X14222500Y-11460000I-37500J0D01*
G01*
X14222500Y-11660000D02*
G75*
G03*
X14222500Y-11660000I-37500J0D01*
G01*
X14222500Y-11860000D02*
G75*
G03*
X14222500Y-11860000I-37500J0D01*
G01*
X14553600Y-8757920D02*
G75*
G03*
X14553600Y-8757920I-37500J0D01*
G01*
X14553600Y-8957920D02*
G75*
G03*
X14553600Y-8957920I-37500J0D01*
G01*
X14553600Y-9157920D02*
G75*
G03*
X14553600Y-9157920I-37500J0D01*
G01*
X14553600Y-9357920D02*
G75*
G03*
X14553600Y-9357920I-37500J0D01*
G01*
D14*
X14140000Y-9860000D02*
X14140000Y-9940000D01*
X14100000Y-9900000D02*
X14180000Y-9900000D01*
X14140000Y-10300000D02*
X14140000Y-10380000D01*
X14100000Y-10340000D02*
X14180000Y-10340000D01*
X14394000Y-9860000D02*
X14394000Y-9940000D01*
X14354000Y-9900000D02*
X14434000Y-9900000D01*
X14394000Y-10300000D02*
X14394000Y-10380000D01*
X14354000Y-10340000D02*
X14434000Y-10340000D01*
D10*
X10886056Y-7436916D02*
X10886056Y-7366204D01*
X10815344Y-7366204D01*
X10815344Y-7436916D01*
X10886056Y-7436916D01*
X10886056Y-7690916D02*
X10886056Y-7620204D01*
X10815344Y-7620204D01*
X10815344Y-7690916D01*
X10886056Y-7690916D01*
X10886056Y-7944916D02*
X10886056Y-7874204D01*
X10815344Y-7874204D01*
X10815344Y-7944916D01*
X10886056Y-7944916D01*
X10886056Y-8198916D02*
X10886056Y-8128204D01*
X10815344Y-8128204D01*
X10815344Y-8198916D01*
X10886056Y-8198916D01*
X10886056Y-8452916D02*
X10886056Y-8382204D01*
X10815344Y-8382204D01*
X10815344Y-8452916D01*
X10886056Y-8452916D01*
X10886056Y-8706916D02*
X10886056Y-8636204D01*
X10815344Y-8636204D01*
X10815344Y-8706916D01*
X10886056Y-8706916D01*
X10886056Y-8960916D02*
X10886056Y-8890204D01*
X10815344Y-8890204D01*
X10815344Y-8960916D01*
X10886056Y-8960916D01*
X10886056Y-9214916D02*
X10886056Y-9144204D01*
X10815344Y-9144204D01*
X10815344Y-9214916D01*
X10886056Y-9214916D01*
X10886056Y-9468916D02*
X10886056Y-9398204D01*
X10815344Y-9398204D01*
X10815344Y-9468916D01*
X10886056Y-9468916D01*
X10886056Y-9722916D02*
X10886056Y-9652204D01*
X10815344Y-9652204D01*
X10815344Y-9722916D01*
X10886056Y-9722916D01*
X11213896Y-7436916D02*
X11213896Y-7366204D01*
X11143184Y-7366204D01*
X11143184Y-7436916D01*
X11213896Y-7436916D01*
X11213896Y-7690916D02*
X11213896Y-7620204D01*
X11143184Y-7620204D01*
X11143184Y-7690916D01*
X11213896Y-7690916D01*
X11213896Y-7944916D02*
X11213896Y-7874204D01*
X11143184Y-7874204D01*
X11143184Y-7944916D01*
X11213896Y-7944916D01*
X11213896Y-8198916D02*
X11213896Y-8128204D01*
X11143184Y-8128204D01*
X11143184Y-8198916D01*
X11213896Y-8198916D01*
X11213896Y-8452916D02*
X11213896Y-8382204D01*
X11143184Y-8382204D01*
X11143184Y-8452916D01*
X11213896Y-8452916D01*
X11213896Y-8706916D02*
X11213896Y-8636204D01*
X11143184Y-8636204D01*
X11143184Y-8706916D01*
X11213896Y-8706916D01*
X11213896Y-8960916D02*
X11213896Y-8890204D01*
X11143184Y-8890204D01*
X11143184Y-8960916D01*
X11213896Y-8960916D01*
X11213896Y-9214916D02*
X11213896Y-9144204D01*
X11143184Y-9144204D01*
X11143184Y-9214916D01*
X11213896Y-9214916D01*
X11213896Y-9468916D02*
X11213896Y-9398204D01*
X11143184Y-9398204D01*
X11143184Y-9468916D01*
X11213896Y-9468916D01*
X11213896Y-9722916D02*
X11213896Y-9652204D01*
X11143184Y-9652204D01*
X11143184Y-9722916D01*
X11213896Y-9722916D01*
X11213896Y-9976916D02*
X11213896Y-9906204D01*
X11143184Y-9906204D01*
X11143184Y-9976916D01*
X11213896Y-9976916D01*
X11213896Y-10230916D02*
X11213896Y-10160204D01*
X11143184Y-10160204D01*
X11143184Y-10230916D01*
X11213896Y-10230916D01*
X11213896Y-10484916D02*
X11213896Y-10414204D01*
X11143184Y-10414204D01*
X11143184Y-10484916D01*
X11213896Y-10484916D01*
X11213896Y-10738916D02*
X11213896Y-10668204D01*
X11143184Y-10668204D01*
X11143184Y-10738916D01*
X11213896Y-10738916D01*
X11213896Y-10992916D02*
X11213896Y-10922204D01*
X11143184Y-10922204D01*
X11143184Y-10992916D01*
X11213896Y-10992916D01*
X11213896Y-11246916D02*
X11213896Y-11176204D01*
X11143184Y-11176204D01*
X11143184Y-11246916D01*
X11213896Y-11246916D01*
X11213896Y-11500916D02*
X11213896Y-11430204D01*
X11143184Y-11430204D01*
X11143184Y-11500916D01*
X11213896Y-11500916D01*
X11213896Y-11754916D02*
X11213896Y-11684204D01*
X11143184Y-11684204D01*
X11143184Y-11754916D01*
X11213896Y-11754916D01*
X11213896Y-12008916D02*
X11213896Y-11938204D01*
X11143184Y-11938204D01*
X11143184Y-12008916D01*
X11213896Y-12008916D01*
X11750836Y-7848396D02*
X11750836Y-7777684D01*
X11680124Y-7777684D01*
X11680124Y-7848396D01*
X11750836Y-7848396D01*
X12510836Y-7848396D02*
X12510836Y-7777684D01*
X12440124Y-7777684D01*
X12440124Y-7848396D01*
X12510836Y-7848396D01*
X13426056Y-7436916D02*
X13426056Y-7366204D01*
X13355344Y-7366204D01*
X13355344Y-7436916D01*
X13426056Y-7436916D01*
X13426056Y-7690916D02*
X13426056Y-7620204D01*
X13355344Y-7620204D01*
X13355344Y-7690916D01*
X13426056Y-7690916D01*
X13426056Y-7944916D02*
X13426056Y-7874204D01*
X13355344Y-7874204D01*
X13355344Y-7944916D01*
X13426056Y-7944916D01*
X13426056Y-8198916D02*
X13426056Y-8128204D01*
X13355344Y-8128204D01*
X13355344Y-8198916D01*
X13426056Y-8198916D01*
X13426056Y-8452916D02*
X13426056Y-8382204D01*
X13355344Y-8382204D01*
X13355344Y-8452916D01*
X13426056Y-8452916D01*
X13426056Y-8706916D02*
X13426056Y-8636204D01*
X13355344Y-8636204D01*
X13355344Y-8706916D01*
X13426056Y-8706916D01*
X13426056Y-8960916D02*
X13426056Y-8890204D01*
X13355344Y-8890204D01*
X13355344Y-8960916D01*
X13426056Y-8960916D01*
X13426056Y-9214916D02*
X13426056Y-9144204D01*
X13355344Y-9144204D01*
X13355344Y-9214916D01*
X13426056Y-9214916D01*
X13426056Y-9468916D02*
X13426056Y-9398204D01*
X13355344Y-9398204D01*
X13355344Y-9468916D01*
X13426056Y-9468916D01*
X13426056Y-9722916D02*
X13426056Y-9652204D01*
X13355344Y-9652204D01*
X13355344Y-9722916D01*
X13426056Y-9722916D01*
X13753896Y-7436916D02*
X13753896Y-7366204D01*
X13683184Y-7366204D01*
X13683184Y-7436916D01*
X13753896Y-7436916D01*
X13753896Y-7690916D02*
X13753896Y-7620204D01*
X13683184Y-7620204D01*
X13683184Y-7690916D01*
X13753896Y-7690916D01*
X13753896Y-7944916D02*
X13753896Y-7874204D01*
X13683184Y-7874204D01*
X13683184Y-7944916D01*
X13753896Y-7944916D01*
X13753896Y-8198916D02*
X13753896Y-8128204D01*
X13683184Y-8128204D01*
X13683184Y-8198916D01*
X13753896Y-8198916D01*
X13753896Y-8452916D02*
X13753896Y-8382204D01*
X13683184Y-8382204D01*
X13683184Y-8452916D01*
X13753896Y-8452916D01*
X13753896Y-8706916D02*
X13753896Y-8636204D01*
X13683184Y-8636204D01*
X13683184Y-8706916D01*
X13753896Y-8706916D01*
X13753896Y-8960916D02*
X13753896Y-8890204D01*
X13683184Y-8890204D01*
X13683184Y-8960916D01*
X13753896Y-8960916D01*
X13753896Y-9214916D02*
X13753896Y-9144204D01*
X13683184Y-9144204D01*
X13683184Y-9214916D01*
X13753896Y-9214916D01*
X13753896Y-9468916D02*
X13753896Y-9398204D01*
X13683184Y-9398204D01*
X13683184Y-9468916D01*
X13753896Y-9468916D01*
X13753896Y-9722916D02*
X13753896Y-9652204D01*
X13683184Y-9652204D01*
X13683184Y-9722916D01*
X13753896Y-9722916D01*
X13753896Y-9976916D02*
X13753896Y-9906204D01*
X13683184Y-9906204D01*
X13683184Y-9976916D01*
X13753896Y-9976916D01*
X13753896Y-10230916D02*
X13753896Y-10160204D01*
X13683184Y-10160204D01*
X13683184Y-10230916D01*
X13753896Y-10230916D01*
X13753896Y-10484916D02*
X13753896Y-10414204D01*
X13683184Y-10414204D01*
X13683184Y-10484916D01*
X13753896Y-10484916D01*
X13753896Y-10738916D02*
X13753896Y-10668204D01*
X13683184Y-10668204D01*
X13683184Y-10738916D01*
X13753896Y-10738916D01*
X13753896Y-10992916D02*
X13753896Y-10922204D01*
X13683184Y-10922204D01*
X13683184Y-10992916D01*
X13753896Y-10992916D01*
X13753896Y-11246916D02*
X13753896Y-11176204D01*
X13683184Y-11176204D01*
X13683184Y-11246916D01*
X13753896Y-11246916D01*
X13753896Y-11500916D02*
X13753896Y-11430204D01*
X13683184Y-11430204D01*
X13683184Y-11500916D01*
X13753896Y-11500916D01*
X13753896Y-11754916D02*
X13753896Y-11684204D01*
X13683184Y-11684204D01*
X13683184Y-11754916D01*
X13753896Y-11754916D01*
X13753896Y-12008916D02*
X13753896Y-11938204D01*
X13683184Y-11938204D01*
X13683184Y-12008916D01*
X13753896Y-12008916D01*
X14815356Y-10227856D02*
X14815356Y-10157144D01*
X14744644Y-10157144D01*
X14744644Y-10227856D01*
X14815356Y-10227856D01*
X14815356Y-10481856D02*
X14815356Y-10411144D01*
X14744644Y-10411144D01*
X14744644Y-10481856D01*
X14815356Y-10481856D01*
X14815356Y-10735856D02*
X14815356Y-10665144D01*
X14744644Y-10665144D01*
X14744644Y-10735856D01*
X14815356Y-10735856D01*
X14815356Y-10989856D02*
X14815356Y-10919144D01*
X14744644Y-10919144D01*
X14744644Y-10989856D01*
X14815356Y-10989856D01*
X14815356Y-11243856D02*
X14815356Y-11173144D01*
X14744644Y-11173144D01*
X14744644Y-11243856D01*
X14815356Y-11243856D01*
X14815356Y-11497856D02*
X14815356Y-11427144D01*
X14744644Y-11427144D01*
X14744644Y-11497856D01*
X14815356Y-11497856D01*
X14815356Y-11751856D02*
X14815356Y-11681144D01*
X14744644Y-11681144D01*
X14744644Y-11751856D01*
X14815356Y-11751856D01*
X14815356Y-12005856D02*
X14815356Y-11935144D01*
X14744644Y-11935144D01*
X14744644Y-12005856D01*
X14815356Y-12005856D01*
D15*
X14462760Y-7514980D02*
X14517760Y-7459980D01*
X14462760Y-7404980D01*
X14407760Y-7459980D01*
X14462760Y-7514980D01*
X14462760Y-7768980D02*
X14517760Y-7713980D01*
X14462760Y-7658980D01*
X14407760Y-7713980D01*
X14462760Y-7768980D01*
X14462760Y-8022980D02*
X14517760Y-7967980D01*
X14462760Y-7912980D01*
X14407760Y-7967980D01*
X14462760Y-8022980D01*
D11*
X10912619Y-12485476D02*
X10912619Y-12285476D01*
X10960238Y-12285476D01*
X10988810Y-12295000D01*
X11007857Y-12314048D01*
X11017381Y-12333095D01*
X11026905Y-12371190D01*
X11026905Y-12399762D01*
X11017381Y-12437857D01*
X11007857Y-12456905D01*
X10988810Y-12475952D01*
X10960238Y-12485476D01*
X10912619Y-12485476D01*
X11112619Y-12485476D02*
X11112619Y-12352143D01*
X11112619Y-12390238D02*
X11122143Y-12371190D01*
X11131667Y-12361667D01*
X11150714Y-12352143D01*
X11169762Y-12352143D01*
X11236428Y-12485476D02*
X11236428Y-12352143D01*
X11236428Y-12285476D02*
X11226905Y-12295000D01*
X11236428Y-12304524D01*
X11245952Y-12295000D01*
X11236428Y-12285476D01*
X11236428Y-12304524D01*
X11360238Y-12485476D02*
X11341190Y-12475952D01*
X11331667Y-12456905D01*
X11331667Y-12285476D01*
X11465000Y-12485476D02*
X11445952Y-12475952D01*
X11436428Y-12456905D01*
X11436428Y-12285476D01*
X11693571Y-12485476D02*
X11693571Y-12285476D01*
X11760238Y-12428333D01*
X11826905Y-12285476D01*
X11826905Y-12485476D01*
X12007857Y-12485476D02*
X12007857Y-12380714D01*
X11998333Y-12361667D01*
X11979286Y-12352143D01*
X11941190Y-12352143D01*
X11922143Y-12361667D01*
X12007857Y-12475952D02*
X11988809Y-12485476D01*
X11941190Y-12485476D01*
X11922143Y-12475952D01*
X11912619Y-12456905D01*
X11912619Y-12437857D01*
X11922143Y-12418809D01*
X11941190Y-12409286D01*
X11988809Y-12409286D01*
X12007857Y-12399762D01*
X12103095Y-12352143D02*
X12103095Y-12552143D01*
X12103095Y-12361667D02*
X12122143Y-12352143D01*
X12160238Y-12352143D01*
X12179286Y-12361667D01*
X12188809Y-12371190D01*
X12198333Y-12390238D01*
X12198333Y-12447381D01*
X12188809Y-12466428D01*
X12179286Y-12475952D01*
X12160238Y-12485476D01*
X12122143Y-12485476D01*
X12103095Y-12475952D01*
X12284048Y-12466428D02*
X12293571Y-12475952D01*
X12284048Y-12485476D01*
X12274524Y-12475952D01*
X12284048Y-12466428D01*
X12284048Y-12485476D01*
X12284048Y-12361667D02*
X12293571Y-12371190D01*
X12284048Y-12380714D01*
X12274524Y-12371190D01*
X12284048Y-12361667D01*
X12284048Y-12380714D01*
D12*
X10615000Y-12795000D02*
X10655000Y-12835000D01*
X10655000Y-12795000D02*
X10615000Y-12835000D01*
D11*
X10950714Y-12705476D02*
X10969762Y-12705476D01*
X10988810Y-12715000D01*
X10998333Y-12724524D01*
X11007857Y-12743571D01*
X11017381Y-12781667D01*
X11017381Y-12829286D01*
X11007857Y-12867381D01*
X10998333Y-12886428D01*
X10988810Y-12895952D01*
X10969762Y-12905476D01*
X10950714Y-12905476D01*
X10931667Y-12895952D01*
X10922143Y-12886428D01*
X10912619Y-12867381D01*
X10903095Y-12829286D01*
X10903095Y-12781667D01*
X10912619Y-12743571D01*
X10922143Y-12724524D01*
X10931667Y-12715000D01*
X10950714Y-12705476D01*
X11103095Y-12886428D02*
X11112619Y-12895952D01*
X11103095Y-12905476D01*
X11093571Y-12895952D01*
X11103095Y-12886428D01*
X11103095Y-12905476D01*
X11284048Y-12772143D02*
X11284048Y-12905476D01*
X11236428Y-12695952D02*
X11188809Y-12838809D01*
X11312619Y-12838809D01*
X11426905Y-12705476D02*
X11445952Y-12705476D01*
X11465000Y-12715000D01*
X11474524Y-12724524D01*
X11484048Y-12743571D01*
X11493571Y-12781667D01*
X11493571Y-12829286D01*
X11484048Y-12867381D01*
X11474524Y-12886428D01*
X11465000Y-12895952D01*
X11445952Y-12905476D01*
X11426905Y-12905476D01*
X11407857Y-12895952D01*
X11398333Y-12886428D01*
X11388809Y-12867381D01*
X11379286Y-12829286D01*
X11379286Y-12781667D01*
X11388809Y-12743571D01*
X11398333Y-12724524D01*
X11407857Y-12715000D01*
X11426905Y-12705476D01*
X11617381Y-12705476D02*
X11636428Y-12705476D01*
X11655476Y-12715000D01*
X11665000Y-12724524D01*
X11674524Y-12743571D01*
X11684048Y-12781667D01*
X11684048Y-12829286D01*
X11674524Y-12867381D01*
X11665000Y-12886428D01*
X11655476Y-12895952D01*
X11636428Y-12905476D01*
X11617381Y-12905476D01*
X11598333Y-12895952D01*
X11588809Y-12886428D01*
X11579286Y-12867381D01*
X11569762Y-12829286D01*
X11569762Y-12781667D01*
X11579286Y-12743571D01*
X11588809Y-12724524D01*
X11598333Y-12715000D01*
X11617381Y-12705476D01*
X11769762Y-12905476D02*
X11769762Y-12772143D01*
X11769762Y-12791190D02*
X11779286Y-12781667D01*
X11798333Y-12772143D01*
X11826905Y-12772143D01*
X11845952Y-12781667D01*
X11855476Y-12800714D01*
X11855476Y-12905476D01*
X11855476Y-12800714D02*
X11865000Y-12781667D01*
X11884048Y-12772143D01*
X11912619Y-12772143D01*
X11931667Y-12781667D01*
X11941190Y-12800714D01*
X11941190Y-12905476D01*
X12036428Y-12905476D02*
X12036428Y-12772143D01*
X12036428Y-12791190D02*
X12045952Y-12781667D01*
X12065000Y-12772143D01*
X12093571Y-12772143D01*
X12112619Y-12781667D01*
X12122143Y-12800714D01*
X12122143Y-12905476D01*
X12122143Y-12800714D02*
X12131667Y-12781667D01*
X12150714Y-12772143D01*
X12179286Y-12772143D01*
X12198333Y-12781667D01*
X12207857Y-12800714D01*
X12207857Y-12905476D01*
X12598333Y-12695952D02*
X12426905Y-12953095D01*
X12855476Y-12705476D02*
X12874524Y-12705476D01*
X12893571Y-12715000D01*
X12903095Y-12724524D01*
X12912619Y-12743571D01*
X12922143Y-12781667D01*
X12922143Y-12829286D01*
X12912619Y-12867381D01*
X12903095Y-12886428D01*
X12893571Y-12895952D01*
X12874524Y-12905476D01*
X12855476Y-12905476D01*
X12836428Y-12895952D01*
X12826905Y-12886428D01*
X12817381Y-12867381D01*
X12807857Y-12829286D01*
X12807857Y-12781667D01*
X12817381Y-12743571D01*
X12826905Y-12724524D01*
X12836428Y-12715000D01*
X12855476Y-12705476D01*
X13007857Y-12886428D02*
X13017381Y-12895952D01*
X13007857Y-12905476D01*
X12998333Y-12895952D01*
X13007857Y-12886428D01*
X13007857Y-12905476D01*
X13141190Y-12705476D02*
X13160238Y-12705476D01*
X13179286Y-12715000D01*
X13188809Y-12724524D01*
X13198333Y-12743571D01*
X13207857Y-12781667D01*
X13207857Y-12829286D01*
X13198333Y-12867381D01*
X13188809Y-12886428D01*
X13179286Y-12895952D01*
X13160238Y-12905476D01*
X13141190Y-12905476D01*
X13122143Y-12895952D01*
X13112619Y-12886428D01*
X13103095Y-12867381D01*
X13093571Y-12829286D01*
X13093571Y-12781667D01*
X13103095Y-12743571D01*
X13112619Y-12724524D01*
X13122143Y-12715000D01*
X13141190Y-12705476D01*
X13398333Y-12905476D02*
X13284048Y-12905476D01*
X13341190Y-12905476D02*
X13341190Y-12705476D01*
X13322143Y-12734048D01*
X13303095Y-12753095D01*
X13284048Y-12762619D01*
X13579286Y-12705476D02*
X13484048Y-12705476D01*
X13474524Y-12800714D01*
X13484048Y-12791190D01*
X13503095Y-12781667D01*
X13550714Y-12781667D01*
X13569762Y-12791190D01*
X13579286Y-12800714D01*
X13588809Y-12819762D01*
X13588809Y-12867381D01*
X13579286Y-12886428D01*
X13569762Y-12895952D01*
X13550714Y-12905476D01*
X13503095Y-12905476D01*
X13484048Y-12895952D01*
X13474524Y-12886428D01*
X13655476Y-12705476D02*
X13788809Y-12705476D01*
X13703095Y-12905476D01*
X13855476Y-12705476D02*
X13855476Y-12743571D01*
X13931667Y-12705476D02*
X13931667Y-12743571D01*
X14226905Y-12981667D02*
X14217381Y-12972143D01*
X14198333Y-12943571D01*
X14188809Y-12924524D01*
X14179286Y-12895952D01*
X14169762Y-12848333D01*
X14169762Y-12810238D01*
X14179286Y-12762619D01*
X14188809Y-12734048D01*
X14198333Y-12715000D01*
X14217381Y-12686428D01*
X14226905Y-12676905D01*
X14293571Y-12724524D02*
X14303095Y-12715000D01*
X14322143Y-12705476D01*
X14369762Y-12705476D01*
X14388809Y-12715000D01*
X14398333Y-12724524D01*
X14407857Y-12743571D01*
X14407857Y-12762619D01*
X14398333Y-12791190D01*
X14284048Y-12905476D01*
X14407857Y-12905476D01*
X14598333Y-12905476D02*
X14484048Y-12905476D01*
X14541190Y-12905476D02*
X14541190Y-12705476D01*
X14522143Y-12734048D01*
X14503095Y-12753095D01*
X14484048Y-12762619D01*
X14836428Y-12905476D02*
X14836428Y-12705476D01*
X14922143Y-12905476D02*
X14922143Y-12800714D01*
X14912619Y-12781667D01*
X14893571Y-12772143D01*
X14865000Y-12772143D01*
X14845952Y-12781667D01*
X14836428Y-12791190D01*
X15045952Y-12905476D02*
X15026905Y-12895952D01*
X15017381Y-12886428D01*
X15007857Y-12867381D01*
X15007857Y-12810238D01*
X15017381Y-12791190D01*
X15026905Y-12781667D01*
X15045952Y-12772143D01*
X15074524Y-12772143D01*
X15093571Y-12781667D01*
X15103095Y-12791190D01*
X15112619Y-12810238D01*
X15112619Y-12867381D01*
X15103095Y-12886428D01*
X15093571Y-12895952D01*
X15074524Y-12905476D01*
X15045952Y-12905476D01*
X15226905Y-12905476D02*
X15207857Y-12895952D01*
X15198333Y-12876905D01*
X15198333Y-12705476D01*
X15379286Y-12895952D02*
X15360238Y-12905476D01*
X15322143Y-12905476D01*
X15303095Y-12895952D01*
X15293571Y-12876905D01*
X15293571Y-12800714D01*
X15303095Y-12781667D01*
X15322143Y-12772143D01*
X15360238Y-12772143D01*
X15379286Y-12781667D01*
X15388809Y-12800714D01*
X15388809Y-12819762D01*
X15293571Y-12838809D01*
X15465000Y-12895952D02*
X15484048Y-12905476D01*
X15522143Y-12905476D01*
X15541190Y-12895952D01*
X15550714Y-12876905D01*
X15550714Y-12867381D01*
X15541190Y-12848333D01*
X15522143Y-12838809D01*
X15493571Y-12838809D01*
X15474524Y-12829286D01*
X15465000Y-12810238D01*
X15465000Y-12800714D01*
X15474524Y-12781667D01*
X15493571Y-12772143D01*
X15522143Y-12772143D01*
X15541190Y-12781667D01*
X15617381Y-12981667D02*
X15626905Y-12972143D01*
X15645952Y-12943571D01*
X15655476Y-12924524D01*
X15665000Y-12895952D01*
X15674524Y-12848333D01*
X15674524Y-12810238D01*
X15665000Y-12762619D01*
X15655476Y-12734048D01*
X15645952Y-12715000D01*
X15626905Y-12686428D01*
X15617381Y-12676905D01*
D13*
X10655000Y-13079000D02*
G75*
G03*
X10655000Y-13079000I-37500J0D01*
G01*
D11*
X10950714Y-12969476D02*
X10969762Y-12969476D01*
X10988810Y-12979000D01*
X10998333Y-12988524D01*
X11007857Y-13007571D01*
X11017381Y-13045667D01*
X11017381Y-13093286D01*
X11007857Y-13131381D01*
X10998333Y-13150428D01*
X10988810Y-13159952D01*
X10969762Y-13169476D01*
X10950714Y-13169476D01*
X10931667Y-13159952D01*
X10922143Y-13150428D01*
X10912619Y-13131381D01*
X10903095Y-13093286D01*
X10903095Y-13045667D01*
X10912619Y-13007571D01*
X10922143Y-12988524D01*
X10931667Y-12979000D01*
X10950714Y-12969476D01*
X11103095Y-13150428D02*
X11112619Y-13159952D01*
X11103095Y-13169476D01*
X11093571Y-13159952D01*
X11103095Y-13150428D01*
X11103095Y-13169476D01*
X11179286Y-12969476D02*
X11312619Y-12969476D01*
X11226905Y-13169476D01*
X11484048Y-12969476D02*
X11388809Y-12969476D01*
X11379286Y-13064714D01*
X11388809Y-13055190D01*
X11407857Y-13045667D01*
X11455476Y-13045667D01*
X11474524Y-13055190D01*
X11484048Y-13064714D01*
X11493571Y-13083762D01*
X11493571Y-13131381D01*
X11484048Y-13150428D01*
X11474524Y-13159952D01*
X11455476Y-13169476D01*
X11407857Y-13169476D01*
X11388809Y-13159952D01*
X11379286Y-13150428D01*
X11617381Y-12969476D02*
X11636428Y-12969476D01*
X11655476Y-12979000D01*
X11665000Y-12988524D01*
X11674524Y-13007571D01*
X11684048Y-13045667D01*
X11684048Y-13093286D01*
X11674524Y-13131381D01*
X11665000Y-13150428D01*
X11655476Y-13159952D01*
X11636428Y-13169476D01*
X11617381Y-13169476D01*
X11598333Y-13159952D01*
X11588809Y-13150428D01*
X11579286Y-13131381D01*
X11569762Y-13093286D01*
X11569762Y-13045667D01*
X11579286Y-13007571D01*
X11588809Y-12988524D01*
X11598333Y-12979000D01*
X11617381Y-12969476D01*
X11769762Y-13169476D02*
X11769762Y-13036143D01*
X11769762Y-13055190D02*
X11779286Y-13045667D01*
X11798333Y-13036143D01*
X11826905Y-13036143D01*
X11845952Y-13045667D01*
X11855476Y-13064714D01*
X11855476Y-13169476D01*
X11855476Y-13064714D02*
X11865000Y-13045667D01*
X11884048Y-13036143D01*
X11912619Y-13036143D01*
X11931667Y-13045667D01*
X11941190Y-13064714D01*
X11941190Y-13169476D01*
X12036428Y-13169476D02*
X12036428Y-13036143D01*
X12036428Y-13055190D02*
X12045952Y-13045667D01*
X12065000Y-13036143D01*
X12093571Y-13036143D01*
X12112619Y-13045667D01*
X12122143Y-13064714D01*
X12122143Y-13169476D01*
X12122143Y-13064714D02*
X12131667Y-13045667D01*
X12150714Y-13036143D01*
X12179286Y-13036143D01*
X12198333Y-13045667D01*
X12207857Y-13064714D01*
X12207857Y-13169476D01*
X12598333Y-12959952D02*
X12426905Y-13217095D01*
X12855476Y-12969476D02*
X12874524Y-12969476D01*
X12893571Y-12979000D01*
X12903095Y-12988524D01*
X12912619Y-13007571D01*
X12922143Y-13045667D01*
X12922143Y-13093286D01*
X12912619Y-13131381D01*
X12903095Y-13150428D01*
X12893571Y-13159952D01*
X12874524Y-13169476D01*
X12855476Y-13169476D01*
X12836428Y-13159952D01*
X12826905Y-13150428D01*
X12817381Y-13131381D01*
X12807857Y-13093286D01*
X12807857Y-13045667D01*
X12817381Y-13007571D01*
X12826905Y-12988524D01*
X12836428Y-12979000D01*
X12855476Y-12969476D01*
X13007857Y-13150428D02*
X13017381Y-13159952D01*
X13007857Y-13169476D01*
X12998333Y-13159952D01*
X13007857Y-13150428D01*
X13007857Y-13169476D01*
X13141190Y-12969476D02*
X13160238Y-12969476D01*
X13179286Y-12979000D01*
X13188809Y-12988524D01*
X13198333Y-13007571D01*
X13207857Y-13045667D01*
X13207857Y-13093286D01*
X13198333Y-13131381D01*
X13188809Y-13150428D01*
X13179286Y-13159952D01*
X13160238Y-13169476D01*
X13141190Y-13169476D01*
X13122143Y-13159952D01*
X13112619Y-13150428D01*
X13103095Y-13131381D01*
X13093571Y-13093286D01*
X13093571Y-13045667D01*
X13103095Y-13007571D01*
X13112619Y-12988524D01*
X13122143Y-12979000D01*
X13141190Y-12969476D01*
X13284048Y-12988524D02*
X13293571Y-12979000D01*
X13312619Y-12969476D01*
X13360238Y-12969476D01*
X13379286Y-12979000D01*
X13388809Y-12988524D01*
X13398333Y-13007571D01*
X13398333Y-13026619D01*
X13388809Y-13055190D01*
X13274524Y-13169476D01*
X13398333Y-13169476D01*
X13493571Y-13169476D02*
X13531667Y-13169476D01*
X13550714Y-13159952D01*
X13560238Y-13150428D01*
X13579286Y-13121857D01*
X13588809Y-13083762D01*
X13588809Y-13007571D01*
X13579286Y-12988524D01*
X13569762Y-12979000D01*
X13550714Y-12969476D01*
X13512619Y-12969476D01*
X13493571Y-12979000D01*
X13484048Y-12988524D01*
X13474524Y-13007571D01*
X13474524Y-13055190D01*
X13484048Y-13074238D01*
X13493571Y-13083762D01*
X13512619Y-13093286D01*
X13550714Y-13093286D01*
X13569762Y-13083762D01*
X13579286Y-13074238D01*
X13588809Y-13055190D01*
X13769762Y-12969476D02*
X13674524Y-12969476D01*
X13665000Y-13064714D01*
X13674524Y-13055190D01*
X13693571Y-13045667D01*
X13741190Y-13045667D01*
X13760238Y-13055190D01*
X13769762Y-13064714D01*
X13779286Y-13083762D01*
X13779286Y-13131381D01*
X13769762Y-13150428D01*
X13760238Y-13159952D01*
X13741190Y-13169476D01*
X13693571Y-13169476D01*
X13674524Y-13159952D01*
X13665000Y-13150428D01*
X13855476Y-12969476D02*
X13855476Y-13007571D01*
X13931667Y-12969476D02*
X13931667Y-13007571D01*
X14226905Y-13245667D02*
X14217381Y-13236143D01*
X14198333Y-13207571D01*
X14188809Y-13188524D01*
X14179286Y-13159952D01*
X14169762Y-13112333D01*
X14169762Y-13074238D01*
X14179286Y-13026619D01*
X14188809Y-12998048D01*
X14198333Y-12979000D01*
X14217381Y-12950428D01*
X14226905Y-12940905D01*
X14407857Y-13169476D02*
X14293571Y-13169476D01*
X14350714Y-13169476D02*
X14350714Y-12969476D01*
X14331667Y-12998048D01*
X14312619Y-13017095D01*
X14293571Y-13026619D01*
X14531667Y-12969476D02*
X14550714Y-12969476D01*
X14569762Y-12979000D01*
X14579286Y-12988524D01*
X14588809Y-13007571D01*
X14598333Y-13045667D01*
X14598333Y-13093286D01*
X14588809Y-13131381D01*
X14579286Y-13150428D01*
X14569762Y-13159952D01*
X14550714Y-13169476D01*
X14531667Y-13169476D01*
X14512619Y-13159952D01*
X14503095Y-13150428D01*
X14493571Y-13131381D01*
X14484048Y-13093286D01*
X14484048Y-13045667D01*
X14493571Y-13007571D01*
X14503095Y-12988524D01*
X14512619Y-12979000D01*
X14531667Y-12969476D01*
X14836428Y-13169476D02*
X14836428Y-12969476D01*
X14922143Y-13169476D02*
X14922143Y-13064714D01*
X14912619Y-13045667D01*
X14893571Y-13036143D01*
X14865000Y-13036143D01*
X14845952Y-13045667D01*
X14836428Y-13055190D01*
X15045952Y-13169476D02*
X15026905Y-13159952D01*
X15017381Y-13150428D01*
X15007857Y-13131381D01*
X15007857Y-13074238D01*
X15017381Y-13055190D01*
X15026905Y-13045667D01*
X15045952Y-13036143D01*
X15074524Y-13036143D01*
X15093571Y-13045667D01*
X15103095Y-13055190D01*
X15112619Y-13074238D01*
X15112619Y-13131381D01*
X15103095Y-13150428D01*
X15093571Y-13159952D01*
X15074524Y-13169476D01*
X15045952Y-13169476D01*
X15226905Y-13169476D02*
X15207857Y-13159952D01*
X15198333Y-13140905D01*
X15198333Y-12969476D01*
X15379286Y-13159952D02*
X15360238Y-13169476D01*
X15322143Y-13169476D01*
X15303095Y-13159952D01*
X15293571Y-13140905D01*
X15293571Y-13064714D01*
X15303095Y-13045667D01*
X15322143Y-13036143D01*
X15360238Y-13036143D01*
X15379286Y-13045667D01*
X15388809Y-13064714D01*
X15388809Y-13083762D01*
X15293571Y-13102809D01*
X15465000Y-13159952D02*
X15484048Y-13169476D01*
X15522143Y-13169476D01*
X15541190Y-13159952D01*
X15550714Y-13140905D01*
X15550714Y-13131381D01*
X15541190Y-13112333D01*
X15522143Y-13102809D01*
X15493571Y-13102809D01*
X15474524Y-13093286D01*
X15465000Y-13074238D01*
X15465000Y-13064714D01*
X15474524Y-13045667D01*
X15493571Y-13036143D01*
X15522143Y-13036143D01*
X15541190Y-13045667D01*
X15617381Y-13245667D02*
X15626905Y-13236143D01*
X15645952Y-13207571D01*
X15655476Y-13188524D01*
X15665000Y-13159952D01*
X15674524Y-13112333D01*
X15674524Y-13074238D01*
X15665000Y-13026619D01*
X15655476Y-12998048D01*
X15645952Y-12979000D01*
X15626905Y-12950428D01*
X15617381Y-12940905D01*
D14*
X10615000Y-13303000D02*
X10615000Y-13383000D01*
X10575000Y-13343000D02*
X10655000Y-13343000D01*
D11*
X10950714Y-13233476D02*
X10969762Y-13233476D01*
X10988810Y-13243000D01*
X10998333Y-13252524D01*
X11007857Y-13271571D01*
X11017381Y-13309667D01*
X11017381Y-13357286D01*
X11007857Y-13395381D01*
X10998333Y-13414428D01*
X10988810Y-13423952D01*
X10969762Y-13433476D01*
X10950714Y-13433476D01*
X10931667Y-13423952D01*
X10922143Y-13414428D01*
X10912619Y-13395381D01*
X10903095Y-13357286D01*
X10903095Y-13309667D01*
X10912619Y-13271571D01*
X10922143Y-13252524D01*
X10931667Y-13243000D01*
X10950714Y-13233476D01*
X11103095Y-13414428D02*
X11112619Y-13423952D01*
X11103095Y-13433476D01*
X11093571Y-13423952D01*
X11103095Y-13414428D01*
X11103095Y-13433476D01*
X11226905Y-13319190D02*
X11207857Y-13309667D01*
X11198333Y-13300143D01*
X11188809Y-13281095D01*
X11188809Y-13271571D01*
X11198333Y-13252524D01*
X11207857Y-13243000D01*
X11226905Y-13233476D01*
X11265000Y-13233476D01*
X11284048Y-13243000D01*
X11293571Y-13252524D01*
X11303095Y-13271571D01*
X11303095Y-13281095D01*
X11293571Y-13300143D01*
X11284048Y-13309667D01*
X11265000Y-13319190D01*
X11226905Y-13319190D01*
X11207857Y-13328714D01*
X11198333Y-13338238D01*
X11188809Y-13357286D01*
X11188809Y-13395381D01*
X11198333Y-13414428D01*
X11207857Y-13423952D01*
X11226905Y-13433476D01*
X11265000Y-13433476D01*
X11284048Y-13423952D01*
X11293571Y-13414428D01*
X11303095Y-13395381D01*
X11303095Y-13357286D01*
X11293571Y-13338238D01*
X11284048Y-13328714D01*
X11265000Y-13319190D01*
X11426905Y-13233476D02*
X11445952Y-13233476D01*
X11465000Y-13243000D01*
X11474524Y-13252524D01*
X11484048Y-13271571D01*
X11493571Y-13309667D01*
X11493571Y-13357286D01*
X11484048Y-13395381D01*
X11474524Y-13414428D01*
X11465000Y-13423952D01*
X11445952Y-13433476D01*
X11426905Y-13433476D01*
X11407857Y-13423952D01*
X11398333Y-13414428D01*
X11388809Y-13395381D01*
X11379286Y-13357286D01*
X11379286Y-13309667D01*
X11388809Y-13271571D01*
X11398333Y-13252524D01*
X11407857Y-13243000D01*
X11426905Y-13233476D01*
X11617381Y-13233476D02*
X11636428Y-13233476D01*
X11655476Y-13243000D01*
X11665000Y-13252524D01*
X11674524Y-13271571D01*
X11684048Y-13309667D01*
X11684048Y-13357286D01*
X11674524Y-13395381D01*
X11665000Y-13414428D01*
X11655476Y-13423952D01*
X11636428Y-13433476D01*
X11617381Y-13433476D01*
X11598333Y-13423952D01*
X11588809Y-13414428D01*
X11579286Y-13395381D01*
X11569762Y-13357286D01*
X11569762Y-13309667D01*
X11579286Y-13271571D01*
X11588809Y-13252524D01*
X11598333Y-13243000D01*
X11617381Y-13233476D01*
X11769762Y-13433476D02*
X11769762Y-13300143D01*
X11769762Y-13319190D02*
X11779286Y-13309667D01*
X11798333Y-13300143D01*
X11826905Y-13300143D01*
X11845952Y-13309667D01*
X11855476Y-13328714D01*
X11855476Y-13433476D01*
X11855476Y-13328714D02*
X11865000Y-13309667D01*
X11884048Y-13300143D01*
X11912619Y-13300143D01*
X11931667Y-13309667D01*
X11941190Y-13328714D01*
X11941190Y-13433476D01*
X12036428Y-13433476D02*
X12036428Y-13300143D01*
X12036428Y-13319190D02*
X12045952Y-13309667D01*
X12065000Y-13300143D01*
X12093571Y-13300143D01*
X12112619Y-13309667D01*
X12122143Y-13328714D01*
X12122143Y-13433476D01*
X12122143Y-13328714D02*
X12131667Y-13309667D01*
X12150714Y-13300143D01*
X12179286Y-13300143D01*
X12198333Y-13309667D01*
X12207857Y-13328714D01*
X12207857Y-13433476D01*
X12598333Y-13223952D02*
X12426905Y-13481095D01*
X12855476Y-13233476D02*
X12874524Y-13233476D01*
X12893571Y-13243000D01*
X12903095Y-13252524D01*
X12912619Y-13271571D01*
X12922143Y-13309667D01*
X12922143Y-13357286D01*
X12912619Y-13395381D01*
X12903095Y-13414428D01*
X12893571Y-13423952D01*
X12874524Y-13433476D01*
X12855476Y-13433476D01*
X12836428Y-13423952D01*
X12826905Y-13414428D01*
X12817381Y-13395381D01*
X12807857Y-13357286D01*
X12807857Y-13309667D01*
X12817381Y-13271571D01*
X12826905Y-13252524D01*
X12836428Y-13243000D01*
X12855476Y-13233476D01*
X13007857Y-13414428D02*
X13017381Y-13423952D01*
X13007857Y-13433476D01*
X12998333Y-13423952D01*
X13007857Y-13414428D01*
X13007857Y-13433476D01*
X13141190Y-13233476D02*
X13160238Y-13233476D01*
X13179286Y-13243000D01*
X13188809Y-13252524D01*
X13198333Y-13271571D01*
X13207857Y-13309667D01*
X13207857Y-13357286D01*
X13198333Y-13395381D01*
X13188809Y-13414428D01*
X13179286Y-13423952D01*
X13160238Y-13433476D01*
X13141190Y-13433476D01*
X13122143Y-13423952D01*
X13112619Y-13414428D01*
X13103095Y-13395381D01*
X13093571Y-13357286D01*
X13093571Y-13309667D01*
X13103095Y-13271571D01*
X13112619Y-13252524D01*
X13122143Y-13243000D01*
X13141190Y-13233476D01*
X13274524Y-13233476D02*
X13398333Y-13233476D01*
X13331667Y-13309667D01*
X13360238Y-13309667D01*
X13379286Y-13319190D01*
X13388809Y-13328714D01*
X13398333Y-13347762D01*
X13398333Y-13395381D01*
X13388809Y-13414428D01*
X13379286Y-13423952D01*
X13360238Y-13433476D01*
X13303095Y-13433476D01*
X13284048Y-13423952D01*
X13274524Y-13414428D01*
X13588809Y-13433476D02*
X13474524Y-13433476D01*
X13531667Y-13433476D02*
X13531667Y-13233476D01*
X13512619Y-13262048D01*
X13493571Y-13281095D01*
X13474524Y-13290619D01*
X13769762Y-13233476D02*
X13674524Y-13233476D01*
X13665000Y-13328714D01*
X13674524Y-13319190D01*
X13693571Y-13309667D01*
X13741190Y-13309667D01*
X13760238Y-13319190D01*
X13769762Y-13328714D01*
X13779286Y-13347762D01*
X13779286Y-13395381D01*
X13769762Y-13414428D01*
X13760238Y-13423952D01*
X13741190Y-13433476D01*
X13693571Y-13433476D01*
X13674524Y-13423952D01*
X13665000Y-13414428D01*
X13855476Y-13233476D02*
X13855476Y-13271571D01*
X13931667Y-13233476D02*
X13931667Y-13271571D01*
X14226905Y-13509667D02*
X14217381Y-13500143D01*
X14198333Y-13471571D01*
X14188809Y-13452524D01*
X14179286Y-13423952D01*
X14169762Y-13376333D01*
X14169762Y-13338238D01*
X14179286Y-13290619D01*
X14188809Y-13262048D01*
X14198333Y-13243000D01*
X14217381Y-13214428D01*
X14226905Y-13204905D01*
X14388809Y-13300143D02*
X14388809Y-13433476D01*
X14341190Y-13223952D02*
X14293571Y-13366809D01*
X14417381Y-13366809D01*
X14645952Y-13433476D02*
X14645952Y-13233476D01*
X14731667Y-13433476D02*
X14731667Y-13328714D01*
X14722143Y-13309667D01*
X14703095Y-13300143D01*
X14674524Y-13300143D01*
X14655476Y-13309667D01*
X14645952Y-13319190D01*
X14855476Y-13433476D02*
X14836428Y-13423952D01*
X14826905Y-13414428D01*
X14817381Y-13395381D01*
X14817381Y-13338238D01*
X14826905Y-13319190D01*
X14836428Y-13309667D01*
X14855476Y-13300143D01*
X14884048Y-13300143D01*
X14903095Y-13309667D01*
X14912619Y-13319190D01*
X14922143Y-13338238D01*
X14922143Y-13395381D01*
X14912619Y-13414428D01*
X14903095Y-13423952D01*
X14884048Y-13433476D01*
X14855476Y-13433476D01*
X15036428Y-13433476D02*
X15017381Y-13423952D01*
X15007857Y-13404905D01*
X15007857Y-13233476D01*
X15188809Y-13423952D02*
X15169762Y-13433476D01*
X15131667Y-13433476D01*
X15112619Y-13423952D01*
X15103095Y-13404905D01*
X15103095Y-13328714D01*
X15112619Y-13309667D01*
X15131667Y-13300143D01*
X15169762Y-13300143D01*
X15188809Y-13309667D01*
X15198333Y-13328714D01*
X15198333Y-13347762D01*
X15103095Y-13366809D01*
X15274524Y-13423952D02*
X15293571Y-13433476D01*
X15331667Y-13433476D01*
X15350714Y-13423952D01*
X15360238Y-13404905D01*
X15360238Y-13395381D01*
X15350714Y-13376333D01*
X15331667Y-13366809D01*
X15303095Y-13366809D01*
X15284048Y-13357286D01*
X15274524Y-13338238D01*
X15274524Y-13328714D01*
X15284048Y-13309667D01*
X15303095Y-13300143D01*
X15331667Y-13300143D01*
X15350714Y-13309667D01*
X15426905Y-13509667D02*
X15436428Y-13500143D01*
X15455476Y-13471571D01*
X15465000Y-13452524D01*
X15474524Y-13423952D01*
X15484048Y-13376333D01*
X15484048Y-13338238D01*
X15474524Y-13290619D01*
X15465000Y-13262048D01*
X15455476Y-13243000D01*
X15436428Y-13214428D01*
X15426905Y-13204905D01*
D10*
X10640356Y-13642356D02*
X10640356Y-13571644D01*
X10569644Y-13571644D01*
X10569644Y-13642356D01*
X10640356Y-13642356D01*
D11*
X11017381Y-13697476D02*
X10903095Y-13697476D01*
X10960238Y-13697476D02*
X10960238Y-13497476D01*
X10941190Y-13526048D01*
X10922143Y-13545095D01*
X10903095Y-13554619D01*
X11103095Y-13678428D02*
X11112619Y-13687952D01*
X11103095Y-13697476D01*
X11093571Y-13687952D01*
X11103095Y-13678428D01*
X11103095Y-13697476D01*
X11236428Y-13497476D02*
X11255476Y-13497476D01*
X11274524Y-13507000D01*
X11284048Y-13516524D01*
X11293571Y-13535571D01*
X11303095Y-13573667D01*
X11303095Y-13621286D01*
X11293571Y-13659381D01*
X11284048Y-13678428D01*
X11274524Y-13687952D01*
X11255476Y-13697476D01*
X11236428Y-13697476D01*
X11217381Y-13687952D01*
X11207857Y-13678428D01*
X11198333Y-13659381D01*
X11188809Y-13621286D01*
X11188809Y-13573667D01*
X11198333Y-13535571D01*
X11207857Y-13516524D01*
X11217381Y-13507000D01*
X11236428Y-13497476D01*
X11426905Y-13497476D02*
X11445952Y-13497476D01*
X11465000Y-13507000D01*
X11474524Y-13516524D01*
X11484048Y-13535571D01*
X11493571Y-13573667D01*
X11493571Y-13621286D01*
X11484048Y-13659381D01*
X11474524Y-13678428D01*
X11465000Y-13687952D01*
X11445952Y-13697476D01*
X11426905Y-13697476D01*
X11407857Y-13687952D01*
X11398333Y-13678428D01*
X11388809Y-13659381D01*
X11379286Y-13621286D01*
X11379286Y-13573667D01*
X11388809Y-13535571D01*
X11398333Y-13516524D01*
X11407857Y-13507000D01*
X11426905Y-13497476D01*
X11617381Y-13497476D02*
X11636428Y-13497476D01*
X11655476Y-13507000D01*
X11665000Y-13516524D01*
X11674524Y-13535571D01*
X11684048Y-13573667D01*
X11684048Y-13621286D01*
X11674524Y-13659381D01*
X11665000Y-13678428D01*
X11655476Y-13687952D01*
X11636428Y-13697476D01*
X11617381Y-13697476D01*
X11598333Y-13687952D01*
X11588809Y-13678428D01*
X11579286Y-13659381D01*
X11569762Y-13621286D01*
X11569762Y-13573667D01*
X11579286Y-13535571D01*
X11588809Y-13516524D01*
X11598333Y-13507000D01*
X11617381Y-13497476D01*
X11769762Y-13697476D02*
X11769762Y-13564143D01*
X11769762Y-13583190D02*
X11779286Y-13573667D01*
X11798333Y-13564143D01*
X11826905Y-13564143D01*
X11845952Y-13573667D01*
X11855476Y-13592714D01*
X11855476Y-13697476D01*
X11855476Y-13592714D02*
X11865000Y-13573667D01*
X11884048Y-13564143D01*
X11912619Y-13564143D01*
X11931667Y-13573667D01*
X11941190Y-13592714D01*
X11941190Y-13697476D01*
X12036428Y-13697476D02*
X12036428Y-13564143D01*
X12036428Y-13583190D02*
X12045952Y-13573667D01*
X12065000Y-13564143D01*
X12093571Y-13564143D01*
X12112619Y-13573667D01*
X12122143Y-13592714D01*
X12122143Y-13697476D01*
X12122143Y-13592714D02*
X12131667Y-13573667D01*
X12150714Y-13564143D01*
X12179286Y-13564143D01*
X12198333Y-13573667D01*
X12207857Y-13592714D01*
X12207857Y-13697476D01*
X12598333Y-13487952D02*
X12426905Y-13745095D01*
X12855476Y-13497476D02*
X12874524Y-13497476D01*
X12893571Y-13507000D01*
X12903095Y-13516524D01*
X12912619Y-13535571D01*
X12922143Y-13573667D01*
X12922143Y-13621286D01*
X12912619Y-13659381D01*
X12903095Y-13678428D01*
X12893571Y-13687952D01*
X12874524Y-13697476D01*
X12855476Y-13697476D01*
X12836428Y-13687952D01*
X12826905Y-13678428D01*
X12817381Y-13659381D01*
X12807857Y-13621286D01*
X12807857Y-13573667D01*
X12817381Y-13535571D01*
X12826905Y-13516524D01*
X12836428Y-13507000D01*
X12855476Y-13497476D01*
X13007857Y-13678428D02*
X13017381Y-13687952D01*
X13007857Y-13697476D01*
X12998333Y-13687952D01*
X13007857Y-13678428D01*
X13007857Y-13697476D01*
X13141190Y-13497476D02*
X13160238Y-13497476D01*
X13179286Y-13507000D01*
X13188809Y-13516524D01*
X13198333Y-13535571D01*
X13207857Y-13573667D01*
X13207857Y-13621286D01*
X13198333Y-13659381D01*
X13188809Y-13678428D01*
X13179286Y-13687952D01*
X13160238Y-13697476D01*
X13141190Y-13697476D01*
X13122143Y-13687952D01*
X13112619Y-13678428D01*
X13103095Y-13659381D01*
X13093571Y-13621286D01*
X13093571Y-13573667D01*
X13103095Y-13535571D01*
X13112619Y-13516524D01*
X13122143Y-13507000D01*
X13141190Y-13497476D01*
X13274524Y-13497476D02*
X13398333Y-13497476D01*
X13331667Y-13573667D01*
X13360238Y-13573667D01*
X13379286Y-13583190D01*
X13388809Y-13592714D01*
X13398333Y-13611762D01*
X13398333Y-13659381D01*
X13388809Y-13678428D01*
X13379286Y-13687952D01*
X13360238Y-13697476D01*
X13303095Y-13697476D01*
X13284048Y-13687952D01*
X13274524Y-13678428D01*
X13493571Y-13697476D02*
X13531667Y-13697476D01*
X13550714Y-13687952D01*
X13560238Y-13678428D01*
X13579286Y-13649857D01*
X13588809Y-13611762D01*
X13588809Y-13535571D01*
X13579286Y-13516524D01*
X13569762Y-13507000D01*
X13550714Y-13497476D01*
X13512619Y-13497476D01*
X13493571Y-13507000D01*
X13484048Y-13516524D01*
X13474524Y-13535571D01*
X13474524Y-13583190D01*
X13484048Y-13602238D01*
X13493571Y-13611762D01*
X13512619Y-13621286D01*
X13550714Y-13621286D01*
X13569762Y-13611762D01*
X13579286Y-13602238D01*
X13588809Y-13583190D01*
X13760238Y-13564143D02*
X13760238Y-13697476D01*
X13712619Y-13487952D02*
X13665000Y-13630809D01*
X13788809Y-13630809D01*
X13855476Y-13497476D02*
X13855476Y-13535571D01*
X13931667Y-13497476D02*
X13931667Y-13535571D01*
X14226905Y-13773667D02*
X14217381Y-13764143D01*
X14198333Y-13735571D01*
X14188809Y-13716524D01*
X14179286Y-13687952D01*
X14169762Y-13640333D01*
X14169762Y-13602238D01*
X14179286Y-13554619D01*
X14188809Y-13526048D01*
X14198333Y-13507000D01*
X14217381Y-13478428D01*
X14226905Y-13468905D01*
X14388809Y-13497476D02*
X14350714Y-13497476D01*
X14331667Y-13507000D01*
X14322143Y-13516524D01*
X14303095Y-13545095D01*
X14293571Y-13583190D01*
X14293571Y-13659381D01*
X14303095Y-13678428D01*
X14312619Y-13687952D01*
X14331667Y-13697476D01*
X14369762Y-13697476D01*
X14388809Y-13687952D01*
X14398333Y-13678428D01*
X14407857Y-13659381D01*
X14407857Y-13611762D01*
X14398333Y-13592714D01*
X14388809Y-13583190D01*
X14369762Y-13573667D01*
X14331667Y-13573667D01*
X14312619Y-13583190D01*
X14303095Y-13592714D01*
X14293571Y-13611762D01*
X14522143Y-13583190D02*
X14503095Y-13573667D01*
X14493571Y-13564143D01*
X14484048Y-13545095D01*
X14484048Y-13535571D01*
X14493571Y-13516524D01*
X14503095Y-13507000D01*
X14522143Y-13497476D01*
X14560238Y-13497476D01*
X14579286Y-13507000D01*
X14588809Y-13516524D01*
X14598333Y-13535571D01*
X14598333Y-13545095D01*
X14588809Y-13564143D01*
X14579286Y-13573667D01*
X14560238Y-13583190D01*
X14522143Y-13583190D01*
X14503095Y-13592714D01*
X14493571Y-13602238D01*
X14484048Y-13621286D01*
X14484048Y-13659381D01*
X14493571Y-13678428D01*
X14503095Y-13687952D01*
X14522143Y-13697476D01*
X14560238Y-13697476D01*
X14579286Y-13687952D01*
X14588809Y-13678428D01*
X14598333Y-13659381D01*
X14598333Y-13621286D01*
X14588809Y-13602238D01*
X14579286Y-13592714D01*
X14560238Y-13583190D01*
X14836428Y-13697476D02*
X14836428Y-13497476D01*
X14922143Y-13697476D02*
X14922143Y-13592714D01*
X14912619Y-13573667D01*
X14893571Y-13564143D01*
X14865000Y-13564143D01*
X14845952Y-13573667D01*
X14836428Y-13583190D01*
X15045952Y-13697476D02*
X15026905Y-13687952D01*
X15017381Y-13678428D01*
X15007857Y-13659381D01*
X15007857Y-13602238D01*
X15017381Y-13583190D01*
X15026905Y-13573667D01*
X15045952Y-13564143D01*
X15074524Y-13564143D01*
X15093571Y-13573667D01*
X15103095Y-13583190D01*
X15112619Y-13602238D01*
X15112619Y-13659381D01*
X15103095Y-13678428D01*
X15093571Y-13687952D01*
X15074524Y-13697476D01*
X15045952Y-13697476D01*
X15226905Y-13697476D02*
X15207857Y-13687952D01*
X15198333Y-13668905D01*
X15198333Y-13497476D01*
X15379286Y-13687952D02*
X15360238Y-13697476D01*
X15322143Y-13697476D01*
X15303095Y-13687952D01*
X15293571Y-13668905D01*
X15293571Y-13592714D01*
X15303095Y-13573667D01*
X15322143Y-13564143D01*
X15360238Y-13564143D01*
X15379286Y-13573667D01*
X15388809Y-13592714D01*
X15388809Y-13611762D01*
X15293571Y-13630809D01*
X15465000Y-13687952D02*
X15484048Y-13697476D01*
X15522143Y-13697476D01*
X15541190Y-13687952D01*
X15550714Y-13668905D01*
X15550714Y-13659381D01*
X15541190Y-13640333D01*
X15522143Y-13630809D01*
X15493571Y-13630809D01*
X15474524Y-13621286D01*
X15465000Y-13602238D01*
X15465000Y-13592714D01*
X15474524Y-13573667D01*
X15493571Y-13564143D01*
X15522143Y-13564143D01*
X15541190Y-13573667D01*
X15617381Y-13773667D02*
X15626905Y-13764143D01*
X15645952Y-13735571D01*
X15655476Y-13716524D01*
X15665000Y-13687952D01*
X15674524Y-13640333D01*
X15674524Y-13602238D01*
X15665000Y-13554619D01*
X15655476Y-13526048D01*
X15645952Y-13507000D01*
X15626905Y-13478428D01*
X15617381Y-13468905D01*
D15*
X10600000Y-13926000D02*
X10655000Y-13871000D01*
X10600000Y-13816000D01*
X10545000Y-13871000D01*
X10600000Y-13926000D01*
D11*
X11017381Y-13961476D02*
X10903095Y-13961476D01*
X10960238Y-13961476D02*
X10960238Y-13761476D01*
X10941190Y-13790048D01*
X10922143Y-13809095D01*
X10903095Y-13818619D01*
X11103095Y-13942428D02*
X11112619Y-13951952D01*
X11103095Y-13961476D01*
X11093571Y-13951952D01*
X11103095Y-13942428D01*
X11103095Y-13961476D01*
X11303095Y-13961476D02*
X11188809Y-13961476D01*
X11245952Y-13961476D02*
X11245952Y-13761476D01*
X11226905Y-13790048D01*
X11207857Y-13809095D01*
X11188809Y-13818619D01*
X11426905Y-13761476D02*
X11445952Y-13761476D01*
X11465000Y-13771000D01*
X11474524Y-13780524D01*
X11484048Y-13799571D01*
X11493571Y-13837667D01*
X11493571Y-13885286D01*
X11484048Y-13923381D01*
X11474524Y-13942428D01*
X11465000Y-13951952D01*
X11445952Y-13961476D01*
X11426905Y-13961476D01*
X11407857Y-13951952D01*
X11398333Y-13942428D01*
X11388809Y-13923381D01*
X11379286Y-13885286D01*
X11379286Y-13837667D01*
X11388809Y-13799571D01*
X11398333Y-13780524D01*
X11407857Y-13771000D01*
X11426905Y-13761476D01*
X11617381Y-13761476D02*
X11636428Y-13761476D01*
X11655476Y-13771000D01*
X11665000Y-13780524D01*
X11674524Y-13799571D01*
X11684048Y-13837667D01*
X11684048Y-13885286D01*
X11674524Y-13923381D01*
X11665000Y-13942428D01*
X11655476Y-13951952D01*
X11636428Y-13961476D01*
X11617381Y-13961476D01*
X11598333Y-13951952D01*
X11588809Y-13942428D01*
X11579286Y-13923381D01*
X11569762Y-13885286D01*
X11569762Y-13837667D01*
X11579286Y-13799571D01*
X11588809Y-13780524D01*
X11598333Y-13771000D01*
X11617381Y-13761476D01*
X11769762Y-13961476D02*
X11769762Y-13828143D01*
X11769762Y-13847190D02*
X11779286Y-13837667D01*
X11798333Y-13828143D01*
X11826905Y-13828143D01*
X11845952Y-13837667D01*
X11855476Y-13856714D01*
X11855476Y-13961476D01*
X11855476Y-13856714D02*
X11865000Y-13837667D01*
X11884048Y-13828143D01*
X11912619Y-13828143D01*
X11931667Y-13837667D01*
X11941190Y-13856714D01*
X11941190Y-13961476D01*
X12036428Y-13961476D02*
X12036428Y-13828143D01*
X12036428Y-13847190D02*
X12045952Y-13837667D01*
X12065000Y-13828143D01*
X12093571Y-13828143D01*
X12112619Y-13837667D01*
X12122143Y-13856714D01*
X12122143Y-13961476D01*
X12122143Y-13856714D02*
X12131667Y-13837667D01*
X12150714Y-13828143D01*
X12179286Y-13828143D01*
X12198333Y-13837667D01*
X12207857Y-13856714D01*
X12207857Y-13961476D01*
X12598333Y-13751952D02*
X12426905Y-14009095D01*
X12855476Y-13761476D02*
X12874524Y-13761476D01*
X12893571Y-13771000D01*
X12903095Y-13780524D01*
X12912619Y-13799571D01*
X12922143Y-13837667D01*
X12922143Y-13885286D01*
X12912619Y-13923381D01*
X12903095Y-13942428D01*
X12893571Y-13951952D01*
X12874524Y-13961476D01*
X12855476Y-13961476D01*
X12836428Y-13951952D01*
X12826905Y-13942428D01*
X12817381Y-13923381D01*
X12807857Y-13885286D01*
X12807857Y-13837667D01*
X12817381Y-13799571D01*
X12826905Y-13780524D01*
X12836428Y-13771000D01*
X12855476Y-13761476D01*
X13007857Y-13942428D02*
X13017381Y-13951952D01*
X13007857Y-13961476D01*
X12998333Y-13951952D01*
X13007857Y-13942428D01*
X13007857Y-13961476D01*
X13141190Y-13761476D02*
X13160238Y-13761476D01*
X13179286Y-13771000D01*
X13188809Y-13780524D01*
X13198333Y-13799571D01*
X13207857Y-13837667D01*
X13207857Y-13885286D01*
X13198333Y-13923381D01*
X13188809Y-13942428D01*
X13179286Y-13951952D01*
X13160238Y-13961476D01*
X13141190Y-13961476D01*
X13122143Y-13951952D01*
X13112619Y-13942428D01*
X13103095Y-13923381D01*
X13093571Y-13885286D01*
X13093571Y-13837667D01*
X13103095Y-13799571D01*
X13112619Y-13780524D01*
X13122143Y-13771000D01*
X13141190Y-13761476D01*
X13379286Y-13828143D02*
X13379286Y-13961476D01*
X13331667Y-13751952D02*
X13284048Y-13894809D01*
X13407857Y-13894809D01*
X13465000Y-13761476D02*
X13588809Y-13761476D01*
X13522143Y-13837667D01*
X13550714Y-13837667D01*
X13569762Y-13847190D01*
X13579286Y-13856714D01*
X13588809Y-13875762D01*
X13588809Y-13923381D01*
X13579286Y-13942428D01*
X13569762Y-13951952D01*
X13550714Y-13961476D01*
X13493571Y-13961476D01*
X13474524Y-13951952D01*
X13465000Y-13942428D01*
X13655476Y-13761476D02*
X13779286Y-13761476D01*
X13712619Y-13837667D01*
X13741190Y-13837667D01*
X13760238Y-13847190D01*
X13769762Y-13856714D01*
X13779286Y-13875762D01*
X13779286Y-13923381D01*
X13769762Y-13942428D01*
X13760238Y-13951952D01*
X13741190Y-13961476D01*
X13684048Y-13961476D01*
X13665000Y-13951952D01*
X13655476Y-13942428D01*
X13855476Y-13761476D02*
X13855476Y-13799571D01*
X13931667Y-13761476D02*
X13931667Y-13799571D01*
X14226905Y-14037667D02*
X14217381Y-14028143D01*
X14198333Y-13999571D01*
X14188809Y-13980524D01*
X14179286Y-13951952D01*
X14169762Y-13904333D01*
X14169762Y-13866238D01*
X14179286Y-13818619D01*
X14188809Y-13790048D01*
X14198333Y-13771000D01*
X14217381Y-13742428D01*
X14226905Y-13732905D01*
X14284048Y-13761476D02*
X14407857Y-13761476D01*
X14341190Y-13837667D01*
X14369762Y-13837667D01*
X14388809Y-13847190D01*
X14398333Y-13856714D01*
X14407857Y-13875762D01*
X14407857Y-13923381D01*
X14398333Y-13942428D01*
X14388809Y-13951952D01*
X14369762Y-13961476D01*
X14312619Y-13961476D01*
X14293571Y-13951952D01*
X14284048Y-13942428D01*
X14645952Y-13961476D02*
X14645952Y-13761476D01*
X14731667Y-13961476D02*
X14731667Y-13856714D01*
X14722143Y-13837667D01*
X14703095Y-13828143D01*
X14674524Y-13828143D01*
X14655476Y-13837667D01*
X14645952Y-13847190D01*
X14855476Y-13961476D02*
X14836428Y-13951952D01*
X14826905Y-13942428D01*
X14817381Y-13923381D01*
X14817381Y-13866238D01*
X14826905Y-13847190D01*
X14836428Y-13837667D01*
X14855476Y-13828143D01*
X14884048Y-13828143D01*
X14903095Y-13837667D01*
X14912619Y-13847190D01*
X14922143Y-13866238D01*
X14922143Y-13923381D01*
X14912619Y-13942428D01*
X14903095Y-13951952D01*
X14884048Y-13961476D01*
X14855476Y-13961476D01*
X15036428Y-13961476D02*
X15017381Y-13951952D01*
X15007857Y-13932905D01*
X15007857Y-13761476D01*
X15188809Y-13951952D02*
X15169762Y-13961476D01*
X15131667Y-13961476D01*
X15112619Y-13951952D01*
X15103095Y-13932905D01*
X15103095Y-13856714D01*
X15112619Y-13837667D01*
X15131667Y-13828143D01*
X15169762Y-13828143D01*
X15188809Y-13837667D01*
X15198333Y-13856714D01*
X15198333Y-13875762D01*
X15103095Y-13894809D01*
X15274524Y-13951952D02*
X15293571Y-13961476D01*
X15331667Y-13961476D01*
X15350714Y-13951952D01*
X15360238Y-13932905D01*
X15360238Y-13923381D01*
X15350714Y-13904333D01*
X15331667Y-13894809D01*
X15303095Y-13894809D01*
X15284048Y-13885286D01*
X15274524Y-13866238D01*
X15274524Y-13856714D01*
X15284048Y-13837667D01*
X15303095Y-13828143D01*
X15331667Y-13828143D01*
X15350714Y-13837667D01*
X15426905Y-14037667D02*
X15436428Y-14028143D01*
X15455476Y-13999571D01*
X15465000Y-13980524D01*
X15474524Y-13951952D01*
X15484048Y-13904333D01*
X15484048Y-13866238D01*
X15474524Y-13818619D01*
X15465000Y-13790048D01*
X15455476Y-13771000D01*
X15436428Y-13742428D01*
X15426905Y-13732905D01*
M02*
