<?xml version="1.0" encoding="UTF-8" standalone="no"?>
<svg
   inkscape:export-ydpi="300"
   inkscape:export-xdpi="300"
   inkscape:export-filename="C:\Users\Corey\Downloads\MadeAtMH_simplified.png"
   version="1.1"
   x="0px"
   y="0px"
   viewBox="0 0 800 800"
   style="enable-background:new 0 0 800 800;"
   xml:space="preserve"
   id="svg356"
   sodipodi:docname="MadeAtMH_simplified.svg"
   inkscape:version="1.1.1 (3bf5ae0d25, 2021-09-20)"
   xmlns:inkscape="http://www.inkscape.org/namespaces/inkscape"
   xmlns:sodipodi="http://sodipodi.sourceforge.net/DTD/sodipodi-0.dtd"
   xmlns="http://www.w3.org/2000/svg"
   xmlns:svg="http://www.w3.org/2000/svg"
   xmlns:rdf="http://www.w3.org/1999/02/22-rdf-syntax-ns#"
   xmlns:cc="http://creativecommons.org/ns#"
   xmlns:dc="http://purl.org/dc/elements/1.1/"><metadata
   id="metadata362"><rdf:RDF><cc:Work
       rdf:about=""><dc:format>image/svg+xml</dc:format><dc:type
         rdf:resource="http://purl.org/dc/dcmitype/StillImage" /><dc:title /></cc:Work></rdf:RDF></metadata><defs
   id="defs360">
		
	
			
			
			
			
			
			
			
			
				
		




</defs><sodipodi:namedview
   pagecolor="#ffffff"
   bordercolor="#666666"
   borderopacity="1"
   objecttolerance="10"
   gridtolerance="10"
   guidetolerance="10"
   inkscape:pageopacity="0"
   inkscape:pageshadow="2"
   inkscape:window-width="1920"
   inkscape:window-height="991"
   id="namedview358"
   showgrid="false"
   showguides="false"
   inkscape:zoom="0.56"
   inkscape:cx="208.03571"
   inkscape:cy="281.25"
   inkscape:window-x="-9"
   inkscape:window-y="-9"
   inkscape:window-maximized="1"
   inkscape:current-layer="_x38__1_"
   inkscape:document-rotation="0"
   inkscape:pagecheckerboard="1" />
<style
   type="text/css"
   id="style2">
	.st0{fill:#981B1F;}
	.st1{fill-rule:evenodd;clip-rule:evenodd;fill:#981B1F;}
	.st2{fill:#FFFFFF;}
	.st3{fill:none;}
	.st4{fill:none;stroke:#8A1919;stroke-width:5;stroke-miterlimit:10;}
</style>
<g
   id="_x31_3">
</g>
<g
   id="_x31_2_1_">
</g>
<g
   id="_x31_1_1_">
</g>
<g
   id="_x31_0_1_">
</g>
<g
   id="_x39__1_">
</g>
<g
   id="_x38__1_">
	<circle
   inkscape:export-ydpi="300"
   inkscape:export-xdpi="300"
   r="296.7323"
   cy="400"
   cx="400"
   id="path871"
   style="font-variation-settings:'wght' 600;fill:#ffffff;fill-rule:evenodd;stroke-width:10.8283;stroke-linecap:round" /><g
   inkscape:export-ydpi="300"
   inkscape:export-xdpi="300"
   aria-label="A"
   transform="matrix(0.83106863,0.45577536,-0.50800662,0.92466864,0,0)"
   id="text1171"
   style="font-style:normal;font-weight:normal;font-size:73.2998px;line-height:1.25;font-family:sans-serif;letter-spacing:0px;word-spacing:0px;fill:#981b1f;fill-opacity:1;stroke:none;stroke-width:0.947842" /><g
   id="text1175"
   style="font-style:normal;font-weight:normal;font-size:40px;line-height:1.25;font-family:sans-serif;letter-spacing:0px;word-spacing:0px;fill:#000000;fill-opacity:1;stroke:none" /><g
   inkscape:export-ydpi="300"
   inkscape:export-xdpi="300"
   aria-label="T"
   transform="matrix(0.71204415,0.5772348,-0.68701508,0.84746287,0,0)"
   id="text1179"
   style="font-style:normal;font-weight:normal;font-size:36.6651px;line-height:1.25;font-family:sans-serif;letter-spacing:0px;word-spacing:0px;fill:#981b1f;fill-opacity:1;stroke:none;stroke-width:0.916628" /><g
   inkscape:export-ydpi="300"
   inkscape:export-xdpi="300"
   aria-label="T"
   transform="matrix(-0.72954512,-0.55495118,0.66049349,-0.86829223,-9.6005846,21.799802)"
   id="text1179-1"
   style="font-style:normal;font-weight:normal;font-size:36.6651px;line-height:1.25;font-family:sans-serif;letter-spacing:0px;word-spacing:0px;fill:#981b1f;fill-opacity:1;stroke:none;stroke-width:0.916628"><path
     id="path943"
     style="font-style:normal;font-variant:normal;font-weight:bold;font-stretch:normal;font-size:67.2194px;font-family:sans-serif;-inkscape-font-specification:'sans-serif Bold';fill:#981b1f;fill-opacity:1;stroke-width:0.916628"
     d="m -636.23489,-299.90698 h 45.16303 v 9.55119 h -16.24687 v 39.45201 h -12.63646 v -39.45201 h -16.2797 z m 53.0829,503.23385 -45.14145,-1.17284 0.35135,-9.54663 16.23911,0.42191 1.45129,-39.43316 12.63042,0.32816 -1.45129,39.43316 16.27192,0.42277 z m 13.49479,-43.06198 22.03409,-2.77285 1.82568,-9.7493 14.16476,-1.78254 -11.17579,53.65888 -16.80008,2.11419 -29.30543,-48.56457 14.16476,-1.78255 z m 20.20216,7.15221 -14.96999,1.88388 11.07319,19.39551 z M -878.30007,31.250084 -876.21616,29.9182 c -15.3406,-37.3836477 -18.25191,-77.541395 -9.15467,-116.24451 l -2.45352,-0.741797 c -9.32654,39.50964 -6.47088,80.3629358 9.52428,118.318191 z m 432.23588,-276.254694 -2.17073,1.38738 c -38.69765,-22.45546 -84.06846,-35.4761 -130.88924,-38.44036 l -0.0223,-2.29566 c 47.54659,3.16034 93.64321,16.37706 133.08226,39.34864 z m -133.4869,-48.87968 c 51.38939,3.01422 101.06759,17.46172 143.06186,42.65004 l -2.25755,1.44287 c -41.40279,-24.68638 -90.29209,-38.86813 -140.82133,-41.9921 z m 115.33959,60.47816 -2.17072,1.38738 c -33.60282,-18.342 -72.36262,-29.20816 -112.2318,-32.21555 l -0.0223,-2.29566 c 40.70557,3.0228 80.16743,14.21023 114.42482,33.12383 z m 8.94342,-5.716 -2.3444,1.49837 c -36.03186,-20.41939 -77.94726,-32.3486 -121.39872,-35.37635 l -0.0223,-2.29566 c 44.20103,3.09866 86.90533,15.29364 123.76543,36.17364 z m -443.64088,149.348887 c -10.25937,42.415754 -6.94798,86.4976524 10.73411,127.224596 l 2.17074,-1.387378 c -17.26426,-40.1140289 -20.48138,-83.486201 -10.49067,-125.290274 z m 38.58254,109.535838 2.17074,-1.387378 c -11.98233,-32.160274 -14.18704,-66.389882 -6.99477,-99.475626 l -2.62717,-0.630803 c -7.39783,33.767098 -5.01204,68.650934 7.4512,101.493807 z m -8.85658,5.660502 2.17074,-1.387379 c -13.80358,-34.626134 -16.21168,-71.80563 -8.17343,-107.741989 l -2.62717,-0.630802 c -8.15699,36.562215 -5.5678,74.3959483 8.62986,109.76017 z m 516.04637,-183.024657 -2.22218,1.42026 c 21.51483,44.53279 29.50116,91.326666 24.17623,135.351865 l 2.96954,0.955133 c 5.29091,-44.682743 -2.8853,-92.306298 -24.92359,-137.727258 z m -442.47989,282.80195 2.13329,-1.36345 c 45.42546,29.25081 96.87757,48.26442 148.79591,55.70375 l 0.48068,2.54582 c -52.93012,-7.47195 -105.3721,-26.80395 -151.4099,-56.88611 z m 152.74448,68.12461 c -56.95532,-7.88824 -113.33472,-28.77948 -162.7108,-61.61898 l 2.22217,-1.42026 c 48.66387,32.20782 104.22023,52.80993 160.25267,60.60873 z m -134.34485,-79.88436 2.22218,-1.42025 c 39.31625,24.05282 83.22712,40.00643 127.49561,46.90066 l 0.3029,2.65943 c -45.19138,-6.98366 -89.91432,-23.36928 -130.02069,-48.13984 z m -9.06648,5.79466 2.22217,-1.42026 c 42.15412,26.72241 89.8466,44.06315 137.97347,51.3444 l 0.30292,2.65942 c -48.9609,-7.42749 -97.46543,-25.20022 -140.49856,-52.58356 z m 470.33802,-134.858788 c 6.1545,-48.223591 -2.75921,-99.451562 -27.2469,-148.197972 l -2.31107,1.47707 c 23.95327,48.00111 32.75502,98.485474 26.83315,145.881089 z m -55.76868,-130.104712 -2.22218,1.42026 c 17.18337,38.19861 23.67277,78.069374 19.76447,115.754817 l 2.96952,0.955117 c 4.05207,-38.456588 -2.7161,-79.100234 -20.51181,-118.130194 z m 9.15538,-5.85146 -2.39997,1.53388 c 19.39905,41.26585 26.64788,84.455308 22.06473,125.425093 l 2.96952,0.955118 c 4.63802,-41.684135 -2.80068,-85.703271 -22.63431,-127.914091 z M -403.86819,174.051 c 146.22041,-93.453785 174.51502,-269.317788 63.42002,-392.02727 -111.22711,-122.8554 -320.36509,-146.74115 -466.5855,-53.28737 -146.04675,93.34279 -174.64752,269.1743852 -63.42041,392.02978 111.095,122.70949 320.53914,146.62765 466.58589,53.28486 z m -8.71799,-9.62943 c -134.22176,85.78508 -324.09852,68.05194 -433.14753,-37.4582 l 76.5437,-48.921332 c 36.43728,35.002342 85.66996,56.156982 137.18497,62.040222 56.34614,6.36955 115.6877,-5.2994 164.48572,-36.48765 48.79803,-31.188256 77.93477,-76.068399 85.75542,-123.448853 6.9415,-43.349116 -3.98667,-88.897757 -34.37375,-127.749907 l 76.28763,-48.75767 c 91.90708,116.466083 61.48562,274.99829 -72.73616,360.78339 z m -51.09013,-95.645065 c -2.51804,1.609357 -6.18832,1.190195 -8.10376,-0.925486 -1.05678,-1.167272 -1.35264,-2.705266 -0.97117,-4.100752 l -25.91027,-17.414725 -19.10242,12.208925 -0.11392,15.620567 13.06989,5.352165 c 0.36809,-0.35043 0.64892,-0.646434 1.08308,-0.923911 2.51804,-1.609359 6.18832,-1.190196 8.10374,0.925485 1.91544,2.115681 1.50339,5.143978 -1.10148,6.808832 -2.51806,1.609361 -6.18663,1.189111 -8.10207,-0.926567 -0.72655,-0.802499 -1.03972,-1.754024 -1.1132,-2.743585 l -15.76407,-6.509439 -1.24364,-0.01044 0.21238,-14.302372 -19.97073,12.763878 -5.08528,-5.616928 c -11.07258,6.846475 -22.98857,3.980645 -30.51819,-4.336169 -7.52962,-8.316814 -6.05117,-19.856352 3.1735,-25.867284 l -18.6254,-20.572603 16.32288,-10.4324342 -8.98373,-9.9229512 -42.71931,27.3031654 c -1.91927,-2.119919 -3.85065,-4.231424 -5.77771,-6.346312 -0.68506,0.432083 -1.6156,0.962904 -2.2137,1.342862 -21.08658,13.389183 -44.14022,18.175451 -70.76321,24.703446 -1.30171,9.008933 -9.37354,17.048447 -21.13629,19.498951 -10.8223,2.232355 -21.59318,-0.916864 -27.97894,-7.315461 l -27.0646,17.297786 -8.27036,-9.134994 32.03353,-20.473575 -7.78659,-8.600651 7.73492,-4.943622 -9.67261,-10.683844 -7.73493,4.94362 -7.78661,-8.600658 -32.03353,20.473576 -8.27165,-9.136407 42.90755,-27.42347397 41.78782,46.15655497 -6.1391,3.923677 c 3.58073,3.568802 9.54715,5.329193 15.51368,4.109675 5.36587,-1.12116 9.39492,-4.338137 11.06824,-8.225726 l 31.68587,-20.251378 c 0,0 13.41189,0.384308 45.19595,-17.4321897 -2.13983,-2.3346249 -4.27922,-4.6701207 -6.42103,-7.0035995 L -530.1366,-74.744046 c 2.16933,2.423239 4.33037,4.851975 6.49358,7.278901 13.20626,-9.611719 19.35614,-16.070243 21.82575,-20.038574 2.936,-3.345609 5.53761,-6.871547 8.00649,-10.457233 l 34.95216,-22.338968 c 4.20135,-0.74182 8.07572,-3.03502 10.44459,-6.56072 3.28113,-5.08187 2.41587,-11.06506 -1.7544,-14.9371 -0.39763,1.34123 -1.2367,2.04831 -2.58117,2.90937 -3.48289,2.23062 -5.20786,1.924 -20.77351,-3.70365 l -14.21283,-5.13904 -10.36704,-11.65489 -10.36831,-11.65632 0.21084,-1.69808 c 0.28365,-2.27936 2.40566,-3.63372 5.09575,-3.25453 1.92202,0.27091 2.25832,0.54621 8.22511,6.75481 6.07838,6.32473 6.28613,6.4929 8.98495,7.28364 3.26034,0.95526 8.18491,0.26609 11.03198,-1.54434 2.70205,-1.71891 4.77509,-5.58287 4.58366,-8.54853 -0.15553,-2.40974 -0.2607,-2.57286 -5.89836,-9.19115 -5.50159,-6.45859 -5.72947,-6.80738 -5.52658,-8.43455 0.28415,-2.2787 2.40508,-3.63458 5.09443,-3.25599 l 2.00398,0.28251 10.54062,11.40899 10.54063,11.40898 2.12441,13.21375 c 0.49879,3.10013 0.86242,5.48791 1.12697,7.49899 l 2.66637,-4.01878 c 12.59391,5.88626 16.80886,19.77618 9.30666,31.02051 -5.88437,8.94345 -17.26064,13.33605 -28.00742,11.91249 -14.59374,19.814837 -26.237,37.204371 -47.22279,50.704885 -0.63007,0.405003 -1.27045,0.807374 -1.91779,1.205447 2.03734,2.30529 4.08037,4.60642 6.10626,6.919115 l -42.63451,27.248969 8.98374,9.922937 16.32454,-10.433505 19.15432,21.1568101 c 7.29737,-4.2032866 22.87865,-3.7974748 30.34224,4.4463848 5.53106,6.7149319 8.08736,17.8643961 -3.06463,25.6829751 l 4.55766,5.034146 -19.36359,12.375845 24.9245,16.778346 c 2.47649,-1.35246 5.81751,-0.839823 7.60083,1.129949 1.91543,2.115681 1.50508,5.142896 -1.0998,6.807751 z m -45.85692,-44.745796 c 6.07804,-3.884657 7.06333,-11.424501 2.19646,-16.9515843 -4.88765,-5.3986331 -13.86491,-6.68628658 -20.02978,-2.7461342 -6.16488,3.9401542 -7.15187,11.4810795 -2.19816,16.9526685 4.88765,5.398634 13.86661,6.685204 20.03148,2.74505 z m -32.73564,20.922309 c 6.16488,-3.940153 7.15186,-11.481077 2.19816,-16.952667 -4.88765,-5.398635 -13.86661,-6.685204 -20.03147,-2.745051 -6.16488,3.940153 -7.15017,11.479996 -2.19647,16.951585 4.88766,5.398634 13.86491,6.686286 20.02978,2.746133 z m -259.70282,42.321453 -2.06748,-0.651322 -2.57095,1.64317 -3.10768,-3.432563 -37.8594,-11.930338 23.82678,26.317777 -10.874,6.949885 -36.96957,-40.834579 -4.39517,-1.386022 c 0,0 7.3e-4,-0.0018 0.96885,-2.398492 l -1.98148,-2.188635 5.437,-3.474946 c 0.0405,-0.02586 0.0821,-0.04668 0.12267,-0.0715 0.10543,-0.06393 0.21304,-0.124065 0.32154,-0.183041 0.0904,-0.04856 0.17911,-0.09697 0.27071,-0.141586 0.10923,-0.0531 0.22041,-0.101828 0.3329,-0.14977 0.092,-0.03908 0.1841,-0.07896 0.27696,-0.11401 0.15678,-0.06001 0.31666,-0.112554 0.47939,-0.162437 0.036,-0.01098 0.0731,-0.02383 0.1088,-0.0336 1.52992,-0.447987 3.25546,-0.466914 4.8757,-0.0053 7.10636,2.027137 24.09487,7.433277 39.21037,12.301812 l -23.42172,-25.870356 5.437,-3.474948 c 3.19277,-2.04059 7.49876,-1.194683 9.79689,1.343704 l 32.4777,35.873103 c 2.33566,0.761042 3.69609,1.205259 3.69609,1.205259 l -0.80385,1.989353 2.64584,2.922459 -5.15887,3.297185 z m 225.50097,-145.624657 -10.87231,6.94881 -16.05696,-17.735638 7.73492,-4.943617 -9.67262,-10.683845 -7.73492,4.943617 -16.05824,-17.737069 10.87231,-6.948812 z m -31.85546,20.359774 -10.87401,6.949892 -41.78783,-46.156553 10.874,-6.949902 16.05826,17.73707 -7.73493,4.943618 9.67262,10.683846 7.73492,-4.943619 z m -25.96399,16.59434 -42.72947,27.309669 -41.78783,-46.156557 10.87231,-6.94881 16.05825,17.737061 -7.73323,4.942535 9.67263,10.683845 7.73322,-4.942534 7.78659,8.600653 20.98487,-13.412048 -7.7866,-8.600643 7.73492,-4.943619 -9.67261,-10.683846 -7.73493,4.943619 -16.05825,-17.737069 10.87231,-6.948809 z m -60.31946,38.412473 -40.69699,-20.3784494 12.51141,38.3926844 -13.17631,3.031842 c 0,0 -11.4124,-35.0220459 -16.26063,-49.89991 l -4.91612,-2.461177 3.4981,-4.930512 c 0.58679,-0.827232 1.36547,-1.45838 2.25047,-1.908461 0.75245,-0.596468 1.68625,-1.05977 2.79139,-1.313948 l 6.58732,-1.515368 1.51247,4.636539 c 15.77059,7.897077 52.89341,26.486829 52.89341,26.486829 z m 281.61347,-180.702771 c -3.27091,2.09054 -4.52726,2.64822 -6.48679,2.87724 -4.7677,0.55744 -3.90465,1.29966 -22.97813,-19.76785 -18.84854,-20.81908 -18.53305,-20.37781 -16.9614,-23.75279 1.60582,-3.44842 6.64786,-5.16986 10.68849,-3.65069 1.72085,0.64698 3.10608,1.96898 11.10157,10.58258 10.08736,10.86716 10.67437,11.29398 13.91888,10.15185 2.35018,-0.82733 3.40193,-1.92988 3.71998,-3.89589 l 0.26949,-1.66583 -9.14485,-10.34634 c -8.12683,-9.19529 -9.15784,-10.52339 -9.27486,-11.93005 -0.41312,-4.96554 5.41832,-8.80991 10.71963,-7.06718 1.84525,0.6066 2.68908,1.41459 10.61923,10.17107 9.20592,10.16531 10.82035,11.47851 13.64102,11.09872 3.20676,-0.43181 5.71695,-3.12642 5.08768,-5.46058 -0.21964,-0.81456 -3.37207,-4.6109 -8.92263,-10.74255 -7.47873,-8.26172 -8.63738,-9.7197 -8.99512,-11.3283 -0.86905,-3.90779 2.48967,-7.82698 6.9258,-8.08175 4.53793,-0.2606 4.12055,-0.62684 22.77487,19.98101 16.20868,17.90624 16.86691,18.69324 17.083,20.45394 0.39296,3.2013 -0.79953,4.89473 -5.6196,7.97795 -6.47249,4.14021 -7.2618,4.11954 -19.22892,-0.46878 -7.40656,-2.83974 -9.42067,-3.03276 -12.30997,-1.18611 -2.98719,1.9092 -3.27627,3.31266 -2.09065,10.1223 1.99505,11.45889 1.89304,11.81855 -4.53672,15.928 z m -76.2263,48.17187 c -2.04621,1.38473 -4.98927,1.9402 -7.7703,1.20525 -1.23247,-0.32571 -2.6955,-1.53494 -6.29694,-5.20466 -4.58659,-4.67368 -4.73963,-4.78309 -6.81046,-4.88772 -2.87366,-0.1452 -5.51412,1.54185 -6.11535,3.9085 -0.43144,1.69822 -0.33232,1.87718 3.61723,6.62719 4.44836,5.34994 5.12218,7.09073 3.80323,9.8104 -0.89724,1.85011 -4.01169,3.83244 -6.38726,4.066514 -1.02333,0.100812 -2.87371,-0.185364 -4.1121,-0.635714 -1.99886,-0.72687 -2.81875,-1.44564 -7.30985,-6.40628 -4.83514,-5.34064 -5.05277,-5.66624 -4.93187,-7.35479 0.11324,-1.58186 0.49117,-2.03784 3.62034,-4.36081 2.87004,-2.1306 3.55298,-2.88957 3.82288,-4.24056 0.46921,-2.34868 -0.75796,-4.84677 -3.02187,-6.15293 -2.64726,-1.52732 -5.40026,-1.27349 -9.23491,0.85017 -5.96332,3.30255 -6.74055,3.04941 -13.45699,-4.3692 -5.35692,-5.91698 -5.87497,-6.98797 -4.98482,-10.31711 0.99804,-3.73262 6.29639,-5.72095 10.88992,-4.0876 0.73464,0.26121 3.26284,2.45042 5.78398,5.01065 4.24337,4.3092 4.58984,4.56033 6.6162,4.79144 2.97687,0.33939 5.84201,-1.47634 6.24325,-3.9565 0.26946,-1.66576 0.0575,-2.03281 -4.01247,-6.96616 l -4.29657,-5.21002 0.55585,-2.72162 c 0.47272,-2.31586 0.85094,-2.90465 2.53653,-3.94927 1.08969,-0.67539 2.52178,-1.34761 3.18243,-1.49413 1.64387,-0.36463 4.53596,0.11085 6.30198,1.03781 0.96153,0.50461 7.01872,6.90382 17.61311,18.60581 17.69222,19.54184 17.6231,19.44477 16.64214,23.11331 -0.35495,1.3275 -1.25961,2.45715 -2.48732,3.28802 z m -59.33362,36.952385 c -12.05769,7.706421 -12.73414,8.081757 -14.62051,8.095988 -3.47676,0.02622 -5.65658,-0.754867 -7.25606,-2.603215 -2.99698,-3.463302 -1.94127,-6.927805 3.09404,-10.149526 4.38201,-2.804111 5.61418,-4.062584 5.93973,-6.074867 0.38456,-2.377135 -1.85615,-4.8521 -4.68538,-5.175207 -2.50055,-0.285578 -4.14658,0.371564 -9.51827,3.804765 -3.90375,2.495003 -4.37326,2.680379 -6.25147,2.465929 -2.50741,-0.286367 -3.96935,-1.339954 -4.56959,-3.29675 -0.80443,-2.622062 0.0323,-3.786113 5.01408,-6.970117 5.52337,-3.530155 6.89521,-5.289085 6.1092,-7.827505 -0.67107,-2.16719 -2.13839,-3.23883 -4.86314,-3.55 -1.84862,-0.21111 -2.38999,-0.0103 -5.74916,2.13362 -4.82206,3.07732 -7.18231,3.82656 -10.35433,3.28641 -4.98077,-0.84815 -7.44253,-4.50692 -5.76849,-8.57458 0.75064,-1.82399 1.02147,-2.0228 13.61466,-10.05566 10.85449,-6.92384 13.10957,-8.21543 14.53428,-8.32431 0.92747,-0.0709 2.51174,0.0663 3.52217,0.30644 1.76942,0.41998 2.45806,1.11342 18.63948,18.78433 18.80257,20.533326 18.53246,20.14819 16.70556,23.839826 -0.83862,1.694587 -1.65107,2.287907 -13.5368,9.884429 z m 86.98417,-70.786505 c 2.34437,-1.49838 2.88836,-4.37976 1.03899,-6.42247 -1.78333,-1.96978 -5.21271,-2.42684 -7.64393,-0.87298 -2.43123,1.55386 -2.88838,4.37975 -1.03899,6.42248 1.78332,1.96977 5.29953,2.37133 7.64393,0.87297 z m -138.74832,74.614978 -31.3043,20.007508 -5.511,-6.087142 31.30431,-20.00751 z m -57.81944,36.954112 -31.30432,20.00751 -5.511,-6.087143 31.30433,-20.00751 z m -106.87796,68.308856 -31.30431,20.007505 -5.51099,-6.087142 31.30431,-20.007505 z m 365.10707,-283.637996 -80.67147,51.55952 c -27.919,-15.25208 -59.30852,-24.88024 -91.53687,-28.56084 -56.32536,-6.49802 -115.81928,5.15404 -164.61731,36.3423 -48.79802,31.18825 -77.89,76.26922 -85.62383,123.594187 -4.38059,27.078417 -1.65897,55.029188 8.43181,81.675752 l -80.83767,51.665738 c -60.95678,-111.415247 -24.33611,-247.601837 96.45153,-324.800777 120.86269,-77.24691 286.91777,-70.59636 398.40381,8.52412 z m -195.38609,124.87703 -20.92551,13.37411 -36.98506,-40.85168 -1.53705,-1.09156 c -0.0869,0.0555 -0.0207,0.12794 -0.0207,0.12794 l -0.0658,-0.0726 c -11.65144,2.72487 -19.29513,-3.44691 -27.13051,-11.79864 l 0.0865,-0.0553 -2.77356,-3.06352 0.95477,-0.61023 -1.58543,-1.75118 3.64614,-2.33036 1.51966,1.67852 5.73208,-3.66355 -1.51965,-1.67852 3.38499,-2.16344 1.51965,1.67851 5.73208,-3.66354 -1.51965,-1.67852 3.38499,-2.16343 1.51965,1.67851 5.73207,-3.66354 -1.51964,-1.67853 3.47317,-2.21979 1.38678,1.53175 5.73038,-3.66245 -1.38677,-1.53177 3.90731,-2.49728 1.58544,1.7512 1.30243,-0.83244 2.77357,3.06352 -0.0865,0.0553 c 7.20308,8.41035 11.82802,16.39543 6.09283,24.89804 -0.0661,-0.0729 -0.15371,-0.0161 -0.21977,-0.0889 l 1.63879,2.86877 -0.0865,0.0553 z m -77.97333,49.835045 -20.9255,13.374109 -36.45744,-40.268904 -0.0865,0.0553 -2.36924,-1.70911 c -11.47777,2.61387 -18.98978,-3.41129 -26.69307,-11.6171 l -0.0865,0.0553 -2.64196,-2.91818 1.47541,-0.94298 -1.71702,-1.89654 3.73433,-2.38673 1.58415,1.74978 5.73039,-3.66245 -1.58415,-1.74977 3.38666,-2.16453 1.58416,1.74978 5.73039,-3.66247 -1.58415,-1.74977 3.47316,-2.2198 1.58415,1.74977 5.73041,-3.66246 -1.58417,-1.74978 3.38668,-2.16452 1.45257,1.60443 5.73039,-3.66246 -1.45257,-1.60443 4.082,-2.60892 1.58415,1.74976 2.08254,-1.33101 c 0.99074,1.09431 1.91629,2.11604 2.75416,3.19289 6.96708,8.90667 10.57127,17.42854 4.24906,26.19117 l -0.0658,-0.0726 0.72957,1.26123 z m 292.42626,131.776864 47.26098,13.443011 6.07584,-14.939435 -16.47005,-10.319021 -2.04011,-1.344983 -6.51291,-4.014373 -2.12695,-1.289489 -6.20715,-3.979453 -2.12694,-1.289488 -0.54918,-0.455185 0.0208,-0.128455 0.85122,0.03182 2.6405,0.03991 7.7686,0.102273 2.61972,0.16836 8.00831,0.06424 2.61971,0.168361 8.70667,0.07858 2.55366,0.0954 9.31818,0.148415 5.98901,-14.88394 -10.27848,-2.874543 -2.23083,-0.64724 -8.17975,-2.3732112 -2.23084,-0.647242 -7.58902,-2.174923 -2.23083,-0.647241 -7.15115,-1.9940976 -2.29689,-0.7201951 -3.49913,-0.9883185 -12.11674,-3.5423589 -4.64278,11.3746464 13.47185,3.8279449 3.87096,1.096192 2.31766,0.591744 7.06432,2.049592 2.38372,0.664701 7.30403,2.011557 0.43786,0.180826 -0.10761,0.183944 -0.37181,-0.107877 -8.02909,0.06421 -2.55368,-0.0954 -7.6365,0.04364 -2.64049,-0.03991 -4.60343,0.06297 -15.16541,-0.09667 -3.16817,7.552959 11.69149,7.614712 4.27837,2.908831 2.04011,1.344982 15.02439,9.630629 -0.10761,0.183944 -24.86577,-7.026106 -12.57537,-3.594738 -4.55595,11.319151 z m -68.14105,116.107171 -21.47566,-35.6816 -6.27989,-10.26725 -35.63855,15.29169 4.97597,8.22141 23.0921,-9.92177 1.46051,2.52161 5.41752,8.86054 -19.24342,8.26814 4.97596,8.2214 19.24343,-8.26813 5.94963,9.90248 -23.09212,9.92176 4.99674,8.09296 z m 56.24085,-36.29069 -30.96824,-30.42079 -8.86398,-8.730848 -17.0074,12.251958 c -5.46653,3.9545 -8.57013,8.70214 -9.17869,14.38884 -0.20037,2.2011 -0.008,4.38163 0.51058,6.46862 0.87718,3.23993 2.73399,6.19926 5.7025,9.02391 l 7.19196,7.03544 c 4.77262,4.66597 10.51001,7.21813 17.23296,7.52804 6.70217,0.43836 12.84033,-1.41167 18.37291,-5.29322 z m -41.33137,-22.18506 23.44605,23.02058 -6.24799,4.45395 c -2.53882,1.73781 -5.30401,2.4686 -8.55972,1.90055 -3.34255,-0.51256 -6.36599,-2.03525 -9.02874,-4.82498 l -7.25801,-7.10839 c -2.68354,-2.66128 -4.03643,-5.36684 -4.27761,-8.20707 -0.0451,-0.20142 -0.0906,-0.4028 0.0378,-0.7152 0.0231,-2.54842 1.2067,-4.57181 3.57188,-6.19863 l 6.18195,-4.5269 z m 75.86864,-13.248293 -29.70884,-33.874584 -8.47881,-9.668031 -8.73266,10.188042 7.61646,8.261318 -10.7223,12.381037 -11.74493,-3.434488 -8.75344,10.316493 13.07557,3.39022 48.52186,12.867476 4.43052,-5.25022 v 0 0 z m -20.15325,-4.394752 -0.10761,0.183944 -18.83003,-5.355626 6.82983,-8.050541 z m -268.37307,-348.179435 -21.64333,4.44267 -0.76436,9.84831 -13.91358,2.856 5.32983,-54.28989 16.50214,-3.38736 34.43351,46.12779 -13.91357,2.856 z m -20.89173,-5.58116 14.70452,-3.01836 -13.12383,-18.47044 z m -167.18125,113.64015 -47.26099,-13.44301 -6.07584,14.93943 16.47005,10.31902 2.12694,1.28949 6.51292,4.01437 2.04011,1.34499 6.20716,3.97945 2.12694,1.28949 0.636,0.39969 -0.10761,0.18394 -0.85122,-0.0318 -2.55367,-0.0954 -7.7686,-0.10227 -2.6405,-0.0399 -7.98753,-0.19268 -2.57445,0.033 -8.68588,-0.20703 -2.64049,-0.0399 -9.31818,-0.14841 -5.98901,14.88394 10.27848,2.87454 2.29689,0.7202 8.04764,2.2273 2.38372,0.6647 7.37008,2.08451 2.29689,0.720194 7.15115,1.994098 2.31767,0.591745 3.41231,1.043814 12.29039,3.431369 4.55596,-11.31915 -13.47187,-3.82795 -3.80489,-1.02323 -2.38372,-0.6647 -7.06432,-2.0496 -2.38372,-0.66469 -7.30403,-2.01156 -0.35103,-0.23632 0.0208,-0.12845 0.47942,-0.0761 7.94227,-0.009 2.55366,0.0954 7.72334,-0.0991 2.55367,0.0954 4.60342,-0.063 15.33907,-0.0143 3.10212,-7.62591 -11.69149,-7.61471 -4.29915,-2.78038 -2.04011,-1.34499 -15.02439,-9.63062 0.10761,-0.18395 24.86577,7.02611 12.64142,3.66769 4.4899,-11.39211 z m 68.14104,-116.10717 21.56249,35.6261 6.19305,10.32275 35.79144,-15.27424 -4.99674,-8.09296 -23.00528,9.86628 -1.67944,-2.61202 -5.41752,-8.86054 19.24342,-8.26814 -4.90991,-8.14846 -19.30947,8.19519 -5.94963,-9.90248 23.09211,-9.92177 -4.90991,-8.14845 z m -56.00114,36.25265 30.88142,30.47628 8.86397,8.73085 17.0074,-12.25195 c 5.55336,-4.00999 8.57013,-8.70214 9.17869,-14.38884 0.2872,-2.2566 0.095,-4.43713 -0.51058,-6.46863 -0.87719,-3.23993 -2.73399,-6.19926 -5.63645,-8.95095 l -7.25801,-7.10839 c -4.77262,-4.66597 -10.51002,-7.21814 -17.14614,-7.58355 -6.72294,-0.30991 -12.92715,1.46718 -18.45973,5.34872 z m 41.17848,22.1676 -23.31394,-22.87467 6.18194,-4.52691 c 2.452,-1.68231 5.4361,-2.32268 8.62577,-1.82759 3.23494,0.6965 6.41125,2.23666 9.02874,4.82498 l 7.19196,7.03544 c 2.68353,2.66128 4.12326,5.31134 4.27761,8.20707 0.0453,0.2014 0.004,0.4583 0.049,0.6597 -0.10984,2.60391 -1.29354,4.62731 -3.59266,6.32708 l -6.16116,4.39846 z m -75.95546,13.30379 29.70884,33.87458 8.54486,9.74099 8.66661,-10.261 -7.61646,-8.26132 10.72231,-12.38103 11.74493,3.43448 8.81948,-10.24353 -13.14162,-3.46317 -48.43503,-12.92298 -4.43052,5.25022 -0.0868,0.0555 v 0 z m 20.24008,4.33925 0.0208,-0.12845 18.83003,5.35563 -6.743,7.99505 z" /></g>
	
	
	
	
	
	
	
	
</g>
<g
   id="_x37__1_">
</g>
<g
   id="_x36__1_">
</g>
<g
   id="_x35__1_">
</g>
<g
   id="_x34__1_">
</g>
<g
   id="_x33__1_">
</g>
<g
   id="_x32__1_">
</g>
<g
   id="_x31_">
</g>
</svg>
