<?xml version="1.0" encoding="UTF-8" standalone="no"?>
<!-- Created with Inkscape (http://www.inkscape.org/) -->

<svg
   width="22.561411mm"
   height="35.947678mm"
   viewBox="0 0 22.561411 35.947678"
   version="1.1"
   id="svg4173"
   inkscape:version="1.2.2 (732a01da63, 2022-12-09)"
   sodipodi:docname="notes.svg"
   xmlns:inkscape="http://www.inkscape.org/namespaces/inkscape"
   xmlns:sodipodi="http://sodipodi.sourceforge.net/DTD/sodipodi-0.dtd"
   xmlns="http://www.w3.org/2000/svg"
   xmlns:svg="http://www.w3.org/2000/svg">
  <sodipodi:namedview
     id="namedview4175"
     pagecolor="#ffffff"
     bordercolor="#000000"
     borderopacity="0.25"
     inkscape:showpageshadow="2"
     inkscape:pageopacity="0.0"
     inkscape:pagecheckerboard="0"
     inkscape:deskcolor="#d1d1d1"
     inkscape:document-units="mm"
     showgrid="false"
     inkscape:zoom="5.7041817"
     inkscape:cx="42.687981"
     inkscape:cy="67.932619"
     inkscape:window-width="1920"
     inkscape:window-height="991"
     inkscape:window-x="-9"
     inkscape:window-y="-9"
     inkscape:window-maximized="1"
     inkscape:current-layer="layer1" />
  <defs
     id="defs4170" />
  <g
     inkscape:label="Layer 1"
     inkscape:groupmode="layer"
     id="layer1"
     transform="translate(145.00459,-6.406759)">
    <path
       id="rect4029"
       style="fill:#000000;stroke-width:1.58501"
       d="m -142.01905,8.8651163 c -0.79921,0 -1.44263,0.7767504 -1.44263,1.7415127 v 11.279687 9.719731 6.910738 c 0,0.764048 0.73936,1.379293 1.65765,1.379293 h 16.16074 c 0.91829,0 1.6572,-0.615245 1.6572,-1.379293 V 21.886316 c 0,-0.764048 -0.73891,-1.378846 -1.6572,-1.378846 h -0.86808 v -9.900841 c 0,-0.9647623 -0.64342,-1.7415127 -1.44264,-1.7415127 z m 15.84581,23.0429307 c 0.0389,0 0.0755,0.0085 0.10929,0.02542 0.0347,0.01694 0.0677,0.03892 0.0981,0.06602 0.0313,0.02625 0.0609,0.0557 0.0888,0.08788 0.028,0.03217 0.0545,0.06369 0.0798,0.09502 0.0118,0.01439 0.0249,0.03035 0.0383,0.04729 0.0135,0.01609 0.0275,0.03209 0.0419,0.04818 0.0153,0.01609 0.0302,0.03106 0.0455,0.04461 0.0161,0.01354 0.0316,0.02454 0.0469,0.03301 0.0118,-0.01354 0.0233,-0.02803 0.0335,-0.04327 0.0102,-0.01609 0.0231,-0.03307 0.0393,-0.05085 0.0178,-0.02032 0.0373,-0.04129 0.0584,-0.06245 0.0212,-0.02201 0.0426,-0.0415 0.0647,-0.05844 0.0229,-0.01778 0.0458,-0.03182 0.0687,-0.04283 0.0237,-0.01185 0.0463,-0.01784 0.0683,-0.01784 0.0466,0 0.0805,0.01149 0.1017,0.03435 0.0212,0.02201 0.0317,0.05451 0.0317,0.09769 0,0.02625 -0.008,0.05472 -0.0227,0.0852 -0.0153,0.03048 -0.0357,0.06096 -0.062,0.09145 -0.0262,0.02963 -0.0567,0.05816 -0.0905,0.08609 -0.0338,0.02794 -0.0698,0.05292 -0.10796,0.07494 -0.0381,0.02117 -0.0766,0.03815 -0.11553,0.05085 -0.013,0.0042 -0.0244,0.0035 -0.037,0.0062 -0.005,0.0066 -0.008,0.01228 -0.0138,0.01918 l -0.0669,0.06736 c -0.0542,0.05419 -0.10764,0.110642 -0.16014,0.169066 -0.0516,0.05758 -0.1001,0.11756 -0.14498,0.180218 -0.0254,0.03557 -0.0499,0.07503 -0.0736,0.118213 -0.0229,0.04319 -0.0433,0.08765 -0.0611,0.133378 -0.0178,0.04572 -0.0319,0.09172 -0.0428,0.138287 -0.0102,0.04657 -0.0156,0.09055 -0.0156,0.132041 0,0.03217 0.004,0.06113 0.0116,0.08654 0.009,0.0254 0.0195,0.04739 0.033,0.06602 0.0144,0.01778 0.0309,0.03226 0.0495,0.04327 0.0187,0.01016 0.0386,0.0157 0.0597,0.01739 0.0398,-0.0525 0.0753,-0.09952 0.10661,-0.141854 0.0322,-0.04234 0.0616,-0.07979 0.0888,-0.111968 0.0847,-0.09907 0.16758,-0.176525 0.24802,-0.23241 0.0813,-0.05589 0.15927,-0.08386 0.23463,-0.08386 0.0407,0 0.0796,0.005 0.11599,0.01517 0.0373,0.01016 0.0697,0.02611 0.0977,0.04729 0.0287,0.02117 0.0513,0.04817 0.0683,0.08119 0.0169,0.03217 0.0255,0.07066 0.0255,0.115536 0,0.03048 -0.004,0.06145 -0.0138,0.09278 -0.009,0.03048 -0.0213,0.05999 -0.0366,0.08877 -0.0153,0.02794 -0.0327,0.05444 -0.0522,0.07985 -0.0195,0.02456 -0.04,0.0465 -0.0611,0.06513 -0.0567,0.0508 -0.11519,0.09331 -0.1753,0.128026 -0.0601,0.03472 -0.12158,0.06319 -0.18424,0.0852 -0.0618,0.02117 -0.12479,0.03619 -0.18914,0.0455 -0.0518,0.0076 -0.10484,0.0102 -0.15836,0.0116 -8.7e-4,0.0021 -7.1e-4,0.0042 -0.002,0.0062 -0.009,0.01778 -0.0195,0.03525 -0.033,0.05219 -0.0127,0.01694 -0.0262,0.03392 -0.0406,0.05085 -0.0144,0.01609 -0.0274,0.03159 -0.0393,0.04684 -0.0398,0.05588 -0.0722,0.106837 -0.0977,0.152561 -0.0254,0.04488 -0.0458,0.08783 -0.0611,0.128472 -0.0144,0.03979 -0.0244,0.07828 -0.0303,0.115536 -0.005,0.03641 -0.008,0.07342 -0.008,0.111521 0,0.04149 0.0141,0.07393 0.0428,0.0968 0.0288,0.02286 0.0728,0.0339 0.13115,0.0339 0.0516,0 0.10711,-0.0041 0.16638,-0.01249 0.0601,-0.0085 0.11912,-0.01897 0.17755,-0.03167 0.0584,-0.0127 0.11389,-0.02571 0.16639,-0.03926 0.0534,-0.01439 0.0993,-0.02736 0.13739,-0.03836 0.007,-0.0067 0.0123,-0.01679 0.0165,-0.03033 0.005,-0.01354 0.009,-0.03102 0.0125,-0.05219 0.004,-0.02117 0.009,-0.04566 0.013,-0.07361 0.004,-0.02879 0.009,-0.06124 0.0152,-0.0968 0.0118,-0.06774 0.0254,-0.131252 0.0406,-0.19137 0.0153,-0.06011 0.0332,-0.112546 0.0535,-0.156575 0.0203,-0.04488 0.0433,-0.07988 0.0696,-0.105277 0.0262,-0.02625 0.0562,-0.03926 0.0892,-0.03926 0.004,0 0.01,0.002 0.0165,0.0062 0.007,0.0034 0.0128,0.0079 0.0187,0.01383 0.007,0.0051 0.0122,0.01107 0.0165,0.01784 0.005,0.0067 0.008,0.01325 0.009,0.01918 -0.009,0.03302 -0.0163,0.05899 -0.0214,0.07762 -0.004,0.01778 -0.009,0.03432 -0.0116,0.0504 -0.003,0.01524 -0.007,0.03272 -0.0111,0.05219 -0.003,0.01863 -0.009,0.04562 -0.0165,0.08119 -0.003,0.01101 -0.005,0.02696 -0.009,0.04729 -0.003,0.02032 -0.005,0.04281 -0.009,0.06736 -0.003,0.0237 -0.007,0.04869 -0.0103,0.07494 -0.003,0.02625 -0.005,0.05128 -0.008,0.07583 -0.003,0.0237 -0.004,0.04615 -0.006,0.06647 -0.002,0.01947 -0.003,0.03449 -0.003,0.0455 0.0296,-8.47e-4 0.0631,-0.0059 0.10037,-0.01517 0.0381,-0.01016 0.0751,-0.02067 0.11152,-0.03167 0.0373,-0.01101 0.0722,-0.02098 0.10438,-0.02945 0.0322,-0.0093 0.0582,-0.01383 0.0785,-0.01383 0.044,0 0.077,0.01051 0.0981,0.03167 0.0212,0.02032 0.0317,0.05281 0.0317,0.09769 0,0.03217 -0.007,0.05662 -0.0205,0.07271 -0.0135,0.01609 -0.0335,0.03062 -0.0598,0.04416 -0.0186,0.01016 -0.0437,0.02067 -0.0758,0.03167 -0.0313,0.01016 -0.0643,0.02062 -0.099,0.03078 -0.0347,0.0093 -0.0687,0.0183 -0.10171,0.02677 -0.0331,0.0076 -0.061,0.01316 -0.0838,0.01739 -0.0102,0.0017 -0.0231,0.0047 -0.0383,0.0089 -0.0144,0.0042 -0.0284,0.0097 -0.0428,0.01562 -0.0135,0.0051 -0.0255,0.01063 -0.0356,0.01739 -0.0102,0.006 -0.0152,0.0124 -0.0152,0.01918 -8.5e-4,0.01016 -0.003,0.02567 -0.005,0.04684 -0.003,0.02117 -0.005,0.04311 -0.008,0.06513 -0.003,0.02201 -0.005,0.04253 -0.008,0.062 -0.002,0.01947 -0.003,0.03248 -0.003,0.03926 0,0.01778 -0.002,0.03624 -0.005,0.05487 -0.003,0.01778 -0.008,0.03427 -0.0152,0.04951 -0.008,0.0144 -0.0176,0.02637 -0.0303,0.03569 -0.0127,0.0085 -0.0287,0.01249 -0.0473,0.01249 -0.0296,0 -0.0541,-0.003 -0.0736,-0.0089 -0.0187,-0.006 -0.0336,-0.01496 -0.0446,-0.02766 -0.0102,-0.0127 -0.0172,-0.02866 -0.0214,-0.04729 -0.003,-0.01947 -0.005,-0.04245 -0.005,-0.0687 0,-0.01016 4e-5,-0.02268 8.6e-4,-0.03791 8.5e-4,-0.01524 0.003,-0.03075 0.004,-0.04684 0.003,-0.01609 0.004,-0.03204 0.006,-0.04729 0.003,-0.01609 0.005,-0.03013 0.008,-0.04282 -0.0296,0.0017 -0.0616,0.0062 -0.0964,0.01383 -0.0347,0.0076 -0.0742,0.01611 -0.11821,0.02542 -0.0331,0.0067 -0.0675,0.01429 -0.10393,0.02275 -0.0364,0.0085 -0.0743,0.01647 -0.11331,0.02409 -0.0381,0.0067 -0.0771,0.01276 -0.11687,0.01784 -0.0389,0.0042 -0.078,0.0062 -0.11688,0.0062 -0.0466,0 -0.0921,-0.0066 -0.13694,-0.02007 -0.044,-0.01439 -0.0835,-0.03639 -0.11822,-0.06602 -0.0347,-0.03048 -0.0627,-0.06945 -0.0838,-0.116874 -0.0203,-0.04742 -0.0303,-0.105342 -0.0303,-0.173081 0,-0.05504 0.008,-0.110505 0.0228,-0.166389 0.0153,-0.05588 0.0362,-0.111352 0.0625,-0.166389 0.0262,-0.05589 0.0567,-0.110369 0.0915,-0.163713 0.0356,-0.05419 0.0726,-0.105681 0.11152,-0.154791 0.0195,-0.0254 0.04,-0.04838 0.0611,-0.06869 0.005,-0.0052 0.0103,-0.0085 0.0156,-0.01338 -0.0899,-0.01811 -0.16367,-0.05192 -0.21769,-0.104831 -0.0813,-0.08129 -0.12179,-0.194232 -0.12179,-0.339024 0,-0.06435 0.009,-0.129831 0.029,-0.196723 0.0203,-0.06774 0.0478,-0.135676 0.0825,-0.203414 0.0347,-0.06774 0.0761,-0.134692 0.12357,-0.200738 0.0483,-0.06605 0.10025,-0.129513 0.15613,-0.190478 0.0559,-0.06096 0.11484,-0.117952 0.17665,-0.171296 0.0252,-0.02177 0.0505,-0.0392 0.0759,-0.05933 -0.0229,-0.0127 -0.0459,-0.02555 -0.0673,-0.04371 -0.0271,-0.0237 -0.0526,-0.04972 -0.0772,-0.07851 -0.0237,-0.02963 -0.0467,-0.05909 -0.0687,-0.08788 -0.0161,-0.02201 -0.0321,-0.04253 -0.0482,-0.062 -0.0153,-0.02032 -0.0312,-0.03829 -0.0473,-0.05353 -0.0161,-0.01525 -0.0326,-0.02726 -0.0495,-0.03657 -0.0161,-0.0093 -0.0331,-0.01428 -0.0518,-0.01428 -0.0211,0 -0.0462,0.006 -0.0749,0.01784 -0.028,0.01101 -0.0524,0.02898 -0.0727,0.05353 -0.0229,0.02794 -0.0369,0.05243 -0.0419,0.07361 -0.005,0.02117 -0.008,0.04017 -0.008,0.0571 v 0.02275 c 0,0.02201 -0.004,0.042 -0.0125,0.05978 -0.008,0.01694 -0.0186,0.03141 -0.033,0.04327 -0.0136,0.01185 -0.0291,0.02088 -0.0469,0.02766 -0.0186,0.006 -0.0382,0.0089 -0.0584,0.0089 -0.0423,0 -0.0758,-0.01153 -0.10036,-0.03525 -0.0254,-0.0237 -0.0383,-0.06165 -0.0383,-0.113305 0,-0.03302 0.007,-0.06851 0.0205,-0.106614 0.0127,-0.0381 0.0302,-0.07609 0.0531,-0.114197 0.0229,-0.0381 0.0503,-0.07507 0.0825,-0.11063 0.0322,-0.03556 0.0676,-0.06703 0.10572,-0.09412 0.0381,-0.0271 0.0781,-0.04859 0.12044,-0.06468 0.0432,-0.01694 0.0867,-0.02542 0.1307,-0.02542 z m 0.81455,1.544789 c -0.044,0 -0.086,0.01051 -0.1258,0.03167 -0.0389,0.02032 -0.0764,0.04683 -0.11196,0.07985 -0.0356,0.03217 -0.07,0.06864 -0.10305,0.109291 -0.0322,0.03979 -0.0627,0.07975 -0.0923,0.11955 0.0779,-0.01101 0.14839,-0.02799 0.21189,-0.05085 0.0644,-0.02371 0.11884,-0.05066 0.16372,-0.0803 0.0457,-0.02963 0.0811,-0.06061 0.10572,-0.09278 0.0246,-0.03302 0.0366,-0.06355 0.0366,-0.09234 -0.004,-0.0085 -0.0148,-0.01446 -0.0317,-0.01784 -0.0169,-0.0042 -0.0344,-0.0062 -0.0531,-0.0062 z m -0.34571,2.051096 c 0.0458,0 0.0857,0.003 0.11955,0.0089 0.0338,0.006 0.0644,0.01392 0.0915,0.02408 0.0271,0.0093 0.0516,0.02031 0.0736,0.03301 0.022,0.01185 0.044,0.02437 0.066,0.03792 0.005,0.0034 0.01,0.0064 0.0138,0.0089 0.004,0.0017 0.009,0.0042 0.013,0.0076 0.0254,0.01524 0.0494,0.03473 0.0722,0.05844 0.0229,0.0237 0.0424,0.05017 0.0584,0.07896 0.0169,0.02879 0.0299,0.05976 0.0393,0.09279 0.0102,0.03217 0.0152,0.06467 0.0152,0.09769 0,0.02625 -0.006,0.05624 -0.0187,0.09011 -0.0127,0.03387 -0.0312,0.06985 -0.0549,0.107952 -0.0237,0.03726 -0.0517,0.07525 -0.0848,0.114198 -0.0331,0.0381 -0.07,0.07457 -0.11063,0.10929 -0.0483,0.04149 -0.10021,0.08046 -0.15525,0.116875 -0.0551,0.03641 -0.11202,0.06837 -0.17129,0.09546 -0.0593,0.02625 -0.12122,0.04725 -0.18557,0.06334 -0.0635,0.01525 -0.128,0.02276 -0.19405,0.02276 -0.0491,0 -0.0941,-0.0075 -0.13471,-0.02276 -0.0398,-0.01524 -0.0738,-0.03772 -0.10172,-0.06736 -0.028,-0.03048 -0.0495,-0.06744 -0.0647,-0.110629 -0.0153,-0.04403 -0.0227,-0.09405 -0.0227,-0.150777 0,-0.03979 0.003,-0.08123 0.01,-0.123565 0.007,-0.04319 0.0167,-0.08471 0.0294,-0.125349 0.0127,-0.04149 0.0277,-0.08046 0.0446,-0.116874 0.0178,-0.03726 0.0373,-0.07069 0.0584,-0.09948 0.0313,-0.04233 0.0698,-0.08386 0.11554,-0.125349 0.0466,-0.04149 0.0965,-0.07943 0.14989,-0.113306 0.0533,-0.03387 0.10831,-0.06087 0.16505,-0.08119 0.0567,-0.02117 0.11121,-0.03167 0.16371,-0.03167 z m -0.009,0.250254 c -0.0356,0 -0.0726,0.009 -0.11152,0.02677 -0.0381,0.01778 -0.0741,0.0383 -0.10796,0.06201 -0.0338,0.02371 -0.0638,0.04722 -0.0892,0.07093 -0.0254,0.0237 -0.0425,0.04217 -0.0517,0.05487 -0.0118,0.01609 -0.0248,0.03508 -0.0383,0.0571 -0.0135,0.02201 -0.0255,0.04499 -0.0366,0.0687 -0.011,0.02286 -0.0205,0.04584 -0.0281,0.0687 -0.007,0.02286 -0.0103,0.04288 -0.0103,0.06067 0,0.02963 0.002,0.05462 0.005,0.07494 0.004,0.01947 0.0108,0.03548 0.0201,0.04818 0.0102,0.01185 0.0231,0.02084 0.0393,0.02677 0.0161,0.0051 0.0365,0.0076 0.0611,0.0076 0.0296,0 0.0616,-0.0035 0.0964,-0.01115 0.0356,-0.0085 0.069,-0.01892 0.0995,-0.03078 0.0287,-0.01185 0.0593,-0.02584 0.0923,-0.04193 0.0338,-0.01694 0.0678,-0.03494 0.1017,-0.05443 0.0338,-0.01947 0.0664,-0.04043 0.0977,-0.06245 0.0313,-0.02201 0.0588,-0.04401 0.0825,-0.06602 0.0245,-0.02201 0.044,-0.04351 0.0584,-0.06468 0.0144,-0.02117 0.0218,-0.04115 0.0218,-0.05978 0,-0.03133 -0.009,-0.06083 -0.0268,-0.08877 -0.0169,-0.02879 -0.035,-0.05627 -0.0545,-0.08252 -0.007,-0.01016 -0.0177,-0.01915 -0.0321,-0.02677 -0.0144,-0.0085 -0.0314,-0.01499 -0.0518,-0.02007 -0.0195,-0.006 -0.0414,-0.01039 -0.0652,-0.01294 -0.0237,-0.0034 -0.0477,-0.0049 -0.0723,-0.0049 z m 1.05186,1.14822 c 0.0246,0 0.0495,10e-4 0.0749,0.0035 0.0262,0.0017 0.0502,0.0072 0.0722,0.0165 0.022,0.0085 0.04,0.02148 0.0535,0.03926 0.0144,0.01694 0.0214,0.04089 0.0214,0.07137 0,0.01439 -4.9e-4,0.0274 -0.002,0.03925 -8.5e-4,0.01185 -0.003,0.02383 -0.006,0.03569 -0.003,0.01101 -0.009,0.02299 -0.0165,0.03569 -0.008,0.0127 -0.0186,0.02669 -0.033,0.04194 -0.008,0.0085 -0.0181,0.01647 -0.0317,0.02409 -0.0136,0.0067 -0.0281,0.01232 -0.0433,0.01739 -0.0153,0.0042 -0.0312,0.0077 -0.0473,0.01026 -0.0161,0.0025 -0.0306,0.0041 -0.0442,0.0041 -0.0525,0 -0.10095,0.0016 -0.14498,0.0049 -0.044,0.0034 -0.089,0.0084 -0.13472,0.01517 -0.0457,0.006 -0.0947,0.01392 -0.14721,0.02409 -0.0525,0.0093 -0.11346,0.02026 -0.18289,0.03212 -0.0178,0.0034 -0.0433,0.0079 -0.0763,0.01383 -0.033,0.0051 -0.0705,0.01156 -0.11286,0.01918 -0.0424,0.0067 -0.0883,0.01478 -0.13829,0.02408 -0.0491,0.0085 -0.0996,0.0175 -0.15122,0.02766 -0.0516,0.0093 -0.10309,0.01978 -0.1539,0.03078 -0.0508,0.01016 -0.0983,0.02067 -0.14319,0.03167 0.0601,0.04826 0.12412,0.09676 0.19271,0.14587 0.0685,0.04826 0.13804,0.09524 0.20832,0.140962 0.0703,0.04573 0.14023,0.08966 0.20966,0.131149 0.0694,0.04064 0.13491,0.07716 0.19673,0.110183 0.0618,0.03217 0.11826,0.05967 0.16906,0.08253 0.0516,0.02286 0.0947,0.03931 0.12936,0.04863 0.0373,0.01016 0.0707,0.01968 0.10037,0.029 0.0305,0.0093 0.0564,0.0208 0.0776,0.03435 0.022,0.01354 0.039,0.03053 0.0508,0.05085 0.0118,0.01947 0.0179,0.04495 0.0179,0.07628 0,0.03895 -0.007,0.06997 -0.0206,0.09368 -0.0135,0.0237 -0.0306,0.04266 -0.0508,0.0562 -0.0195,0.0127 -0.04,0.02124 -0.062,0.02632 -0.0211,0.0042 -0.0396,0.0067 -0.0549,0.0067 h -0.0696 c -0.0423,0.0034 -0.0943,0.0094 -0.15523,0.01873 -0.0601,0.0085 -0.12511,0.01892 -0.19539,0.03078 -0.0694,0.01185 -0.1409,0.02486 -0.21457,0.03925 -0.0736,0.0144 -0.14459,0.02887 -0.21233,0.04327 -0.0678,0.0144 -0.13071,0.02838 -0.18914,0.04194 -0.0576,0.0127 -0.10504,0.02419 -0.1423,0.03435 -0.0254,0.0067 -0.0529,0.0133 -0.0825,0.02007 -0.0288,0.0067 -0.0572,0.01277 -0.0852,0.01784 -0.028,0.0051 -0.0534,0.0095 -0.0772,0.01294 -0.0229,0.0025 -0.0418,0.0035 -0.0562,0.0035 -0.0347,0 -0.0653,-0.002 -0.0923,-0.0062 -0.0262,-0.0042 -0.0487,-0.01223 -0.0665,-0.02409 -0.0178,-0.01185 -0.0312,-0.02786 -0.0406,-0.04818 -0.009,-0.02032 -0.0138,-0.04727 -0.0138,-0.0803 0,-0.01778 0.005,-0.03476 0.0152,-0.05085 0.009,-0.01694 0.0213,-0.03147 0.0357,-0.04416 0.0135,-0.01355 0.0281,-0.02503 0.0433,-0.03435 0.0153,-0.01016 0.0278,-0.01763 0.0379,-0.02186 0.004,-0.0017 0.0148,-0.0042 0.0317,-0.0076 0.0169,-0.0042 0.037,-0.0078 0.0597,-0.01115 0.0237,-0.0042 0.0487,-0.0077 0.0749,-0.01026 0.0262,-0.0034 0.0502,-0.0054 0.0722,-0.0054 0.0584,-0.0076 0.12484,-0.01562 0.19851,-0.02408 0.0736,-0.0093 0.15063,-0.01933 0.23107,-0.03033 0.0804,-0.01185 0.16143,-0.02437 0.24355,-0.03792 0.083,-0.01354 0.16241,-0.02852 0.23777,-0.04461 -0.1812,-0.100762 -0.3451,-0.199719 -0.49158,-0.297093 -0.14564,-0.09737 -0.28259,-0.193783 -0.41129,-0.288616 -0.0457,-0.03472 -0.0882,-0.06221 -0.12714,-0.08253 -0.0389,-0.02117 -0.0729,-0.0407 -0.1017,-0.05933 -0.028,-0.01947 -0.0495,-0.04043 -0.0647,-0.06245 -0.0161,-0.02201 -0.0241,-0.05103 -0.0241,-0.08743 0,-0.01778 8.6e-4,-0.03825 0.003,-0.06112 0.002,-0.0237 0.009,-0.0457 0.0205,-0.06602 0.011,-0.02117 0.0285,-0.03865 0.0522,-0.05219 0.0245,-0.01439 0.0585,-0.02142 0.1026,-0.02142 h 0.0571 c 0.0153,-8.46e-4 0.0287,-0.0014 0.0397,-0.0014 0.0118,-8.47e-4 0.0224,-0.0018 0.0317,-0.0027 0.009,-0.0017 0.0193,-0.0028 0.0303,-0.0035 0.0736,-0.0093 0.15559,-0.02031 0.24535,-0.03301 0.0906,-0.01355 0.18808,-0.03 0.29307,-0.04862 0.10584,-0.01947 0.21923,-0.04195 0.33947,-0.06736 0.12023,-0.02625 0.24766,-0.05677 0.38229,-0.09234 0.0195,-0.0051 0.042,-0.01058 0.0683,-0.01651 0.0262,-0.006 0.0522,-0.01138 0.0776,-0.01562 0.0254,-0.0051 0.0483,-0.0091 0.0687,-0.01249 0.0203,-0.0034 0.0343,-0.0049 0.0419,-0.0049 z" />
  </g>
</svg>
