<?xml version="1.0" encoding="UTF-8" standalone="no"?>
<!-- Created with Inkscape (http://www.inkscape.org/) -->

<svg
   width="98.282288mm"
   height="98.094574mm"
   viewBox="0 0 98.282288 98.094574"
   version="1.1"
   id="svg5023"
   sodipodi:docname="logo.svg"
   inkscape:version="1.2.1 (9c6d41e410, 2022-07-14)"
   xmlns:inkscape="http://www.inkscape.org/namespaces/inkscape"
   xmlns:sodipodi="http://sodipodi.sourceforge.net/DTD/sodipodi-0.dtd"
   xmlns="http://www.w3.org/2000/svg"
   xmlns:svg="http://www.w3.org/2000/svg">
  <sodipodi:namedview
     id="namedview5025"
     pagecolor="#ffffff"
     bordercolor="#666666"
     borderopacity="1.0"
     inkscape:showpageshadow="2"
     inkscape:pageopacity="0.0"
     inkscape:pagecheckerboard="0"
     inkscape:deskcolor="#d1d1d1"
     inkscape:document-units="mm"
     showgrid="false"
     inkscape:zoom="2.71877"
     inkscape:cx="108.87276"
     inkscape:cy="228.96383"
     inkscape:window-width="3840"
     inkscape:window-height="2050"
     inkscape:window-x="-12"
     inkscape:window-y="-12"
     inkscape:window-maximized="1"
     inkscape:current-layer="layer1" />
  <defs
     id="defs5020" />
  <g
     inkscape:label="Layer 1"
     inkscape:groupmode="layer"
     id="layer1"
     transform="translate(-52.97841,-103.99446)">
    <path
       id="path4953"
       style="fill:#000000;fill-opacity:1;fill-rule:evenodd;stroke-width:0.529169;stroke-linecap:round"
       d="m 98.624543,156.81055 a 2.8814128,2.9911803 0 0 0 -2.88139,2.99128 2.8814128,2.9911803 0 0 0 2.88139,2.99116 2.8814128,2.9911803 0 0 0 2.757687,-2.12608 l 4.09566,-1e-5 v 1.07522 c 2e-5,0.15785 0.1273,0.28473 0.28486,0.28488 l 0.3716,-2e-5 c 0.15784,-1e-4 0.28515,-0.12669 0.28502,-0.28488 v -1.07521 l 0.52512,4e-5 v 1.07522 c 2e-5,0.15784 0.1273,0.28471 0.28485,0.28487 l 0.37159,-3e-5 c 0.15788,-3e-5 0.28475,-0.12731 0.2849,-0.28487 v -1.07522 h 0.38176 c 0.15785,-9e-5 0.28476,-0.12731 0.28489,-0.28487 l -1e-5,-1.28015 c -2e-5,-0.15787 -0.12731,-0.28476 -0.28488,-0.28491 h -6.92248 a 2.8814128,2.9911803 0 0 0 -2.720597,-2.00642 z m -7.86351,-4.12511 22.773577,1e-5 c 0.31502,1e-5 0.56864,0.2536 0.56863,0.56862 l 2e-5,13.09539 c -1e-5,0.31503 -0.25363,0.56862 -0.56864,0.56864 l -22.773587,-1e-5 c -0.31503,-1e-5 -0.56863,-0.2536 -0.56864,-0.56865 l 1e-5,-13.09537 c 1e-5,-0.31502 0.25361,-0.56862 0.56862,-0.56863 z m 11.386707,-13.30439 a 9.7920638,9.7920638 0 0 0 -9.792047,9.79204 l -1e-5,2.4481 3.01736,-2e-5 -2e-5,-2.44808 a 6.7747413,6.7747413 0 0 1 6.774717,-6.7747 6.7747413,6.7747413 0 0 1 6.77496,6.7747 h -2.6e-4 l -10e-6,2.44809 3.01735,-1e-5 2e-5,-2.44808 a 9.7920638,9.7920638 0 0 0 -9.79206,-9.79204 z m -19.200737,-9.73746 h 38.345177 c 3.13766,0 5.66365,2.52599 5.66365,5.66365 v 35.46892 c 0,3.13766 -2.52599,5.66365 -5.66365,5.66365 H 82.947003 c -3.13766,0 -5.66364,-2.52599 -5.66364,-5.66365 v -35.46892 c 0,-3.13766 2.52598,-5.66365 5.66364,-5.66365 z m 15.3783,-25.6484 c -0.54764,-0.0193 -0.58982,0.3418 -0.27337,1.24696 0.17862,0.5109 0.66364,1.48016 1.07746,2.15387 0.8397,1.36702 0.79234,1.89123 -0.22996,2.56108 -0.85751,0.56186 -1.52762,0.22028 -3.55431,-1.81126 -2.19002,-2.19527 -2.52487,-2.32775 -5.36711,-2.12028 -1.83417,0.13389 -1.98683,0.17869 -1.92753,0.56482 0.03539,0.23063 0.24542,0.65534 0.46663,0.94362 1.52487,1.98725 2.07849,2.98459 1.87121,3.37188 -0.59705,1.11565 -2.12567,1.15319 -3.57963,0.0879 -2.6868,-1.96864 -3.54056,-2.24002 -5.32164,-1.69085 -0.57656,0.17777 -1.29997,0.32356 -1.60765,0.32556 -0.76454,0.003 -1.22267,0.20276 -1.22267,0.53279 0,0.42857 1.00506,1.52044 2.23604,2.42982 1.20539,0.89048 1.33321,1.257 0.79995,2.28823 -0.46632,0.90176 -1.12962,0.97381 -2.88716,0.31265 -4.23598,-1.5935 -3.74481,-1.47889 -4.77335,-1.11415 -2.1947,0.77827 -3.87056,1.59 -3.93206,1.90428 -0.07916,0.40462 1.29315,1.31716 2.66857,1.77457 1.32119,0.43938 1.48518,0.60967 1.48518,1.54357 0,1.6275 -1.06296,1.97456 -4.08812,1.33377 -2.52956,-0.5358 -2.83035,-0.47458 -5.15628,1.0542 -1.14244,0.7509 -2.07687,1.4942 -2.07687,1.65158 0,0.42763 1.9324,1.17615 3.03599,1.17615 1.75025,0 2.55076,1.42769 1.49138,2.65927 -0.49015,0.56984 -0.57602,0.58889 -3.10782,0.69298 -2.40527,0.0989 -2.67075,0.15168 -3.48557,0.69092 -0.74789,0.49494 -2.95261,3.12336 -2.96261,3.53157 -0.0088,0.36716 1.49331,0.69675 2.97294,0.65215 1.45815,-0.044 1.64487,-0.004 1.93942,0.41651 1.05065,1.50001 -0.23228,2.5803 -3.93258,3.31143 -1.34483,0.26571 -2.45142,1.06619 -3.00808,2.1761 -0.17937,0.35764 -0.65647,1.13782 -1.0604,1.73374 -0.40394,0.59593 -0.67138,1.18523 -0.59428,1.31 0.19606,0.3172 2.54609,0.27933 3.67987,-0.0594 1.43795,-0.42962 2.09652,-0.0304 2.09652,1.27021 0,0.95052 -0.52585,1.4111 -2.82877,2.47995 -1.34259,0.62315 -2.1116,1.1221 -2.48512,1.61179 -0.60074,0.78763 -1.89098,4.48526 -1.68258,4.82244 0.22425,0.36285 1.88822,0.005 3.23649,-0.69711 1.41988,-0.73897 1.95939,-0.6747 2.4784,0.29507 0.4758,0.88904 0.13793,1.50952 -1.59215,2.9223 -2.27199,1.8553 -2.75246,2.34493 -2.85977,2.91248 -0.785,4.15226 -0.81327,4.79609 -0.21084,4.79609 0.48163,0 1.81069,-0.74628 2.79776,-1.57096 0.71154,-0.59442 1.03185,-0.73464 1.45314,-0.63614 0.58043,0.13573 1.48363,1.01526 1.48363,1.44436 0,0.37995 -1.04488,1.96388 -2.09134,3.17035 -0.49824,0.57444 -1.03316,1.34971 -1.18908,1.72289 -0.52296,1.2516 -0.20211,5.51536 0.41496,5.51336 0.53187,-0.002 1.63799,-0.87952 2.34043,-1.85725 0.84069,-1.17018 1.29621,-1.37032 2.13165,-0.9369 0.73773,0.38274 0.90324,0.64548 0.90124,1.43196 -0.0014,0.5728 -0.29481,1.25003 -1.64745,3.79977 -0.76531,1.44271 -0.76999,2.121 -0.02842,4.46122 0.53154,1.67746 0.75121,2.11719 1.05834,2.11719 0.45737,0 1.71109,-1.4717 2.14353,-2.51613 0.43155,-1.0423 0.85378,-1.33182 1.70843,-1.1715 1.43062,0.26839 1.5814,1.18544 0.68058,4.13876 -0.78257,2.56566 -0.74012,3.00191 0.52296,5.3449 0.59156,1.09733 1.21856,2.05018 1.3932,2.11718 0.45584,0.17492 0.82288,-0.43166 1.42472,-2.35386 0.28949,-0.92459 0.68193,-1.79891 0.87229,-1.94304 0.51894,-0.39293 1.47037,-0.3161 1.94356,0.1571 0.38001,0.37996 0.41935,0.6998 0.42012,3.40703 0.0012,3.31804 -0.08939,3.03841 1.76114,5.43171 1.04357,1.34965 1.54251,1.85415 1.83399,1.85415 0.28441,0 0.80667,-2.13495 0.80667,-3.29748 0,-0.91446 0.09624,-1.22071 0.5147,-1.63917 0.60896,-0.60895 1.57824,-0.67827 2.05879,-0.14728 0.52278,0.57766 0.73641,1.327 0.96738,3.39566 0.25332,2.26899 0.66885,3.07257 2.08618,4.03334 0.53732,0.36423 1.28676,0.9292 1.66553,1.25522 0.37877,0.32601 0.82544,0.59273 0.99219,0.59273 0.5751,0 0.66101,-1.71917 0.19585,-3.91707 -0.11565,-0.54644 -0.04359,-0.76514 0.39688,-1.20561 0.64579,-0.64579 1.64084,-0.71198 2.20606,-0.14676 0.2152,0.21519 0.54355,0.80449 0.72968,1.30999 0.18612,0.50551 0.53639,1.4632 0.77824,2.12804 0.56638,1.55693 1.1867,2.27661 2.55282,2.96158 0.60722,0.30446 1.51957,0.78788 2.02778,1.07435 h 10e-4 c 0.50819,0.28647 0.9922,0.5209 1.0759,0.5209 0.33835,0 0.312,-1.02935 -0.06201,-2.41381 -0.68958,-2.55255 -0.69387,-2.91378 -0.04186,-3.42666 1.23585,-0.97211 2.12642,-0.37746 3.83232,2.5585 0.52686,0.90676 1.179987,1.79435 1.451077,1.97197 0.50845,0.33316 3.99572,1.31 4.67671,1.31 0.87126,0 0.69916,-0.86705 -0.57309,-2.88716 -0.38261,-0.60762 -0.69556,-1.34298 -0.69556,-1.63453 0,-0.64138 0.9246,-1.55856 1.57148,-1.55856 0.62183,0 1.96138,0.99816 2.93677,2.1885 1.33841,1.63332 1.72055,1.81123 4.55889,2.12338 1.39619,0.15353 2.61615,0.2312 2.71095,0.1726 0.49519,-0.30606 -0.36191,-1.83754 -1.79937,-3.21531 -0.87603,-0.83968 -0.9727,-1.56309 -0.31936,-2.39365 0.71335,-0.90687 1.46408,-0.74822 3.86333,0.81752 1.15314,0.7525 2.32158,1.42553 2.59622,1.49603 0.27457,0.0704 1.31196,0.0116 2.3058,-0.13074 2.41462,-0.34591 2.75074,-0.43276 2.75074,-0.71365 0,-0.13147 -0.64783,-0.85228 -1.43971,-1.60197 -1.6268,-1.54013 -2.00004,-2.11903 -1.79679,-2.78639 0.4371,-1.43531 1.57965,-1.55296 4.11707,-0.42323 2.19798,0.97861 3.50565,1.03852 5.19916,0.23771 0.6342,-0.2999 1.45898,-0.61028 1.83245,-0.68988 0.37347,-0.0796 0.72346,-0.21744 0.77876,-0.30644 0.19511,-0.31573 -0.80874,-1.12549 -2.17196,-1.75183 -0.76039,-0.34934 -1.54745,-0.77686 -1.74925,-0.94982 -0.54998,-0.47137 -0.4744,-1.62881 0.14728,-2.2505 0.60154,-0.60156 0.88243,-0.61867 3.25923,-0.19999 3.00671,0.52963 3.24002,0.48717 5.52577,-0.99632 1.1104,-0.7207 2.01977,-1.43283 2.02054,-1.58285 0.002,-0.33918 -0.99236,-0.75945 -2.55385,-1.07952 -1.64125,-0.33639 -2.26652,-0.86297 -2.26652,-1.9079 0,-1.20755 0.54652,-1.47897 3.35328,-1.66656 1.84966,-0.12362 2.50622,-0.25923 3.40031,-0.70229 1.01451,-0.50271 3.51916,-2.68682 3.51916,-3.06854 0,-0.45596 -0.80755,-0.6999 -2.63239,-0.7953 -1.81469,-0.0949 -2.03203,-0.15167 -2.40657,-0.62787 -0.51175,-0.65007 -0.53452,-1.75927 -0.0455,-2.20142 0.20172,-0.18243 1.44602,-0.63082 2.76521,-0.99684 1.31912,-0.36602 2.60715,-0.80226 2.86235,-0.96945 0.64519,-0.42272 2.87781,-3.9993 2.73265,-4.37751 -0.159,-0.41429 -1.30419,-0.396 -2.96881,0.0476 -1.5953,0.42509 -2.25663,0.2011 -2.61534,-0.88574 -0.3853,-1.16725 0.0338,-1.68244 2.29805,-2.82411 1.10095,-0.55511 2.30286,-1.32445 2.67064,-1.70998 0.72157,-0.75638 2.11698,-3.5164 2.20968,-4.37027 0.0537,-0.49479 0.003,-0.52218 -0.90899,-0.49248 -0.53107,0.0172 -1.27038,0.18899 -1.64331,0.38189 -1.05132,0.5436 -3.36851,0.88076 -3.36851,-0.69076 0,-2.16492 2.55968,-3.45288 3.38091,-4.03763 0.85067,-0.60579 1.00742,-0.98479 1.44229,-3.49023 0.53361,-3.07392 0.45709,-3.18721 -1.46657,-2.17455 -2.20038,1.15831 -3.8306,1.29919 -4.18424,0.36122 -0.21555,-0.57174 0.17062,-1.32808 1.48621,-2.90886 1.56571,-1.88143 1.72184,-2.28629 1.82004,-4.71341 0.0993,-2.4565 -0.025,-3.20084 -0.53433,-3.20084 -0.19588,0 -1.08079,0.75494 -1.9668,1.67742 -1.79226,1.86593 -2.3358,2.06136 -3.23443,1.16272 -0.75492,-0.75494 -0.6484,-1.41628 0.63975,-3.97082 0.63351,-1.25611 1.15187,-2.51469 1.15187,-2.79724 0,-0.68606 -1.23266,-4.62758 -1.49862,-4.79196 -0.34019,-0.21023 -1.16172,0.71564 -1.90066,2.14147 -0.84468,1.62985 -1.49271,2.00054 -2.58537,1.4795 -0.98838,-0.47132 -1.08914,-1.088 -0.51418,-3.15123 1.01762,-3.65129 1.02217,-3.34777 -0.0858,-5.80533 -1.05377,-2.33769 -1.40828,-2.85498 -1.79266,-2.61741 -0.303,0.18726 -1.17441,2.1396 -1.37252,3.07474 -0.33642,1.58871 -1.72534,2.1422 -2.76521,1.10226 l -0.54519,-0.54518 0.13901,-2.59829 c 0.10927,-2.04296 0.0735,-2.75401 -0.16588,-3.32693 -0.27971,-0.66948 -3.18633,-3.83793 -3.3507,-3.65249 -0.39629,0.44714 -0.77303,1.6813 -0.88676,2.90473 -0.1553,1.67126 -0.49689,2.10323 -1.66347,2.10323 -1.11172,0 -1.58074,-0.98297 -1.95905,-4.10466 -0.2051,-1.69259 -0.61935,-2.62976 -1.40147,-3.17138 -0.29893,-0.20696 -1.05437,-0.82481 -1.67896,-1.37253 -1.82714,-1.60242 -2.0499,-1.36325 -1.93425,2.07429 l 0.0687,2.06654 -0.76275,0.37311 c -1.40572,0.68732 -1.97442,0.11987 -3.10627,-3.09852 -0.36494,-1.03772 -0.87034,-2.10826 -1.12293,-2.37918 -0.57273,-0.6144 -4.31874,-2.39051 -4.71857,-2.23708 -0.37231,0.14286 -0.18167,1.61603 0.39997,3.0918 0.22032,0.55878 0.4005,1.18436 0.4005,1.39062 0,0.88507 -1.69785,1.68753 -2.50941,1.18597 -0.145,-0.0896 -0.85397,-1.07082 -1.57562,-2.18023 -0.72165,-1.10939 -1.50931,-2.19296 -1.74976,-2.40812 -0.24037,-0.21514 -1.07807,-0.56917 -1.86139,-0.78703 -0.78332,-0.21786 -1.824677,-0.50957 -2.314067,-0.64802 -0.30029,-0.085 -0.53885,-0.13362 -0.7214,-0.14005 z m -18.53737,21.79247 h 44.663937 c 3.6547,0 6.5965,2.94232 6.5965,6.59702 v 41.31375 c 0,3.6547 -2.9418,6.59702 -6.5965,6.59702 H 79.787933 c -3.6547,0 -6.59701,-2.94232 -6.59701,-6.59702 v -41.31375 c 0,-3.6547 2.94231,-6.59702 6.59701,-6.59702 z" />
  </g>
</svg>
