<?xml version="1.0" encoding="UTF-8" standalone="no"?>
<!-- Created with Inkscape (http://www.inkscape.org/) -->

<svg
   width="1280"
   height="640"
   viewBox="0 0 338.66666 169.33333"
   version="1.1"
   id="svg5"
   xml:space="preserve"
   inkscape:version="1.2.1 (9c6d41e410, 2022-07-14)"
   sodipodi:docname="social.svg"
   inkscape:export-filename="toolauth-hardware\docs\social.png"
   inkscape:export-xdpi="96"
   inkscape:export-ydpi="96"
   xmlns:inkscape="http://www.inkscape.org/namespaces/inkscape"
   xmlns:sodipodi="http://sodipodi.sourceforge.net/DTD/sodipodi-0.dtd"
   xmlns="http://www.w3.org/2000/svg"
   xmlns:svg="http://www.w3.org/2000/svg"><sodipodi:namedview
     id="namedview7"
     pagecolor="#ffffff"
     bordercolor="#666666"
     borderopacity="1.0"
     inkscape:showpageshadow="2"
     inkscape:pageopacity="0.0"
     inkscape:pagecheckerboard="0"
     inkscape:deskcolor="#d1d1d1"
     inkscape:document-units="mm"
     showgrid="false"
     inkscape:zoom="1.6523097"
     inkscape:cx="580.09706"
     inkscape:cy="408.51905"
     inkscape:window-width="3840"
     inkscape:window-height="2050"
     inkscape:window-x="-12"
     inkscape:window-y="-12"
     inkscape:window-maximized="1"
     inkscape:current-layer="layer1" /><defs
     id="defs2" /><g
     inkscape:label="Layer 1"
     inkscape:groupmode="layer"
     id="layer1"><rect
       style="fill:#ffffff;fill-rule:evenodd;stroke-width:0.1;stroke-linecap:round"
       id="rect467"
       width="338.66666"
       height="169.33333"
       x="0"
       y="0" /><path
       id="rect1159"
       style="fill:#000000;fill-opacity:1;fill-rule:evenodd;stroke-width:0.0999995;stroke-linecap:round"
       d="m 53.374003,28.41687 4.105176,4.876705 c 4.086852,4.855486 3.46798,12.054803 -1.387512,16.14165 -4.855489,4.086852 -12.054798,3.46798 -16.141651,-1.387512 l -4.090189,-4.859135 a 17.707599,17.707599 0 0 0 3.896403,14.33711 17.707599,17.707599 0 0 0 13.467911,6.292639 l 5.266862,6.257499 C 63.423336,64.077823 68.362327,58.085014 73.302502,52.093461 L 70.752787,49.064189 A 17.707599,17.707599 0 0 0 66.851217,34.719845 17.707599,17.707599 0 0 0 53.374003,28.41687 Z m 59.322477,70.479419 c -4.93385,5.996181 -9.87439,11.986911 -14.816666,17.976161 l 2.566766,3.04943 a 17.707599,17.707599 0 0 0 3.90157,14.34434 17.707599,17.707599 0 0 0 13.46223,6.28489 l -4.09019,-4.85913 c -4.08685,-4.85551 -3.46798,-12.05428 1.38751,-16.14114 4.85551,-4.08684 12.05481,-3.46799 16.14165,1.38751 l 4.08968,4.85914 a 17.707599,17.707599 0 0 0 -3.89589,-14.33711 17.707599,17.707599 0 0 0 -13.4767,-6.30297 z M 95.98469,41.849463 125.50064,66.223195 c 3.39072,2.799988 3.86629,7.783845 1.0663,11.174562 L 86.388957,126.05224 c -2.799991,3.39072 -7.78385,3.86628 -11.174562,1.06629 L 45.698441,102.7448 C 42.307727,99.944813 41.832161,94.960958 44.632152,91.570242 L 84.810131,42.915756 c 2.799991,-3.390716 7.783845,-3.866282 11.174559,-1.066293 z" /><path
       id="path1380"
       style="fill:#99ff55;fill-opacity:0.629693;fill-rule:evenodd;stroke-width:0.0999995;stroke-linecap:round"
       d="m -169.75747,150.15656 4.10489,4.87693 c 4.08686,4.85549 3.46806,12.0546 -1.38744,16.14145 -4.85549,4.08686 -12.0546,3.46806 -16.14145,-1.38744 l -4.09006,-4.8593 a 17.707599,17.707599 0 0 0 3.89595,14.33735 17.707599,17.707599 0 0 0 13.46811,6.29249 l 47.22222,56.10357 a 17.707599,17.707599 0 0 0 3.90188,14.34438 17.707599,17.707599 0 0 0 13.46193,6.28513 l -4.08993,-4.85913 c -4.08685,-4.85551 -3.46805,-12.0546 1.38745,-16.14146 4.85551,-4.08685 12.054598,-3.46806 16.141448,1.38745 l 4.08992,4.85912 a 17.707599,17.707599 0 0 0 -3.89584,-14.33686 17.707599,17.707599 0 0 0 -13.476868,-6.30323 l -47.21331,-56.09299 a 17.707599,17.707599 0 0 0 -3.90203,-14.34423 17.707599,17.707599 0 0 0 -13.47687,-6.30323 z" /><rect
       style="fill:#99ff55;fill-opacity:0.629693;fill-rule:evenodd;stroke-width:0.1;stroke-linecap:round"
       id="rect1382"
       width="54.153843"
       height="78.974358"
       x="13.036955"
       y="146.57802"
       rx="7.9375"
       ry="7.9375"
       transform="rotate(39.549267)" /><text
       xml:space="preserve"
       style="font-size:39.4938px;line-height:1.25;font-family:Oswald;-inkscape-font-specification:'Oswald, @wght=600';font-variation-settings:'wght' 600;stroke-width:0.264583"
       x="157.67946"
       y="57.97258"
       id="text1995"><tspan
         sodipodi:role="line"
         id="tspan1993"
         style="font-style:normal;font-variant:normal;font-weight:normal;font-stretch:normal;font-size:39.4938px;font-family:'Stardos Stencil';-inkscape-font-specification:'Stardos Stencil, Normal';font-variant-ligatures:normal;font-variant-caps:normal;font-variant-numeric:normal;font-variant-east-asian:normal;stroke-width:0.264583"
         x="157.67946"
         y="57.97258">toolauth</tspan></text><text
       xml:space="preserve"
       style="font-size:19.7556px;line-height:0.95;font-family:Oswald;-inkscape-font-specification:'Oswald, @wght=600';font-variation-settings:'wght' 600;text-align:end;text-anchor:end;stroke-width:0.264583"
       x="301.43198"
       y="98.86235"
       id="text2049"><tspan
         sodipodi:role="line"
         id="tspan2047"
         style="font-style:normal;font-variant:normal;font-weight:normal;font-stretch:normal;font-size:19.7556px;font-family:Oswald;-inkscape-font-specification:'Oswald, Normal';font-variant-ligatures:normal;font-variant-caps:normal;font-variant-numeric:normal;font-variant-east-asian:normal;text-align:end;text-anchor:end;stroke-width:0.264583"
         x="301.43198"
         y="98.86235">control access</tspan><tspan
         sodipodi:role="line"
         style="font-style:normal;font-variant:normal;font-weight:normal;font-stretch:normal;font-size:19.7556px;font-family:Oswald;-inkscape-font-specification:'Oswald, Normal';font-variant-ligatures:normal;font-variant-caps:normal;font-variant-numeric:normal;font-variant-east-asian:normal;text-align:end;text-anchor:end;stroke-width:0.264583"
         x="301.43198"
         y="117.63017"
         id="tspan2057">&amp; monitor use in</tspan><tspan
         sodipodi:role="line"
         style="font-style:normal;font-variant:normal;font-weight:normal;font-stretch:normal;font-size:19.7556px;font-family:Oswald;-inkscape-font-specification:'Oswald, Normal';font-variant-ligatures:normal;font-variant-caps:normal;font-variant-numeric:normal;font-variant-east-asian:normal;text-align:end;text-anchor:end;stroke-width:0.264583"
         x="301.43198"
         y="136.39798"
         id="tspan2108">a shared workshop</tspan></text><rect
       style="fill:#000000;fill-rule:evenodd;stroke-width:0.1;stroke-linecap:round"
       id="rect451"
       width="142.58652"
       height="4"
       x="158.47011"
       y="63.571365" /></g></svg>
