<?xml version="1.0" encoding="UTF-8" standalone="no"?>
<!-- Created with Inkscape (http://www.inkscape.org/) -->

<svg
   width="1280"
   height="640"
   viewBox="0 0 338.66666 169.33333"
   version="1.1"
   id="svg5"
   xml:space="preserve"
   inkscape:version="1.2.1 (9c6d41e410, 2022-07-14)"
   sodipodi:docname="social.svg"
   inkscape:export-filename="social.png"
   inkscape:export-xdpi="96"
   inkscape:export-ydpi="96"
   xmlns:inkscape="http://www.inkscape.org/namespaces/inkscape"
   xmlns:sodipodi="http://sodipodi.sourceforge.net/DTD/sodipodi-0.dtd"
   xmlns="http://www.w3.org/2000/svg"
   xmlns:svg="http://www.w3.org/2000/svg"><sodipodi:namedview
     id="namedview7"
     pagecolor="#ffffff"
     bordercolor="#666666"
     borderopacity="1.0"
     inkscape:showpageshadow="2"
     inkscape:pageopacity="0.0"
     inkscape:pagecheckerboard="0"
     inkscape:deskcolor="#d1d1d1"
     inkscape:document-units="mm"
     showgrid="false"
     inkscape:zoom="1.6456805"
     inkscape:cx="378.26296"
     inkscape:cy="445.10461"
     inkscape:window-width="3840"
     inkscape:window-height="2050"
     inkscape:window-x="-12"
     inkscape:window-y="-12"
     inkscape:window-maximized="1"
     inkscape:current-layer="layer1" /><defs
     id="defs2" /><g
     inkscape:label="Layer 1"
     inkscape:groupmode="layer"
     id="layer1"><path
       id="path4543"
       style="fill:#917c6f;stroke-width:1"
       d="m 659.91493,80.534849 c -0.74719,0.0037 -1.1153,0.11952 -1.59912,0.424561 -1.33285,0.840343 -1.9882,2.139012 -2.62216,5.19619 -0.31949,1.540668 -0.74599,3.196633 -0.94774,3.679496 -0.52357,1.253064 -1.95676,2.176283 -4.58389,2.952845 -1.2569,0.371532 -3.05377,0.911518 -3.99304,1.199814 -2.65135,0.813796 -10.02518,4.603803 -13.47434,6.925865 -1.71358,1.15363 -3.46881,2.24664 -3.90059,2.4287 -1.11625,0.47067 -2.84984,0.41009 -4.82691,-0.16868 -2.84109,-0.8317 -4.11861,-0.97527 -5.4959,-0.61801 -2.07736,0.53886 -3.16393,1.92655 -3.16393,4.04115 0,2.27769 1.49309,4.507 6.84963,10.22512 1.93518,2.06582 4.60305,5.08491 5.92856,6.70907 3.41736,4.18735 4.98283,5.97133 6.31547,7.19746 l 1.16265,1.06974 -1.89455,1.75969 c -2.94657,2.73743 -3.79423,5.1216 -2.32101,6.52704 0.75448,0.71977 1.75427,1.15931 2.63836,1.15931 0.89016,0 1.5696,0.81799 1.57052,1.89074 0.002,1.95223 1.66061,3.47371 3.78767,3.47556 1.67963,9.2e-4 2.21448,0.43654 2.55545,2.07895 0.4756,2.29098 1.44668,3.03853 4.43189,3.41361 1.36514,0.17153 1.55323,0.37662 1.75302,1.90837 0.3035,2.32681 1.44867,3.33451 3.79004,3.33451 0.76857,0 1.58717,0.13858 1.81927,0.3083 0.24781,0.1812 0.56864,1.00897 0.77716,2.00557 0.48107,2.29929 0.9906,2.77762 3.40933,3.19824 2.12839,0.37011 2.56021,0.6256 2.56021,1.51573 0,0.34375 0.21917,1.07828 0.48746,1.63247 0.54851,1.13309 1.31307,1.58804 3.70809,2.20761 0.84553,0.21872 1.66843,0.50648 1.82879,0.63898 0.16035,0.13249 0.41789,0.84928 0.57227,1.59293 0.19088,0.9195 0.52685,1.61906 1.05019,2.18712 0.68048,0.73858 0.99369,0.86936 2.70269,1.12976 l 1.93266,0.29495 0.26827,1.34468 c 0.51389,2.57662 1.63634,3.65662 3.80101,3.65662 0.49993,0 1.24956,0.0678 1.66583,0.15105 0.64307,0.12862 0.77764,0.28449 0.89438,1.03685 0.25883,1.66797 0.62306,2.709 1.17218,3.34739 0.47294,0.54983 0.82792,0.66658 2.54878,0.84006 1.09959,0.11086 2.09553,0.26107 2.21284,0.33355 0.1173,0.0725 0.27926,0.68809 0.35976,1.36801 0.17625,1.48824 0.98734,3.0201 1.79352,3.38741 0.32387,0.14756 1.35617,0.33972 2.29433,0.42694 0.93815,0.0872 1.78391,0.27984 1.8793,0.4279 0.0954,0.14807 0.30494,0.90147 0.46554,1.67441 0.50582,2.43454 1.5916,3.34702 3.98779,3.35071 1.269,0.002 1.86303,0.54008 2.16853,1.96459 0.57515,2.68184 1.47674,3.40409 4.25177,3.40409 0.95992,0 1.6622,0.11866 1.81879,0.30734 0.14031,0.16905 0.33473,1.00838 0.4317,1.86548 0.13581,1.20037 0.3299,1.73035 0.84531,2.30719 0.6034,0.67534 0.88109,0.77415 2.8299,1.00636 l 2.16138,0.25731 0.27113,1.45855 c 0.54556,2.93326 1.21631,3.53226 3.95778,3.53226 2.06287,0 2.27983,0.20331 2.50208,2.35056 0.2444,2.36137 0.91101,2.91035 3.95825,3.26018 0.91339,0.10486 1.71246,0.24295 1.7759,0.30639 0.0634,0.0634 0.21642,0.73527 0.33973,1.49285 0.42903,2.63603 1.40357,3.50959 4.17506,3.74193 0.9509,0.0798 1.7619,0.26539 1.8021,0.41264 0.41225,1.50876 0.95338,2.53078 1.52813,2.88709 0.75375,0.46731 2.14832,0.5526 3.10294,0.18965 1.05655,-0.4017 3.03075,-2.42106 5.1309,-5.2486 1.09629,-1.47599 4.04922,-5.13096 6.56183,-8.12187 2.51261,-2.99092 4.83651,-5.83299 5.16426,-6.31595 0.74211,-1.09358 0.78597,-2.56937 0.10912,-3.6795 -0.26682,-0.43762 -12.9487,-17.8635 -28.18186,-38.72386 l -27.6968,-37.9281 0.0415,-1.17075 c 0.0338,-0.95607 -0.32738,-2.0884 -1.96697,-6.16633 -2.29867,-5.71715 -3.13896,-7.39794 -4.43093,-8.86568 -0.90969,-1.03347 -3.13609,-2.38554 -4.42855,-2.68934 -1.18543,-0.27863 -3.64996,-2.1732 -4.72684,-3.63328 -1.31509,-1.78304 -1.9443,-3.11998 -3.78671,-8.045151 -1.99067,-5.321519 -2.78309,-6.681893 -5.44254,-9.345032 -3.64797,-3.653051 -6.74123,-5.487492 -9.52657,-5.649335 -0.35169,-0.02047 -0.64294,-0.03135 -0.892,-0.03006 z m 3.31689,22.962801 c 0.61399,0.007 1.16673,0.0657 1.64819,0.17774 2.40921,0.56087 3.41493,1.46793 3.94921,3.56228 0.2645,1.03689 0.23761,1.25071 -0.29782,2.38582 -1.10996,2.35313 -1.7036,2.70822 -5.34532,3.19538 -6.68286,0.89398 -10.47136,2.61616 -13.74738,6.25018 -0.96791,1.07369 -2.04478,2.09524 -2.39296,2.27003 -3.20646,1.60966 -6.91057,-1.03566 -6.55993,-4.68491 0.16178,-1.68361 1.01261,-3.20619 2.72652,-4.87884 1.86269,-1.81785 3.55903,-2.97136 6.37218,-4.33324 5.23588,-2.53481 10.33173,-3.98426 13.64731,-3.94444 z" /><rect
       style="fill:#ffffff;fill-rule:evenodd;stroke-width:0.1;stroke-linecap:round"
       id="rect467"
       width="338.66666"
       height="169.33333"
       x="0"
       y="0" /><path
       id="path1380"
       style="fill:#99ff55;fill-opacity:0.629693;fill-rule:evenodd;stroke-width:0.0999995;stroke-linecap:round"
       d="m -169.75747,150.15656 4.10489,4.87693 c 4.08686,4.85549 3.46806,12.0546 -1.38744,16.14145 -4.85549,4.08686 -12.0546,3.46806 -16.14145,-1.38744 l -4.09006,-4.8593 a 17.707599,17.707599 0 0 0 3.89595,14.33735 17.707599,17.707599 0 0 0 13.46811,6.29249 l 47.22222,56.10357 a 17.707599,17.707599 0 0 0 3.90188,14.34438 17.707599,17.707599 0 0 0 13.46193,6.28513 l -4.08993,-4.85913 c -4.08685,-4.85551 -3.46805,-12.0546 1.38745,-16.14146 4.85551,-4.08685 12.054598,-3.46806 16.141448,1.38745 l 4.08992,4.85912 a 17.707599,17.707599 0 0 0 -3.89584,-14.33686 17.707599,17.707599 0 0 0 -13.476868,-6.30323 l -47.21331,-56.09299 a 17.707599,17.707599 0 0 0 -3.90203,-14.34423 17.707599,17.707599 0 0 0 -13.47687,-6.30323 z" /><rect
       style="fill:#99ff55;fill-opacity:0.629693;fill-rule:evenodd;stroke-width:0.1;stroke-linecap:round"
       id="rect1382"
       width="54.153843"
       height="78.974358"
       x="13.036955"
       y="146.57802"
       rx="7.9375"
       ry="7.9375"
       transform="rotate(39.549267)" /><text
       xml:space="preserve"
       style="font-size:39.4938px;line-height:1.25;font-family:Oswald;-inkscape-font-specification:'Oswald, @wght=600';font-variation-settings:'wght' 600;stroke-width:0.264583"
       x="157.67946"
       y="57.97258"
       id="text1995"><tspan
         sodipodi:role="line"
         id="tspan1993"
         style="font-style:normal;font-variant:normal;font-weight:normal;font-stretch:normal;font-size:39.4938px;font-family:'Stardos Stencil';-inkscape-font-specification:'Stardos Stencil, Normal';font-variant-ligatures:normal;font-variant-caps:normal;font-variant-numeric:normal;font-variant-east-asian:normal;stroke-width:0.264583"
         x="157.67946"
         y="57.97258">toolauth</tspan></text><text
       xml:space="preserve"
       style="font-size:19.7556px;line-height:0.95;font-family:Oswald;-inkscape-font-specification:'Oswald, @wght=600';font-variation-settings:'wght' 600;text-align:end;text-anchor:end;stroke-width:0.264583"
       x="301.43198"
       y="98.86235"
       id="text2049"><tspan
         sodipodi:role="line"
         id="tspan2047"
         style="font-style:normal;font-variant:normal;font-weight:normal;font-stretch:normal;font-size:19.7556px;font-family:Oswald;-inkscape-font-specification:'Oswald, Normal';font-variant-ligatures:normal;font-variant-caps:normal;font-variant-numeric:normal;font-variant-east-asian:normal;text-align:end;text-anchor:end;stroke-width:0.264583"
         x="301.43198"
         y="98.86235">control access</tspan><tspan
         sodipodi:role="line"
         style="font-style:normal;font-variant:normal;font-weight:normal;font-stretch:normal;font-size:19.7556px;font-family:Oswald;-inkscape-font-specification:'Oswald, Normal';font-variant-ligatures:normal;font-variant-caps:normal;font-variant-numeric:normal;font-variant-east-asian:normal;text-align:end;text-anchor:end;stroke-width:0.264583"
         x="301.43198"
         y="117.63017"
         id="tspan2057">&amp; monitor use in</tspan><tspan
         sodipodi:role="line"
         style="font-style:normal;font-variant:normal;font-weight:normal;font-stretch:normal;font-size:19.7556px;font-family:Oswald;-inkscape-font-specification:'Oswald, Normal';font-variant-ligatures:normal;font-variant-caps:normal;font-variant-numeric:normal;font-variant-east-asian:normal;text-align:end;text-anchor:end;stroke-width:0.264583"
         x="301.43198"
         y="136.39798"
         id="tspan2108">a shared workshop</tspan></text><rect
       style="fill:#000000;fill-rule:evenodd;stroke-width:0.1;stroke-linecap:round"
       id="rect451"
       width="142.58652"
       height="4"
       x="158.47011"
       y="63.571365" /><rect
       style="fill:#1426d2;fill-opacity:0.629984;fill-rule:evenodd;stroke-width:0.529167;stroke-linecap:round"
       id="rect476"
       width="47.556"
       height="37.931572"
       x="137.23302"
       y="242.76207"
       ry="1.5154761" /><path
       id="path530"
       style="fill:#1426d2;fill-opacity:0.629984;fill-rule:evenodd;stroke-width:0.529167;stroke-linecap:round"
       d="m 161.01084,216.30114 a 19.475315,19.475315 0 0 0 -19.47529,19.4753 v 4.86895 h 6.00118 v -4.86895 a 13.4742,13.4742 0 0 1 13.47411,-13.47412 13.4742,13.4742 0 0 1 13.47463,13.47412 h -5.1e-4 v 4.86895 h 6.00118 v -4.86895 a 19.475315,19.475315 0 0 0 -19.4753,-19.4753 z" /><rect
       style="fill:#1426d2;fill-opacity:0.629984;fill-rule:evenodd;stroke-width:0.529167;stroke-linecap:round"
       id="rect476-8"
       width="47.556"
       height="28.307144"
       x="78.580627"
       y="242.76208"
       ry="1.1309524" /><path
       id="path530-0"
       style="fill:#1426d2;fill-opacity:0.629984;fill-rule:evenodd;stroke-width:0.529167;stroke-linecap:round"
       d="m 102.35845,216.30114 a 19.475315,19.475315 0 0 0 -19.475287,19.4753 v 4.86895 h 6.00118 v -4.86895 a 13.4742,13.4742 0 0 1 13.474107,-13.47412 13.4742,13.4742 0 0 1 13.47463,13.47412 h -5.1e-4 v 4.86895 h 6.00118 v -4.86895 a 19.475315,19.475315 0 0 0 -19.4753,-19.4753 z" /><path
       id="path530-0-3"
       style="fill:#1426d2;fill-opacity:0.629984;fill-rule:evenodd;stroke-width:0.529167;stroke-linecap:round"
       d="m 165.87968,296.14462 a 19.475315,19.475315 0 0 0 -19.47529,19.4753 v 4.86895 h 6.00118 v -4.86895 a 13.4742,13.4742 0 0 1 13.47411,-13.47412 13.4742,13.4742 0 0 1 13.47463,13.47412 h -5.1e-4 v 4.86895 h 6.00118 v -4.86895 a 19.475315,19.475315 0 0 0 -19.4753,-19.4753 z" /><rect
       style="fill:#1426d2;fill-opacity:0.629984;fill-rule:evenodd;stroke-width:0.529167;stroke-linecap:round"
       id="rect476-3"
       width="38.951"
       height="38.950996"
       x="197.13095"
       y="242.76207"
       ry="1.5562052" /><path
       id="path530-5"
       style="fill:#1426d2;fill-opacity:0.629984;fill-rule:evenodd;stroke-width:0.529167;stroke-linecap:round"
       d="m 216.60644,216.30116 a 19.475315,19.475315 0 0 0 -19.47529,19.4753 v 4.86895 h 6.00118 v -4.86895 a 13.4742,13.4742 0 0 1 13.47411,-13.47412 13.4742,13.4742 0 0 1 13.47463,13.47412 h -5.1e-4 v 4.86895 h 6.00118 v -4.86895 a 19.475315,19.475315 0 0 0 -19.4753,-19.4753 z" /><path
       id="ellipse628"
       style="fill:#1426d2;fill-opacity:0.629984;fill-rule:evenodd;stroke-width:0.529169;stroke-linecap:round"
       d="m 544.33535,343.52014 a 1.1586438,1.2027824 40 0 1 -1.66071,0.17663 1.1586438,1.2027824 40 0 1 -0.11442,-1.66614 1.1586438,1.2027824 40 0 1 1.66069,-0.17663 1.1586438,1.2027824 40 0 1 0.11444,1.66614 z m 3.27097,-2.77086 a 4.0700433,4.2250917 40 0 0 -5.83373,0.62056 4.0700433,4.2250917 40 0 0 0.40199,5.85273 4.0700433,4.2250917 40 0 0 4.91434,0.20332 l 4.43172,3.71864 -0.97625,1.16345 c -0.14333,0.1708 -0.12122,0.42357 0.0496,0.56691 l 0.4021,0.33738 c 0.17084,0.14331 0.42373,0.12131 0.56705,-0.0495 l 0.97624,-1.16343 0.56817,0.47682 -0.97624,1.16343 c -0.14333,0.17079 -0.12121,0.42356 0.0496,0.56691 l 0.4021,0.33737 c 0.17082,0.14336 0.42359,0.12121 0.56692,-0.0496 l 0.97624,-1.16343 0.4131,0.34657 c 0.17085,0.14331 0.42359,0.12121 0.56692,-0.0496 l 1.16231,-1.38519 c 0.14334,-0.17082 0.12122,-0.42359 -0.0496,-0.56693 l -7.49049,-6.28526 a 4.0700433,4.2250917 40 0 0 -1.12209,-4.64121 z m -4.76332,-11.60323 24.64217,20.67722 c 0.34087,0.28603 0.38502,0.79071 0.099,1.13158 l -11.88993,14.16987 c -0.28603,0.34088 -0.79072,0.38502 -1.13158,0.099 l -24.64217,-20.67723 c -0.34086,-0.28602 -0.38503,-0.7907 -0.099,-1.13159 l 11.88993,-14.16986 c 0.28603,-0.34087 0.79071,-0.38501 1.13158,-0.099 z m 24.40069,-4.0575 a 13.831452,13.831452 0 0 0 -19.48617,1.70483 l -2.22273,2.64895 3.26494,2.73959 2.22272,-2.64894 a 9.5694342,9.5694342 0 0 1 13.48164,-1.17951 9.5694342,9.5694342 0 0 1 1.17977,13.48188 l -2.8e-4,-2.3e-4 -2.22273,2.64895 3.26493,2.7396 2.22273,-2.64895 a 13.831452,13.831452 0 0 0 -1.70482,-19.48617 z" /><path
       id="path626-4"
       style="fill:#1426d2;fill-opacity:0.629984;fill-rule:evenodd;stroke-width:0.529167;stroke-linecap:round"
       d="m 157.47104,329.62021 a 6.8768912,7.1388666 0 0 0 -6.87684,7.1391 6.8768912,7.1388666 0 0 0 6.87684,7.1388 6.8768912,7.1388666 0 0 0 6.58162,-5.07419 h 9.77487 v 2.56615 c 0,0.37676 0.30315,0.67991 0.67991,0.67991 h 0.88688 c 0.37676,0 0.68022,-0.30315 0.68022,-0.67991 v -2.56615 h 1.25325 v 2.56615 c 0,0.37676 0.30315,0.67991 0.67991,0.67991 h 0.88687 c 0.37677,0 0.67992,-0.30315 0.67992,-0.67991 v -2.56615 h 0.9111 c 0.37677,0 0.67992,-0.30315 0.67992,-0.67992 v -3.05527 c 0,-0.37675 -0.30315,-0.67991 -0.67992,-0.67991 H 163.9641 a 6.8768912,7.1388666 0 0 0 -6.49306,-4.78861 z m -14.23824,-7.01462 h 45.2941 c 0.62655,0 1.13095,0.50441 1.13095,1.13095 v 26.04524 c 0,0.62655 -0.5044,1.13095 -1.13095,1.13095 h -45.2941 c -0.62654,0 -1.13095,-0.5044 -1.13095,-1.13095 v -26.04524 c 0,-0.62654 0.50441,-1.13095 1.13095,-1.13095 z" /><path
       id="path742"
       style="fill:#000000;fill-opacity:1;fill-rule:evenodd;stroke-width:0.529169;stroke-linecap:round"
       d="m 294.4639,343.54 a 1.1586438,1.2027824 40 0 1 -1.66071,0.17663 1.1586438,1.2027824 40 0 1 -0.11442,-1.66614 1.1586438,1.2027824 40 0 1 1.66069,-0.17663 1.1586438,1.2027824 40 0 1 0.11444,1.66614 z m 3.27097,-2.77086 a 4.0700433,4.2250917 40 0 0 -5.83373,0.62056 4.0700433,4.2250917 40 0 0 0.40199,5.85273 4.0700433,4.2250917 40 0 0 4.91434,0.20332 l 4.43172,3.71864 -0.97625,1.16345 c -0.14333,0.1708 -0.12122,0.42357 0.0496,0.56691 l 0.4021,0.33738 c 0.17084,0.14331 0.42373,0.12131 0.56705,-0.0495 l 0.97624,-1.16343 0.56817,0.47682 -0.97624,1.16343 c -0.14333,0.17079 -0.12121,0.42356 0.0496,0.56691 l 0.4021,0.33737 c 0.17082,0.14336 0.42359,0.12121 0.56692,-0.0496 l 0.97624,-1.16343 0.4131,0.34657 c 0.17085,0.14331 0.42359,0.12121 0.56692,-0.0496 l 1.16231,-1.38519 c 0.14334,-0.17082 0.12122,-0.42359 -0.0496,-0.56693 l -7.49049,-6.28526 a 4.0700433,4.2250917 40 0 0 -1.12209,-4.64121 z m -4.76332,-11.60323 24.64216,20.67722 c 0.34087,0.28603 0.38503,0.79071 0.099,1.13158 l -11.88992,14.16986 c -0.28603,0.34088 -0.79072,0.38502 -1.13158,0.099 l -24.64217,-20.67722 c -0.34086,-0.28602 -0.38503,-0.7907 -0.099,-1.13159 l 11.88993,-14.16986 c 0.28603,-0.34087 0.79071,-0.38501 1.13158,-0.099 z m 24.40068,-4.0575 a 13.831452,13.831452 0 0 0 -19.48616,1.70483 l -2.22273,2.64895 3.26494,2.73959 2.22272,-2.64894 a 9.5694342,9.5694342 0 0 1 13.48164,-1.17951 9.5694342,9.5694342 0 0 1 1.17977,13.48188 l -2.8e-4,-2.3e-4 -2.22273,2.64895 3.26492,2.7396 2.22274,-2.64895 a 13.831452,13.831452 0 0 0 -1.70483,-19.48617 z m -5.94982,-24.09058 29.51595,24.37373 c 3.39072,2.79999 3.86629,7.78384 1.0663,11.17456 l -40.17798,48.65448 c -2.79999,3.39072 -7.78385,3.86628 -11.17456,1.06629 l -29.51595,-24.37373 c -3.39072,-2.79998 -3.86628,-7.78384 -1.06629,-11.17455 l 40.17798,-48.65449 c 2.79999,-3.39072 7.78384,-3.86628 11.17455,-1.06629 z" /><path
       id="path2839"
       style="fill:#d38d5f;fill-opacity:0.641234;stroke-width:1"
       d="m -153.88962,2.7895006 c -0.0301,6e-4 -0.061,0.00361 -0.0925,0.00827 -1.61945,0.26598 -3.05637,1.16485 -4.50619,1.89032 -3.41594,1.95511 -6.67671,4.27482 -9.39994,7.1292804 -3.05769,3.33809 -5.70059,7.49091 -5.79344,12.15378 -0.0164,0.76834 0.0421,1.5266 0.16278,2.2717 l -0.40618,2.56263 c -0.82888,5.23085 -1.63708,7.12225 -4.97799,11.65252 -0.96883,1.31375 -15.81215,16.36034 -40.5412,41.09517 -35.37851,35.386789 -39.25479,39.179829 -41.60366,40.713789 -2.86496,1.87097 -6.65996,3.7928 -9.06301,4.58939 -0.42396,0.14054 -0.74015,0.26976 -0.96687,0.3855 -0.56915,-0.0737 -1.1411,-0.12928 -1.71565,-0.16278 -0.48581,-0.031 -0.97153,-0.0176 -1.4578,-0.01 -3.31032,0.0575 -6.565,1.64511 -8.53643,4.32429 -2.81508,3.7479 -3.48764,8.62319 -3.37757,13.19351 0.10334,2.2825 0.25575,4.63936 1.16376,6.76341 0.12747,0.38942 0.65359,0.75352 0.91105,0.2589 2.03735,-2.5821 3.59624,-5.50698 5.41724,-8.24291 1.03139,-1.62473 2.07559,-3.24098 3.11919,-4.8581 2.67626,-0.072 5.38155,0.0299 7.85947,1.13585 3.43807,1.42822 6.12967,4.37111 7.54321,7.78195 0.47363,0.60281 -0.0241,1.14799 -0.31368,1.70532 -2.192,4.13638 -4.50299,8.2171 -6.51484,12.44369 -0.32787,0.46038 0.22383,0.88615 0.67076,0.69918 2.09782,-0.56448 3.92277,-1.83833 5.73298,-2.99362 3.70832,-2.49357 7.21276,-5.62564 9.12916,-9.74307 0.78671,-1.72018 1.2592,-3.63478 1.19476,-5.5268 0.0596,-0.14911 0.12087,-0.34845 0.1726,-0.60254 0.97741,-4.80162 3.57899,-9.74092 7.4197,-14.08752 3.94292,-4.46227 74.95524,-75.081179 77.03974,-76.612889 2.9745,-2.18572 6.56784,-4.27637 8.95553,-5.21002 2.42366,-0.94773 7.23415,-2.37711 8.00002,-2.37711 0.001,0 0.002,-5.2e-4 0.003,-5.2e-4 3.42354,0.4492 6.97053,0.08286 10.0521,-1.53272 2.36456,-1.18228 4.23854,-3.19667 5.39916,-5.55935 1.31126,-2.42048 2.22614,-5.05509 2.52904,-7.79901 0.52504,-4.26327 0.52613,-8.66254 -0.52761,-12.84676 -0.2718,-0.71043 -0.32973,-1.6647 -1.00718,-2.11822 -0.75063,-0.0636 -1.14621,0.80945 -1.5782,1.28674 -2.7874,4.06867 -5.2758,8.33468 -7.98711,12.45454 -0.49971,0.78198 -1.02611,1.55429 -1.5384,2.33319 -2.90045,0.0729 -5.83535,8e-5 -8.5571,-1.08262 -4.4805,-1.65256 -8.1132,-5.43935 -9.83144,-9.89035 0.0233,-0.99642 0.72541,-1.84688 1.09967,-2.74609 2.38761,-4.6719 5.03989,-9.2134704 7.22747,-13.9841604 0.22479,-0.42259 -0.0576,-0.855 -0.5085,-0.84594 z" /><path
       id="path2839-2"
       style="fill:#d38d5f;fill-opacity:0.641234;stroke-width:1"
       d="m 750.117,80.534999 c -0.0301,6e-4 -0.061,0.0036 -0.0925,0.0083 -1.61945,0.26598 -3.05637,1.16485 -4.50619,1.89032 -3.41594,1.95511 -6.67671,4.27482 -9.39994,7.12928 -3.05769,3.33809 -5.70059,7.49091 -5.79344,12.153781 -0.0164,0.76834 0.0421,1.5266 0.16278,2.2717 l -0.40618,2.56263 c -0.82888,5.23085 -1.63708,7.12225 -4.97799,11.65252 -0.96883,1.31375 -15.81215,16.36034 -40.5412,41.09517 -35.37851,35.38679 -39.25479,39.17983 -41.60366,40.71379 -2.86496,1.87097 -6.65996,3.7928 -9.06301,4.58939 -0.42396,0.14054 -0.74015,0.26976 -0.96687,0.3855 -0.56915,-0.0737 -1.1411,-0.12928 -1.71565,-0.16278 -0.48581,-0.031 -0.97153,-0.0176 -1.4578,-0.01 -3.31032,0.0575 -6.565,1.64511 -8.53643,4.32429 -2.81508,3.7479 -3.48764,8.62319 -3.37757,13.19351 0.10334,2.2825 0.25575,4.63936 1.16376,6.76341 0.12747,0.38942 0.65359,0.75352 0.91105,0.2589 2.03735,-2.5821 3.59624,-5.50698 5.41724,-8.24291 1.03139,-1.62473 2.07559,-3.24098 3.11919,-4.8581 2.67626,-0.072 5.38155,0.0299 7.85947,1.13585 3.43807,1.42822 6.12967,4.37111 7.54321,7.78195 0.47363,0.60281 -0.0241,1.14799 -0.31368,1.70532 -2.192,4.13638 -4.50299,8.2171 -6.51484,12.44369 -0.32787,0.46038 0.22383,0.88615 0.67076,0.69918 2.09782,-0.56448 3.92277,-1.83833 5.73298,-2.99362 3.70832,-2.49357 7.21276,-5.62564 9.12916,-9.74307 0.78671,-1.72018 1.2592,-3.63478 1.19476,-5.5268 0.0596,-0.14911 0.12087,-0.34845 0.1726,-0.60254 0.97741,-4.80162 3.57899,-9.74092 7.4197,-14.08752 3.94292,-4.46227 74.95524,-75.08118 77.03974,-76.61289 2.9745,-2.18572 6.56784,-4.27637 8.95553,-5.21002 2.42366,-0.94773 7.23415,-2.37711 8.00002,-2.37711 10e-4,0 0.002,-5.2e-4 0.003,-5.2e-4 3.42354,0.4492 6.97053,0.0829 10.0521,-1.53272 2.36456,-1.18228 4.23854,-3.19667 5.39916,-5.55935 1.31126,-2.42048 2.22614,-5.05509 2.52904,-7.79901 0.52504,-4.26327 0.52613,-8.662541 -0.52761,-12.846761 -0.2718,-0.71043 -0.32973,-1.6647 -1.00718,-2.11822 -0.75063,-0.0636 -1.14621,0.80945 -1.5782,1.28674 -2.7874,4.06867 -5.2758,8.334681 -7.98711,12.454541 -0.49971,0.78198 -1.02611,1.55429 -1.5384,2.33319 -2.90045,0.0729 -5.83535,8e-5 -8.5571,-1.08262 -4.4805,-1.65256 -8.1132,-5.43935 -9.83144,-9.890351 0.0233,-0.99642 0.72541,-1.84688 1.09967,-2.74609 2.38761,-4.6719 5.03989,-9.21347 7.22747,-13.98416 0.22479,-0.42259 -0.0576,-0.855 -0.5085,-0.84594 z" /><path
       style="fill:#d38d5f;fill-opacity:0.641234;stroke-width:1"
       d="m 247.03043,573.46189 -9.81387,11.88456 c 4.87093,4.90258 8.60247,8.68795 9.33845,9.52086 3.41779,3.86799 5.73293,8.26328 6.6027,12.53619 0.0461,0.22611 0.10038,0.4037 0.15348,0.5364 -0.0573,1.68367 0.3629,3.38728 1.06298,4.91805 1.70539,3.66404 4.82408,6.45126 8.12405,8.67027 1.61089,1.02806 3.23519,2.16159 5.10202,2.66392 0.39772,0.16638 0.88863,-0.2125 0.59686,-0.62219 -1.79031,-3.76119 -3.84695,-7.39232 -5.79758,-11.07322 -0.25764,-0.49596 -0.70053,-0.98131 -0.27905,-1.51774 1.25789,-3.03527 3.65277,-5.6542 6.71225,-6.92516 2.20508,-0.98417 4.61284,-1.07489 6.99441,-1.01079 0.92868,1.43905 1.85771,2.87742 2.77554,4.32325 1.62049,2.43467 3.00787,5.03769 4.82089,7.33547 0.22911,0.44016 0.69734,0.11605 0.8108,-0.23048 0.80802,-1.89017 0.9436,-3.98757 1.0356,-6.01875 0.098,-4.06708 -0.50091,-8.40516 -3.00602,-11.74037 -1.75434,-2.38418 -4.65063,-3.79714 -7.59643,-3.84834 -0.43272,-0.007 -0.86477,-0.0188 -1.29708,0.009 -0.51128,0.0298 -1.02055,0.0797 -1.52704,0.14521 -0.20175,-0.10299 -0.48313,-0.21802 -0.86041,-0.34313 -2.13845,-0.70888 -5.51514,-2.41904 -8.06463,-4.08399 -1.46853,-0.95904 -3.82717,-3.13231 -15.88792,-15.1288 z"
       id="path2919" /><path
       style="fill:#d38d5f;fill-opacity:0.641234;stroke-width:1"
       d="m 180.41601,487.91517 c -0.40131,-0.008 -0.65221,0.37687 -0.45217,0.75293 1.94671,4.24536 4.30694,8.28673 6.43165,12.4442 0.33304,0.80019 0.95753,1.55708 0.97823,2.44378 -1.52903,3.96088 -4.76167,7.33094 -8.74882,8.80153 -2.42204,0.96348 -5.03345,1.02815 -7.61452,0.96325 -0.45588,-0.69313 -0.92474,-1.38048 -1.36942,-2.07636 -2.41277,-3.66621 -4.6271,-7.46239 -7.10758,-11.08305 -0.38442,-0.42474 -0.73607,-1.20175 -1.40405,-1.14515 -0.60285,0.40359 -0.65471,1.25296 -0.89659,1.88516 -0.9377,3.72349 -0.93645,7.63855 -0.46922,11.43238 0.26955,2.44177 1.08364,4.78618 2.25051,6.94014 1.03282,2.10252 2.70017,3.89489 4.80436,4.94699 2.74225,1.43763 5.89863,1.76399 8.94519,1.36425 h 0.003 c 0.68154,0 4.96268,1.27226 7.11946,2.11564 2.12478,0.83084 5.32206,2.69137 7.96902,4.63641 0.34849,0.25607 2.86396,2.68456 6.73965,6.48229 l 10.04176,-12.1605 c -2.8983,-2.97075 -4.67363,-4.83282 -4.96094,-5.22242 -2.97302,-4.03143 -3.69209,-5.71505 -4.4297,-10.36991 l -0.36174,-2.28048 c 0.10735,-0.66306 0.15981,-1.33733 0.14521,-2.02107 -0.0826,-4.14942 -2.43476,-7.84535 -5.15575,-10.81587 -2.42337,-2.54015 -5.32507,-4.60449 -8.36487,-6.34432 -1.29018,-0.64558 -2.56896,-1.44538 -4.01009,-1.68207 -0.028,-0.004 -0.0554,-0.006 -0.0822,-0.007 z"
       id="path2839-3" /><path
       style="fill:#000000;stroke-width:1"
       d="m -123.72816,320.53065 c -2.80465,-0.56144 -5.42903,-2.06063 -7.27333,-4.15493 -1.30256,-1.47913 -3.23918,-5.34757 -3.81161,-7.61377 -1.31105,-5.1903 -1.1189,-13.43611 0.39921,-17.13177 0.33965,-0.82685 1.02155,-0.94992 1.46603,-0.26459 0.16516,0.25467 1.75495,2.78474 3.53285,5.6224 1.77791,2.83766 3.94908,6.24595 4.82483,7.57399 l 1.59226,2.41462 1.30921,0.15505 c 1.93507,0.22918 5.34096,-0.28169 7.52066,-1.12807 3.40267,-1.32126 6.17236,-3.64028 8.32438,-6.96988 2.06016,-3.18746 2.21697,-2.48038 -2.5161,-11.34548 -2.2804,-4.27122 -4.21552,-8.09328 -4.30026,-8.49346 -0.13522,-0.63861 -0.0743,-0.7276 0.49804,-0.7276 0.35866,0 1.8033,0.5861 3.21031,1.30245 8.31451,4.23318 14.365173,10.66661 15.945083,16.9538 0.56109,2.23279 0.38186,5.63739 -0.40594,7.71149 -2.786,7.33487 -12.328483,13.95215 -23.002663,15.9513 -2.33074,0.43652 -5.53753,0.49986 -7.31296,0.14445 z"
       id="path2837" /><path
       style="fill:#000000;stroke-width:1"
       d="m -81.994957,337.39608 c -15.22944,-15.23743 -15.67174,-15.70839 -15.67174,-16.68729 0,-1.40713 1.14726,-2.55413 2.5547,-2.55413 0.97968,0 1.44711,0.43903 16.6936,15.67919 l 15.6857,15.67919 -1.79526,1.7815 -1.79525,1.78151 z"
       id="path2835" /><path
       style="fill:#000000;stroke-width:1"
       d="m -81.793507,346.04103 c -6.18364,-6.19887 -12.55267,-12.46076 -14.1534,-13.91532 -5.684883,-5.16577 -10.630203,-7.89906 -17.585433,-9.7195 l -2.76875,-0.72469 2.40958,-0.59539 c 4.62282,-1.14226 9.89546,-3.59357 13.45286,-6.2544 4.280043,-3.20133 6.988153,-6.63555 8.319733,-10.55042 l 0.44409,-1.30563 0.45986,2.89313 c 0.61604,3.87576 1.08757,5.48717 2.18314,7.46069 1.99579,3.59515 4.33235,6.19145 17.20809,19.121 l 13.05067,13.10521 -1.5901,1.57351 -1.5901,1.57351 -15.8062,-15.78537 c -17.54162,-17.51852 -16.5151,-16.67458 -18.96442,-15.59113 -1.00476,0.44445 -1.32679,0.76648 -1.77124,1.77124 -1.08346,2.44934 -1.927693,1.42249 15.59407,18.96735 l 15.78829,15.80913 -1.71888,1.71888 -1.71888,1.71888 z"
       id="path2833" /><path
       style="fill:#000000;stroke-width:1"
       d="m -16.836487,402.26443 c -0.591672,-0.3332 -35.85104,-35.46383 -35.85104,-35.72014 0,-0.23331 3.14925,-3.41047 3.3805,-3.41047 0.43016,0 35.508494,35.3742 35.766166,36.06784 0.152414,0.41029 0.207315,1.02407 0.122005,1.36398 -0.343609,1.36904 -2.28745,2.33526 -3.417631,1.69879 z"
       id="path2831" /><path
       style="fill:#000000;stroke-width:1"
       d="m -17.049148,417.90257 c -0.07376,-0.21828 -0.455142,-1.46514 -0.847509,-2.7708 -0.859951,-2.8616 -2.500881,-6.18481 -4.380254,-8.87086 -0.936056,-1.33785 -6.839986,-7.45836 -18.120686,-18.78542 l -16.73226,-16.80104 1.74118,-1.66988 1.74119,-1.66989 18.04536,18.04392 18.04536,18.04391 1.308512,0.12574 c 1.595848,0.15334 2.78338,-0.3858 3.52352,-1.59967 0.57114,-0.9367 0.677307,-2.5519 0.226383,-3.44413 -0.160642,-0.31785 -8.330134,-8.62867 -18.154425,-18.46849 l -17.86235,-17.89056 1.5385,-1.49017 c 0.84618,-0.81958 1.60437,-1.49016 1.68487,-1.49016 0.0805,0 7.94462,7.81232 17.47582,17.36071 12.736657,12.75963 18.0199072,17.87551 19.9346682,19.30316 2.771566,2.06648 6.609114,4.16249 9.433325,5.15233 1.933317,0.6776 2.512497,1.0463 1.643577,1.0463 -1.053009,0 -5.705752,1.62273 -8.125869,2.83404 -6.3079982,3.15728 -10.4001822,7.40042 -11.6202652,12.04895 -0.200494,0.76389 -0.424887,1.21029 -0.498647,0.99201 z"
       id="path2829" /><path
       style="fill:#000000;stroke-width:1"
       d="m -100.70941,402.34689 c -1.3232,-0.27346 -2.16098,-1.76072 -1.729,-3.06941 0.1855,-0.56199 12.965253,-13.51473 40.425103,-40.9723 40.059635,-40.05632 40.156325,-40.1505 41.210126,-40.14211 1.61694,0.0129 2.511486,0.96838 2.511486,2.68262 0,0.80835 -3.004749,3.87876 -40.150522,41.02804 -28.79365,28.79637 -40.37504,40.21487 -40.94427,40.36842 -0.43657,0.11775 -1.031883,0.16488 -1.322923,0.10474 z"
       id="path2827" /><path
       style="fill:#000000;stroke-width:1"
       d="m -98.513457,403.23544 c 0.39296,-0.2088 18.83418,-18.51466 40.98051,-40.67969 35.659849,-35.68998 40.286086,-40.41158 40.441312,-41.27499 0.473831,-2.63559 -1.977382,-4.95776 -4.57176,-4.33108 -0.501988,0.12125 -13.380072,12.82207 -41.312592,40.74391 l -40.583263,40.56775 -0.11272,1.2878 c -0.25609,2.92598 2.66326,5.01217 5.158513,3.6863 z"
       id="path2825" /><path
       style="fill:#000000;stroke-width:1"
       d="m -2.1897318,436.74759 c -9.1134282,-4.57478 -14.5830862,-12.06064 -13.4435812,-18.39912 0.64021,-3.56116 3.329298,-7.28595 7.3116162,-10.12767 2.176695,-1.55326 6.437855,-3.58127 9.476877,-4.51032 2.078923,-0.63554 2.834733,-0.7298 5.953123,-0.74242 3.3543098,-0.0136 3.6659298,0.0296 5.1159598,0.70893 2.16253,1.0131 3.53394,2.1756 4.70619,3.98931 1.19517,1.84916 1.98959,3.86361 2.52202,6.3952 0.90104,4.28426 0.10874,13.57123 -1.13608,13.3165 -0.22234,-0.0455 -2.28886,-3.05928 -4.59226,-6.6973 l -4.1879998,-6.61459 -2.60298,0.009 c -1.97709,0.007 -3.01786,0.15039 -4.32845,0.59677 -3.39467601,1.1562 -6.422292,3.78891 -8.086434,7.03165 l -0.968645,1.88751 3.604342,6.7708 c 1.98238499,3.72394 3.60433899,6.90183 3.60433899,7.06198 0,0.64836 -0.569367,0.51774 -2.94803699,-0.67631 z"
       id="path2817" /><path
       style="fill:#29e92e;fill-opacity:0.774351;stroke:none;stroke-width:1"
       d="m -149.61113,155.12734 c -1.20864,-0.22626 -1.90924,-0.5888 -2.82273,-1.46071 -4.45506,-4.25222 -55.94636,-58.639665 -66.82023,-70.578555 -1.23212,-1.3528 -1.52565,-2.05657 -1.52565,-3.65783 v -0.98176 l -12.88769,-12.888335 -12.88769,-12.88834 -1.80443,1.74923 c -2.82958,2.74299 -3.35649,2.98815 -4.9282,2.29291 -1.04593,-0.46266 -1.63247,-0.41722 -2.45822,0.19045 -0.95545,0.70313 -4.55411,4.39129 -4.85656,4.97734 -0.35002,0.67824 -0.30688,1.30967 0.14179,2.07527 0.51356,0.87631 0.50277,1.55496 -0.0374,2.35059 -0.53121,0.78246 -5.07261,5.356605 -6.17837,6.222905 -0.77041,0.60357 -0.86398,0.6373 -1.5987,0.57637 -0.69956,-0.058 -0.88519,-0.15645 -1.79196,-0.95021 -1.60601,-1.405865 -7.571,-7.298265 -9.29227,-9.179175 -2.2429,-2.45093 -2.3895,-2.75472 -1.86706,-3.86911 0.28476,-0.6074 4.28774,-4.76989 6.0091,-6.24853 1.29228,-1.11006 1.49578,-1.14633 3.16325,-0.56376 0.9532,0.33303 1.18453,0.36394 1.65936,0.22168 0.8025,-0.24044 2.16438,-1.32081 3.66774,-2.90959 2.02275,-2.13768 2.4373,-3.2701 1.71428,-4.68288 -0.5236,-1.02311 -0.43996,-1.4343 0.53756,-2.64279 1.98305,-2.45162 17.91207,-18.21238 22.6756,-22.43606 6.11077,-5.41826 16.00793,-9.35471 24.83244,-9.87675 3.72566,-0.2204 10.39122,0.57938 10.39122,1.24681 0,0.24875 -0.70303,0.61228 -3.40458,1.76052 -4.43881,1.8866 -7.65325,3.682 -10.92098,6.0998 -6.36733,4.7112 -11.74539,10.71913 -13.02413,14.54949 -0.43322,1.29768 -0.39608,1.77923 0.22786,2.95499 0.30981,0.58379 0.53825,1.22739 0.53825,1.5164 0,0.78342 -0.67166,1.74862 -2.58511,3.71488 l -1.76556,1.81428 12.88833,12.88769 12.88833,12.88768 h 1.0922 c 1.95896,0 2.23139,0.13245 4.42252,2.150085 12.82843,11.81265 68.06,64.174515 70.23276,66.583635 0.72646,0.80548 0.94878,1.51466 0.95081,3.03296 0.002,1.11618 -0.0479,1.35526 -0.40586,1.96415 -0.78228,1.33072 -8.4349,9.1141 -10.65647,10.83857 -1.21849,0.94583 -2.45755,1.35339 -3.51358,1.1557 z"
       id="path4414" /><path
       style="fill:#29e92e;fill-opacity:0.774351;stroke:none;stroke-width:1"
       d="m 748.57284,90.205499 c -1.20864,0.22626 -1.90924,0.5888 -2.82273,1.46071 -4.45506,4.25222 -55.94636,58.639661 -66.82023,70.578551 -1.23212,1.3528 -1.52565,2.05657 -1.52565,3.65783 v 0.98176 l -12.88769,12.88834 -12.88769,12.88834 -1.80443,-1.74923 c -2.82958,-2.74299 -3.35649,-2.98815 -4.9282,-2.29291 -1.04593,0.46266 -1.63247,0.41722 -2.45822,-0.19045 -0.95545,-0.70313 -4.55411,-4.39129 -4.85656,-4.97734 -0.35002,-0.67824 -0.30688,-1.30967 0.14179,-2.07527 0.51356,-0.87631 0.50277,-1.55496 -0.0374,-2.35059 -0.53121,-0.78246 -5.07261,-5.35661 -6.17837,-6.22291 -0.77041,-0.60357 -0.86398,-0.6373 -1.5987,-0.57637 -0.69956,0.058 -0.88519,0.15645 -1.79196,0.95021 -1.60601,1.40587 -7.571,7.29827 -9.29227,9.17918 -2.2429,2.45093 -2.3895,2.75472 -1.86706,3.86911 0.28476,0.6074 4.28774,4.76989 6.0091,6.24853 1.29228,1.11006 1.49578,1.14633 3.16325,0.56376 0.9532,-0.33303 1.18453,-0.36394 1.65936,-0.22168 0.8025,0.24044 2.16438,1.32081 3.66774,2.90959 2.02275,2.13768 2.4373,3.2701 1.71428,4.68288 -0.5236,1.02311 -0.43996,1.4343 0.53756,2.64279 1.98305,2.45162 17.91207,18.21236 22.6756,22.43604 6.11077,5.41826 16.00793,9.35471 24.83244,9.87675 3.72566,0.2204 10.39122,-0.57938 10.39122,-1.24681 0,-0.24875 -0.70303,-0.61228 -3.40458,-1.76052 -4.43881,-1.8866 -7.65325,-3.682 -10.92098,-6.0998 -6.36733,-4.7112 -11.74539,-10.71913 -13.02413,-14.54947 -0.43322,-1.29768 -0.39608,-1.77923 0.22786,-2.95499 0.30981,-0.58379 0.53825,-1.22739 0.53825,-1.5164 0,-0.78342 -0.67166,-1.74862 -2.58511,-3.71488 l -1.76556,-1.81428 12.88833,-12.88769 12.88833,-12.88768 h 1.0922 c 1.95896,0 2.23139,-0.13245 4.42252,-2.15009 12.82843,-11.81265 68.06,-64.17451 70.23276,-66.58363 0.72646,-0.80548 0.94878,-1.51466 0.95081,-3.03296 0.002,-1.11618 -0.0479,-1.35526 -0.40586,-1.96415 -0.78228,-1.33072 -8.4349,-9.114101 -10.65647,-10.838571 -1.21849,-0.94583 -2.45755,-1.35339 -3.51358,-1.1557 z"
       id="path4418" /><path
       style="fill:#ffd42a;fill-opacity:0.660714;stroke-width:0.999998"
       d="m 768.74168,240.05796 -15.99162,-16.71938 11.94681,-12.05434 -27.0149,-23.81678 9.19458,-9.86753 c -15.00046,-10.76839 -29.3402,-22.8034 -42.48104,-32.06728 l -9.48108,9.06427 c -10.27098,9.81939 -11.90229,11.39099 -11.90838,11.47375 10.27542,7.32634 20.59866,12.10226 31.80704,20.0792 l -12.25183,11.95688 35.82664,19.7985 -13.03731,12.63359 z"
       id="path4602"
       sodipodi:nodetypes="ccccccscccccc" /><path
       id="rect4503"
       style="fill:#c83737;fill-opacity:0.774351;fill-rule:evenodd;stroke:none;stroke-width:0.529166;stroke-linecap:round"
       d="m 718.76787,126.40207 c -18.52084,0.0192 -37.0431,-0.0623 -55.5625,0.19727 -5.70486,0.87425 -9.95568,6.81462 -9.14848,12.49062 0.006,16.80455 -0.0737,33.61048 0.16606,50.41367 0.93495,5.69713 6.89743,9.93204 12.57812,9.09375 18.15153,-0.006 36.30586,0.0887 54.45508,-0.18359 5.66288,-0.93901 9.84484,-6.86399 9.04492,-12.50781 -0.0236,-16.80468 0.0797,-33.61085 -0.17578,-50.41407 -0.86258,-5.26617 -6.04096,-9.37534 -11.35742,-9.08984 z" /><rect
       style="fill:#c83737;fill-opacity:0.774351;fill-rule:evenodd;stroke:none;stroke-width:0.529166;stroke-linecap:round"
       id="rect4501"
       width="70.1632"
       height="66.100441"
       x="657.09686"
       y="129.46071"
       ry="8"
       rx="8" /><path
       id="ellipse628-4"
       style="fill:#1426d2;fill-opacity:0.629984;fill-rule:evenodd;stroke-width:0.529169;stroke-linecap:round"
       d="m 686.51703,172.05965 a 1.1586438,1.2027824 0 0 1 -1.15866,1.20278 1.1586438,1.2027824 0 0 1 -1.15864,-1.20281 1.1586438,1.2027824 0 0 1 1.15866,-1.20276 1.1586438,1.2027824 0 0 1 1.15864,1.20279 z m 0.72464,-4.22516 a 4.0700433,4.2250917 0 0 0 -4.07002,4.22523 4.0700433,4.2250917 0 0 0 4.07001,4.22506 4.0700433,4.2250917 0 0 0 3.89528,-3.00312 l 5.7852,-2e-5 -10e-6,1.51877 c 4e-5,0.22297 0.17982,0.40219 0.40238,0.4024 l 0.52489,-4e-5 c 0.22295,-1.4e-4 0.40278,-0.17895 0.40259,-0.40239 v -1.51875 l 0.74174,5e-5 v 1.51877 c 3e-5,0.22295 0.17981,0.40216 0.40236,0.40238 l 0.52488,-4e-5 c 0.223,-4e-5 0.40222,-0.17983 0.40243,-0.40239 v -1.51876 h 0.53923 c 0.22297,-1.3e-4 0.40222,-0.17983 0.40242,-0.40238 l -2e-5,-1.80824 c -3e-5,-0.22299 -0.17982,-0.40222 -0.40239,-0.40243 h -9.77813 a 4.0700433,4.2250917 0 0 0 -3.84288,-2.83411 z m -11.10735,-5.82679 32.16806,1e-5 c 0.44499,1e-5 0.80322,0.35821 0.8032,0.80319 l 3e-5,18.49745 c -2e-5,0.44498 -0.35824,0.80318 -0.80322,0.80321 l -32.16807,-1e-5 c -0.44497,-2e-5 -0.80319,-0.35822 -0.80321,-0.80322 l 2e-5,-18.49743 c 10e-6,-0.44498 0.35823,-0.80319 0.80317,-0.8032 z m 16.08391,-18.79268 a 13.831452,13.831452 0 0 0 -13.83142,13.83143 l -10e-6,3.45797 4.26207,-2e-5 -3e-5,-3.45795 a 9.5694342,9.5694342 0 0 1 9.56939,-9.56938 9.5694342,9.5694342 0 0 1 9.56975,9.56938 h -3.6e-4 l -2e-5,3.45796 4.26206,-1e-5 3e-5,-3.45795 a 13.831452,13.831452 0 0 0 -13.83146,-13.83143 z" /><path
       style="fill:#000000;fill-opacity:1;fill-rule:evenodd;stroke-width:0.529169;stroke-linecap:round"
       d="m 409.54013,417.6604 c 0.43467,0.005 0.8262,0.0465 1.16705,0.12585 1.70562,0.39708 2.41755,1.03945 2.7958,2.52215 0.18726,0.73407 0.16833,0.88551 -0.21073,1.68912 -0.78579,1.6659 -1.20613,1.91714 -3.78431,2.26203 -4.73116,0.63289 -7.41334,1.85219 -9.73261,4.42491 -0.68524,0.76012 -1.44775,1.48342 -1.69424,1.60716 -2.27004,1.13957 -4.8923,-0.73326 -4.64406,-3.31677 0.11454,-1.19191 0.71683,-2.26979 1.9302,-3.45395 1.3187,-1.28696 2.51968,-2.10384 4.51126,-3.06799 3.70677,-1.79453 7.31436,-2.8207 9.66164,-2.79251 z"
       id="path4932" /><path
       style="fill:#000000;fill-opacity:1;fill-rule:evenodd;stroke-width:0.529169;stroke-linecap:round"
       d="m 407.19213,401.40364 v 3.7e-4 c -0.52898,0.003 -0.78978,0.0844 -1.13229,0.30036 -0.9436,0.59492 -1.4075,1.51424 -1.85631,3.67859 -0.22619,1.09073 -0.52813,2.26334 -0.67096,2.60519 -0.37067,0.88711 -1.38517,1.54068 -3.24506,2.09045 -0.88983,0.26303 -2.16194,0.6454 -2.8269,0.8495 -1.87704,0.57613 -7.0976,3.25915 -9.53945,4.90307 -1.21314,0.81672 -2.45572,1.59059 -2.76141,1.71948 -0.79025,0.33321 -2.01769,0.29011 -3.41737,-0.11963 -2.01137,-0.58881 -2.91571,-0.69048 -3.89078,-0.43756 -1.47068,0.38149 -2.2397,1.36425 -2.2397,2.86129 0,1.6125 1.05673,3.19047 4.84891,7.23864 1.37003,1.46251 3.25897,3.59996 4.19737,4.74979 2.41934,2.96445 3.52756,4.22746 4.47101,5.09551 l 0.82316,0.7573 -1.3412,1.2457 c -2.08604,1.93799 -2.68636,3.62603 -1.64339,4.62101 0.53414,0.50957 1.24212,0.8206 1.86802,0.8206 0.63019,0 1.11115,0.57917 1.11181,1.33863 0.001,1.3821 1.17579,2.45937 2.68165,2.46068 1.18911,6.5e-4 1.56772,0.30905 1.80911,1.47181 0.33671,1.62191 1.0241,2.15124 3.1375,2.41678 0.96647,0.12143 1.09951,0.26666 1.24096,1.35107 0.21485,1.64728 1.02553,2.36045 2.68311,2.36045 0.54411,0 1.12383,0.0983 1.28815,0.21841 0.0781,0.0571 0.16616,0.21535 0.25316,0.42401 1.7e-4,-4.5223 0.005,-9.04451 0.004,-13.56669 -0.57147,-4.01835 2.43779,-8.22395 6.47659,-8.84288 7.56835,-0.10608 15.13749,-0.12967 22.70663,-0.13499 l -0.14451,-0.19756 0.0292,-0.82865 c 0.024,-0.67685 -0.23165,-1.47865 -1.3924,-4.36564 -1.62736,-4.04749 -2.22249,-5.23737 -3.13715,-6.27646 -0.64402,-0.73165 -2.21992,-1.68879 -3.13493,-1.90387 -0.83923,-0.19726 -2.58401,-1.5386 -3.3464,-2.57227 -0.93103,-1.26231 -1.37657,-2.2087 -2.68092,-5.69549 -1.40931,-3.76741 -1.97033,-4.73059 -3.8531,-6.61598 -2.5826,-2.5862 -4.77249,-3.88486 -6.74437,-3.99943 -0.24899,-0.0145 -0.45514,-0.0225 -0.63146,-0.0216 z"
       id="path4930" /><path
       style="fill:#000000;fill-opacity:1;fill-rule:evenodd;stroke-width:0.529169;stroke-linecap:round"
       d="m 471.05101,401.40364 v 3.7e-4 c -0.0213,4.3e-4 -0.0432,0.003 -0.0656,0.006 -1.1465,0.1883 -2.16377,0.82467 -3.19018,1.33827 -2.41834,1.38413 -4.72682,3.02639 -6.65475,5.04722 -2.16471,2.36322 -4.03577,5.30324 -4.1015,8.60435 -0.0116,0.54395 0.0298,1.08075 0.11523,1.60825 l -0.28756,1.81424 c -0.58681,3.70321 -1.15898,5.04224 -3.52421,8.24948 -0.26899,0.36476 -2.45087,2.6221 -5.5711,5.80488 0.36196,-2.7e-4 0.7239,10e-6 1.08584,-3.7e-4 3.7638,-0.20212 7.4299,2.70703 8.04057,6.43524 0.0104,0.68351 0.0172,1.36707 0.0259,2.05058 3.14218,-3.07965 5.54211,-5.41195 5.82244,-5.61795 2.10582,-1.54738 4.64975,-3.02747 6.34013,-3.68846 1.71584,-0.67095 5.12146,-1.68289 5.66367,-1.68289 7e-4,0 0.001,-3.7e-4 0.002,-3.7e-4 2.42372,0.31801 4.93484,0.0587 7.11645,-1.0851 1.67401,-0.837 3.0007,-2.2631 3.82237,-3.93578 0.92832,-1.71359 1.57601,-3.57878 1.79045,-5.52136 0.3717,-3.0182 0.37248,-6.1327 -0.37353,-9.09494 -0.19242,-0.50295 -0.23343,-1.17854 -0.71303,-1.4996 -0.53142,-0.045 -0.81147,0.57305 -1.11731,0.91095 -1.97334,2.88044 -3.73502,5.90059 -5.65451,8.81727 -0.35377,0.55361 -0.72645,1.10037 -1.08913,1.6518 -2.05339,0.0516 -4.13118,5e-5 -6.05805,-0.76645 -3.172,-1.16994 -5.74379,-3.85083 -6.96023,-7.00194 0.0166,-0.70542 0.51356,-1.3075 0.77852,-1.9441 1.69033,-3.3075 3.56802,-6.52275 5.11673,-9.90018 0.15915,-0.29917 -0.0408,-0.60531 -0.36,-0.59889 z"
       id="path4928" /><path
       style="fill:#000000;fill-opacity:1;fill-rule:evenodd;stroke-width:0.529169;stroke-linecap:round"
       d="m 384.33697,471.45375 c -0.0879,-0.003 -0.18971,0.004 -0.31976,0.0143 -0.49525,0.0411 -0.62643,0.11085 -1.26839,0.6728 -1.13698,0.99529 -5.36007,5.16693 -6.57865,6.49853 -1.58788,1.73515 -1.69167,1.95015 -1.3218,2.7391 0.20159,0.43 3.03541,3.377 4.25407,4.42381 0.91486,0.78588 1.05921,0.81157 2.2397,0.39914 0.67483,-0.23578 0.83857,-0.25767 1.17474,-0.15695 0.56813,0.17022 1.5321,0.93493 2.59641,2.05971 1.43202,1.51338 1.72575,2.31511 1.21388,3.3153 -0.37069,0.72433 -0.31157,1.01539 0.38047,1.87095 1.40391,1.73563 12.681,12.89378 16.05335,15.88396 4.32616,3.83589 11.33267,6.62247 17.58004,6.99206 2.63759,0.15603 7.3568,-0.41028 7.3568,-0.88279 0,-0.1761 -0.49799,-0.43317 -2.41056,-1.24608 -3.14248,-1.33563 -5.41803,-2.60675 -7.73144,-4.31845 -4.50779,-3.33531 -8.31514,-7.5887 -9.22043,-10.30041 -0.3067,-0.91869 -0.28039,-1.25952 0.16134,-2.09191 0.21933,-0.41329 0.38084,-0.86916 0.38084,-1.07376 0,-0.55463 -0.47532,-1.23805 -1.82995,-2.63007 l -1.25011,-1.28413 7.35169,-7.35131 c -0.36072,10e-6 -0.72146,-4.9e-4 -1.08217,-3.7e-4 -3.08418,0.45513 -6.27911,-1.20592 -7.90266,-3.82236 l -4.77027,4.77064 -1.27754,-1.23839 c -2.00322,-1.94192 -2.37601,-2.11546 -3.48871,-1.62327 -0.74048,0.32754 -1.15574,0.29522 -1.74033,-0.135 -0.67641,-0.49777 -3.22411,-3.10893 -3.43823,-3.52383 -0.2478,-0.48015 -0.21739,-0.92722 0.1003,-1.46923 0.36357,-0.62039 0.35607,-1.10061 -0.0263,-1.66387 -0.37609,-0.55395 -3.59124,-3.79223 -4.37406,-4.40553 -0.40907,-0.32048 -0.54855,-0.41401 -0.81219,-0.42255 z"
       id="path4926" /><path
       style="fill:#000000;fill-opacity:1;fill-rule:evenodd;stroke-width:0.529169;stroke-linecap:round"
       d="m 457.02152,461.31285 c 4.2e-4,4.89648 -0.006,9.79277 7.2e-4,14.68911 0.56629,3.99557 -2.39437,8.19017 -6.40342,8.85494 -4.2106,0.0631 -8.4215,0.0966 -12.63267,0.11558 l 24.76121,13.68375 -9.22995,8.94386 30.71904,6.73926 -11.32112,-11.8366 8.45765,-8.5341 -19.12536,-16.86114 6.50951,-6.98584 c -3.98446,-2.86032 -7.903,-5.84705 -11.73563,-8.80885 z"
       id="path4924" /><path
       id="path4953"
       style="fill:#000000;fill-opacity:1;fill-rule:evenodd;stroke-width:0.529169;stroke-linecap:round"
       d="m 83.482782,88.435469 a 2.8814128,2.9911803 0 0 0 -2.88139,2.99128 2.8814128,2.9911803 0 0 0 2.88139,2.99116 2.8814128,2.9911803 0 0 0 2.75768,-2.12608 l 4.09566,-1e-5 v 1.07522 c 2e-5,0.15785 0.1273,0.28473 0.28486,0.28488 l 0.3716,-2e-5 c 0.15784,-1e-4 0.28515,-0.12669 0.28502,-0.28488 v -1.07521 l 0.52512,4e-5 v 1.07522 c 2e-5,0.15784 0.1273,0.28471 0.28485,0.28487 l 0.37159,-3e-5 c 0.15788,-3e-5 0.28475,-0.12731 0.2849,-0.28487 v -1.07522 h 0.38176 c 0.15785,-9e-5 0.28476,-0.12731 0.28489,-0.28487 l -1e-5,-1.28015 c -2e-5,-0.15787 -0.12731,-0.28476 -0.28488,-0.28491 h -6.92248 a 2.8814128,2.9911803 0 0 0 -2.72059,-2.00642 z m -7.86352,-4.12511 22.77358,10e-6 c 0.31502,1e-5 0.56864,0.2536 0.56863,0.56862 l 2e-5,13.09539 c -1e-5,0.31503 -0.25363,0.56862 -0.56864,0.56864 l -22.77359,-1e-5 c -0.31502,-1e-5 -0.56862,-0.2536 -0.56863,-0.56865 l 1e-5,-13.09537 c 1e-5,-0.31502 0.2536,-0.56862 0.56861,-0.56863 z m 11.38671,-13.30439 a 9.7920638,9.7920638 0 0 0 -9.79205,9.79204 l -1e-5,2.4481 3.01736,-2e-5 -2e-5,-2.44808 a 6.7747413,6.7747413 0 0 1 6.77472,-6.7747 6.7747413,6.7747413 0 0 1 6.77496,6.7747 h -2.6e-4 l -10e-6,2.44809 3.01735,-1e-5 2e-5,-2.44808 a 9.7920638,9.7920638 0 0 0 -9.79206,-9.79204 z m -19.200735,-9.73746 h 38.345203 c 3.13768,0 5.66369,2.52599 5.66369,5.66365 v 35.468921 c 0,3.13766 -2.52601,5.66365 -5.66369,5.66365 H 67.805237 c -3.13766,0 -5.66364,-2.52599 -5.66364,-5.66365 V 66.932159 c 0,-3.13766 2.52598,-5.66365 5.66364,-5.66365 z m 15.378295,-25.6484 c -0.54764,-0.0193 -0.58982,0.3418 -0.27337,1.24696 0.17862,0.5109 0.66365,1.48016 1.07746,2.15387 0.8397,1.36702 0.79234,1.89123 -0.22996,2.56108 -0.85751,0.56186 -1.52762,0.22028 -3.55431,-1.81126 -2.19002,-2.19527 -2.52487,-2.32775 -5.36711,-2.12028 -1.83417,0.13389 -1.98682,0.17869 -1.92753,0.56482 0.0354,0.23063 0.24542,0.65534 0.46663,0.94362 1.52487,1.98725 2.07849,2.98459 1.87121,3.37188 -0.59705,1.11565 -2.12567,1.15319 -3.57963,0.0879 -2.686795,-1.96864 -3.540555,-2.24002 -5.321635,-1.69085 -0.57656,0.17777 -1.29997,0.32356 -1.60765,0.32556 -0.76454,0.003 -1.22267,0.20276 -1.22267,0.53279 0,0.42857 1.00506,1.52044 2.23604,2.42982 1.20539,0.89048 1.33321,1.257 0.79995,2.28823 -0.46632,0.90176 -1.12962,0.97381 -2.88716,0.31265 -4.23598,-1.5935 -3.74481,-1.47889 -4.77335,-1.11415 -2.1947,0.77827 -3.87056,1.59 -3.93206,1.90428 -0.07916,0.40462 1.29315,1.31716 2.66857,1.77457 1.32119,0.43938 1.48518,0.60967 1.48518,1.54357 0,1.6275 -1.06296,1.97456 -4.08812,1.33377 -2.52956,-0.5358 -2.83035,-0.47458 -5.15628,1.0542 -1.14244,0.7509 -2.07687,1.4942 -2.07687,1.65158 0,0.42763 1.9324,1.17615 3.03599,1.17615 1.75025,0 2.55076,1.42769 1.49138,2.65927 -0.49015,0.56984 -0.57602,0.58889 -3.10782,0.69298 -2.40527,0.0989 -2.67075,0.15168 -3.48557,0.69092 -0.74789,0.49494 -2.95261,3.12336 -2.96261,3.53157 -0.0088,0.36716 1.49331,0.69675 2.97294,0.65215 1.45815,-0.044 1.64487,-0.004 1.93942,0.41651 1.05065,1.50001 -0.23228,2.5803 -3.93258,3.31143 -1.34483,0.26571 -2.45142,1.06619 -3.00808,2.1761 -0.17937,0.35764 -0.65647,1.13782 -1.0604,1.73374 -0.40394,0.59593 -0.67138,1.18523 -0.59428,1.31 0.19606,0.3172 2.54609,0.27933 3.67987,-0.0594 1.43795,-0.42962 2.09652,-0.0304 2.09652,1.27021 0,0.95052 -0.52585,1.4111 -2.82877,2.47995 -1.34259,0.62315 -2.1116,1.1221 -2.48512,1.61179 -0.60074,0.78763 -1.89098,4.48526 -1.68258,4.82244 0.22425,0.36285 1.88822,0.005 3.23649,-0.69711 1.41988,-0.73897 1.95939,-0.6747 2.4784,0.29507 0.4758,0.88904 0.13793,1.50952 -1.59215,2.9223 -2.27199,1.8553 -2.75246,2.34493 -2.85977,2.91248 -0.785,4.15226 -0.81327,4.79609 -0.21084,4.79609 0.48163,0 1.81069,-0.74628 2.79776,-1.57096 0.71154,-0.59442 1.03185,-0.73464 1.45314,-0.63614 0.58043,0.13573 1.48363,1.01526 1.48363,1.44436 0,0.37995 -1.04488,1.96388 -2.09134,3.17035 -0.49824,0.57444 -1.03316,1.34971 -1.18908,1.72289 -0.52296,1.2516 -0.20211,5.515361 0.41496,5.513361 0.53187,-0.002 1.63799,-0.87952 2.34043,-1.85725 0.84069,-1.17018 1.29621,-1.37032 2.13165,-0.9369 0.73773,0.38274 0.90324,0.64548 0.90124,1.43196 -0.0014,0.5728 -0.29481,1.25003 -1.64745,3.79977 -0.76531,1.44271 -0.76999,2.121 -0.02842,4.46122 0.53154,1.67746 0.75121,2.11719 1.05834,2.11719 0.45737,0 1.71109,-1.4717 2.14353,-2.51613 0.43155,-1.0423 0.85378,-1.33182 1.70843,-1.1715 1.43062,0.26839 1.5814,1.18544 0.68058,4.13876 -0.78257,2.56567 -0.74012,3.00192 0.52296,5.34491 0.59156,1.09733 1.21856,2.05018 1.3932,2.11718 0.45584,0.17492 0.82288,-0.43166 1.42472,-2.35386 0.28949,-0.92459 0.68193,-1.79891 0.87229,-1.94304 0.51894,-0.39293 1.47037,-0.3161 1.94356,0.1571 0.38001,0.37996 0.41935,0.6998 0.42012,3.40703 0.0012,3.31804 -0.08939,3.03841 1.76114,5.43171 1.04357,1.34965 1.54251,1.85415 1.83399,1.85415 0.28441,0 0.80667,-2.13495 0.80667,-3.29748 0,-0.91446 0.09624,-1.22071 0.5147,-1.63917 0.60896,-0.60895 1.57824,-0.67827 2.05879,-0.14728 0.52278,0.57766 0.73641,1.327 0.96738,3.39566 0.25332,2.26899 0.66885,3.07257 2.08618,4.03334 0.53732,0.36423 1.28676,0.9292 1.66553,1.25522 0.37877,0.32601 0.82544,0.59273 0.99219,0.59273 0.5751,0 0.66101,-1.71917 0.19585,-3.91707 -0.11565,-0.54644 -0.04359,-0.76514 0.39688,-1.20561 0.645795,-0.64579 1.640845,-0.71198 2.206055,-0.14676 0.21521,0.21519 0.54356,0.80449 0.72968,1.30999 0.18613,0.50551 0.5364,1.4632 0.77825,2.12804 0.56637,1.55693 1.1867,2.27661 2.55282,2.96158 0.60721,0.30446 1.51956,0.78788 2.02777,1.07435 h 0.001 c 0.5082,0.28647 0.9922,0.5209 1.07591,0.5209 0.33834,0 0.31199,-1.02935 -0.062,-2.41381 -0.68958,-2.55255 -0.69387,-2.91378 -0.0418,-3.42666 1.23585,-0.97211 2.12642,-0.37746 3.83231,2.5585 0.52686,0.90676 1.17999,1.79435 1.45108,1.97197 0.50845,0.33316 3.99572,1.31 4.67671,1.31 0.87126,0 0.69916,-0.86705 -0.57309,-2.88716 -0.38261,-0.60762 -0.69556,-1.34298 -0.69556,-1.63453 0,-0.64138 0.9246,-1.55856 1.57148,-1.55856 0.62183,0 1.96138,0.99816 2.93677,2.1885 1.33841,1.63332 1.72055,1.81123 4.55889,2.12338 1.39619,0.15353 2.616148,0.2312 2.710948,0.1726 0.4952,-0.30606 -0.36191,-1.83754 -1.799368,-3.21531 -0.87603,-0.83968 -0.9727,-1.56309 -0.31936,-2.39365 0.71335,-0.90687 1.464078,-0.74822 3.863338,0.81752 1.15315,0.7525 2.3216,1.42553 2.59624,1.49603 0.27457,0.0704 1.31196,0.0116 2.30581,-0.13074 2.41464,-0.34591 2.75076,-0.43276 2.75076,-0.71365 0,-0.13147 -0.64784,-0.85228 -1.43972,-1.60197 -1.62681,-1.54013 -2.00005,-2.11903 -1.7968,-2.78639 0.4371,-1.43531 1.57966,-1.55296 4.11709,-0.42323 2.19799,0.97861 3.50566,1.03852 5.19917,0.23771 0.6342,-0.2999 1.45898,-0.61028 1.83245,-0.68988 0.37347,-0.0796 0.72346,-0.21744 0.77876,-0.30644 0.19511,-0.31573 -0.80874,-1.12549 -2.17196,-1.75183 -0.76039,-0.34934 -1.54745,-0.77686 -1.74925,-0.94982 -0.54998,-0.47137 -0.4744,-1.62881 0.14728,-2.2505 0.60154,-0.60156 0.88243,-0.61867 3.25923,-0.19999 3.00671,0.52963 3.24002,0.48717 5.52577,-0.99632 1.1104,-0.7207 2.01977,-1.43283 2.02054,-1.58285 0.002,-0.33918 -0.99236,-0.75946 -2.55385,-1.07953 -1.64125,-0.33639 -2.26652,-0.86297 -2.26652,-1.9079 0,-1.20755 0.54652,-1.47897 3.35328,-1.66656 1.84966,-0.12362 2.50622,-0.25923 3.40031,-0.70229 1.01451,-0.50271 3.51916,-2.68682 3.51916,-3.06854 0,-0.45596 -0.80755,-0.6999 -2.63239,-0.7953 -1.81469,-0.0949 -2.03203,-0.15167 -2.40657,-0.62787 -0.51175,-0.65007 -0.53452,-1.75927 -0.0455,-2.20142 0.20172,-0.18243 1.44602,-0.63082 2.76521,-0.99684 1.31912,-0.36602 2.60715,-0.80226 2.86235,-0.96945 0.64519,-0.42272 2.87781,-3.999301 2.73265,-4.377511 -0.159,-0.41429 -1.30419,-0.396 -2.96881,0.0476 -1.5953,0.42509 -2.25663,0.2011 -2.61534,-0.88574 -0.3853,-1.16725 0.0338,-1.68244 2.29805,-2.82411 1.10095,-0.55511 2.30286,-1.32445 2.67064,-1.70998 0.72157,-0.75638 2.11698,-3.5164 2.20968,-4.37027 0.0537,-0.49479 0.003,-0.52218 -0.90899,-0.49248 -0.53107,0.0172 -1.27038,0.18899 -1.64331,0.38189 -1.05132,0.5436 -3.36851,0.88076 -3.36851,-0.69076 0,-2.16492 2.55968,-3.45288 3.38091,-4.03763 0.85067,-0.60579 1.00742,-0.98479 1.44229,-3.49023 0.53361,-3.07392 0.45709,-3.18721 -1.46657,-2.17455 -2.20038,1.15831 -3.8306,1.29919 -4.18424,0.36122 -0.21555,-0.57174 0.17062,-1.32808 1.48621,-2.90886 1.56571,-1.88143 1.72184,-2.28629 1.82004,-4.71341 0.0993,-2.4565 -0.025,-3.20084 -0.53433,-3.20084 -0.19588,0 -1.08079,0.75494 -1.9668,1.67742 -1.79226,1.86593 -2.3358,2.06136 -3.23443,1.16272 -0.75492,-0.75494 -0.6484,-1.41628 0.63975,-3.97082 0.63351,-1.25611 1.15187,-2.51469 1.15187,-2.79724 0,-0.68606 -1.23266,-4.62758 -1.49862,-4.79196 -0.34019,-0.21023 -1.16172,0.71564 -1.90066,2.14147 -0.84468,1.62985 -1.49271,2.00054 -2.58537,1.4795 -0.98838,-0.47132 -1.08914,-1.088 -0.51418,-3.15123 1.01762,-3.65129 1.02217,-3.34777 -0.0858,-5.80533 -1.05377,-2.33769 -1.40828,-2.85498 -1.79266,-2.61741 -0.303,0.18726 -1.17441,2.1396 -1.37252,3.07474 -0.33642,1.58871 -1.72534,2.1422 -2.76521,1.10226 l -0.54519,-0.54518 0.13901,-2.59829 c 0.10927,-2.04296 0.0735,-2.75401 -0.16588,-3.32693 -0.27971,-0.66948 -3.18633,-3.83793 -3.3507,-3.65249 -0.39629,0.44714 -0.77304,1.6813 -0.88677,2.90473 -0.1553,1.67126 -0.49689,2.10323 -1.66347,2.10323 -1.11173,0 -1.58075,-0.98297 -1.95907,-4.10466 -0.2051,-1.69259 -0.61935,-2.62976 -1.40147,-3.17138 -0.29894,-0.20696 -1.05438,-0.82481 -1.67897,-1.37253 -1.82715,-1.60242 -2.04992,-1.36325 -1.93426,2.07429 l 0.0687,2.06654 -0.76276,0.37311 c -1.40573,0.68732 -1.97443,0.11987 -3.106278,-3.09852 -0.36494,-1.03772 -0.87034,-2.10826 -1.12293,-2.37918 -0.57273,-0.6144 -4.31874,-2.39051 -4.71857,-2.23708 -0.37231,0.14286 -0.18167,1.61603 0.39997,3.0918 0.22032,0.55878 0.4005,1.18436 0.4005,1.39062 0,0.88507 -1.69785,1.68753 -2.50941,1.18597 -0.145,-0.0896 -0.85397,-1.07082 -1.57562,-2.18023 -0.72165,-1.10939 -1.50931,-2.19296 -1.74976,-2.40812 -0.24037,-0.21514 -1.07807,-0.56917 -1.86139,-0.78703 -0.78332,-0.21786 -1.82467,-0.50957 -2.31406,-0.64802 -0.30029,-0.085 -0.53885,-0.13362 -0.7214,-0.14005 z m -18.537365,21.79247 h 44.663983 c 3.65472,0 6.59652,2.94232 6.59652,6.59702 v 41.313751 c 0,3.6547 -2.9418,6.59702 -6.59652,6.59702 H 64.646167 c -3.6547,0 -6.59701,-2.94232 -6.59701,-6.59702 V 64.009599 c 0,-3.6547 2.94231,-6.59702 6.59701,-6.59702 z" /></g></svg>
