<?xml version="1.0" encoding="UTF-8" standalone="no"?>
<!-- Created with Inkscape (http://www.inkscape.org/) -->

<svg
   width="1280"
   height="640"
   viewBox="0 0 338.66666 169.33333"
   version="1.1"
   id="svg5"
   xml:space="preserve"
   inkscape:version="1.2.1 (9c6d41e410, 2022-07-14)"
   sodipodi:docname="social.svg"
   inkscape:export-filename="social.png"
   inkscape:export-xdpi="96"
   inkscape:export-ydpi="96"
   xmlns:inkscape="http://www.inkscape.org/namespaces/inkscape"
   xmlns:sodipodi="http://sodipodi.sourceforge.net/DTD/sodipodi-0.dtd"
   xmlns="http://www.w3.org/2000/svg"
   xmlns:svg="http://www.w3.org/2000/svg"><sodipodi:namedview
     id="namedview7"
     pagecolor="#ffffff"
     bordercolor="#666666"
     borderopacity="1.0"
     inkscape:showpageshadow="2"
     inkscape:pageopacity="0.0"
     inkscape:pagecheckerboard="0"
     inkscape:deskcolor="#d1d1d1"
     inkscape:document-units="mm"
     showgrid="false"
     inkscape:zoom="0.41142014"
     inkscape:cx="988.04109"
     inkscape:cy="1538.5732"
     inkscape:window-width="3840"
     inkscape:window-height="2050"
     inkscape:window-x="-12"
     inkscape:window-y="-12"
     inkscape:window-maximized="1"
     inkscape:current-layer="layer1" /><defs
     id="defs2" /><g
     inkscape:label="Layer 1"
     inkscape:groupmode="layer"
     id="layer1"><path
       id="path4543"
       style="fill:#917c6f;stroke-width:1"
       d="m 659.91493,80.534849 c -0.74719,0.0037 -1.1153,0.11952 -1.59912,0.424561 -1.33285,0.840343 -1.9882,2.139012 -2.62216,5.19619 -0.31949,1.540668 -0.74599,3.196633 -0.94774,3.679496 -0.52357,1.253064 -1.95676,2.176283 -4.58389,2.952845 -1.2569,0.371532 -3.05377,0.911518 -3.99304,1.199814 -2.65135,0.813796 -10.02518,4.603803 -13.47434,6.925865 -1.71358,1.15363 -3.46881,2.24664 -3.90059,2.4287 -1.11625,0.47067 -2.84984,0.41009 -4.82691,-0.16868 -2.84109,-0.8317 -4.11861,-0.97527 -5.4959,-0.61801 -2.07736,0.53886 -3.16393,1.92655 -3.16393,4.04115 0,2.27769 1.49309,4.507 6.84963,10.22512 1.93518,2.06582 4.60305,5.08491 5.92856,6.70907 3.41736,4.18735 4.98283,5.97133 6.31547,7.19746 l 1.16265,1.06974 -1.89455,1.75969 c -2.94657,2.73743 -3.79423,5.1216 -2.32101,6.52704 0.75448,0.71977 1.75427,1.15931 2.63836,1.15931 0.89016,0 1.5696,0.81799 1.57052,1.89074 0.002,1.95223 1.66061,3.47371 3.78767,3.47556 1.67963,9.2e-4 2.21448,0.43654 2.55545,2.07895 0.4756,2.29098 1.44668,3.03853 4.43189,3.41361 1.36514,0.17153 1.55323,0.37662 1.75302,1.90837 0.3035,2.32681 1.44867,3.33451 3.79004,3.33451 0.76857,0 1.58717,0.13858 1.81927,0.3083 0.24781,0.1812 0.56864,1.00897 0.77716,2.00557 0.48107,2.29929 0.9906,2.77762 3.40933,3.19824 2.12839,0.37011 2.56021,0.6256 2.56021,1.51573 0,0.34375 0.21917,1.07828 0.48746,1.63247 0.54851,1.13309 1.31307,1.58804 3.70809,2.20761 0.84553,0.21872 1.66843,0.50648 1.82879,0.63898 0.16035,0.13249 0.41789,0.84928 0.57227,1.59293 0.19088,0.9195 0.52685,1.61906 1.05019,2.18712 0.68048,0.73858 0.99369,0.86936 2.70269,1.12976 l 1.93266,0.29495 0.26827,1.34468 c 0.51389,2.57662 1.63634,3.65662 3.80101,3.65662 0.49993,0 1.24956,0.0678 1.66583,0.15105 0.64307,0.12862 0.77764,0.28449 0.89438,1.03685 0.25883,1.66797 0.62306,2.709 1.17218,3.34739 0.47294,0.54983 0.82792,0.66658 2.54878,0.84006 1.09959,0.11086 2.09553,0.26107 2.21284,0.33355 0.1173,0.0725 0.27926,0.68809 0.35976,1.36801 0.17625,1.48824 0.98734,3.0201 1.79352,3.38741 0.32387,0.14756 1.35617,0.33972 2.29433,0.42694 0.93815,0.0872 1.78391,0.27984 1.8793,0.4279 0.0954,0.14807 0.30494,0.90147 0.46554,1.67441 0.50582,2.43454 1.5916,3.34702 3.98779,3.35071 1.269,0.002 1.86303,0.54008 2.16853,1.96459 0.57515,2.68184 1.47674,3.40409 4.25177,3.40409 0.95992,0 1.6622,0.11866 1.81879,0.30734 0.14031,0.16905 0.33473,1.00838 0.4317,1.86548 0.13581,1.20037 0.3299,1.73035 0.84531,2.30719 0.6034,0.67534 0.88109,0.77415 2.8299,1.00636 l 2.16138,0.25731 0.27113,1.45855 c 0.54556,2.93326 1.21631,3.53226 3.95778,3.53226 2.06287,0 2.27983,0.20331 2.50208,2.35056 0.2444,2.36137 0.91101,2.91035 3.95825,3.26018 0.91339,0.10486 1.71246,0.24295 1.7759,0.30639 0.0634,0.0634 0.21642,0.73527 0.33973,1.49285 0.42903,2.63603 1.40357,3.50959 4.17506,3.74193 0.9509,0.0798 1.7619,0.26539 1.8021,0.41264 0.41225,1.50876 0.95338,2.53078 1.52813,2.88709 0.75375,0.46731 2.14832,0.5526 3.10294,0.18965 1.05655,-0.4017 3.03075,-2.42106 5.1309,-5.2486 1.09629,-1.47599 4.04922,-5.13096 6.56183,-8.12187 2.51261,-2.99092 4.83651,-5.83299 5.16426,-6.31595 0.74211,-1.09358 0.78597,-2.56937 0.10912,-3.6795 -0.26682,-0.43762 -12.9487,-17.8635 -28.18186,-38.72386 l -27.6968,-37.9281 0.0415,-1.17075 c 0.0338,-0.95607 -0.32738,-2.0884 -1.96697,-6.16633 -2.29867,-5.71715 -3.13896,-7.39794 -4.43093,-8.86568 -0.90969,-1.03347 -3.13609,-2.38554 -4.42855,-2.68934 -1.18543,-0.27863 -3.64996,-2.1732 -4.72684,-3.63328 -1.31509,-1.78304 -1.9443,-3.11998 -3.78671,-8.045151 -1.99067,-5.321519 -2.78309,-6.681893 -5.44254,-9.345032 -3.64797,-3.653051 -6.74123,-5.487492 -9.52657,-5.649335 -0.35169,-0.02047 -0.64294,-0.03135 -0.892,-0.03006 z m 3.31689,22.962801 c 0.61399,0.007 1.16673,0.0657 1.64819,0.17774 2.40921,0.56087 3.41493,1.46793 3.94921,3.56228 0.2645,1.03689 0.23761,1.25071 -0.29782,2.38582 -1.10996,2.35313 -1.7036,2.70822 -5.34532,3.19538 -6.68286,0.89398 -10.47136,2.61616 -13.74738,6.25018 -0.96791,1.07369 -2.04478,2.09524 -2.39296,2.27003 -3.20646,1.60966 -6.91057,-1.03566 -6.55993,-4.68491 0.16178,-1.68361 1.01261,-3.20619 2.72652,-4.87884 1.86269,-1.81785 3.55903,-2.97136 6.37218,-4.33324 5.23588,-2.53481 10.33173,-3.98426 13.64731,-3.94444 z" /><rect
       style="fill:#ffffff;fill-rule:evenodd;stroke-width:0.1;stroke-linecap:round"
       id="rect467"
       width="338.66666"
       height="169.33333"
       x="0"
       y="0" /><path
       id="path1380"
       style="fill:#99ff55;fill-opacity:0.629693;fill-rule:evenodd;stroke-width:0.0999995;stroke-linecap:round"
       d="m -169.75747,150.15656 4.10489,4.87693 c 4.08686,4.85549 3.46806,12.0546 -1.38744,16.14145 -4.85549,4.08686 -12.0546,3.46806 -16.14145,-1.38744 l -4.09006,-4.8593 a 17.707599,17.707599 0 0 0 3.89595,14.33735 17.707599,17.707599 0 0 0 13.46811,6.29249 l 47.22222,56.10357 a 17.707599,17.707599 0 0 0 3.90188,14.34438 17.707599,17.707599 0 0 0 13.46193,6.28513 l -4.08993,-4.85913 c -4.08685,-4.85551 -3.46805,-12.0546 1.38745,-16.14146 4.85551,-4.08685 12.054598,-3.46806 16.141448,1.38745 l 4.08992,4.85912 a 17.707599,17.707599 0 0 0 -3.89584,-14.33686 17.707599,17.707599 0 0 0 -13.476868,-6.30323 l -47.21331,-56.09299 a 17.707599,17.707599 0 0 0 -3.90203,-14.34423 17.707599,17.707599 0 0 0 -13.47687,-6.30323 z" /><rect
       style="fill:#99ff55;fill-opacity:0.629693;fill-rule:evenodd;stroke-width:0.1;stroke-linecap:round"
       id="rect1382"
       width="54.153843"
       height="78.974358"
       x="13.036955"
       y="146.57802"
       rx="7.9375"
       ry="7.9375"
       transform="rotate(39.549267)" /><text
       xml:space="preserve"
       style="font-size:39.4938px;line-height:1.25;font-family:Oswald;-inkscape-font-specification:'Oswald, @wght=600';font-variation-settings:'wght' 600;stroke-width:0.264583"
       x="157.67946"
       y="57.97258"
       id="text1995"><tspan
         sodipodi:role="line"
         id="tspan1993"
         style="font-style:normal;font-variant:normal;font-weight:normal;font-stretch:normal;font-size:39.4938px;font-family:'Stardos Stencil';-inkscape-font-specification:'Stardos Stencil, Normal';font-variant-ligatures:normal;font-variant-caps:normal;font-variant-numeric:normal;font-variant-east-asian:normal;stroke-width:0.264583"
         x="157.67946"
         y="57.97258">toolauth</tspan></text><text
       xml:space="preserve"
       style="font-size:19.7556px;line-height:0.95;font-family:Oswald;-inkscape-font-specification:'Oswald, @wght=600';font-variation-settings:'wght' 600;text-align:end;text-anchor:end;stroke-width:0.264583"
       x="301.43198"
       y="98.86235"
       id="text2049"><tspan
         sodipodi:role="line"
         id="tspan2047"
         style="font-style:normal;font-variant:normal;font-weight:normal;font-stretch:normal;font-size:19.7556px;font-family:Oswald;-inkscape-font-specification:'Oswald, Normal';font-variant-ligatures:normal;font-variant-caps:normal;font-variant-numeric:normal;font-variant-east-asian:normal;text-align:end;text-anchor:end;stroke-width:0.264583"
         x="301.43198"
         y="98.86235">control access</tspan><tspan
         sodipodi:role="line"
         style="font-style:normal;font-variant:normal;font-weight:normal;font-stretch:normal;font-size:19.7556px;font-family:Oswald;-inkscape-font-specification:'Oswald, Normal';font-variant-ligatures:normal;font-variant-caps:normal;font-variant-numeric:normal;font-variant-east-asian:normal;text-align:end;text-anchor:end;stroke-width:0.264583"
         x="301.43198"
         y="117.63017"
         id="tspan2057">&amp; monitor use in</tspan><tspan
         sodipodi:role="line"
         style="font-style:normal;font-variant:normal;font-weight:normal;font-stretch:normal;font-size:19.7556px;font-family:Oswald;-inkscape-font-specification:'Oswald, Normal';font-variant-ligatures:normal;font-variant-caps:normal;font-variant-numeric:normal;font-variant-east-asian:normal;text-align:end;text-anchor:end;stroke-width:0.264583"
         x="301.43198"
         y="136.39798"
         id="tspan2108">a shared workshop</tspan></text><rect
       style="fill:#000000;fill-rule:evenodd;stroke-width:0.1;stroke-linecap:round"
       id="rect451"
       width="142.58652"
       height="4"
       x="158.47011"
       y="63.571365" /><rect
       style="fill:#1426d2;fill-opacity:0.629984;fill-rule:evenodd;stroke-width:0.529167;stroke-linecap:round"
       id="rect476"
       width="47.556"
       height="37.931572"
       x="137.23302"
       y="242.76207"
       ry="1.5154761" /><path
       id="path530"
       style="fill:#1426d2;fill-opacity:0.629984;fill-rule:evenodd;stroke-width:0.529167;stroke-linecap:round"
       d="m 161.01084,216.30114 a 19.475315,19.475315 0 0 0 -19.47529,19.4753 v 4.86895 h 6.00118 v -4.86895 a 13.4742,13.4742 0 0 1 13.47411,-13.47412 13.4742,13.4742 0 0 1 13.47463,13.47412 h -5.1e-4 v 4.86895 h 6.00118 v -4.86895 a 19.475315,19.475315 0 0 0 -19.4753,-19.4753 z" /><rect
       style="fill:#1426d2;fill-opacity:0.629984;fill-rule:evenodd;stroke-width:0.529167;stroke-linecap:round"
       id="rect476-8"
       width="47.556"
       height="28.307144"
       x="78.580627"
       y="242.76208"
       ry="1.1309524" /><path
       id="path530-0"
       style="fill:#1426d2;fill-opacity:0.629984;fill-rule:evenodd;stroke-width:0.529167;stroke-linecap:round"
       d="m 102.35845,216.30114 a 19.475315,19.475315 0 0 0 -19.475287,19.4753 v 4.86895 h 6.00118 v -4.86895 a 13.4742,13.4742 0 0 1 13.474107,-13.47412 13.4742,13.4742 0 0 1 13.47463,13.47412 h -5.1e-4 v 4.86895 h 6.00118 v -4.86895 a 19.475315,19.475315 0 0 0 -19.4753,-19.4753 z" /><path
       id="path530-0-3"
       style="fill:#1426d2;fill-opacity:0.629984;fill-rule:evenodd;stroke-width:0.529167;stroke-linecap:round"
       d="m 165.87968,296.14462 a 19.475315,19.475315 0 0 0 -19.47529,19.4753 v 4.86895 h 6.00118 v -4.86895 a 13.4742,13.4742 0 0 1 13.47411,-13.47412 13.4742,13.4742 0 0 1 13.47463,13.47412 h -5.1e-4 v 4.86895 h 6.00118 v -4.86895 a 19.475315,19.475315 0 0 0 -19.4753,-19.4753 z" /><rect
       style="fill:#1426d2;fill-opacity:0.629984;fill-rule:evenodd;stroke-width:0.529167;stroke-linecap:round"
       id="rect476-3"
       width="38.951"
       height="38.950996"
       x="197.13095"
       y="242.76207"
       ry="1.5562052" /><path
       id="path530-5"
       style="fill:#1426d2;fill-opacity:0.629984;fill-rule:evenodd;stroke-width:0.529167;stroke-linecap:round"
       d="m 216.60644,216.30116 a 19.475315,19.475315 0 0 0 -19.47529,19.4753 v 4.86895 h 6.00118 v -4.86895 a 13.4742,13.4742 0 0 1 13.47411,-13.47412 13.4742,13.4742 0 0 1 13.47463,13.47412 h -5.1e-4 v 4.86895 h 6.00118 v -4.86895 a 19.475315,19.475315 0 0 0 -19.4753,-19.4753 z" /><path
       id="ellipse628"
       style="fill:#1426d2;fill-opacity:0.629984;fill-rule:evenodd;stroke-width:0.529169;stroke-linecap:round"
       d="m -94.117824,168.90047 a 1.1586438,1.2027824 40 0 1 -1.660703,0.17663 1.1586438,1.2027824 40 0 1 -0.114428,-1.66614 1.1586438,1.2027824 40 0 1 1.660696,-0.17663 1.1586438,1.2027824 40 0 1 0.114435,1.66614 z m 3.27097,-2.77086 a 4.0700433,4.2250917 40 0 0 -5.833724,0.62056 4.0700433,4.2250917 40 0 0 0.40199,5.85273 4.0700433,4.2250917 40 0 0 4.914332,0.20332 l 4.431721,3.71864 -0.976244,1.16345 c -0.143328,0.1708 -0.121218,0.42357 0.04959,0.56691 l 0.402095,0.33738 c 0.170844,0.14331 0.423731,0.12131 0.567057,-0.0495 l 0.97624,-1.16343 0.568164,0.47682 -0.976235,1.16343 c -0.143338,0.17079 -0.121216,0.42356 0.04959,0.56691 l 0.402092,0.33737 c 0.170822,0.14336 0.423599,0.12121 0.566927,-0.0496 l 0.976236,-1.16343 0.413104,0.34657 c 0.170851,0.14331 0.423588,0.12121 0.566914,-0.0496 l 1.162309,-1.38519 c 0.143342,-0.17082 0.121227,-0.42359 -0.04959,-0.56693 l -7.490489,-6.28526 a 4.0700433,4.2250917 40 0 0 -1.122084,-4.64121 z m -4.763319,-11.60323 24.642168,20.67722 c 0.340869,0.28603 0.385026,0.79071 0.099,1.13158 l -11.889929,14.16987 c -0.286028,0.34088 -0.790714,0.38502 -1.13158,0.099 l -24.642166,-20.67723 c -0.34086,-0.28602 -0.38503,-0.7907 -0.099,-1.13159 l 11.88993,-14.16986 c 0.286027,-0.34087 0.790706,-0.38501 1.131575,-0.099 z m 24.400688,-4.0575 a 13.831452,13.831452 0 0 0 -19.486163,1.70483 l -2.222737,2.64895 3.264943,2.73959 2.222717,-2.64894 a 9.5694342,9.5694342 0 0 1 13.481646,-1.17951 9.5694342,9.5694342 0 0 1 1.179767,13.48188 l -2.8e-4,-2.3e-4 -2.22273,2.64895 3.264929,2.7396 2.222732,-2.64895 a 13.831452,13.831452 0 0 0 -1.704824,-19.48617 z" /><path
       id="path626-4"
       style="fill:#1426d2;fill-opacity:0.629984;fill-rule:evenodd;stroke-width:0.529167;stroke-linecap:round"
       d="m 157.47104,329.62021 a 6.8768912,7.1388666 0 0 0 -6.87684,7.1391 6.8768912,7.1388666 0 0 0 6.87684,7.1388 6.8768912,7.1388666 0 0 0 6.58162,-5.07419 h 9.77487 v 2.56615 c 0,0.37676 0.30315,0.67991 0.67991,0.67991 h 0.88688 c 0.37676,0 0.68022,-0.30315 0.68022,-0.67991 v -2.56615 h 1.25325 v 2.56615 c 0,0.37676 0.30315,0.67991 0.67991,0.67991 h 0.88687 c 0.37677,0 0.67992,-0.30315 0.67992,-0.67991 v -2.56615 h 0.9111 c 0.37677,0 0.67992,-0.30315 0.67992,-0.67992 v -3.05527 c 0,-0.37675 -0.30315,-0.67991 -0.67992,-0.67991 H 163.9641 a 6.8768912,7.1388666 0 0 0 -6.49306,-4.78861 z m -14.23824,-7.01462 h 45.2941 c 0.62655,0 1.13095,0.50441 1.13095,1.13095 v 26.04524 c 0,0.62655 -0.5044,1.13095 -1.13095,1.13095 h -45.2941 c -0.62654,0 -1.13095,-0.5044 -1.13095,-1.13095 v -26.04524 c 0,-0.62654 0.50441,-1.13095 1.13095,-1.13095 z" /><path
       id="path742"
       style="fill:#000000;fill-opacity:1;fill-rule:evenodd;stroke-width:0.529169;stroke-linecap:round"
       d="m 216.00598,555.76223 a 1.1586438,1.2027824 40 0 1 -1.66071,0.17663 1.1586438,1.2027824 40 0 1 -0.11442,-1.66614 1.1586438,1.2027824 40 0 1 1.66069,-0.17663 1.1586438,1.2027824 40 0 1 0.11444,1.66614 z m 3.27097,-2.77086 a 4.0700433,4.2250917 40 0 0 -5.83373,0.62056 4.0700433,4.2250917 40 0 0 0.40199,5.85273 4.0700433,4.2250917 40 0 0 4.91434,0.20332 l 4.43172,3.71864 -0.97625,1.16345 c -0.14333,0.1708 -0.12122,0.42357 0.0496,0.56691 l 0.4021,0.33738 c 0.17084,0.14331 0.42373,0.12131 0.56705,-0.0495 l 0.97624,-1.16343 0.56817,0.47682 -0.97624,1.16343 c -0.14333,0.17079 -0.12121,0.42356 0.0496,0.56691 l 0.4021,0.33737 c 0.17082,0.14336 0.42359,0.12121 0.56692,-0.0496 l 0.97624,-1.16343 0.4131,0.34657 c 0.17085,0.14331 0.42359,0.12121 0.56692,-0.0496 l 1.16231,-1.38519 c 0.14334,-0.17082 0.12122,-0.42359 -0.0496,-0.56693 l -7.49049,-6.28526 a 4.0700433,4.2250917 40 0 0 -1.12209,-4.64121 z m -4.76332,-11.60323 24.64216,20.67722 c 0.34087,0.28603 0.38503,0.79071 0.099,1.13158 l -11.88992,14.16986 c -0.28603,0.34088 -0.79072,0.38502 -1.13158,0.099 l -24.64217,-20.67722 c -0.34086,-0.28602 -0.38503,-0.7907 -0.099,-1.13159 l 11.88993,-14.16986 c 0.28603,-0.34087 0.79071,-0.38501 1.13158,-0.099 z m 24.40068,-4.0575 a 13.831452,13.831452 0 0 0 -19.48616,1.70483 l -2.22273,2.64895 3.26494,2.73959 2.22272,-2.64894 a 9.5694342,9.5694342 0 0 1 13.48164,-1.17951 9.5694342,9.5694342 0 0 1 1.17977,13.48188 l -2.8e-4,-2.3e-4 -2.22273,2.64895 3.26492,2.7396 2.22274,-2.64895 a 13.831452,13.831452 0 0 0 -1.70483,-19.48617 z m -5.94982,-24.09058 29.51595,24.37373 c 3.39072,2.79999 3.86629,7.78384 1.0663,11.17456 l -40.17798,48.65448 c -2.79999,3.39072 -7.78385,3.86628 -11.17456,1.06629 l -29.51595,-24.37373 c -3.39072,-2.79998 -3.86628,-7.78384 -1.06629,-11.17455 l 40.17798,-48.65449 c 2.79999,-3.39072 7.78384,-3.86628 11.17455,-1.06629 z" /><path
       id="path2839"
       style="fill:#d38d5f;fill-opacity:0.641234;stroke-width:1"
       d="m -153.88962,2.7895006 c -0.0301,6e-4 -0.061,0.00361 -0.0925,0.00827 -1.61945,0.26598 -3.05637,1.16485 -4.50619,1.89032 -3.41594,1.95511 -6.67671,4.27482 -9.39994,7.1292804 -3.05769,3.33809 -5.70059,7.49091 -5.79344,12.15378 -0.0164,0.76834 0.0421,1.5266 0.16278,2.2717 l -0.40618,2.56263 c -0.82888,5.23085 -1.63708,7.12225 -4.97799,11.65252 -0.96883,1.31375 -15.81215,16.36034 -40.5412,41.09517 -35.37851,35.386789 -39.25479,39.179829 -41.60366,40.713789 -2.86496,1.87097 -6.65996,3.7928 -9.06301,4.58939 -0.42396,0.14054 -0.74015,0.26976 -0.96687,0.3855 -0.56915,-0.0737 -1.1411,-0.12928 -1.71565,-0.16278 -0.48581,-0.031 -0.97153,-0.0176 -1.4578,-0.01 -3.31032,0.0575 -6.565,1.64511 -8.53643,4.32429 -2.81508,3.7479 -3.48764,8.62319 -3.37757,13.19351 0.10334,2.2825 0.25575,4.63936 1.16376,6.76341 0.12747,0.38942 0.65359,0.75352 0.91105,0.2589 2.03735,-2.5821 3.59624,-5.50698 5.41724,-8.24291 1.03139,-1.62473 2.07559,-3.24098 3.11919,-4.8581 2.67626,-0.072 5.38155,0.0299 7.85947,1.13585 3.43807,1.42822 6.12967,4.37111 7.54321,7.78195 0.47363,0.60281 -0.0241,1.14799 -0.31368,1.70532 -2.192,4.13638 -4.50299,8.2171 -6.51484,12.44369 -0.32787,0.46038 0.22383,0.88615 0.67076,0.69918 2.09782,-0.56448 3.92277,-1.83833 5.73298,-2.99362 3.70832,-2.49357 7.21276,-5.62564 9.12916,-9.74307 0.78671,-1.72018 1.2592,-3.63478 1.19476,-5.5268 0.0596,-0.14911 0.12087,-0.34845 0.1726,-0.60254 0.97741,-4.80162 3.57899,-9.74092 7.4197,-14.08752 3.94292,-4.46227 74.95524,-75.081179 77.03974,-76.612889 2.9745,-2.18572 6.56784,-4.27637 8.95553,-5.21002 2.42366,-0.94773 7.23415,-2.37711 8.00002,-2.37711 0.001,0 0.002,-5.2e-4 0.003,-5.2e-4 3.42354,0.4492 6.97053,0.08286 10.0521,-1.53272 2.36456,-1.18228 4.23854,-3.19667 5.39916,-5.55935 1.31126,-2.42048 2.22614,-5.05509 2.52904,-7.79901 0.52504,-4.26327 0.52613,-8.66254 -0.52761,-12.84676 -0.2718,-0.71043 -0.32973,-1.6647 -1.00718,-2.11822 -0.75063,-0.0636 -1.14621,0.80945 -1.5782,1.28674 -2.7874,4.06867 -5.2758,8.33468 -7.98711,12.45454 -0.49971,0.78198 -1.02611,1.55429 -1.5384,2.33319 -2.90045,0.0729 -5.83535,8e-5 -8.5571,-1.08262 -4.4805,-1.65256 -8.1132,-5.43935 -9.83144,-9.89035 0.0233,-0.99642 0.72541,-1.84688 1.09967,-2.74609 2.38761,-4.6719 5.03989,-9.2134704 7.22747,-13.9841604 0.22479,-0.42259 -0.0576,-0.855 -0.5085,-0.84594 z" /><path
       id="path2839-2"
       style="fill:#d38d5f;fill-opacity:0.641234;stroke-width:1"
       d="m 750.117,80.534999 c -0.0301,6e-4 -0.061,0.0036 -0.0925,0.0083 -1.61945,0.26598 -3.05637,1.16485 -4.50619,1.89032 -3.41594,1.95511 -6.67671,4.27482 -9.39994,7.12928 -3.05769,3.33809 -5.70059,7.49091 -5.79344,12.153781 -0.0164,0.76834 0.0421,1.5266 0.16278,2.2717 l -0.40618,2.56263 c -0.82888,5.23085 -1.63708,7.12225 -4.97799,11.65252 -0.96883,1.31375 -15.81215,16.36034 -40.5412,41.09517 -35.37851,35.38679 -39.25479,39.17983 -41.60366,40.71379 -2.86496,1.87097 -6.65996,3.7928 -9.06301,4.58939 -0.42396,0.14054 -0.74015,0.26976 -0.96687,0.3855 -0.56915,-0.0737 -1.1411,-0.12928 -1.71565,-0.16278 -0.48581,-0.031 -0.97153,-0.0176 -1.4578,-0.01 -3.31032,0.0575 -6.565,1.64511 -8.53643,4.32429 -2.81508,3.7479 -3.48764,8.62319 -3.37757,13.19351 0.10334,2.2825 0.25575,4.63936 1.16376,6.76341 0.12747,0.38942 0.65359,0.75352 0.91105,0.2589 2.03735,-2.5821 3.59624,-5.50698 5.41724,-8.24291 1.03139,-1.62473 2.07559,-3.24098 3.11919,-4.8581 2.67626,-0.072 5.38155,0.0299 7.85947,1.13585 3.43807,1.42822 6.12967,4.37111 7.54321,7.78195 0.47363,0.60281 -0.0241,1.14799 -0.31368,1.70532 -2.192,4.13638 -4.50299,8.2171 -6.51484,12.44369 -0.32787,0.46038 0.22383,0.88615 0.67076,0.69918 2.09782,-0.56448 3.92277,-1.83833 5.73298,-2.99362 3.70832,-2.49357 7.21276,-5.62564 9.12916,-9.74307 0.78671,-1.72018 1.2592,-3.63478 1.19476,-5.5268 0.0596,-0.14911 0.12087,-0.34845 0.1726,-0.60254 0.97741,-4.80162 3.57899,-9.74092 7.4197,-14.08752 3.94292,-4.46227 74.95524,-75.08118 77.03974,-76.61289 2.9745,-2.18572 6.56784,-4.27637 8.95553,-5.21002 2.42366,-0.94773 7.23415,-2.37711 8.00002,-2.37711 10e-4,0 0.002,-5.2e-4 0.003,-5.2e-4 3.42354,0.4492 6.97053,0.0829 10.0521,-1.53272 2.36456,-1.18228 4.23854,-3.19667 5.39916,-5.55935 1.31126,-2.42048 2.22614,-5.05509 2.52904,-7.79901 0.52504,-4.26327 0.52613,-8.662541 -0.52761,-12.846761 -0.2718,-0.71043 -0.32973,-1.6647 -1.00718,-2.11822 -0.75063,-0.0636 -1.14621,0.80945 -1.5782,1.28674 -2.7874,4.06867 -5.2758,8.334681 -7.98711,12.454541 -0.49971,0.78198 -1.02611,1.55429 -1.5384,2.33319 -2.90045,0.0729 -5.83535,8e-5 -8.5571,-1.08262 -4.4805,-1.65256 -8.1132,-5.43935 -9.83144,-9.890351 0.0233,-0.99642 0.72541,-1.84688 1.09967,-2.74609 2.38761,-4.6719 5.03989,-9.21347 7.22747,-13.98416 0.22479,-0.42259 -0.0576,-0.855 -0.5085,-0.84594 z" /><path
       style="fill:#d38d5f;fill-opacity:0.641234;stroke-width:1"
       d="m 247.03043,573.46189 -9.81387,11.88456 c 4.87093,4.90258 8.60247,8.68795 9.33845,9.52086 3.41779,3.86799 5.73293,8.26328 6.6027,12.53619 0.0461,0.22611 0.10038,0.4037 0.15348,0.5364 -0.0573,1.68367 0.3629,3.38728 1.06298,4.91805 1.70539,3.66404 4.82408,6.45126 8.12405,8.67027 1.61089,1.02806 3.23519,2.16159 5.10202,2.66392 0.39772,0.16638 0.88863,-0.2125 0.59686,-0.62219 -1.79031,-3.76119 -3.84695,-7.39232 -5.79758,-11.07322 -0.25764,-0.49596 -0.70053,-0.98131 -0.27905,-1.51774 1.25789,-3.03527 3.65277,-5.6542 6.71225,-6.92516 2.20508,-0.98417 4.61284,-1.07489 6.99441,-1.01079 0.92868,1.43905 1.85771,2.87742 2.77554,4.32325 1.62049,2.43467 3.00787,5.03769 4.82089,7.33547 0.22911,0.44016 0.69734,0.11605 0.8108,-0.23048 0.80802,-1.89017 0.9436,-3.98757 1.0356,-6.01875 0.098,-4.06708 -0.50091,-8.40516 -3.00602,-11.74037 -1.75434,-2.38418 -4.65063,-3.79714 -7.59643,-3.84834 -0.43272,-0.007 -0.86477,-0.0188 -1.29708,0.009 -0.51128,0.0298 -1.02055,0.0797 -1.52704,0.14521 -0.20175,-0.10299 -0.48313,-0.21802 -0.86041,-0.34313 -2.13845,-0.70888 -5.51514,-2.41904 -8.06463,-4.08399 -1.46853,-0.95904 -3.82717,-3.13231 -15.88792,-15.1288 z"
       id="path2919" /><path
       style="fill:#d38d5f;fill-opacity:0.641234;stroke-width:1"
       d="m 180.41601,487.91517 c -0.40131,-0.008 -0.65221,0.37687 -0.45217,0.75293 1.94671,4.24536 4.30694,8.28673 6.43165,12.4442 0.33304,0.80019 0.95753,1.55708 0.97823,2.44378 -1.52903,3.96088 -4.76167,7.33094 -8.74882,8.80153 -2.42204,0.96348 -5.03345,1.02815 -7.61452,0.96325 -0.45588,-0.69313 -0.92474,-1.38048 -1.36942,-2.07636 -2.41277,-3.66621 -4.6271,-7.46239 -7.10758,-11.08305 -0.38442,-0.42474 -0.73607,-1.20175 -1.40405,-1.14515 -0.60285,0.40359 -0.65471,1.25296 -0.89659,1.88516 -0.9377,3.72349 -0.93645,7.63855 -0.46922,11.43238 0.26955,2.44177 1.08364,4.78618 2.25051,6.94014 1.03282,2.10252 2.70017,3.89489 4.80436,4.94699 2.74225,1.43763 5.89863,1.76399 8.94519,1.36425 h 0.003 c 0.68154,0 4.96268,1.27226 7.11946,2.11564 2.12478,0.83084 5.32206,2.69137 7.96902,4.63641 0.34849,0.25607 2.86396,2.68456 6.73965,6.48229 l 10.04176,-12.1605 c -2.8983,-2.97075 -4.67363,-4.83282 -4.96094,-5.22242 -2.97302,-4.03143 -3.69209,-5.71505 -4.4297,-10.36991 l -0.36174,-2.28048 c 0.10735,-0.66306 0.15981,-1.33733 0.14521,-2.02107 -0.0826,-4.14942 -2.43476,-7.84535 -5.15575,-10.81587 -2.42337,-2.54015 -5.32507,-4.60449 -8.36487,-6.34432 -1.29018,-0.64558 -2.56896,-1.44538 -4.01009,-1.68207 -0.028,-0.004 -0.0554,-0.006 -0.0822,-0.007 z"
       id="path2839-3" /><path
       style="fill:#000000;stroke-width:1"
       d="m -123.72816,320.53065 c -2.80465,-0.56144 -5.42903,-2.06063 -7.27333,-4.15493 -1.30256,-1.47913 -3.23918,-5.34757 -3.81161,-7.61377 -1.31105,-5.1903 -1.1189,-13.43611 0.39921,-17.13177 0.33965,-0.82685 1.02155,-0.94992 1.46603,-0.26459 0.16516,0.25467 1.75495,2.78474 3.53285,5.6224 1.77791,2.83766 3.94908,6.24595 4.82483,7.57399 l 1.59226,2.41462 1.30921,0.15505 c 1.93507,0.22918 5.34096,-0.28169 7.52066,-1.12807 3.40267,-1.32126 6.17236,-3.64028 8.32438,-6.96988 2.06016,-3.18746 2.21697,-2.48038 -2.5161,-11.34548 -2.2804,-4.27122 -4.21552,-8.09328 -4.30026,-8.49346 -0.13522,-0.63861 -0.0743,-0.7276 0.49804,-0.7276 0.35866,0 1.8033,0.5861 3.21031,1.30245 8.31451,4.23318 14.365173,10.66661 15.945083,16.9538 0.56109,2.23279 0.38186,5.63739 -0.40594,7.71149 -2.786,7.33487 -12.328483,13.95215 -23.002663,15.9513 -2.33074,0.43652 -5.53753,0.49986 -7.31296,0.14445 z"
       id="path2837" /><path
       style="fill:#000000;stroke-width:1"
       d="m -81.994957,337.39608 c -15.22944,-15.23743 -15.67174,-15.70839 -15.67174,-16.68729 0,-1.40713 1.14726,-2.55413 2.5547,-2.55413 0.97968,0 1.44711,0.43903 16.6936,15.67919 l 15.6857,15.67919 -1.79526,1.7815 -1.79525,1.78151 z"
       id="path2835" /><path
       style="fill:#000000;stroke-width:1"
       d="m -81.793507,346.04103 c -6.18364,-6.19887 -12.55267,-12.46076 -14.1534,-13.91532 -5.684883,-5.16577 -10.630203,-7.89906 -17.585433,-9.7195 l -2.76875,-0.72469 2.40958,-0.59539 c 4.62282,-1.14226 9.89546,-3.59357 13.45286,-6.2544 4.280043,-3.20133 6.988153,-6.63555 8.319733,-10.55042 l 0.44409,-1.30563 0.45986,2.89313 c 0.61604,3.87576 1.08757,5.48717 2.18314,7.46069 1.99579,3.59515 4.33235,6.19145 17.20809,19.121 l 13.05067,13.10521 -1.5901,1.57351 -1.5901,1.57351 -15.8062,-15.78537 c -17.54162,-17.51852 -16.5151,-16.67458 -18.96442,-15.59113 -1.00476,0.44445 -1.32679,0.76648 -1.77124,1.77124 -1.08346,2.44934 -1.927693,1.42249 15.59407,18.96735 l 15.78829,15.80913 -1.71888,1.71888 -1.71888,1.71888 z"
       id="path2833" /><path
       style="fill:#000000;stroke-width:1"
       d="m -16.836487,402.26443 c -0.591672,-0.3332 -35.85104,-35.46383 -35.85104,-35.72014 0,-0.23331 3.14925,-3.41047 3.3805,-3.41047 0.43016,0 35.508494,35.3742 35.766166,36.06784 0.152414,0.41029 0.207315,1.02407 0.122005,1.36398 -0.343609,1.36904 -2.28745,2.33526 -3.417631,1.69879 z"
       id="path2831" /><path
       style="fill:#000000;stroke-width:1"
       d="m -17.049148,417.90257 c -0.07376,-0.21828 -0.455142,-1.46514 -0.847509,-2.7708 -0.859951,-2.8616 -2.500881,-6.18481 -4.380254,-8.87086 -0.936056,-1.33785 -6.839986,-7.45836 -18.120686,-18.78542 l -16.73226,-16.80104 1.74118,-1.66988 1.74119,-1.66989 18.04536,18.04392 18.04536,18.04391 1.308512,0.12574 c 1.595848,0.15334 2.78338,-0.3858 3.52352,-1.59967 0.57114,-0.9367 0.677307,-2.5519 0.226383,-3.44413 -0.160642,-0.31785 -8.330134,-8.62867 -18.154425,-18.46849 l -17.86235,-17.89056 1.5385,-1.49017 c 0.84618,-0.81958 1.60437,-1.49016 1.68487,-1.49016 0.0805,0 7.94462,7.81232 17.47582,17.36071 12.736657,12.75963 18.0199072,17.87551 19.9346682,19.30316 2.771566,2.06648 6.609114,4.16249 9.433325,5.15233 1.933317,0.6776 2.512497,1.0463 1.643577,1.0463 -1.053009,0 -5.705752,1.62273 -8.125869,2.83404 -6.3079982,3.15728 -10.4001822,7.40042 -11.6202652,12.04895 -0.200494,0.76389 -0.424887,1.21029 -0.498647,0.99201 z"
       id="path2829" /><path
       style="fill:#000000;stroke-width:1"
       d="m -100.70941,402.34689 c -1.3232,-0.27346 -2.16098,-1.76072 -1.729,-3.06941 0.1855,-0.56199 12.965253,-13.51473 40.425103,-40.9723 40.059635,-40.05632 40.156325,-40.1505 41.210126,-40.14211 1.61694,0.0129 2.511486,0.96838 2.511486,2.68262 0,0.80835 -3.004749,3.87876 -40.150522,41.02804 -28.79365,28.79637 -40.37504,40.21487 -40.94427,40.36842 -0.43657,0.11775 -1.031883,0.16488 -1.322923,0.10474 z"
       id="path2827" /><path
       style="fill:#000000;stroke-width:1"
       d="m -98.513457,403.23544 c 0.39296,-0.2088 18.83418,-18.51466 40.98051,-40.67969 35.659849,-35.68998 40.286086,-40.41158 40.441312,-41.27499 0.473831,-2.63559 -1.977382,-4.95776 -4.57176,-4.33108 -0.501988,0.12125 -13.380072,12.82207 -41.312592,40.74391 l -40.583263,40.56775 -0.11272,1.2878 c -0.25609,2.92598 2.66326,5.01217 5.158513,3.6863 z"
       id="path2825" /><path
       style="fill:#000000;stroke-width:1"
       d="m -2.1897318,436.74759 c -9.1134282,-4.57478 -14.5830862,-12.06064 -13.4435812,-18.39912 0.64021,-3.56116 3.329298,-7.28595 7.3116162,-10.12767 2.176695,-1.55326 6.437855,-3.58127 9.476877,-4.51032 2.078923,-0.63554 2.834733,-0.7298 5.953123,-0.74242 3.3543098,-0.0136 3.6659298,0.0296 5.1159598,0.70893 2.16253,1.0131 3.53394,2.1756 4.70619,3.98931 1.19517,1.84916 1.98959,3.86361 2.52202,6.3952 0.90104,4.28426 0.10874,13.57123 -1.13608,13.3165 -0.22234,-0.0455 -2.28886,-3.05928 -4.59226,-6.6973 l -4.1879998,-6.61459 -2.60298,0.009 c -1.97709,0.007 -3.01786,0.15039 -4.32845,0.59677 -3.39467601,1.1562 -6.422292,3.78891 -8.086434,7.03165 l -0.968645,1.88751 3.604342,6.7708 c 1.98238499,3.72394 3.60433899,6.90183 3.60433899,7.06198 0,0.64836 -0.569367,0.51774 -2.94803699,-0.67631 z"
       id="path2817" /><path
       style="fill:#29e92e;fill-opacity:0.774351;stroke:none;stroke-width:1"
       d="m -149.61113,155.12734 c -1.20864,-0.22626 -1.90924,-0.5888 -2.82273,-1.46071 -4.45506,-4.25222 -55.94636,-58.639665 -66.82023,-70.578555 -1.23212,-1.3528 -1.52565,-2.05657 -1.52565,-3.65783 v -0.98176 l -12.88769,-12.888335 -12.88769,-12.88834 -1.80443,1.74923 c -2.82958,2.74299 -3.35649,2.98815 -4.9282,2.29291 -1.04593,-0.46266 -1.63247,-0.41722 -2.45822,0.19045 -0.95545,0.70313 -4.55411,4.39129 -4.85656,4.97734 -0.35002,0.67824 -0.30688,1.30967 0.14179,2.07527 0.51356,0.87631 0.50277,1.55496 -0.0374,2.35059 -0.53121,0.78246 -5.07261,5.356605 -6.17837,6.222905 -0.77041,0.60357 -0.86398,0.6373 -1.5987,0.57637 -0.69956,-0.058 -0.88519,-0.15645 -1.79196,-0.95021 -1.60601,-1.405865 -7.571,-7.298265 -9.29227,-9.179175 -2.2429,-2.45093 -2.3895,-2.75472 -1.86706,-3.86911 0.28476,-0.6074 4.28774,-4.76989 6.0091,-6.24853 1.29228,-1.11006 1.49578,-1.14633 3.16325,-0.56376 0.9532,0.33303 1.18453,0.36394 1.65936,0.22168 0.8025,-0.24044 2.16438,-1.32081 3.66774,-2.90959 2.02275,-2.13768 2.4373,-3.2701 1.71428,-4.68288 -0.5236,-1.02311 -0.43996,-1.4343 0.53756,-2.64279 1.98305,-2.45162 17.91207,-18.21238 22.6756,-22.43606 6.11077,-5.41826 16.00793,-9.35471 24.83244,-9.87675 3.72566,-0.2204 10.39122,0.57938 10.39122,1.24681 0,0.24875 -0.70303,0.61228 -3.40458,1.76052 -4.43881,1.8866 -7.65325,3.682 -10.92098,6.0998 -6.36733,4.7112 -11.74539,10.71913 -13.02413,14.54949 -0.43322,1.29768 -0.39608,1.77923 0.22786,2.95499 0.30981,0.58379 0.53825,1.22739 0.53825,1.5164 0,0.78342 -0.67166,1.74862 -2.58511,3.71488 l -1.76556,1.81428 12.88833,12.88769 12.88833,12.88768 h 1.0922 c 1.95896,0 2.23139,0.13245 4.42252,2.150085 12.82843,11.81265 68.06,64.174515 70.23276,66.583635 0.72646,0.80548 0.94878,1.51466 0.95081,3.03296 0.002,1.11618 -0.0479,1.35526 -0.40586,1.96415 -0.78228,1.33072 -8.4349,9.1141 -10.65647,10.83857 -1.21849,0.94583 -2.45755,1.35339 -3.51358,1.1557 z"
       id="path4414" /><path
       style="fill:#29e92e;fill-opacity:0.774351;stroke:none;stroke-width:1"
       d="m 748.57284,90.205499 c -1.20864,0.22626 -1.90924,0.5888 -2.82273,1.46071 -4.45506,4.25222 -55.94636,58.639661 -66.82023,70.578551 -1.23212,1.3528 -1.52565,2.05657 -1.52565,3.65783 v 0.98176 l -12.88769,12.88834 -12.88769,12.88834 -1.80443,-1.74923 c -2.82958,-2.74299 -3.35649,-2.98815 -4.9282,-2.29291 -1.04593,0.46266 -1.63247,0.41722 -2.45822,-0.19045 -0.95545,-0.70313 -4.55411,-4.39129 -4.85656,-4.97734 -0.35002,-0.67824 -0.30688,-1.30967 0.14179,-2.07527 0.51356,-0.87631 0.50277,-1.55496 -0.0374,-2.35059 -0.53121,-0.78246 -5.07261,-5.35661 -6.17837,-6.22291 -0.77041,-0.60357 -0.86398,-0.6373 -1.5987,-0.57637 -0.69956,0.058 -0.88519,0.15645 -1.79196,0.95021 -1.60601,1.40587 -7.571,7.29827 -9.29227,9.17918 -2.2429,2.45093 -2.3895,2.75472 -1.86706,3.86911 0.28476,0.6074 4.28774,4.76989 6.0091,6.24853 1.29228,1.11006 1.49578,1.14633 3.16325,0.56376 0.9532,-0.33303 1.18453,-0.36394 1.65936,-0.22168 0.8025,0.24044 2.16438,1.32081 3.66774,2.90959 2.02275,2.13768 2.4373,3.2701 1.71428,4.68288 -0.5236,1.02311 -0.43996,1.4343 0.53756,2.64279 1.98305,2.45162 17.91207,18.21236 22.6756,22.43604 6.11077,5.41826 16.00793,9.35471 24.83244,9.87675 3.72566,0.2204 10.39122,-0.57938 10.39122,-1.24681 0,-0.24875 -0.70303,-0.61228 -3.40458,-1.76052 -4.43881,-1.8866 -7.65325,-3.682 -10.92098,-6.0998 -6.36733,-4.7112 -11.74539,-10.71913 -13.02413,-14.54947 -0.43322,-1.29768 -0.39608,-1.77923 0.22786,-2.95499 0.30981,-0.58379 0.53825,-1.22739 0.53825,-1.5164 0,-0.78342 -0.67166,-1.74862 -2.58511,-3.71488 l -1.76556,-1.81428 12.88833,-12.88769 12.88833,-12.88768 h 1.0922 c 1.95896,0 2.23139,-0.13245 4.42252,-2.15009 12.82843,-11.81265 68.06,-64.17451 70.23276,-66.58363 0.72646,-0.80548 0.94878,-1.51466 0.95081,-3.03296 0.002,-1.11618 -0.0479,-1.35526 -0.40586,-1.96415 -0.78228,-1.33072 -8.4349,-9.114101 -10.65647,-10.838571 -1.21849,-0.94583 -2.45755,-1.35339 -3.51358,-1.1557 z"
       id="path4418" /><path
       style="fill:#000000;stroke-width:0.999999"
       d="m 542.597,359.05241 c -0.50821,-0.28647 -1.42084,-0.76995 -2.02806,-1.07441 -1.36612,-0.68497 -1.98641,-1.40456 -2.55279,-2.96149 -0.24185,-0.66484 -0.59201,-1.62238 -0.77813,-2.12789 -0.18613,-0.5055 -0.51447,-1.09516 -0.72967,-1.31035 -0.56523,-0.56522 -1.5605,-0.49901 -2.20629,0.14678 -0.44047,0.44047 -0.51242,0.65908 -0.39677,1.20552 0.46516,2.1979 0.37915,3.91715 -0.19595,3.91715 -0.16675,0 -0.61309,-0.26673 -0.99186,-0.59274 -0.37877,-0.32602 -1.12831,-0.89076 -1.66563,-1.25499 -1.41733,-0.96077 -1.83317,-1.76468 -2.08649,-4.03367 -0.23097,-2.06866 -0.44434,-2.81784 -0.96712,-3.3955 -0.48055,-0.53099 -1.45004,-0.46162 -2.059,0.14733 -0.41846,0.41846 -0.51461,0.72474 -0.51461,1.6392 0,1.16253 -0.52226,3.29726 -0.80667,3.29726 -0.29148,0 -0.79043,-0.50442 -1.834,-1.85407 -1.85053,-2.3933 -1.75978,-2.11343 -1.76101,-5.43148 -7.7e-4,-2.70723 -0.0404,-3.02696 -0.42042,-3.40692 -0.47319,-0.4732 -1.42429,-0.55017 -1.94323,-0.15724 -0.19036,0.14413 -0.58298,1.01854 -0.87247,1.94313 -0.60184,1.9222 -0.9688,2.52844 -1.42464,2.35352 -0.17464,-0.067 -0.80152,-1.01967 -1.39308,-2.11701 -1.26308,-2.34299 -1.3058,-2.7794 -0.52323,-5.34506 0.90083,-2.95332 0.75009,-3.86997 -0.68053,-4.13836 -0.85465,-0.16032 -1.27663,0.12903 -1.70818,1.17133 -0.43244,1.04443 -1.68607,2.51588 -2.14345,2.51588 -0.30713,0 -0.52683,-0.43944 -1.05837,-2.1169 -0.74157,-2.34023 -0.73731,-3.0184 0.028,-4.46111 1.35264,-2.54974 1.64638,-3.22718 1.64774,-3.79998 0.002,-0.78648 -0.16364,-1.04943 -0.90137,-1.43217 -0.83544,-0.43343 -1.29077,-0.23327 -2.13146,0.93691 -0.70244,0.97773 -1.80867,1.85555 -2.34054,1.85725 -0.61707,0.002 -0.93821,-4.26169 -0.41525,-5.51329 0.15592,-0.37318 0.69115,-1.1485 1.18939,-1.72294 1.04646,-1.20647 2.09126,-2.79038 2.09126,-3.17033 0,-0.4291 -0.90341,-1.30826 -1.48384,-1.44399 -0.42129,-0.0985 -0.74149,0.0417 -1.45303,0.63612 -0.98707,0.82468 -2.31626,1.57102 -2.79789,1.57102 -0.60243,0 -0.57409,-0.64428 0.21091,-4.79654 0.10731,-0.56755 0.58802,-1.05707 2.86001,-2.91237 1.73008,-1.41278 2.06811,-2.03313 1.59231,-2.92217 -0.51901,-0.96977 -1.05883,-1.03403 -2.47871,-0.29506 -1.34827,0.70169 -3.01193,1.06018 -3.23618,0.69733 -0.2084,-0.33718 1.08156,-4.03518 1.6823,-4.82281 0.37352,-0.48969 1.14276,-0.98851 2.48535,-1.61166 2.30292,-1.06885 2.82843,-1.52966 2.82843,-2.48019 0,-1.30063 -0.65862,-1.69957 -2.09657,-1.26995 -1.13379,0.33876 -3.48355,0.3768 -3.67961,0.0596 -0.0771,-0.12477 0.1903,-0.71442 0.59424,-1.31035 0.40394,-0.59592 0.8812,-1.37611 1.06057,-1.73376 0.55667,-1.10991 1.66322,-1.91044 3.00805,-2.17615 3.7003,-0.73113 4.9829,-1.81112 3.93225,-3.31113 -0.29455,-0.42052 -0.48117,-0.46061 -1.93932,-0.41665 -1.47963,0.0446 -2.98183,-0.28481 -2.97301,-0.65197 0.01,-0.40821 2.21488,-3.03661 2.96277,-3.53155 0.81483,-0.53924 1.08047,-0.59188 3.48574,-0.69079 2.5318,-0.1041 2.61761,-0.12323 3.10776,-0.69307 1.05938,-1.23159 0.25856,-2.65919 -1.49169,-2.65919 -1.10359,0 -3.036,-0.74878 -3.036,-1.17641 0,-0.15738 0.93474,-0.90053 2.07719,-1.65143 2.32593,-1.52878 2.62647,-1.59024 5.15603,-1.05444 3.02516,0.64079 4.08822,0.29405 4.08822,-1.33345 0,-0.9339 -0.16407,-1.10444 -1.48526,-1.54382 -1.37542,-0.45741 -2.74786,-1.37009 -2.6687,-1.77471 0.0615,-0.31428 1.7376,-1.12594 3.9323,-1.90421 1.02854,-0.36474 0.53715,-0.47943 4.77314,1.11407 1.75754,0.66116 2.42119,0.58935 2.88751,-0.31241 0.53326,-1.03123 0.40512,-1.39759 -0.80027,-2.28807 -1.23098,-0.90938 -2.23594,-2.00165 -2.23594,-2.43022 0,-0.33003 0.45813,-0.52966 1.22267,-0.53276 0.30768,-0.002 1.03113,-0.14772 1.60769,-0.32549 1.78108,-0.54917 2.63477,-0.27795 5.32157,1.69069 1.45396,1.06534 2.98254,1.02785 3.57959,-0.0878 0.20728,-0.38729 -0.34605,-1.38447 -1.87092,-3.37173 -0.22121,-0.28828 -0.43115,-0.71283 -0.46654,-0.94346 -0.0593,-0.38613 0.0932,-0.43081 1.92737,-0.5647 2.84225,-0.20747 3.17691,-0.0753 5.36693,2.11998 2.02669,2.03154 2.69703,2.37311 3.55454,1.81125 1.02231,-0.66985 1.06931,-1.19389 0.22961,-2.56091 -0.41382,-0.67371 -0.89854,-1.64293 -1.07716,-2.15383 -0.42194,-1.20687 -0.20624,-1.44688 0.99495,-1.10707 0.48939,0.13845 1.53072,0.42997 2.31405,0.64783 0.78332,0.21786 1.62101,0.57216 1.86138,0.7873 0.24045,0.21516 1.02765,1.29888 1.7493,2.40827 0.72165,1.10941 1.4307,2.09042 1.5757,2.18002 0.81156,0.50156 2.50945,-0.3008 2.50945,-1.18587 0,-0.20626 -0.1802,-0.83219 -0.40052,-1.39097 -0.58164,-1.47578 -0.77221,-2.94844 -0.3999,-3.0913 0.39983,-0.15343 4.14617,1.6223 4.7189,2.2367 0.25259,0.27092 0.75776,1.34162 1.1227,2.37934 1.13185,3.21839 1.70058,3.78572 3.1063,3.0984 l 0.76292,-0.37303 -0.0692,-2.06657 c -0.11565,-3.43755 0.1072,-3.67655 1.93434,-2.07413 0.6246,0.54772 1.38006,1.16519 1.67899,1.37215 0.78212,0.54162 1.19647,1.47924 1.40157,3.17183 0.37831,3.12169 0.84737,4.10433 1.95909,4.10433 1.16658,0 1.508,-0.43161 1.6633,-2.10287 0.11373,-1.22343 0.49058,-2.45775 0.88687,-2.90489 0.16437,-0.18544 3.07119,2.9828 3.3509,3.65228 0.23937,0.57292 0.2748,1.28405 0.16553,3.32701 l -0.13886,2.59834 0.54544,0.54542 c 1.03987,1.03994 2.42846,0.4863 2.76488,-1.10241 0.19811,-0.93515 1.06968,-2.8877 1.37268,-3.07496 0.38438,-0.23757 0.73895,0.2801 1.79272,2.61779 1.10795,2.45756 1.10342,2.1538 0.0858,5.80509 -0.57496,2.06323 -0.47437,2.6801 0.51401,3.15142 1.09266,0.52104 1.74077,0.15007 2.58545,-1.47978 0.73894,-1.42583 1.56057,-2.35139 1.90076,-2.14116 0.26596,0.16438 1.49847,4.10545 1.49847,4.79151 0,0.28255 -0.51824,1.54147 -1.15175,2.79758 -1.28815,2.55454 -1.39473,3.2157 -0.63981,3.97064 0.89863,0.89864 1.44207,0.70329 3.23433,-1.16264 0.88602,-0.92248 1.7712,-1.67725 1.96708,-1.67725 0.50932,0 0.63358,0.74441 0.5343,3.20091 -0.0982,2.42712 -0.25436,2.83159 -1.82007,4.71302 -1.31559,1.58078 -1.70212,2.33712 -1.48657,2.90886 0.35364,0.93797 1.98429,0.79729 4.18467,-0.36102 1.92366,-1.01267 2.00004,-0.89947 1.46643,2.17445 -0.43487,2.50544 -0.59148,2.88423 -1.44215,3.49002 -0.82124,0.58476 -1.28223,1.83862 -1.28223,3.48744 0,1.57152 0.21808,1.78482 1.2694,1.24122 0.37293,-0.1929 1.11264,-0.36483 1.64371,-0.38207 0.9123,-0.0297 0.96241,-0.002 0.90869,0.49279 -0.0927,0.85387 -1.4881,3.61357 -2.20967,4.36995 -0.36778,0.38553 -1.56941,1.15514 -2.67036,1.71025 -2.26424,1.14168 -2.68358,1.65691 -2.29828,2.82416 0.35871,1.08684 1.01988,1.31079 2.61518,0.8857 1.66462,-0.44355 2.81022,-0.46189 2.96922,-0.0476 0.14516,0.37821 -2.0875,3.95458 -2.73269,4.37731 -0.2552,0.16719 -1.5432,0.60344 -2.86232,0.96946 -1.31919,0.36602 -2.56362,0.81475 -2.76534,0.99718 -0.48904,0.44215 -0.46645,1.55113 0.0453,2.2012 0.37454,0.4762 0.59178,0.53286 2.40647,0.62779 1.82484,0.0954 2.63279,0.33961 2.63279,0.79557 0,0.38172 -2.50468,2.56543 -3.51919,3.06815 -0.89409,0.44306 -1.55104,0.57877 -3.4007,0.70239 -2.80676,0.18759 -3.35328,0.45922 -3.35328,1.66677 0,1.04493 0.62536,1.5713 2.26662,1.90769 1.56149,0.32007 2.55586,0.74043 2.55386,1.07961 -7.7e-4,0.15002 -0.91007,0.86242 -2.02048,1.58312 -2.28575,1.4835 -2.51875,1.52549 -5.52546,0.99586 -2.37681,-0.41868 -2.65768,-0.40144 -3.25922,0.20012 -0.62168,0.6217 -0.69768,1.77938 -0.1477,2.25075 0.2018,0.17296 0.98899,0.60029 1.74938,0.94963 1.36322,0.62634 2.36713,1.43597 2.17202,1.7517 -0.0553,0.089 -0.40551,0.2269 -0.77898,0.30651 -0.37347,0.0796 -1.19786,0.39012 -1.83206,0.69002 -1.69351,0.80081 -3.00118,0.74107 -5.19917,-0.23754 -2.53742,-1.12973 -3.68026,-1.01232 -4.11736,0.42299 -0.20325,0.66736 0.16991,1.24603 1.79672,2.78616 0.79188,0.74969 1.43976,1.47063 1.43976,1.6021 0,0.28089 -0.33573,0.36803 -2.75035,0.71394 -0.99384,0.14237 -2.03163,0.20123 -2.3062,0.1308 -0.27464,-0.0705 -1.44276,-0.74373 -2.5959,-1.49623 -2.39925,-1.56574 -3.1501,-1.72467 -3.86345,-0.8178 -0.65334,0.83056 -0.55674,1.55437 0.31929,2.39405 1.43746,1.37777 2.29451,2.90932 1.79932,3.21538 -0.0948,0.0586 -1.31474,-0.0191 -2.71093,-0.17263 -2.83835,-0.31215 -3.22042,-0.49013 -4.55883,-2.12346 -0.97539,-1.19034 -2.3148,-2.18851 -2.93663,-2.18851 -0.64688,0 -1.57163,0.91696 -1.57163,1.55834 0,0.29155 0.31314,1.02723 0.69575,1.63485 1.27225,2.02012 1.4443,2.88684 0.57304,2.88684 -0.681,0 -4.16858,-0.97687 -4.67703,-1.31003 -0.27109,-0.17762 -0.92396,-1.06484 -1.45082,-1.9716 -1.7059,-2.93596 -2.59666,-3.53059 -3.83251,-2.55848 -0.65201,0.51288 -0.64758,0.87402 0.042,3.42657 0.37401,1.38446 0.40055,2.41354 0.0622,2.41354 -0.0837,0 -0.56806,-0.23438 -1.07626,-0.52085 z"
       id="path4584" /><path
       style="fill:#ffd42a;fill-opacity:0.660714;stroke-width:0.999998"
       d="m 768.74168,240.05796 -15.99162,-16.71938 11.94681,-12.05434 -27.0149,-23.81678 9.19458,-9.86753 c -15.00046,-10.76839 -29.3402,-22.8034 -42.48104,-32.06728 l -9.48108,9.06427 c -10.27098,9.81939 -11.90229,11.39099 -11.90838,11.47375 10.27542,7.32634 20.59866,12.10226 31.80704,20.0792 l -12.25183,11.95688 35.82664,19.7985 -13.03731,12.63359 z"
       id="path4602"
       sodipodi:nodetypes="ccccccscccccc" /><path
       id="rect4503"
       style="fill:#c83737;fill-opacity:0.774351;fill-rule:evenodd;stroke:none;stroke-width:0.529166;stroke-linecap:round"
       d="m 718.76787,126.40207 c -18.52084,0.0192 -37.0431,-0.0623 -55.5625,0.19727 -5.70486,0.87425 -9.95568,6.81462 -9.14848,12.49062 0.006,16.80455 -0.0737,33.61048 0.16606,50.41367 0.93495,5.69713 6.89743,9.93204 12.57812,9.09375 18.15153,-0.006 36.30586,0.0887 54.45508,-0.18359 5.66288,-0.93901 9.84484,-6.86399 9.04492,-12.50781 -0.0236,-16.80468 0.0797,-33.61085 -0.17578,-50.41407 -0.86258,-5.26617 -6.04096,-9.37534 -11.35742,-9.08984 z" /><rect
       style="fill:#c83737;fill-opacity:0.774351;fill-rule:evenodd;stroke:none;stroke-width:0.529166;stroke-linecap:round"
       id="rect4501"
       width="70.1632"
       height="66.100441"
       x="657.09686"
       y="129.46071"
       ry="8"
       rx="8" /><path
       id="ellipse628-4"
       style="fill:#1426d2;fill-opacity:0.629984;fill-rule:evenodd;stroke-width:0.529169;stroke-linecap:round"
       d="m 686.51703,172.05965 a 1.1586438,1.2027824 0 0 1 -1.15866,1.20278 1.1586438,1.2027824 0 0 1 -1.15864,-1.20281 1.1586438,1.2027824 0 0 1 1.15866,-1.20276 1.1586438,1.2027824 0 0 1 1.15864,1.20279 z m 0.72464,-4.22516 a 4.0700433,4.2250917 0 0 0 -4.07002,4.22523 4.0700433,4.2250917 0 0 0 4.07001,4.22506 4.0700433,4.2250917 0 0 0 3.89528,-3.00312 l 5.7852,-2e-5 -10e-6,1.51877 c 4e-5,0.22297 0.17982,0.40219 0.40238,0.4024 l 0.52489,-4e-5 c 0.22295,-1.4e-4 0.40278,-0.17895 0.40259,-0.40239 v -1.51875 l 0.74174,5e-5 v 1.51877 c 3e-5,0.22295 0.17981,0.40216 0.40236,0.40238 l 0.52488,-4e-5 c 0.223,-4e-5 0.40222,-0.17983 0.40243,-0.40239 v -1.51876 h 0.53923 c 0.22297,-1.3e-4 0.40222,-0.17983 0.40242,-0.40238 l -2e-5,-1.80824 c -3e-5,-0.22299 -0.17982,-0.40222 -0.40239,-0.40243 h -9.77813 a 4.0700433,4.2250917 0 0 0 -3.84288,-2.83411 z m -11.10735,-5.82679 32.16806,1e-5 c 0.44499,1e-5 0.80322,0.35821 0.8032,0.80319 l 3e-5,18.49745 c -2e-5,0.44498 -0.35824,0.80318 -0.80322,0.80321 l -32.16807,-1e-5 c -0.44497,-2e-5 -0.80319,-0.35822 -0.80321,-0.80322 l 2e-5,-18.49743 c 10e-6,-0.44498 0.35823,-0.80319 0.80317,-0.8032 z m 16.08391,-18.79268 a 13.831452,13.831452 0 0 0 -13.83142,13.83143 l -10e-6,3.45797 4.26207,-2e-5 -3e-5,-3.45795 a 9.5694342,9.5694342 0 0 1 9.56939,-9.56938 9.5694342,9.5694342 0 0 1 9.56975,9.56938 h -3.6e-4 l -2e-5,3.45796 4.26206,-1e-5 3e-5,-3.45795 a 13.831452,13.831452 0 0 0 -13.83146,-13.83143 z" /><path
       id="ellipse628-4-8"
       style="fill:#000000;fill-opacity:1;fill-rule:evenodd;stroke-width:0.529169;stroke-linecap:round"
       d="m 76.179987,91.916597 a 0.8202692,0.8515174 0 0 1 -0.820286,0.851516 0.8202692,0.8515174 0 0 1 -0.820263,-0.851537 0.8202692,0.8515174 0 0 1 0.820274,-0.851501 0.8202692,0.8515174 0 0 1 0.820275,0.851522 z m 0.513005,-2.991229 a 2.8814128,2.9911803 0 0 0 -2.881388,2.991279 2.8814128,2.9911803 0 0 0 2.881388,2.991158 2.8814128,2.9911803 0 0 0 2.757692,-2.126078 l 4.095661,-1.4e-5 v 1.075223 c 2.3e-5,0.157852 0.127299,0.284732 0.284859,0.284881 l 0.371601,-2.8e-5 c 0.157838,-1e-4 0.285149,-0.12669 0.285022,-0.284875 v -1.075208 l 0.525119,3.5e-5 v 1.075222 c 2.3e-5,0.15784 0.127299,0.284712 0.284848,0.284868 l 0.371589,-2.8e-5 c 0.157885,-2.9e-5 0.284755,-0.127312 0.284906,-0.284874 v -1.075216 h 0.381757 c 0.15785,-9.3e-5 0.284755,-0.127312 0.284894,-0.284869 l -1.1e-5,-1.280154 c -2.4e-5,-0.157867 -0.127311,-0.284755 -0.284883,-0.284903 h -6.92248 a 2.8814128,2.9911803 0 0 0 -2.720597,-2.006426 z m -7.863509,-4.125113 22.773578,8e-6 c 0.315028,7e-6 0.568642,0.253596 0.56863,0.568622 l 2.3e-5,13.095387 c -1.1e-5,0.315027 -0.253625,0.568617 -0.568641,0.568638 l -22.77359,-7e-6 c -0.315028,-1.4e-5 -0.56863,-0.253604 -0.568642,-0.568645 l 1.2e-5,-13.095373 c 1.2e-5,-0.315026 0.253613,-0.568622 0.568618,-0.56863 z M 80.216191,71.495859 a 9.7920638,9.7920638 0 0 0 -9.792044,9.792048 l -1.2e-5,2.448092 3.017362,-1.5e-5 -2.3e-5,-2.448077 a 6.7747413,6.7747413 0 0 1 6.774717,-6.774703 6.7747413,6.7747413 0 0 1 6.774961,6.774703 h -2.55e-4 l -1.2e-5,2.448085 3.01735,-8e-6 2.3e-5,-2.448077 A 9.7920638,9.7920638 0 0 0 80.216191,71.495859 Z M 61.015459,61.758401 h 38.34518 c 3.137661,0 5.663651,2.525988 5.663651,5.663651 v 35.468918 c 0,3.13766 -2.52599,5.66365 -5.663651,5.66365 h -38.34518 c -3.137666,0 -5.663643,-2.52599 -5.663643,-5.66365 V 67.422052 c 0,-3.137663 2.525977,-5.663651 5.663643,-5.663651 z m 46.160931,25.271605 c 4.2e-4,4.896474 -0.006,9.792764 7.2e-4,14.689104 0.56629,3.99557 -2.39437,8.19017 -6.40342,8.85494 -4.210604,0.0631 -8.421508,0.0966 -12.632679,0.11558 l 24.761219,13.68375 -9.22995,8.94386 30.71904,6.73926 -11.32112,-11.8366 8.45765,-8.5341 -19.12536,-16.86114 6.50951,-6.985836 c -3.98446,-2.86032 -7.903,-5.847046 -11.73563,-8.808852 z M 34.491831,97.170908 c -0.0879,-0.0028 -0.189709,0.0036 -0.319752,0.0143 -0.495252,0.04107 -0.626431,0.110842 -1.268392,0.672792 -1.136981,0.995294 -5.360069,5.16693 -6.57865,6.49853 -1.587878,1.73515 -1.691667,1.95015 -1.321803,2.7391 0.201591,0.43 3.035416,3.377 4.254067,4.42381 0.914868,0.78588 1.059214,0.81157 2.239706,0.39914 0.674827,-0.23578 0.838572,-0.25767 1.174735,-0.15695 0.568132,0.17022 1.532103,0.93493 2.596414,2.05971 1.43202,1.51338 1.72575,2.31511 1.213879,3.3153 -0.370686,0.72433 -0.311565,1.01539 0.380472,1.87095 1.403913,1.73563 12.680995,12.89378 16.053351,15.88396 4.326159,3.83589 11.332671,6.62247 17.580033,6.99206 2.637596,0.15603 7.356805,-0.41028 7.356805,-0.88279 0,-0.1761 -0.497986,-0.43317 -2.410561,-1.24608 -3.142483,-1.33563 -5.418032,-2.60675 -7.73144,-4.31845 -4.507785,-3.33531 -8.315136,-7.5887 -9.220426,-10.30041 -0.306701,-0.91869 -0.280389,-1.25952 0.161335,-2.09191 0.219334,-0.41329 0.380843,-0.86916 0.380843,-1.07376 0,-0.55463 -0.475321,-1.23805 -1.829956,-2.63007 l -1.250105,-1.28413 7.351685,-7.35131 c -0.360715,1e-5 -0.721453,-4.9e-4 -1.082168,-3.7e-4 -3.084173,0.45513 -6.279106,-1.20592 -7.902654,-3.82236 l -4.770269,4.77064 -1.27754,-1.23839 c -2.003221,-1.94192 -2.376015,-2.11546 -3.488711,-1.62327 -0.74048,0.32754 -1.155742,0.29522 -1.74033,-0.135 -0.676415,-0.49777 -3.224118,-3.10893 -3.438229,-3.52383 -0.2478,-0.48015 -0.217399,-0.92722 0.100292,-1.46923 0.363576,-0.62039 0.356071,-1.10061 -0.02629,-1.66387 -0.376083,-0.55395 -3.591237,-3.792224 -4.374058,-4.405527 -0.409066,-0.320477 -0.548548,-0.414006 -0.812191,-0.42255 z M 121.20588,27.120796 v 3.68e-4 c -0.0213,4.25e-4 -0.0432,0.0028 -0.0656,0.0057 -1.1465,0.188303 -2.16377,0.82467 -3.19018,1.338271 -2.41834,1.384125 -4.72682,3.026386 -6.65475,5.047219 -2.16471,2.363215 -4.03577,5.303237 -4.1015,8.604346 -0.0116,0.54395 0.0298,1.080758 0.11523,1.608257 l -0.28756,1.814237 c -0.58681,3.703206 -1.15898,5.042242 -3.52421,8.249475 -0.26899,0.36476 -2.45087,2.622107 -5.571103,5.804888 0.361954,-2.76e-4 0.723897,7e-6 1.085839,-3.69e-4 3.763804,-0.202121 7.429904,2.707027 8.040574,6.435238 0.0104,0.683504 0.0172,1.367064 0.0259,2.050574 3.14218,-3.079644 5.54211,-5.41195 5.82244,-5.617944 2.10582,-1.547387 4.64975,-3.027476 6.34013,-3.68846 1.71584,-0.670951 5.12146,-1.682897 5.66367,-1.682897 7e-4,0 0.001,-3.68e-4 0.002,-3.68e-4 2.42372,0.318014 4.93484,0.05869 7.11645,-1.085098 1.67401,-0.837003 3.0007,-2.263103 3.82237,-3.935777 0.92832,-1.713595 1.57601,-3.578783 1.79045,-5.521359 0.3717,-3.018202 0.37248,-6.132699 -0.37353,-9.094944 -0.19242,-0.502954 -0.23343,-1.178536 -0.71303,-1.499602 -0.53142,-0.04503 -0.81147,0.573056 -1.11731,0.910957 -1.97334,2.880434 -3.73502,5.900589 -5.65451,8.81727 -0.35377,0.553601 -0.72645,1.100369 -1.08913,1.651796 -2.05339,0.05162 -4.13118,5e-5 -6.05805,-0.766447 -3.172,-1.16994 -5.74379,-3.85083 -6.96023,-7.001943 0.0166,-0.705421 0.51356,-1.307503 0.77852,-1.944105 1.69033,-3.3075 3.56802,-6.522742 5.11673,-9.900174 0.15915,-0.299176 -0.0408,-0.60531 -0.36,-0.598896 z m -63.858881,0 v 3.68e-4 c -0.528988,0.0028 -0.789781,0.08441 -1.132291,0.300358 -0.943601,0.594923 -1.407503,1.51424 -1.856315,3.67859 -0.226189,1.090727 -0.528131,2.263343 -0.67096,2.605194 -0.370663,0.887112 -1.385163,1.540676 -3.245056,2.090447 -0.88983,0.263027 -2.161939,0.645401 -2.8269,0.849497 -1.877045,0.576136 -7.097597,3.259156 -9.53945,4.903073 -1.213138,0.816719 -2.455726,1.590587 -2.761408,1.719477 -0.790256,0.333213 -2.017697,0.290113 -3.417371,-0.11963 -2.011374,-0.588809 -2.915715,-0.690477 -3.890781,-0.437553 -1.470678,0.381489 -2.239706,1.364245 -2.239706,2.861291 0,1.612497 1.056736,3.190461 4.848916,7.23864 1.370027,1.462503 3.258966,3.599951 4.197366,4.749786 2.41934,2.964453 3.527565,4.227462 4.471015,5.095508 l 0.823158,0.757301 -1.341201,1.245705 c -2.086037,1.937981 -2.686364,3.626026 -1.643386,4.621008 0.534141,0.509566 1.242114,0.8206 1.868012,0.8206 0.630194,0 1.111155,0.579171 1.111815,1.338631 0.0012,1.382094 1.17579,2.45937 2.68165,2.46068 1.189108,6.51e-4 1.567716,0.309051 1.809111,1.471806 0.336707,1.621913 1.024101,2.151238 3.137503,2.416779 0.966462,0.121435 1.099505,0.266658 1.240956,1.35107 0.214852,1.64728 1.025525,2.360448 2.683109,2.360448 0.544113,0 1.123826,0.09825 1.288149,0.21841 0.07806,0.05706 0.166165,0.215354 0.253162,0.42401 1.73e-4,-4.522298 0.0046,-9.044503 0.0035,-13.566687 -0.571467,-4.018353 2.437788,-8.223947 6.476586,-8.842877 7.568356,-0.106083 15.137498,-0.129677 22.706629,-0.134994 l -0.144508,-0.197562 0.02918,-0.828642 c 0.02397,-0.676855 -0.231644,-1.478651 -1.392401,-4.365648 -1.627358,-4.047485 -2.222485,-5.237369 -3.137144,-6.276458 -0.644022,-0.731651 -2.219925,-1.688793 -3.134933,-1.903871 -0.839232,-0.197258 -2.58401,-1.538594 -3.346402,-2.572267 -0.931024,-1.262307 -1.37657,-2.208696 -2.68092,-5.695494 -1.40931,-3.767404 -1.970331,-4.730586 -3.853097,-6.615973 -2.582597,-2.586199 -4.772493,-3.884859 -6.744375,-3.999435 -0.248981,-0.01451 -0.455135,-0.02251 -0.631456,-0.02159 z m 2.348,16.256758 c 0.434671,0.005 0.826192,0.04651 1.167045,0.125854 1.705623,0.397071 2.417556,1.039442 2.795805,2.522143 0.187254,0.734073 0.16833,0.885513 -0.210729,1.689121 -0.785797,1.665906 -1.206132,1.917138 -3.784316,2.262027 -4.73116,0.632898 -7.413343,1.85219 -9.732611,4.42491 -0.685239,0.760126 -1.447747,1.483424 -1.694238,1.607167 -2.270036,1.139569 -4.892299,-0.733258 -4.644059,-3.316768 0.114537,-1.191915 0.716833,-2.269793 1.930202,-3.453956 1.3187,-1.286958 2.519678,-2.103841 4.511259,-3.067986 3.70677,-1.794534 7.31436,-2.820702 9.661642,-2.792512 z" /></g></svg>
